<?xml version="1.0" standalone="no"?>
<!DOCTYPE svg PUBLIC "-//W3C//DTD SVG 1.1//EN" "http://www.w3.org/Graphics/SVG/1.1/DTD/svg11.dtd" >
<svg xmlns="http://www.w3.org/2000/svg">
<metadata>
This is a custom SVG webfont generated by Font Squirrel.
Copyright   : Copyright c 2012 by Curve Agency Limited All rights reserved
Designer    : Peter McClory
Foundry     : Peter McClory
Foundry URL : curveagencycom
</metadata>
<defs>
<font id="PosteerRegular" horiz-adv-x="422" >
<font-face units-per-em="1000" ascent="722" descent="-278" />
<missing-glyph horiz-adv-x="200" />
<glyph unicode=" "  horiz-adv-x="200" />
<glyph unicode="&#x09;" horiz-adv-x="200" />
<glyph unicode="&#xa0;" horiz-adv-x="200" />
<glyph unicode="!" horiz-adv-x="243" d="M182 95q-2 -8 -2 -10q0 -10 0.5 -19.5t0.5 -19.5q0 -6 -1.5 -12.5t-0.5 -12.5q2 -7 -0.5 -14.5t-12.5 -5.5q-2 1 -0.5 3t-0.5 4q-2 0 -2 -3t-1 -5q-5 0 -9.5 -0.5t-9.5 -0.5h-20q-5 0 -8.5 1.5t-8.5 0.5q-4 -1 -11.5 -1.5t-15 0.5t-12.5 4t-3 10t1 15t-2 14q-1 4 0 6.5 t2 6.5q0 1 -0.5 9t0.5 8q-2 1 -1.5 11t0.5 14q-1 8 -1.5 16t4.5 15q4 7 15 7h19q4 0 7 -1t7 -1q5 1 9.5 1.5t9.5 0.5q8 0 16 -0.5t17 -0.5q10 -1 10.5 -6.5t2.5 -12.5q1 -4 1 -8t-2 -7q1 -2 1 -3t2 -3zM184 678q2 -8 1.5 -15t-1.5 -15q-1 -7 0 -12.5t-1 -12.5 q0 -7 -0.5 -13.5t-0.5 -13.5q-1 -11 -0.5 -22.5t-2.5 -22.5q-1 -3 -0.5 -8t0.5 -10q0 -2 -0.5 -5t1.5 -6q-3 -3 -3 -8q0 -11 -1 -20.5t-1 -20.5q0 -5 0.5 -10.5t-2.5 -8.5q3 -5 2.5 -11t-1.5 -11q-2 -5 0 -10q0 -3 -1 -4t-1 -5q1 -8 -0.5 -15t-0.5 -15q0 -4 1 -6t-1 -6 q-1 -3 -1 -6.5v-6.5q0 -7 -1 -13.5t0 -12.5q3 -13 -0.5 -26t-1.5 -26q1 -6 -1 -12t-2 -12q0 -8 0.5 -14.5t-0.5 -13.5q-2 -8 -3.5 -12.5t-9.5 -6.5q-7 -2 -13.5 -2h-13.5q-11 1 -25 1t-18 12q-2 8 -2 14.5v14.5t-1 16l-2 16q-1 18 -0.5 36.5t-1.5 36.5q-1 7 -0.5 14t-0.5 14 q-1 5 -0.5 11.5t-1.5 11.5t-1.5 12.5t-0.5 13.5v6.5t2 7.5t0 5t-3 5q-2 7 2 9q-2 5 -2.5 8.5t-0.5 8.5q0 9 0.5 17t-2.5 16q-2 7 0 14.5t0 14.5q-1 5 -1 8v8v7.5t-2 7.5q-3 7 -1 14t2 14q0 4 -2 8t1 7q0 4 -2.5 6t-0.5 5q2 2 1.5 4.5t-1.5 5.5q-1 5 0.5 8t0.5 8q-2 7 -3 15 t0 15t-0.5 14t0.5 14q2 8 10.5 10t15.5 3q5 -1 10 -0.5t10 0.5q4 0 10 -2q9 2 14 1t5.5 -1t4.5 2q3 -1 9 -1q5 -1 11 0q3 2 4 1t4 -3q4 2 10.5 1t7.5 -6q0 -4 4 -4v-12q0 -6 -0.5 -12t-2.5 -11z" />
<glyph unicode="#" horiz-adv-x="462" d="M461 516q8 -6 7 -20t-1 -22q0 -10 -1 -23t-15 -13h-24q-6 -1 -13 1.5t-12 0.5t-10.5 -2t-10.5 -1q-8 -2 -9 -8l-2 -12q-1 -3 -1.5 -12.5t-1.5 -19t-3 -17.5t-5 -9q3 -3 3 -10t-7 -5q0 -2 1 -2.5t3 -2.5q2 -1 1 -3.5t-2 -4.5q-1 -5 -1.5 -10.5t-2.5 -10.5q2 -6 0.5 -12 t0.5 -11q2 -6 9 -3.5t12 0.5q6 -2 12 -1.5t12 0.5q7 1 13 0t13 -1q13 0 14 -10q1 -3 2.5 -13t-0.5 -12q-3 -4 -2 -11t1 -12q-1 -8 -3 -11.5t-9 -8.5q-16 -1 -31 -1.5t-31 0.5q-5 1 -11 1t-11 -4t-5 -8.5t-2 -9.5q-3 -14 -4.5 -26.5t-3.5 -26.5q0 -3 -0.5 -11t-1 -17t-2 -16 t-3.5 -7q-1 0 -2 -8.5t-2 -19t-2 -19.5t-1 -12q-1 -6 -2.5 -11t-9.5 -7q-6 -2 -10.5 -3t-12.5 1q-3 0 -6 0.5t-7 -1.5q-3 -1 -5.5 0t-5.5 1q-6 1 -13 0.5t-12 2.5q-5 2 -6 8t0 13.5t2.5 14.5t1.5 11q0 6 1.5 11.5t2.5 10.5v13t2 13q4 11 4 23.5t2 24.5q2 11 4.5 21.5 t2.5 21.5q0 8 -4 11.5t-9.5 4.5t-12 0t-12.5 -1q-5 0 -15 -2q-6 2 -11 2q-9 0 -11.5 -5t-3.5 -13q-1 -6 -1.5 -12.5t-2.5 -13.5q0 -2 -2 -5t0 -5q2 -3 1.5 -4t-1.5 -5q-4 -16 -4 -31.5t-4 -31.5q-2 -5 -1 -8.5t-1 -8.5t-2 -11t-1 -11q-2 -7 -2.5 -14t-2.5 -12t-6 -8.5 t-13 -4.5q-8 -1 -15 -1h-14q-2 0 -9.5 2t-8.5 0q-2 -3 -9 -1.5t-9 3.5q-4 5 -4 12t1 12v12.5t2 12.5q2 5 2 11.5t2 11.5q3 6 2.5 13t1.5 14q2 6 2 11.5t1 11.5q1 7 2.5 12t0.5 12q-2 5 2 10q0 8 1 12q1 6 2.5 11t0.5 11q-1 4 -1 6t-4 4q-7 3 -15 1q-6 -2 -13 -1t-13 1 q-17 -2 -29 1q-5 3 -7.5 8.5t-3 12.5t0 13.5t0.5 11.5q1 5 0.5 13.5t3.5 12.5q5 5 8.5 6t11.5 1q14 0 28 -1.5t28 0.5q13 2 19 9q1 6 3 12t2 12v11.5t2 11.5q1 3 0 5t0 4q0 5 1.5 9t0.5 9q1 2 5.5 5t-0.5 5q-4 2 -2.5 10.5t2.5 12.5q1 7 2 13.5t1 13.5v7t-5 4q-10 2 -17 2 q-6 1 -13 -1t-13 0q-4 2 -11.5 2.5t-10.5 -0.5q-8 -2 -12.5 1.5t-6.5 10t-2 13.5t1 13v9.5t0.5 12.5t2 11t6.5 7q12 4 26.5 3t27.5 -1q4 0 10.5 -0.5t13 -0.5t11.5 1.5t7 6.5q2 6 1.5 12t1.5 11q3 8 2 14.5t1 14.5q2 6 2.5 12.5t2.5 12.5q1 5 0 9.5t1 9.5q3 13 5.5 26.5 t2.5 26.5q0 8 2 11q-1 4 1 14q1 6 2.5 11t7.5 9q10 6 22 4t23 -1h10.5t12 -1t9 -4t2.5 -10q-1 -13 -1.5 -25t-2.5 -25q-1 -4 -1.5 -5t-0.5 -6q0 -3 -1 -6l-2 -6q-1 -4 -1 -12q0 -5 -1.5 -8t-0.5 -8q1 -7 -0.5 -13.5t-3.5 -12.5q-2 -7 -1.5 -13.5t-0.5 -12.5q-1 -3 -2.5 -9 t-2 -11.5t1 -10.5t6.5 -6q17 4 34 1t34 2q3 5 3.5 10.5t1.5 10.5q1 3 1.5 5.5t1.5 5.5q-2 6 0 14q1 4 1.5 10.5t5.5 8.5q1 1 2.5 1t2.5 2q1 1 1 3.5t-2 1.5t-1 -2t-1 -2t-2 0.5t-2 1.5q0 7 0.5 13.5t1.5 13.5q1 8 2 14.5t2 14.5q2 10 2 15q1 7 2 6t4 2q1 3 -0.5 3.5 t-2.5 2.5q-2 2 -1.5 5t1.5 5q2 5 3.5 10t-1.5 10q2 3 2.5 5.5t2.5 4.5q2 4 4 3.5t6 0.5q7 2 13 1.5t14 0.5q4 0 11 1t14 0.5t12.5 -2.5t7.5 -7q5 -11 3 -20.5t-4 -20.5q-4 -23 -6.5 -44.5t-4.5 -44.5q-1 -11 -2.5 -21.5t-3.5 -21.5q-1 -5 -1.5 -10.5t3.5 -10.5q2 -3 5 -2.5 t6 1.5q5 1 7 -0.5t6 -1.5q3 -1 5.5 0.5t5.5 0.5t6 -0.5t7 0.5q5 0 12 0.5t12 -3.5zM266 319q2 2 2 5t1 5q1 6 1 12t1 12q1 3 1.5 5.5t1.5 5.5q1 2 0 3t-1 3h6q2 1 2.5 3t-1.5 1q-3 0 -5.5 -1.5t-0.5 4.5q2 5 2.5 9.5t-1.5 9.5q5 4 4 8t0 9q2 11 1.5 18t-14.5 7q-5 0 -10 -1 t-10 0q-4 0 -5.5 3t-5.5 4q-1 -2 0 -3.5t0 -3.5q-4 0 -9.5 1t-10 0.5t-8 -3t-2.5 -7.5q1 -3 -0.5 -5t-2.5 -5q0 -3 0.5 -6t-1.5 -6q-2 -5 -2.5 -10.5t-0.5 -11.5q-1 -5 -1 -9.5t-1 -9.5t-1 -9.5t-2 -9.5t-2 -10.5t-3 -10.5q-2 -4 -1 -9.5t0 -10.5q-1 -4 -1.5 -8t1.5 -9 q2 -6 11 -6t14 1q8 0 14.5 0.5t14.5 0.5q4 0 14 -2q2 2 4 4.5t4 5.5q-2 4 0 8t3 8q1 3 0 5.5t0 5.5z" />
<glyph unicode="%" horiz-adv-x="674" d="M637 175q1 -5 0.5 -8t-1.5 -8q-1 -16 0 -31.5t-1 -32.5q-1 -7 -2 -13.5t-3 -13.5q-2 -4 -4 -10q-2 -4 -2 -8q-3 0 -4 -3q-5 -11 -11.5 -18.5t-14.5 -15.5q-7 -7 -14 -9q-6 -2 -12 -5t-11 -5t-11 -2t-11 -2q-8 -2 -13 -3q-6 0 -5 2t-4 4q-4 -2 -2 -4.5t-4 -0.5 q-4 0 -7.5 -0.5t-7.5 -0.5q-4 1 -7 0t-6 0q-10 2 -14 3q-5 0 -9 0.5t-8 0.5q-5 1 -7 4q-3 -2 -5 0q-4 2 -6 3.5t-6 1.5q-5 0 -7 3t-7 3t-7 3.5t-4 5.5q-3 2 -5.5 2t-1.5 5q1 3 -2 1.5t-4 -0.5q-2 3 -3.5 6t-4.5 6q-5 5 -7 11.5t-6 12.5q1 4 0 7t-3 7q-3 6 0 7t4 6q-2 1 -3 0 t-2 -1q-4 -2 -3.5 2.5t0.5 6.5q-1 6 -1 12.5t-1 13.5q2 0 3 -1.5t3 0.5q0 3 -1.5 2.5t-3.5 -0.5q-2 1 -1.5 7t0.5 8q0 7 0.5 14.5t5.5 12.5q-2 4 -3.5 2t-3.5 1q1 3 1 10q0 4 -0.5 10.5t4.5 7.5q1 2 -4 4q-2 1 -1 6.5t1 7.5q0 9 2 16t3 15q1 4 2.5 7.5t2.5 6.5q1 5 0.5 7 t3.5 5q3 3 6 4q-1 2 1 8q2 2 4 4.5t5 2.5q0 4 -0.5 4.5t2.5 3.5q5 5 13 10q10 7 25 13q8 2 15 4t15 4q9 2 17.5 2t17.5 1q4 1 13 1q2 0 8 -2q2 1 9 1q5 -1 9 -2t9 -2t7.5 -0.5t5.5 -2.5q2 -2 4.5 -2t5.5 -1q5 0 13 -6q4 -2 7 -2t7 -3q7 -5 10 -13q5 0 10 -5.5t8.5 -13 t6.5 -15.5t4 -12q4 -3 4 -8.5t2 -10.5q0 -2 0.5 -4t-1.5 -4q5 -5 3 -12q-1 -5 -0.5 -11.5t0.5 -12.5q0 -8 1 -12zM542 118q1 5 0.5 4.5t-2.5 3.5q-1 5 0.5 10.5t-0.5 10.5q2 6 0.5 11.5t0.5 13.5q1 8 0 14t-1 14q0 3 1.5 5t0.5 5t-2.5 6t-2.5 6q0 8 -4.5 12t-11.5 6 q-8 3 -14.5 2.5t-14.5 0.5q-5 1 -11.5 -1.5t-11.5 0.5q0 -5 -6 -7.5t-8 -7.5q-2 -4 -2.5 -13t-4.5 -9q-1 -2 1.5 -2.5t1.5 -2.5q-1 -4 0 -7.5t0 -7.5q-1 -7 -0.5 -12.5t-0.5 -12.5q0 -4 1 -7.5t1 -7.5q0 -5 -1.5 -5t-3.5 -2q-2 -3 0 -3.5t4 -1.5q3 -3 0.5 -7t-3.5 -6 q2 -2 3 -1.5t1 -4.5q-1 -6 0 -13q2 -8 4 -12q3 -3 4 -3q-2 -3 1 -6q0 2 6 -0.5t8 -3.5q15 -3 28 -2q16 2 28 7q3 7 6 13t4 14q1 2 0.5 5t0.5 5zM143 393q-7 2 -14.5 3t-14.5 4q-1 0 -5 1.5l-8 3t-6.5 3t-0.5 3.5q-4 1 -3.5 0t-4.5 2q-4 3 -8 5.5t-8 6.5q-4 8 -10.5 14 t-8.5 15q-1 5 -6 12.5t-1 12.5q2 4 3.5 4t5.5 -2q5 -2 2.5 3t-2.5 7q-4 -4 -8 -4q-7 7 -6 14q1 6 -1.5 13t6.5 5q1 3 -0.5 3.5t-3.5 1.5q-4 1 -3.5 6.5t0.5 8.5t-0.5 5.5t-1.5 5.5q0 5 1.5 8.5t0.5 8.5q-1 2 0 4t1 4q1 5 0 8.5t-2 8.5q0 3 1 5t1 4q1 5 0 10t0 10q2 7 2 13.5 t2 13.5t5.5 13t5.5 14q7 12 19 26q2 2 5 4.5t5 4.5q5 4 8 4.5t8 2.5q6 3 10 7l10 2l10 2q8 2 16 3l16 2q8 2 14.5 1t14.5 -1q16 0 31 -4q3 -1 6.5 -1h6.5q5 -2 8.5 -3.5t7.5 -3.5q8 -2 12.5 -5t11.5 -8q13 -7 19 -16q3 -4 6.5 -10t0.5 -11q5 1 6.5 -1.5t2.5 -7.5 q2 -5 4 -9.5t2 -9.5q0 -4 2 -8t1 -9q0 -3 -3 -4q-2 -2 0 -6q-4 -4 1 -4q3 -3 3 -8q0 -4 -0.5 -8t0.5 -8q-2 -1 -7.5 -1.5t-2.5 -4.5q2 -3 5 -0.5t5 0.5q-2 -5 -1.5 -11.5t1.5 -11.5v-13q-1 -4 0 -6.5t0 -6.5q-2 -5 -1 -10.5t0 -11.5q-1 -8 -2 -13.5t-3 -12.5q-2 -4 0 -8 t-3 -8q-2 -2 -1 -3.5t0 -3.5t-2.5 -3.5t-2.5 -4.5q0 -4 -1 -4t-5 -3q2 -6 -3 -11q-2 -5 -6.5 -7.5t-6.5 -7.5q-2 -2 -6.5 -4t-7.5 -6q-2 0 -3.5 1t-3.5 1q-4 -8 -10 -10q-11 -6 -23.5 -7.5t-24.5 -4.5q-28 -5 -59 2zM163 648q-16 -7 -25.5 -19t-4.5 -31q2 -5 1 -9t-1 -9 q-1 -6 -0.5 -12.5t1.5 -12.5t-1.5 -6t-2.5 -5q5 -5 3 -14q0 -3 0.5 -12.5t-1.5 -9.5q2 -6 5.5 -15t11.5 -9q4 0 6 -2.5t6 -3.5q6 -2 11.5 -1t10.5 1q11 2 18.5 3.5t14.5 9.5q4 6 6 14v9t2 9q1 8 -0.5 14t0.5 13q0 6 5 1q2 -1 1.5 2t-3.5 3q-2 0 -3.5 3t1.5 3q5 1 2.5 2 t-3.5 3q-2 8 -1 14t0 14v15q0 5 -1.5 8t-0.5 8q-7 16 -25 20q-5 1 -10 1.5t-10 0.5q-4 0 -6.5 0.5t-6.5 -0.5zM365 332q3 -2 1 -5.5t-5 -1.5q0 -8 -4.5 -16.5t-9.5 -15.5l-3.5 -7t-3.5 -6q-1 -2 -4 -5q0 -5 -2 -7q-2 0 -1.5 2.5t-2.5 1.5q-2 -2 0.5 -4.5t0.5 -6.5 q-6 -8 -10.5 -16.5t-9.5 -17.5q-9 -17 -19 -33.5t-18 -33.5q-2 -4 -5 -5.5t-4 -6.5v-8q-4 -1 -6 -7q-2 -4 -3.5 -8t-5.5 -7q-2 -2 -3 -6t-4 -7q-1 -2 -3 -5.5t-4 -3.5q-3 1 -6 -0.5t2 -3.5q3 -1 2 -5.5t-3.5 -9.5t-5.5 -8.5t-5 -3.5t-4 -0.5t1 -2.5q4 -2 0.5 -6t-5.5 -6 q-1 -8 -8 -16q-3 -4 -3.5 -7.5t-3.5 -8.5q-2 -4 -4.5 -6.5l-5.5 -5.5q-4 -4 -6.5 -4.5t-7.5 -3.5q-4 1 -8.5 1.5t-7.5 -2.5q-4 2 -13 2q-4 0 -12 -1t-15.5 0t-12.5 4t-4 11q2 8 6.5 14.5t6.5 14.5q2 4 5 7t5 8q1 1 5.5 7t3.5 0q2 0 3 1.5t4 0.5q0 3 -3.5 6.5t2.5 3.5 q-2 6 2.5 14t7.5 13q2 2 4 7q1 4 2.5 6t3.5 6q1 6 6 4q3 -2 3.5 -0.5t2.5 3.5q-2 2 -5 1t0 6q2 4 5 7t5 8q2 3 5 4.5t1 4.5q-2 2 2.5 9t6.5 9q5 11 10.5 21t11.5 21q2 4 6 10q2 3 2 4.5t2 5.5q1 4 6 3q2 0 4 1t1 4q-1 2 -2.5 2.5t-0.5 2.5q2 3 4.5 3t1.5 5q-1 3 2 7.5l5 7.5 t2.5 2t1.5 4q0 2 1 4.5t2 4.5q3 5 5.5 9t4.5 9t5.5 8.5t5.5 8.5q1 3 1.5 5t2.5 4q2 3 2.5 2t2.5 4t4 10.5t7 10.5q2 -2 6.5 -2.5t4.5 4.5q-2 2 -3.5 0.5t-3.5 0.5q-1 3 1 10q5 2 6 9t7 6q-2 6 2 9.5t3 9.5q2 0 5.5 -3t3.5 2t-1.5 8.5t5.5 5.5q3 2 6.5 2.5t5.5 3.5q2 5 4.5 4 t-1.5 6q0 -5 -4.5 -8t-8.5 2q5 5 7.5 11.5t5.5 11.5q6 9 9.5 19t9.5 19q2 2 2.5 3t2.5 3q2 3 2 5.5t2 5.5t4 7.5t5 6.5q4 2 4.5 5.5t2.5 7.5q3 5 5 9.5t5 8.5q0 1 3.5 6t1.5 5q1 4 3.5 6t3.5 6t4 7t5 8l4 8l4 8t4.5 7t3.5 8q0 5 4 6q4 2 4 4.5t2 5.5q2 5 4.5 9.5t4.5 8.5 q3 5 4.5 8t7.5 1q1 4 -1 7t1 6q2 1 4.5 -0.5t2.5 3.5q0 2 -3 5q2 2 4 8q2 4 4 6t3 6q2 9 9.5 11.5t15.5 3.5h23q2 0 4.5 -0.5t4.5 -0.5q2 -1 2.5 0.5t2.5 1.5q3 -3 4 -5q1 4 7 5t11.5 -1.5t9 -7t-0.5 -10.5q-8 -14 -14.5 -28.5t-15.5 -28.5q-5 -8 -8.5 -15.5t-8.5 -15.5 q-2 -4 -4 -6.5t-4 -6.5q-2 -5 -4 -6t-2 -7q-6 -7 -9 -15.5t-9 -14.5q-1 -7 -6 -13q-1 -2 -1.5 -2.5t-1.5 -2.5q-2 -1 -3 0t-2 0q4 -8 -1 -12.5t-6 -12.5q-7 -6 -9.5 -14.5t-9.5 -13.5q0 -5 -2 -8t-5 -7q-2 -5 -4 -9t-5 -8q-7 -8 -10 -17.5t-8 -17.5q-6 -8 -6 -14 q-5 -3 -6.5 -6.5t-3.5 -8.5q-1 -3 -2.5 -6t-5.5 -5q-2 -5 -4 -8.5t-4 -8.5q-4 -8 -9 -15.5t-8 -15.5h-4q-2 0 -2.5 -1t1.5 -2z" />
<glyph unicode="&#x26;" horiz-adv-x="587" d="M551 153q-1 -5 0.5 -10t0.5 -10q-2 -8 -1.5 -14.5t0.5 -13.5q0 -8 -2 -14.5t-2 -14.5q0 -7 -2 -10q-3 -3 -3 -4t-1 -5q-2 -5 -4.5 -8.5t-3.5 -8.5q-2 -5 -5.5 -7.5t-5.5 -7.5q-6 -6 -12.5 -10.5t-13.5 -9.5q-3 -2 -6.5 -4t-6.5 -4q-2 0 -3 1t-3 1q-2 -3 -6 -4t-8 -3 q-11 -2 -22 -2.5t-22 1.5q-6 2 -12.5 3t-12.5 3q-5 2 -10 5t-10 3q-6 8 -14.5 12t-15.5 11q-8 8 -18 0q-5 -3 -10 -5.5t-10 -7.5q-8 -7 -18.5 -9.5t-18.5 -7.5q-10 -5 -21.5 -5.5t-21.5 -2.5q-5 -2 -9 0t-5.5 1.5t-5.5 -1.5q-8 -2 -15.5 -1.5t-15.5 2.5q-3 1 -9.5 2t-13.5 3 t-13 4.5t-6 5.5q-3 -2 -8 0.5t-10.5 6.5t-10 8.5l-6.5 6.5t-4 2.5t-4 2.5t-3.5 4t-3.5 4q-4 5 -8 9t-7 9q-4 5 -6 11t-6 11q-3 4 -6 11t-4 12q-1 6 -2.5 12.5t-3.5 13.5q-2 6 -1 12.5t0 12.5q-4 27 2 56q2 8 3 11q0 2 -0.5 3t-0.5 3q3 7 5.5 14t4.5 14q2 5 5 10.5t3 10.5 q5 5 7 11t5 11q4 6 7 12t8 11q3 5 7.5 9.5t6.5 10.5q5 5 10 10.5t10 10.5q7 8 11 12.5t2 15.5q-2 6 -4.5 12t-4.5 12q-2 4 -3 12.5t-5 11.5q-5 3 -4.5 10t-1.5 12q-2 3 -2.5 6t-1.5 7q0 5 -1.5 8t-3.5 8t-1 10t-1 10q-3 10 -3 20q1 4 -1 9.5t2 7.5t1 3t-4 3q0 4 1 8t1 9v12 t1 12q1 11 3.5 20t5.5 18q4 10 7 19.5t10 18.5q7 7 11.5 14.5t11.5 13.5q17 14 34.5 23t40.5 12q5 1 10 1.5t10 1.5t5 -1.5t3 -2.5q3 3 3 4q2 2 5.5 1t5.5 -1q5 -1 10 -1t10 -3q14 1 27 -6q5 -2 8.5 -4t8.5 -5q5 -4 11 -5q2 -5 7 -8q9 -6 14 -12q2 -3 5.5 -7t4.5 -7 q0 -2 3 -4.5t2 -4.5q0 -2 2.5 -7t4.5 -7q4 -5 4 -9.5t2 -10.5q1 -5 3 -9.5t0 -9.5q0 -3 1.5 -5.5t0.5 -7.5t2 -10q0 -3 -1 -4l-3 -3q7 -11 4.5 -23t-4.5 -23t-4 -20.5t-7 -18.5q-3 -5 -4 -11q-1 -4 -2 -5t-3 -5q-3 -5 -6 -9.5t-6 -9.5q-1 -5 -6 -10q-3 -2 -3 -4t-2 -6 q-5 -2 -8.5 -6.5t-6.5 -9.5q-3 -4 -6.5 -8.5t-8.5 -6.5q-2 -5 -5.5 -9t-8.5 -7q-4 -3 -6.5 -7.5t-6.5 -7.5t-8 -6.5t-6 -8.5q-2 -4 0 -9t5 -10.5t5.5 -10t2.5 -8.5q0 -5 3.5 -8t5.5 -8t4 -9.5t2 -9.5q4 -5 6 -11t4 -11t5 -10t5 -11q2 -3 6 -9.5t8 -4.5q5 3 6 9t3 12 q2 7 3.5 13t3.5 13q2 6 2 14t2 13t1.5 10t2.5 9q2 4 1 10.5t0 11.5q0 4 1 12t5 9q5 2 5 4q3 0 6 1t6 1q5 0 11 -1.5t12 -1.5h13t13 2q4 1 6.5 0t5.5 -2q4 0 7 1t7 -1q1 -2 2.5 -4.5t3.5 -5.5v-9v-25v-11q0 -2 -2 -2t-4 -1q1 -4 3.5 -4t0.5 -5q-2 -4 -2 -8v-8q-1 -6 -2 -13.5 t-8 -10.5q4 -2 3.5 -9t-2.5 -10q-3 -5 -3 -10t-2 -11q-2 -5 -4 -11.5t-4 -11.5q-3 -6 -4.5 -12.5t-4.5 -11.5q-2 -3 -3 -8.5t-5 -6.5q2 -5 -2.5 -7.5t-3.5 -7.5q1 -4 -1 -4t-3 -3q-2 -2 -1 -4t-1 -4q-4 -5 -3.5 -10.5t4.5 -9.5q5 -6 16 -12t19 -1q10 7 11 18q1 8 1.5 15.5 t0.5 15.5q1 5 0.5 11t2.5 11q3 6 11 6t13 1q5 0 13.5 1t17.5 1t16.5 -2t10.5 -7q4 -10 3 -19zM213 589q-4 -26 1.5 -53t13.5 -51q1 -2 3 -9t7 -4q3 2 5 5t4 5t2.5 4t2.5 4q2 3 3.5 4t3.5 5q1 3 2.5 6t3.5 6q1 2 1.5 4t1.5 4q4 0 6 1l-2 4t0 4q11 22 12 48t-11 47 q-6 10 -17 12.5t-21 -3.5q-11 -7 -16 -18.5t-6 -24.5zM192 115q11 -8 27.5 -9t28.5 3q3 5 8 7t2 10q-2 5 -5.5 9.5t-4.5 9.5q0 3 -4.5 8.5t-6.5 8.5q-3 5 -1 4.5t1 2.5q-3 1 -4.5 3.5t-3.5 4.5q-1 5 -5 9q-3 3 -3.5 5.5t-2.5 5.5q-3 4 -4 8t-2 6l-3 6q-2 7 -5.5 12.5 t-5.5 12.5q-1 2 -2 6t-3 7t-4.5 3.5t-5.5 -2.5q-5 -5 -8 -11.5t-5 -12.5q-2 -5 -6 -13.5t-2 -12.5q1 -5 -1 -7t-1 -7t1 -8q0 -17 4 -32q6 -22 27 -37z" />
<glyph unicode="," horiz-adv-x="188" d="M152 86l0.5 -5.5t0.5 -12.5v-14v-8q-1 -6 -0.5 -12t-0.5 -13t-3 -14t-3 -15q0 -4 -1 -7.5t-3 -8.5q0 -2 -2 -3.5t-1 -3.5q2 -4 -1 -8l-12 -26t-14 -25q-4 -5 -7 -8.5t-10 -3.5q-2 -2 -0.5 -3.5t-0.5 -3.5q-2 -1 -5 -1t-6 -1q-5 -2 -8 3q-5 -3 -11 -3h-15t-13 5 q-3 4 -1.5 8.5t4 9t5.5 9t3 7.5q6 4 9 9q0 7 1 9l3.5 3.5l3.5 3.5q1 3 0.5 5t2.5 5t3.5 9t2.5 10q5 10 -4 15q-5 2 -9 0.5t-9 0.5q-3 1 -4.5 0t-3.5 1q-5 3 -7 10q-3 9 -1 21q2 5 1 8t1 8q0 2 -2 3.5t0 3.5q1 1 2.5 1t1.5 2q-4 4 -4.5 10.5t2.5 11.5q1 2 -0.5 5t-1.5 6 q1 5 0.5 9.5t-0.5 9.5q0 9 3 16.5t14 8.5q5 1 10 1h10q4 0 9 -1.5t9 0.5q5 2 11.5 1t12.5 -1h12q2 0 8 -2q4 2 7 1q9 -1 10 -7t2 -13t0.5 -14t-4.5 -13q1 -2 1 -0.5t2 1.5z" />
<glyph unicode="-" horiz-adv-x="319" d="M275 378q-2 -11 -1 -20.5t0 -20.5q0 -8 -4 -15q-2 -5 -6 -5.5t-9 -2.5q-5 1 -9 2t-9 -1q-3 -1 -8.5 0.5t-8.5 -1.5q-12 3 -24 1.5t-24 -0.5q-5 0 -10 0.5t-10 -0.5t-11 -0.5t-6 5.5q-10 -5 -20.5 -5h-21.5q-9 1 -21 -0.5t-20 2.5q-6 4 -8 14q-2 4 -0.5 7.5t0.5 7.5 q-1 6 -0.5 12t1.5 12q0 5 -1.5 12.5t0.5 11.5q5 8 15 11t22 3t23.5 -1.5t19.5 -1.5q4 0 11 1t10 -1q2 -2 7.5 -0.5t9.5 1.5q5 -1 10.5 -1.5t10.5 1.5t11.5 0.5t11.5 -0.5q5 2 8 1t8 0h8t8 -1q5 -2 5.5 -0.5t4.5 1.5q5 0 10 -0.5t7 -2.5q5 -4 6.5 -6.5t2.5 -8.5q1 -3 0 -5 q-2 -3 -1 -3t2 -3z" />
<glyph unicode="." horiz-adv-x="188" d="M144 46q0 -5 6 -13q4 -6 2 -15q0 -6 -5 -9q-3 -2 -2 -2t2 -2q1 -3 -5.5 -4.5t-16 -2t-18 -0.5t-9.5 1q-6 2 -14 1t-13 -2t-15 -1t-14 3q-6 6 -6.5 14t-0.5 16q1 11 0.5 21.5t-0.5 21.5q0 10 0.5 19.5t0.5 19.5q1 5 0.5 10.5t3.5 7.5q2 2 5.5 2.5t6.5 1.5q18 1 36 -0.5 t36 0.5q5 1 12 0.5t12 -5.5q4 -3 2 -4.5t-1 -5.5q2 -4 2.5 -7.5t0.5 -8.5q1 -5 0.5 -9t-0.5 -8q0 -3 1 -8t0 -7q-2 -4 -1.5 -12t0.5 -13q-2 -2 -4 -0.5t-4 0.5z" />
<glyph unicode="0" horiz-adv-x="409" d="M378 417q0 -4 2 -12q-1 -5 -1.5 -8.5t0.5 -8.5q2 -17 1 -34.5t0 -34.5v-15.5t-2 -14.5q-2 -5 0.5 -10t-0.5 -12q-2 -3 -1 -11t2 -12t0 -7t0 -8q0 -3 1 -6.5t-5 -2.5q6 -5 4.5 -15t-0.5 -17q1 -8 0 -16t-1 -16q1 -5 -0.5 -8.5t-0.5 -8.5v-9t-1 -9q-2 -10 -5.5 -18 t-6.5 -17q-5 -18 -18 -35q-5 -5 -9.5 -13t-12.5 -10q-2 -2 -5 -5.5t-6 -5.5q-5 -3 -9.5 -4.5t-8.5 -5.5q-8 -6 -20.5 -9.5t-22.5 -5.5q-5 -1 -10 -0.5t-10 -0.5t-9.5 -2t-9.5 -1q-5 -1 -10 1t-10 -1q-5 2 -10 2h-10q-5 1 -9.5 2t-9.5 3q-9 -2 -17 3q-3 2 -6.5 3.5t-6.5 2.5 q-6 2 -10 4t-9 5q-16 10 -28.5 22.5t-20.5 29.5q-5 9 -9 18t-7 19q-5 11 -6 22q0 5 -1.5 11t1.5 10q-2 2 -3 2q-1 1 0.5 4t1.5 5q0 6 -1.5 11.5t0.5 12.5q2 6 0.5 13t-1.5 14v15q1 2 2.5 1.5t3.5 1.5q-1 2 -3.5 1t-2.5 5q-1 5 -1 9.5v9.5q0 7 2 17q-2 4 -2 7.5t1 7.5t-0.5 7 t-0.5 7q0 5 0.5 9t0.5 9v19q0 5 -1.5 11t1.5 10q3 -2 3.5 -4.5t3.5 -3.5q2 0 2 3t2 5t4 3.5t0 3.5t-4 -1.5t-4 -3.5q-5 0 -6.5 4.5t-1.5 10.5t1 11.5t1 8.5q1 9 0 18t-1 18q0 5 -1 9t-1 9q1 5 2.5 9t0.5 9q0 4 -1 7t0 7q2 5 0 9t-1 9q1 4 1.5 6.5t-0.5 7.5q-1 4 0.5 8 t-0.5 6q-2 7 3 12q3 5 0.5 5t-5.5 1q1 5 0 10.5t1 10.5t2.5 10.5t1.5 9.5q1 7 -0.5 12.5t1.5 11.5q2 2 3 4t0 5q2 2 2.5 0.5t2.5 0.5q0 1 -2 3q-2 1 -0.5 4.5t1.5 5.5q3 11 7 20q9 19 23 35q12 13 28 26q2 1 3 2t3 2q4 2 6 2t6 1q2 1 6.5 -0.5t4.5 -0.5q1 5 1.5 6.5t6.5 3.5 q4 1 7 3t8 3q3 0 10 1t15 2t14.5 1t8.5 -2q5 2 8.5 1.5t9.5 -0.5q6 -1 12 0t13 -1q28 -3 48 -16h3q3 1 4.5 -0.5l3.5 -3.5q4 -3 7.5 -5t8.5 -5q8 -5 14.5 -13t12.5 -16q3 -4 6 -7.5t5 -8.5q2 -4 3.5 -7.5t3.5 -7.5q4 -7 6 -17q0 -5 2.5 -9.5t3.5 -9.5t0.5 -8t1.5 -8 q1 -5 0.5 -9.5t0.5 -9.5q1 -11 1 -22v-22t-0.5 -22.5t0.5 -23.5q0 -11 1.5 -24t-3.5 -23q0 -2 1.5 -2.5t1.5 -2.5q-2 -8 -2 -14zM254 164q0 5 -0.5 9.5t1.5 9.5q8 -2 4.5 1.5t-4.5 6.5q-2 8 -1 18t1 18q-2 20 0 40q1 10 0 18t0 18v26.5t-1 26.5q7 0 4 1t-4 4q1 3 0 6t0 5 q2 5 0.5 5.5t-0.5 3.5q2 5 1 10.5t-1 12.5q1 3 1 6.5v6.5q1 5 -0.5 7.5t-0.5 7.5q1 3 2.5 5t-0.5 6q-2 6 -2 9v10q2 5 1 5.5t-3 5.5l2 4t1 4q-1 5 0.5 4.5t2.5 4.5q-4 2 -4.5 7t4.5 6q-3 2 -3 6v7q0 2 -0.5 3.5t-0.5 3.5q0 1 1.5 0.5t1.5 1.5q-5 0 -4 6t1 8q2 6 1 10.5 t-1 10.5q-1 7 -0.5 14t-1.5 14t-6 12t-8 11q-3 5 -13 7.5t-16 4.5q-5 1 -14.5 -1t-12.5 -5q-2 -2 -8 -4q-2 -4 -3 -5.5t-5 -3.5q-2 -2 -2 -4v-5q-1 -5 -2.5 -8l-3.5 -7q-3 -4 -1 -10q-2 -3 -2 -6.5v-7.5q2 -5 3.5 -12t-1.5 -12q-2 -2 -3 -4t-1 -5q2 -3 3.5 -1t0.5 -5 q0 -8 0.5 -15t-0.5 -14q-1 -9 -0.5 -18t0.5 -18q2 -18 -3 -33q0 -2 1.5 -3t1.5 -3v-19q0 -8 -0.5 -15.5t-2.5 -15.5q5 -2 4 -7t-5 -7q2 -2 4 -5t-1 -5q-1 -1 -1 -7v-7q2 -3 2.5 -8.5t-1.5 -9.5q-1 -4 0 -8.5t1 -9.5q0 -3 -1 -7t0 -7q4 -10 1 -18q-2 -2 -1 -5t-1 -7 q5 -4 3 -10.5t-1 -11.5v-11.5t-1 -11.5q-5 -2 -6 -3t4 -4t4 -6t-6 -3q-3 -1 -2 -3t1 -4q2 -2 2.5 -0.5t2.5 1.5l2 -22q1 -8 1.5 -15.5t1.5 -9.5q6 -16 23 -24q4 -2 8 -2.5t9 -1.5q2 -1 5 -0.5t5 -1.5t6 1q6 6 15 6q-1 3 5 7.5t8 6.5q3 4 4 9t3 10q2 6 0 13q2 3 2 10z" />
<glyph unicode="1" horiz-adv-x="275" d="M227 108q1 -10 -2 -22q-1 -6 0.5 -12.5t1.5 -12.5q-1 -2 -1 -5t-2 -5q2 -2 2 -9q0 -6 -0.5 -12t0.5 -12q0 -6 -1.5 -10.5t-7.5 -6.5q-3 -2 -6 -1.5t-5 -0.5q-5 -2 -6 -0.5t-5 3.5q-2 -1 -2 -2.5t-2 -2.5q-4 3 -11 1q-8 0 -11 1q-5 2 -4.5 0.5t-3.5 -1.5q-12 0 -27 -0.5 t-25 6.5q-5 3 -6 9.5t-1 14.5t1 15.5t1 12.5q0 2 -1 5t-1 5t1.5 4.5t1.5 5.5q0 2 -1 4t-1 4v17q0 7 0.5 12t-0.5 12q-1 4 1 10.5t0 8.5q-2 5 -1.5 10.5t1.5 10.5q2 8 -0.5 14t-0.5 13q1 7 0 13t0 12q2 6 1.5 12t-1.5 12q-2 14 -0.5 28.5t0.5 28.5v14t1 14q0 5 -1 12t2 12 q-2 16 -1 32t-1 32v5t2 4t0.5 4.5t-1.5 4.5q-1 6 0 12.5t0 12.5t-0.5 11.5t-0.5 11.5q0 8 4 10q0 3 -2 5.5t-2 5.5t0.5 10.5t0.5 15.5t-2 13t-8 4q-13 -3 -23 -9q-6 -3 -13 -5t-12 -6q-8 -5 -18 -7.5t-16 6.5q-2 2 -2.5 9t1.5 10q2 4 -2 7q0 4 2.5 5.5t4.5 4.5q-3 1 -5 0 q-3 -1 -2.5 4t0.5 7q1 5 1.5 11t-1.5 11q-2 6 -0.5 11t-0.5 11l2 8t3 7q11 13 28.5 20.5t31.5 17.5q3 2 7.5 3.5t6.5 3.5q4 4 7 5t7 5q3 3 12.5 10t13.5 5q2 0 4 2q2 5 1 5.5t4 3.5q2 2 3.5 3t3.5 3q6 4 5.5 1t4.5 -3q6 -1 2.5 2t-2.5 4q0 2 5 4t5 0q3 -1 2 -2.5t0 -3.5 q1 -3 4 0q0 4 -1 5t4 2t17.5 0t11.5 -8q5 2 3.5 4.5t3.5 0.5q2 0 4 0.5t4 0.5q6 -1 7.5 -7.5t1.5 -11.5q1 -7 0.5 -13.5t-0.5 -13.5q-1 -9 0.5 -17.5t0.5 -16.5q0 -2 -0.5 -8t-2.5 -8q4 -10 3 -22q-1 -13 0.5 -24.5t-0.5 -23.5q-1 -5 0 -12t-2 -12q2 -2 2 -4.5t1 -4.5 q1 -3 -1 -4t-2 -3q6 -12 2 -25.5t1 -24.5q1 -2 -0.5 -3t-1.5 -3q1 -5 1 -15v-36v-16t-1 -16q-2 -3 -3 -2.5t-1 -3.5q0 -5 0.5 -4.5t4.5 -0.5q0 -7 0.5 -13.5t-0.5 -13.5q0 -4 -1 -7t0 -6q0 -3 1 -6t0 -6q0 -7 0.5 -13.5t0.5 -13.5q0 -8 -1 -15.5t0 -15.5v-14.5t-2 -14.5 q-2 -5 -0.5 -10t1.5 -11q0 -14 1 -29t0 -30q-1 -2 -2 -6t1 -6q1 -2 2 -3t1 -3q-3 -5 -2.5 -11t1.5 -11z" />
<glyph unicode="2" horiz-adv-x="399" d="M368 576q4 -10 1.5 -20t-1.5 -20q-2 -3 -6 -3q5 -5 4 -9t-3 -9q-2 -6 -2 -12.5t-2 -11.5q-2 0 -3.5 5t-3.5 1q-2 -3 0.5 -6.5t1.5 -7.5q-2 -5 -3.5 -10t-3.5 -10t-3.5 -9.5t-4.5 -9.5q-5 -8 -7 -19q-5 -3 -6.5 -7t-3.5 -9q-4 -10 -10.5 -18.5t-10.5 -18.5q-2 -5 -5 -9 t-5 -9q-3 -5 -4.5 -9.5t-5.5 -8.5q-8 -8 -12.5 -18.5t-9.5 -19.5q-6 -11 -12 -21t-11 -21q-4 -3 -6 -7l-4 -8q-1 -4 -5 -10q-2 -2 -2.5 0t-2.5 2q0 -2 2 -3t-0.5 -4.5t-2.5 -4.5q-2 -5 -4.5 -11.5t-6.5 -9.5t-5.5 -8.5t-3.5 -9.5q-3 -6 -6 -11.5t-6 -11.5q-2 -5 -3.5 -10 t-4.5 -9q-2 -3 -4.5 -7.5t-1.5 -7.5q1 -8 11 -10q3 -1 4 -4.5t6 1.5q3 5 7.5 5t9.5 -1q6 -1 12.5 0.5t11.5 -0.5q5 -1 11.5 -1.5t11.5 1.5q6 3 12.5 0.5t12.5 -2.5l20 2t20 0q9 -1 22 0t17 -10q3 -12 2 -20q-1 -7 0 -13.5t-1 -12.5q3 -8 1 -21q-1 -6 0.5 -12.5t0.5 -11.5 q-5 -19 -27 -17q-5 0 -15 2q-5 2 -8.5 0t-8.5 -2q-13 0 -25.5 1t-25.5 -1q-5 -1 -7.5 0.5t-7.5 0.5q-5 0 -9.5 1t-9.5 0q-13 -2 -25.5 -1.5t-25.5 0.5h-13t-13 -1q0 -1 -3 2t-2 2q-2 2 -3.5 4.5t-3.5 4.5q-3 -2 0 -5t-1 -6q-3 -3 -8.5 -1t-9.5 1q-2 0 -11.5 -1t-20 -1 t-18.5 1t-7 4q-3 -4 -10.5 -4t-9.5 4q-4 6 -4 13.5v13.5q-1 5 5 9q0 2 -2.5 3t-1.5 5q2 2 4 2.5t2 2.5q-1 4 -3.5 2t-4.5 0q5 8 4.5 17.5t1.5 18.5q2 10 4.5 20.5t5.5 20.5q4 11 8.5 22t9.5 21q4 6 5 10q1 5 1.5 4.5t2.5 3.5q1 2 1 5t1 5q2 2 4.5 2.5t3.5 2.5q-1 2 -4 1 q6 8 7 14q2 5 4 7t4 6q4 5 5.5 12.5t8.5 10.5q-2 8 3 13.5t8 11.5q2 6 6.5 12.5t8.5 12.5q3 8 9 11q1 5 3 8t4 7q2 3 3.5 6l3.5 7t3.5 6t3.5 6l4.5 4.5t1.5 4.5t2.5 7t5.5 7q1 3 3.5 8.5t5.5 11.5t6.5 10.5t6.5 4.5q-1 4 1.5 6t4.5 6q2 2 2 5q2 2 2 0t2 0q-2 3 -1.5 6t5.5 0 q4 -4 1.5 2.5t-1.5 7.5q0 4 5 6q0 6 2 10q2 2 2 3.5t2 3.5q3 2 3 4.5t2 4.5q4 4 4.5 10t2.5 11q2 3 3 3.5t2 4.5t1 8t1 8q2 6 3 10.5t1 10.5q1 5 1.5 11.5t4.5 11.5q-4 1 -6 7q0 1 3 4.5t0 3.5t-5 6t0 9q-2 2 -2 0q-2 -1 -3.5 1.5t-2.5 4.5q-3 3 -6.5 5.5t-7.5 4.5 q-5 2 -9.5 3t-9.5 2q-2 0 -4.5 0.5t-4.5 0.5q-2 1 -2 3t-2 2q-2 -1 -1.5 -3t-1.5 -3q-3 -2 -6 -2.5t-6 -2.5q-6 -3 -9 -6.5t-8 -7.5q-4 -4 -5 -12t-3 -13q-1 -2 -2 -6t1 -6q3 -4 1 -9t-0.5 -10.5t0.5 -10.5q0 -7 1 -14t0 -12q-2 -10 -8 -16q-4 -3 -9 -4.5t-4 5.5 q-2 0 -2.5 -1.5t-2.5 -2.5h-15h-31h-27q-4 1 -4.5 2.5t-4.5 -0.5t-7 1.5t-5 6.5q-3 4 -1.5 9.5t1.5 10.5q-1 2 -2 4.5t1 4.5l2 3l-1 3q-1 6 -2 10.5t0 10.5q2 8 0.5 16.5t0.5 16.5q0 3 1 6t1 6q1 2 0 4.5t0 4.5q0 2 1.5 3.5t2.5 3.5q2 3 1.5 6.5t0.5 6.5q2 8 9 18 q3 5 5.5 11.5t7.5 11.5q8 7 14.5 16t15.5 14l8 6t9 2q5 0 4.5 4t6.5 1q-2 7 3.5 5.5t9.5 -2.5q2 2 0 3t-2 3q2 2 6.5 2t5.5 2q2 2 11 4t12 1q0 -3 -2.5 -3.5t-2.5 -2.5q5 -1 8 -2t1 6q-1 3 1.5 4t6 1t7.5 -0.5t5 -0.5q1 -3 0 -5t1 -6q2 2 3.5 4t3.5 4q0 2 -2 2.5t-1 2.5 q5 0 10.5 -0.5t10.5 -1.5q5 0 8 -1q6 -1 4.5 -2.5t2.5 -4.5q2 1 1.5 3t1.5 3q2 2 5 0t4 -5q2 -1 2 0.5t2 2.5q4 1 3.5 -2.5t0.5 -4.5q3 -1 3.5 1.5t4.5 2.5q4 -1 5 -2t5 -1q7 -1 12 -5.5t11 -6.5q8 -2 15.5 -9t13.5 -12q16 -13 22 -30q4 -4 7 -6q0 -5 1 -7q2 -5 4 -8.5 t4 -7.5q1 -5 3 -13q1 -2 1 -3t1 -3q2 -4 1 -4.5t-2 -4.5q3 -3 3.5 -6.5t0.5 -6.5q1 -2 1 -3.5t1 -3.5q1 -4 0 -5t0 -4z" />
<glyph unicode="3" horiz-adv-x="389" d="M359 188q0 -7 0.5 -13t-1.5 -13q-2 -8 -0.5 -15.5t-0.5 -15.5t-3.5 -14.5t-2.5 -14.5q-1 -5 -2.5 -9.5t-3.5 -9.5q-3 -10 -10.5 -22t-15.5 -18q-11 -8 -19 -17.5t-21 -14.5q-6 -2 -11 -5t-11 -5q-8 -2 -16 -5t-16 -5q-6 -1 -13 -1.5t-14 0.5q-7 -1 -14.5 -2t-14.5 2 q-14 5 -28.5 4.5t-25.5 9.5q-6 -2 -10 2t-9 7q-3 2 -5.5 3.5t-5.5 3.5q-4 2 -5.5 3.5t-3.5 4.5q-5 5 -9 8.5t-8 9.5l-15 24q-2 4 -3.5 8.5t-1.5 8.5q-1 6 -4 10t-2 11q0 6 -2.5 11.5t-2.5 12.5q0 6 1 13t-1 13q-3 11 1 20q0 6 -0.5 11.5t-0.5 10.5t1 10.5t4 9.5t13.5 4.5 t15.5 0.5q11 -1 22 0t22 0h11t13 -1t11 -4t5 -10v-29q0 -7 -1 -15t1 -13t0 -8q2 -4 4 -12q2 -7 5 -13.5t9 -9.5q5 -3 12 -6.5t14 -2.5q5 1 12.5 2t12.5 5q5 5 8.5 8t6.5 9t6 13t3 15q0 6 0.5 12.5t-1.5 12.5q-1 7 0 13t1 13q0 8 -0.5 14t0.5 14q0 2 -1 5.5t1 4.5q2 2 2.5 3 t-2.5 3q-2 2 -1.5 8.5t0.5 8.5q0 5 -1 10t-3 10q-3 8 -8 16q-5 5 -8 7q-1 2 1 2t1 2h-5q-5 0 -5 1q-4 0 -4 3q-5 -2 -7 1q-4 2 -10 0q-2 -1 -3.5 0.5t-5.5 1.5q-3 0 -6.5 1t-6.5 1q-4 1 -7.5 -0.5t-7.5 -0.5q-6 2 -8.5 9.5t-3.5 12.5q-1 6 0.5 13t1.5 14q-1 8 -1.5 17 t0.5 17q0 6 1.5 12t8.5 8t15.5 3.5t16.5 0.5q11 -2 22.5 3.5t18.5 14.5q7 8 8 16.5t2 18.5q1 11 2 20.5t0 20.5q-2 10 1 17q-2 4 -1.5 8t0.5 8t-1.5 7t0.5 7t-0.5 7.5t0.5 6.5q0 2 -1.5 4.5t-1.5 4.5q-1 4 -2.5 7l-3.5 7q-1 1 -3 5t1 4q5 -2 4.5 2.5t-2.5 6.5q-3 -2 -4.5 -5 t-6.5 -1q-4 2 -7.5 4.5t-8.5 1.5t-9.5 0t-9.5 -1q-10 -4 -15 -9q-8 -7 -11.5 -15.5t-5 -18t-1.5 -19.5t-1 -19q0 -4 0.5 -8.5t0.5 -9t-1.5 -8t-7.5 -5.5q-10 -3 -20 -2t-19 1q-6 0 -18 -1.5t-23 -1t-19.5 4.5t-8.5 14q0 5 -0.5 10t-0.5 10t1.5 9t-0.5 9q-2 4 0 8.5t0 9.5 q-1 5 2 8.5t1 7.5q-2 2 0 4t0 5q-2 5 0 10l4 10q3 3 2 7t1 6t4 5q2 5 3 8.5t5 8.5q4 4 6 8l4 8q4 5 7.5 9t7.5 8q8 8 18 15.5t21 11.5q5 2 10 3t8 5q5 0 10.5 1t10.5 3q6 2 12 2h12q2 0 6 1t4 -1q0 -1 -1 -2.5t1 -2.5q3 -1 3 1t2 4t4 0t4 -2q3 -1 5 1q2 -4 4 -4q3 2 6 -1 q2 -2 4 -3.5t4 0.5q1 3 -4 5q-3 0 -4 2.5t3 2.5q5 -1 14.5 -3t11.5 -6q8 2 14.5 -2.5t14.5 -6.5q5 -2 14 -7t11 -11q2 -2 4 -0.5t4 -2.5q4 -4 7 -7.5t6 -7.5q2 -2 3 -5t3 -5q4 -5 1 -4t-3 -2q2 -2 5.5 0.5t5.5 -3.5q2 -5 4 -8t4 -8t3 -12t3 -13q4 -15 4 -33q0 -6 -1 -11.5 t0 -10.5q1 -2 0.5 -4t-0.5 -5q0 -4 1 -7.5t1 -7.5q0 -3 -1.5 -5.5t-1.5 -5.5q0 -4 2 -12q2 -7 1.5 -14.5t-1.5 -14.5q-1 -13 0 -25q1 -6 -1 -11.5t-3 -10.5q-2 -13 -9.5 -22.5t-12.5 -20.5q-6 -4 -7 -6q-2 -3 -4 -3.5t-5 -2.5q-4 -3 -8 -7.5t-1 -9.5q5 -5 10 -9l10 -8 q2 -7 7 -11.5t9 -10.5q4 -8 7 -11q2 -4 1.5 -5.5t1.5 -4.5q3 -6 4 -11t2 -12q3 -14 3 -26q0 -6 -1 -11t0 -10q2 -14 1 -27t1 -27z" />
<glyph unicode="4" horiz-adv-x="396" d="M385 228q1 -7 3.5 -18.5t-2.5 -16.5q-2 -4 -1 -7.5t1 -7.5q0 -7 -3.5 -3t-5.5 1q8 -6 2 -13q-2 -4 -9 -5t-11 -1q-8 -1 -18.5 0t-10.5 -10q1 -9 0 -17q-2 -5 0 -10.5t0 -10.5q-2 -6 -1.5 -10.5t2.5 -10.5q-3 -3 -3.5 -2.5t0.5 -4.5q1 -2 1 -5t1 -6q-5 4 -8 0.5t3 -3.5 q3 0 4.5 -3.5t1.5 -8t-0.5 -9t-0.5 -6.5q0 -6 -0.5 -13t-2 -14t-5.5 -11t-12 -4q-15 1 -29.5 1.5t-28.5 -1.5q-7 -1 -12.5 0t-12.5 2q-10 1 -11.5 4.5t-5.5 11.5q-2 5 -0.5 12t0.5 13q-1 8 0 15t1 15q-1 8 0 16t-1 15v10q2 4 3 5q-2 4 -2 8q-1 6 -0.5 12t-0.5 12 q-2 8 -9.5 9t-13.5 1q-8 0 -16.5 -0.5t-16.5 -1.5h-13q-7 1 -5 2t0 3q-5 -3 -6 -3.5t-6 1.5q-5 -2 -11 -3t-12 0q-7 0 -13.5 1t-13.5 0q-3 0 -5 -1t-5 0q-4 2 -12 2q-5 0 -11.5 -0.5t-13 0t-11 3.5t-5.5 10q-2 6 -0.5 12t1.5 12q0 1 1 3.5t2 4.5v1q1 1 1 2q-1 -1 -1 -2v-1 q-3 3 -4 13t4 10q-3 3 -4 11t0 11q3 9 5.5 17.5t6.5 16.5q4 7 7 12.5t5 13.5q1 4 3 6t3 6q1 7 5 14q3 6 5.5 12.5t4.5 12.5q2 3 3.5 6.5t4.5 6.5q-2 8 5 11q1 4 0 4.5t1 2.5q3 3 4 8t2 8q2 5 4.5 8.5t4.5 8.5q2 4 2.5 7t2.5 7q4 6 5.5 13t6.5 12q-1 3 0.5 5t2.5 5 q1 4 2.5 4.5t3.5 4.5q1 1 4 2t1 3q-3 3 -2 4.5t3 5.5q3 8 6.5 15.5t5.5 15.5t5.5 14.5t6.5 13.5q2 5 4 8t3 8q0 5 6 13q2 3 2.5 6.5t2.5 6.5q1 2 5 4q-2 3 0 7q1 2 2 4.5t2 4.5q4 -1 6 2l4 6q-1 2 -2.5 0t-3.5 -2l1 4t3 8.5t4 8.5t2 5q1 3 2 5.5t3 5.5q2 4 3 8t3 8 q4 7 6.5 14.5t6.5 14.5t9.5 11.5t14.5 5.5t18 -0.5t19 0.5q5 1 9 1.5t9 -1.5q5 -1 11 0t11 0h10t7 -3q5 -6 5 -16v-15v-8q1 -5 0 -5t-3 -5q0 -2 3 -2q1 -1 0.5 -5t-0.5 -6q-1 -8 -0.5 -14.5t0.5 -14.5q2 -14 0 -28q-1 -2 -4 -3.5t5 -0.5q1 -5 -0.5 -7.5t-0.5 -7.5q1 -4 1 -8 v-9q0 -4 -0.5 -8t-1.5 -9q-1 -4 0.5 -6t1.5 -6q1 -5 -2 -5.5t-1 -4.5q4 -10 4 -16q0 -4 -1 -7.5t-1 -7.5q1 -5 2 -10.5t-1 -11.5q0 -5 -1 -12t1 -10q2 -2 0.5 -8t-1.5 -8q0 -7 1 -10q1 -5 0.5 -5t-2.5 -4q-2 -6 1.5 -13t1.5 -13q-5 -17 -2 -33q2 -9 1 -18t0 -18v-19 q0 -5 -1 -9.5t1 -8.5q2 -2 0.5 -4.5t-2.5 -4.5q-2 -2 1.5 -5.5l5.5 -5.5q4 2 8 0.5t8 -1.5q5 0 10.5 -1t10.5 1q6 1 6.5 -3t3.5 -3q1 -5 1 -5.5t3 -3.5q2 -3 0.5 -9.5t-1.5 -10.5zM168 263q5 -1 8.5 -0.5t8.5 0.5q4 0 7.5 -0.5t6.5 0.5q6 1 7.5 4t6.5 3q0 2 -2 2.5t-2 2.5 q2 5 0 15q0 7 1 11q2 4 0 4.5t-1 5.5q0 2 1 4.5t1 4.5q2 5 0.5 7t-2.5 6q0 3 1.5 6t-0.5 7q2 2 4.5 3t-1.5 3q-5 2 -4 13.5t1 16.5q1 10 1 19v18q0 2 -0.5 7t-0.5 10.5t-1 9.5t-3 4q-5 -2 -6 -6.5t-6 -6.5q0 -7 -1.5 -14t-7.5 -12q0 -8 -4 -14t-5 -14q-6 -8 -9 -18t-8 -19 q-2 -4 -2.5 -7.5t-2.5 -7.5t-4 -7t-3 -8q-1 -8 -6.5 -16.5t-7.5 -16.5q-3 -8 -1 -17q5 -3 9.5 -3.5t9.5 0.5q5 0 9 1t8 -1z" />
<glyph unicode="5" horiz-adv-x="396" d="M366 243q0 -5 1 -8t-1 -8q-1 -5 -1.5 -10.5t0.5 -10.5t1.5 -8.5t-1.5 -8.5q-2 -10 2 -17q-2 -4 -3 -7q2 -4 1 -8q0 -5 -1.5 -10.5t-1.5 -10.5q1 -5 -0.5 -8.5t-1.5 -8.5q1 -5 0 -9.5t-3 -9.5q-2 -4 -3 -8t-3 -9t-4 -7.5t-3 -7.5q-2 -4 -4.5 -7t-4.5 -6q-4 -5 -3 -4t-4 1 q-2 -14 -10.5 -21t-18.5 -15q-11 -9 -24.5 -13t-26.5 -8q-5 -2 -11 -2t-11 -2q-3 -1 -5 -2t-5 1q-2 2 -5.5 0.5t-7.5 -1.5q-3 1 -4 1.5t-4 -1.5q-2 -2 -7 -0.5t-8 1.5q-8 2 -16 2t-16 2q-13 3 -29 9q-6 1 -13 5q-5 6 -14 10q-4 2 -10 6.5t-8 8.5q-4 6 -9.5 11t-8.5 12t-8 9 q0 6 -3 12t-6.5 11.5t-2.5 12.5q0 8 -3 14.5t-3 14.5q1 3 1 6.5v6.5q-1 6 0 6.5t5 3.5q-3 1 -5 3q-4 4 3 6q-5 3 -4.5 7.5t1.5 9.5q1 7 0.5 9t4.5 7q4 3 -1 2t-5 0q0 2 0.5 7.5t1.5 7.5l5.5 5.5t5.5 -0.5q3 -5 3 -2v5q0 1 6 1.5t13.5 0t14 -1t7.5 0.5q2 2 8.5 1t8.5 -1 q5 0 10.5 0.5t10.5 -0.5q8 0 16 -3q6 -4 6 -9.5v-11.5q-2 -14 2 -23q0 -2 -1 -3.5t-2 -3.5q2 -6 2 -10q1 -5 0 -9t3 -9q1 -6 2 -10.5t6 -9.5q14 -16 33 -17t34 13q6 6 9 15.5t3 17.5q2 6 4 8q-1 4 -2.5 4.5t0.5 4.5q2 6 0.5 11.5t0.5 10.5q1 5 0 11t0 11q2 6 0 11t0 11 q2 8 -0.5 20t3.5 20q-6 8 -3.5 17.5t1.5 17.5q-2 5 2 9q-1 2 -2 3.5t-1 4.5q4 11 1 24q2 2 4 0.5t4 0.5q-2 2 -2.5 3.5t-2.5 3.5q-3 2 -4.5 0t-2.5 3q-2 6 -3 12t-6 10q-4 4 -11 7.5t-13 3.5q-5 1 -12 -0.5t-12 -3.5q-5 -3 -9.5 -6t-9.5 -7q-5 -5 -6.5 -11.5t-5.5 -12.5 q-3 -2 -5 -4l-4 -4q-5 -1 -10.5 -1h-10.5q-8 1 -16.5 2t-16.5 1q-9 0 -14 -1q-3 3 -5 3.5t-6 -0.5q-5 -2 -12 2t-9 9q-2 8 -1.5 15.5t1.5 15.5q0 4 -0.5 14t1.5 12q3 3 0 3q-2 1 -0.5 7t1.5 8q0 3 0.5 6.5t-0.5 6.5q-1 5 0 7.5t1 7.5q0 3 -0.5 14t1.5 11q6 2 5 2t-6 1 q1 5 1 9t1 8q0 6 1 9q0 2 -1.5 4.5t0.5 4.5q3 5 -1 11q2 5 2 9.5t1 9.5v16t1 17q0 4 -1 7q0 2 1.5 2t3.5 2q-2 3 -3 3q-2 2 -1 4.5t1 4.5v19.5t1 19.5q1 6 -0.5 17.5t2.5 16.5q-2 4 -2 7.5t1 8.5q0 5 1 8q0 5 1 4.5t4 2.5q1 5 -0.5 6t5.5 4q5 2 10 3t10 -1q3 -2 6.5 0t7.5 0 q5 -2 10 -1.5t10 1.5q5 0 9 -0.5t8 1.5q5 2 9.5 0.5t9.5 -1.5q10 0 19.5 1.5t19.5 -0.5q6 -2 10.5 -1.5t10.5 1.5h12t11 -1q5 0 7.5 -1.5t6.5 0.5t9.5 3t9.5 -1q5 -2 6 -1t5 1q6 1 11 -1t10 0q6 2 17 2.5t17 -2.5q2 -2 5 -2q5 0 6 -1l4 -4q6 -8 -1 -12q4 -2 3.5 -6.5 t-2.5 -7.5q-1 -3 -2.5 -3t-3 1.5l-2.5 2.5t-1 0q-2 -5 -3.5 -1.5t-5.5 2.5q-1 -2 2 -5q2 -3 0 -6t-3 -6q-3 -8 3 -6t3 4q-6 4 -1 4t5 3q2 5 4.5 4t0.5 -3q-4 -2 -4 -5q2 -2 3.5 -0.5t3.5 0.5q-2 -12 -5 -23.5t-4 -22.5q-1 -13 -10 -18t-20 -5q-7 0 -12.5 1t-12.5 1 q-8 -1 -15.5 -1t-15.5 -1q-6 0 -11.5 0.5t-11.5 0.5q-7 2 -12 -1q-3 1 -5.5 2.5t-5.5 -0.5q2 5 -4 7q-2 -2 1 -4t2 -4q-5 2 -9 0.5t-9 0.5t-3.5 6.5t-2.5 3.5q-5 -2 -2 -3.5t3 -4.5q-3 -3 -8.5 -3t-9.5 -2q-2 -1 -6.5 -4.5t-2.5 -5.5q2 -3 4 -4t-1 -5q-3 -3 -1 -7t0 -11 q-1 -3 -1.5 -6.5t1.5 -5.5q-2 -10 -2 -14v-24q0 -5 -2 -10t0 -10q0 -2 -0.5 -7t-0.5 -10.5t1.5 -9t6.5 -1.5t9 4.5t9 4.5q8 2 15 5q3 3 6 3t7 2q2 2 6 1q3 -1 2 -3t-1 -4q2 0 5 4t-2 2q8 4 17 4.5t17 -3.5q4 -2 6 0t7 1q5 -2 11 -2.5t12 -2.5q5 -2 8 -3.5t8 -3.5q3 -2 5 -4 l4 -4q5 -2 7 -4t6 -7q3 -3 5.5 -4t4.5 -6q2 -3 4 -5t4 -5t3.5 -7t3.5 -8q6 -10 7 -21q0 -5 2 -8.5t2 -8.5t1 -9t2 -9q0 -5 -0.5 -10t-0.5 -10q0 -2 1 -2q2 -1 1 -4.5t-1 -4.5q0 -4 3 -7q-1 -5 -2.5 -5t-0.5 -5q2 -11 1 -21.5t0 -21.5q1 -6 -1 -8.5t1 -7.5q2 -5 0.5 -11 t-0.5 -11z" />
<glyph unicode="6" horiz-adv-x="404" d="M375 248q0 -5 -1.5 -10.5t2.5 -10.5q-2 -5 -2.5 -12.5t0.5 -12.5q1 -4 1 -11q-1 -1 -5 -0.5t-1 -2.5q1 -2 2.5 -1.5t2.5 -1.5q-1 -3 -0.5 -6.5t0.5 -7.5q1 -7 0 -12.5t-2 -11.5q-1 -7 -0.5 -13t-1.5 -13q-1 -2 -1.5 -4.5t-2.5 -4.5q1 -8 -2 -17q-19 -51 -60 -82 q-5 -5 -11 -5.5t-11 -4.5q-5 -3 -8.5 -4t-8.5 -3t-10 -2.5t-10 -2.5t-13 -3t-13 0t-12 -1t-12 1t-14 2t-15 0q-14 2 -29 5.5t-26 11.5l-4.5 3l-4.5 3q-7 2 -11 6q-5 3 -8.5 7t-7.5 8q-6 7 -13.5 16t-9.5 18q-3 10 -7 20t-7 21q-1 5 -3.5 10t-2.5 10q2 8 1.5 15t-1.5 15 q0 4 -1 13t2 13q2 2 -0.5 7.5t-0.5 9.5q2 5 0 10t-1 10q0 4 1 5t0 6q0 5 -0.5 10t0.5 10v29q0 8 -1 15.5t0 15.5q2 6 0 13.5t1 13.5q2 3 0.5 4.5t-1.5 4.5t1 6t1 6l-2.5 12.5t1.5 12.5q2 2 0.5 8t-0.5 10q0 12 -1.5 24.5t1.5 24.5q2 4 0.5 4.5t-1.5 5.5q1 2 2.5 2t2.5 2 q1 3 -1 3t-4 1q1 4 1 13q0 8 3 12q-1 2 -2.5 3.5t-1.5 3.5q1 7 1.5 14.5t-1.5 14.5q2 8 0 12q0 2 1.5 2t3.5 2t0.5 3.5t-3.5 2.5t-1.5 4t0.5 5q-1 6 0 11.5t1 11.5q0 8 2 12q2 3 1.5 7t0.5 8q1 5 2.5 9.5t3.5 8.5q2 3 2 6t1 6t2.5 4t3.5 4q2 4 5 8.5t4 7.5q3 10 12 18 q5 4 10 10t10 9q5 2 9 5t9 5q3 2 5.5 4t6.5 4q5 2 9 2.5t9 2.5q5 1 9.5 1.5t8.5 2.5q5 3 11.5 2.5t12.5 -0.5q5 -1 10.5 1t11.5 1q4 0 7 -1t7 0q6 1 9 0t8 -3q3 0 4 1q2 0 3 -1.5t5 -1.5q5 0 8 -1.5t8 -2.5q17 -2 34.5 -15.5t27.5 -27.5q-1 -2 -2 -3q-2 -3 1 -2q4 2 5 2 t4 -5q5 -5 10 -12.5t7 -14.5q2 -8 4.5 -15t4.5 -15q1 -4 1.5 -8t1.5 -8q2 -5 1 -10.5t0 -11.5q1 -8 1.5 -16.5t-0.5 -17.5q0 -4 -1.5 -7t0.5 -7q2 -3 0 -9t-5 -8q-5 -4 -12.5 -5.5t-13.5 1.5q-3 1 -4.5 -0.5t-4.5 -0.5q-4 2 -8 0t-8 -1q-7 0 -15.5 1.5t-14.5 -0.5 q-8 -2 -15.5 0.5t-11.5 9.5q-5 8 -2.5 16.5t1.5 16.5q-2 9 -1.5 18.5t-1.5 18.5t-6 13.5t-10 10.5q-4 4 -6 4.5t-7 2.5l-12 2t-12 0t-13.5 -5t-11.5 -9q-5 -7 -8 -14q-2 -4 -2 -8q-1 0 -3.5 0.5t-2.5 -1.5t4 -2q2 -1 0.5 -5t-1.5 -6v-13.5t-2 -13.5q3 -5 2.5 -11t-1.5 -11 q0 -6 1 -10.5t-4 -8.5q1 -2 2.5 -2t1.5 -2q-1 -4 -1 -11q1 -5 1 -11t-5 -10q1 -4 2.5 -1t1.5 -4q0 -6 1 -12t1 -12q0 -3 -1 -9t2 -9q2 -2 6.5 -0.5t6.5 3.5q5 6 12.5 10t15.5 6q3 0 8.5 2t11.5 3.5t10 1t4 -5.5q3 0 5 5q1 2 4 1.5t5 0.5q5 1 12.5 -0.5t13.5 -1.5 q5 -1 11 -1.5t11 -5.5q5 1 9.5 -2t9.5 -5q6 -1 9.5 -4.5t6.5 -7.5q3 -3 8 -5.5t6 -6.5q1 -5 6 -9.5t7 -9.5q3 -6 5.5 -12t4.5 -12q2 -7 3 -12.5t2 -12.5q1 -5 3 -13.5t-1 -13.5t-1 -8.5t2 -9.5q0 -5 -2 -11q1 -2 2 -6.5t1 -6.5t-1 -5t-2 -5q-1 -4 0 -6.5t2 -6.5zM252 202 q2 2 0 9t-2 10q1 22 0 44q-1 11 0 22t-1 22q-4 20 -19 27.5t-33 5.5q-7 -4 -14 -4q-4 -4 -7.5 -7t-7.5 -7q-14 -14 -11 -32q0 -5 -1 -8t-1 -8q0 -4 1.5 -8t-0.5 -9q-2 -3 -1 -7.5t1 -8.5q-1 -5 -1.5 -10t-0.5 -10q0 -11 1.5 -20t-0.5 -19q-1 -8 0.5 -16.5t1.5 -16.5 q0 -5 0.5 -9t1.5 -9t4 -9t4 -10q5 -1 7.5 -4.5t7.5 -5.5q6 -2 12 -2t12 -2q40 6 44 45q1 10 0.5 19.5t-0.5 19.5q0 5 -0.5 9.5t2.5 8.5z" />
<glyph unicode="7" horiz-adv-x="350" d="M340 686q-1 -8 0 -14t0 -14q0 -13 -5 -30q-3 -11 -8 -25q-2 -6 -2.5 -13t-3.5 -13q-4 -6 -6 -10q-2 -3 -1.5 -5t-0.5 -6q-1 -6 -4 -12t-3 -13q0 -3 -3 -6q0 -2 -0.5 -3.5t-0.5 -3.5q-1 -4 -2 -6.5t-3 -5.5v-6q-2 -1 -5 -4q2 -5 0 -9.5t-4 -9.5q-5 -17 -8.5 -33t-8.5 -32 q-2 -5 -2 -7.5t-2 -6.5t-1.5 -5t0.5 -5q-5 -8 -6 -17t-4 -17q-3 -9 -4.5 -17.5t-3.5 -16.5q-3 -9 -4.5 -17t-3.5 -16q-8 -33 -13 -64.5t-12 -64.5q-2 -9 -2.5 -18.5t-3.5 -17.5t-2.5 -19t-3.5 -19q-1 -3 0 -6.5t0 -6.5q-2 -6 -3 -11.5t-2 -10.5q-2 -8 -1.5 -18t-7.5 -15 q0 -4 3 -3.5t-2 -5.5q-5 -9 -18 -9q-5 -1 -11 0t-11 -1q-6 -2 -14.5 -0.5t-14.5 1.5q-11 0 -27.5 -1t-25.5 7q-5 5 -4.5 10t1.5 11q0 7 1 14t4 12q-2 6 -0.5 12t2.5 11q2 5 2 11t2 11q3 5 2.5 10.5t0.5 10.5q2 8 5 17t3 17q-1 6 1 12t3 13q1 5 3 10.5t2 10.5t1.5 10t3.5 10 q1 2 0.5 4.5t0.5 4.5q1 4 2.5 6.5t0.5 6.5q0 5 2.5 11.5t2.5 12.5q2 8 4 11q0 8 2 12q2 6 3.5 11.5t2.5 12.5q1 8 4 14.5t4 14.5q1 6 2.5 11t3.5 11q2 7 2.5 13.5t3.5 12.5q6 11 6.5 22t6.5 22q5 9 7.5 20.5t4.5 21.5q3 13 7 24t7 23t7.5 24t8.5 23q2 7 4 13.5t4 12.5 q4 8 -0.5 11t-12.5 3q-26 1 -50 0t-49 0q-3 0 -5.5 0.5t-5.5 0.5q-3 1 -6 0t-7 -1q-7 -1 -13.5 0t-13.5 1q-5 0 -11.5 0.5t-11.5 2.5t-8 6t0 12q2 4 0.5 8.5t-1.5 8.5q0 5 1.5 10.5t0.5 10.5q-1 4 -2 12.5t-1 16.5t2 15t7 10q6 3 10.5 2t10.5 -1q5 0 9.5 1t9.5 1q4 0 7 -1 t7 -1q3 0 5 1t5 1t6 -0.5t6 -0.5t6 1t5 0q2 -2 4 -0.5t5 1.5q2 0 5 -1t5 -1q7 0 13.5 1.5t12.5 -0.5q6 -1 11.5 -0.5t11.5 0.5q7 -1 13.5 -1h13.5q28 0 57.5 -0.5t58.5 0.5q7 0 14 -1t9 -9q3 -12 1 -27z" />
<glyph unicode="8" horiz-adv-x="387" d="M362 187q2 -10 2 -15q0 -8 0.5 -16t-1.5 -16q-2 -14 -4.5 -26t-6.5 -25q-4 -11 -10.5 -22t-13.5 -20q-9 -13 -20.5 -20.5t-22.5 -17.5q-2 -2 -8.5 -5t-8.5 -3q-5 1 -10 -2.5t-10 -5.5t-12 -2t-13 -2q-3 0 -6 1t-6 -1q-4 -2 -4.5 -2t-5.5 1q-7 1 -13 0t-13 0q-5 0 -11 2.5 t-11 0.5q-5 -1 -10.5 1.5t-10.5 3.5q-4 1 -10 5q-4 2 -7.5 2t-7.5 2q-8 4 -15 12q-2 2 -4 2t-4 1q-4 3 -10 9q-9 10 -18.5 21t-14.5 23q-2 7 -4.5 13.5t-5.5 12.5q-3 7 -3.5 12.5t-3.5 12.5v13.5t-2 13.5q-1 4 -0.5 6t0.5 7q1 5 0 9t0 9q0 12 1 24t0 24q0 8 -0.5 14.5 t-1.5 14.5q0 8 2 15.5t2 15.5q1 10 4 20.5t9 18.5t11 17t14 15q18 14 1 29q-19 18 -26 41q-5 12 -8.5 24.5t-1.5 26.5q1 7 0 13.5t-1 13.5q0 3 0.5 6t0.5 6q-1 4 -2 6t1 6q3 4 1.5 13.5t-1.5 14.5q0 9 1.5 17t2.5 17q0 5 0.5 11t1.5 12q1 2 2 3l3 3q-1 4 0 7l2 6q2 3 2 9 q2 2 3.5 4t2.5 4q2 3 2 5t2 5q4 4 7 12q1 3 6 6q2 2 3.5 5.5t5.5 5.5q5 3 7 5q2 3 4 3.5t5 2.5q4 2 7.5 2t5.5 5q2 6 10 8.5t13 4.5q11 6 25 8t27 4q6 0 10 -1q4 -2 8 -0.5t8 1.5t7.5 -1t6.5 -2h7q0 -1 2 -3q2 0 3 1.5t3 0.5q3 -2 7 -2.5t8 -1.5q8 -2 10.5 -4t7.5 -8 q2 0 3 1t3 2t5 -1t5 -4q6 -4 11.5 -8t11.5 -7q3 -4 6 -6.5t6 -6.5q4 -6 7 -8q2 -2 3 -4.5t4 -4.5q7 -6 9 -16t7 -18q2 -4 3.5 -10t3.5 -11q2 -7 2 -14.5t1 -14.5q2 -14 2 -26.5t1 -25.5q1 -6 -1.5 -12t1.5 -12q-3 -4 -1 -11q1 -4 0.5 -7t-1.5 -8q-1 -14 -3 -28.5t-9 -27.5 q-3 -5 -5.5 -11t-5.5 -11q-4 -6 -8.5 -11t-9.5 -11q-4 -5 -3 -9.5t4.5 -8t8 -7.5t7.5 -8t7 -7q4 -8 6 -13q3 -8 6.5 -15.5t5.5 -16.5q2 -6 4.5 -14t0.5 -14q-2 -5 -2 -11.5v-11.5q-1 -3 0.5 -5.5t1.5 -5.5q-1 -2 -1.5 -3.5t-0.5 -5.5q2 -8 2 -13q-2 -4 -2 -6q0 -3 2 -9 q0 -3 -1.5 -5.5t-0.5 -6.5zM145 580q0 -2 1.5 -2t2.5 -1q2 -2 0.5 -7.5t-1.5 -7.5q0 -5 0.5 -9t0.5 -9l-2 -6t1 -6q3 -6 0.5 -13t0.5 -12q2 -5 -0.5 -5.5t-2.5 -4.5q4 -2 3 -6t-1 -8q-1 -11 3 -27t13 -22q6 -3 11.5 -6.5t12.5 -3.5q5 -1 8.5 0.5t7.5 1.5t5.5 1.5t6.5 2.5 q11 3 17 18t5 26q-1 8 0 15.5t-1 15.5t0 16.5t-1 16.5q4 14 2.5 30.5t-7.5 29.5t-21 20q-8 4 -16 4t-16 3q1 -2 0 -2t-1 -2q-6 -3 -12.5 -9.5t-8.5 -12.5q-2 -5 -4 -12.5t-7 -6.5zM239 193q3 11 1.5 20t0.5 19q2 11 1.5 22.5t-2.5 22.5q-2 8 -5 17t-10 14q-7 6 -15 10.5 t-18 4.5q-17 0 -29 -11t-17 -27q-1 -3 -1 -7t2 -7q-6 -8 -3 -17q2 -7 1.5 -15t-0.5 -16q-1 -20 -0.5 -39.5t2.5 -39.5q2 -8 4 -15.5t7 -13.5q3 -5 9 -8q2 -2 6.5 -2t8.5 -2q16 -7 33 3q3 2 6 3.5t5 3.5q5 4 6 7.5t4 8.5q2 3 1.5 6.5t1.5 8.5q2 6 1.5 10.5t-0.5 10.5 t1.5 14.5t-2.5 13.5z" />
<glyph unicode="9" horiz-adv-x="395" d="M368 405q5 -19 4.5 -40.5t-2.5 -41.5q0 -5 -0.5 -10.5t0.5 -10.5q2 -5 0.5 -8.5t-0.5 -8.5q1 -8 0 -15.5t0 -15.5q2 -10 1 -19t-2 -20q0 -3 -2 -7q1 -2 1.5 -3.5t1.5 -3.5q1 -4 1.5 -8t-1.5 -8q-1 -1 -1.5 -2t-1.5 -2q0 -2 2 -2t2 -3q-3 -1 -1.5 -6t1.5 -7 q0 -10 -2 -19.5t-3 -19.5q-2 -11 -4 -21.5t-7 -20.5q-2 -4 -3.5 -7.5t-6.5 -4.5q-6 0 -2 -2l4 -2q-13 -25 -31 -40q-2 -2 -5 -3.5t-5 -3.5q-2 0 -2 1.5t-1 3.5q-2 2 -2 0q-1 -1 -1 -3q1 -4 1 -5t-5 -4q-20 -16 -46.5 -19.5t-51.5 -4.5q-1 0 -5 -0.5t-5 1.5q-1 0 0 2t-1 2 t-4 -5q-2 -2 -4 -0.5t-4 1.5q-5 1 -10.5 0.5t-10.5 1.5q-2 2 -4 1t-5 0q-4 2 -6.5 3.5t-7.5 2.5q-5 2 -9.5 4t-9.5 4t-8.5 6t-8.5 6q-11 5 -19 15t-15 21q-6 9 -11 17t-9 19q-3 11 -5 21.5t-2 21.5q-1 5 -0.5 10.5t1.5 10.5t0 11t-1 11q-2 14 2 23q3 8 9 9t14 2q8 0 15 -0.5 t15 -0.5q7 0 13.5 1.5t14.5 0.5q2 -1 4.5 -2t4.5 -2q4 -2 5 0t5 1q5 -2 8 -6q3 -2 2 -4t1 -5q3 -5 2 -13.5t-2 -13.5q0 -16 4 -29q2 -7 3 -11t6 -9q6 -11 19 -16q11 -2 23.5 -0.5t22.5 8.5q9 5 14 16q2 4 3 14t7 9q-1 2 -2.5 3.5t-1.5 3.5q2 2 1.5 5.5t-0.5 6.5q-2 7 -1 12 t1 12q-1 14 -0.5 26.5t0.5 26.5q-1 5 -1 15q0 4 1.5 4.5t-0.5 4.5q0 2 -0.5 4.5t1.5 3.5q-2 2 -2 4t-1 4q0 4 -0.5 9.5t-6.5 2.5q-4 -2 -9 -6t-9 -2q0 -3 -4.5 -5.5t-10 -4.5t-11 -3.5t-8.5 -1.5q-28 -5 -55 0q-10 2 -20.5 4t-19.5 7q-26 15 -43 40q-8 11 -10 20 q-2 6 -4.5 12t-3.5 13q-2 8 -2 16v16l-2 14t1 13q1 5 0 9.5t-1 9.5q0 2 2 8t2 7q-4 3 -5 10t-0.5 15t1.5 15.5t1 12.5q0 6 -1.5 12t0.5 12q1 5 1 11v12t1 11t2 11q0 9 2 18t4 17q2 6 4 11l4 10q0 7 4 8q-1 4 2 9q7 8 12.5 18t15.5 17q10 8 17 15t18 11q12 5 24.5 9t25.5 6 q7 1 13.5 0.5t13.5 0.5t13.5 -0.5t12.5 0.5q10 1 23 -2q6 -2 13.5 -2.5t12.5 -3.5q8 -6 18 -7.5t16 -9.5q3 -3 7.5 -4t7.5 -4q2 -3 6 -7q2 -3 4.5 -4t4.5 -3q5 -9 11.5 -16t9.5 -17q3 -9 7 -17q2 -5 3 -9.5t-2 -9.5q2 -2 5 -1q-1 -4 0 -5.5t3 -3.5q-2 -5 0.5 -9.5t2.5 -9.5 q1 -5 0.5 -10.5t0.5 -10.5v-8.5t2 -8.5q3 -9 0.5 -21t-1.5 -22q0 -5 0.5 -10.5t-0.5 -10.5q0 -5 -1 -9t1 -8q2 -2 1.5 -7.5t-2.5 -7.5q1 -5 1 -9.5t1 -9.5q0 -8 -2.5 -16.5t-0.5 -14.5zM246 470q2 5 0.5 9.5t-1.5 9.5q-1 8 -0.5 17t1.5 18q1 4 -0.5 7t-0.5 7v8 q-1 4 -0.5 5.5t1.5 5.5q1 11 -2.5 20.5t1.5 19.5q-2 2 -3.5 0t-4.5 3q-5 9 -13 15q-8 7 -19 7.5t-22 -1.5v3.5t-2 0.5q-2 -1 0 -3t-3 -4q-5 -3 -10 -5.5t-9 -6.5q-3 -8 -6.5 -17t-4.5 -17q0 -4 2 -7.5t0 -7.5q-1 -5 -1 -10.5v-10.5q1 -5 0.5 -9t0.5 -8q0 -4 -1 -5 q-2 -2 -0.5 -4t1.5 -4q-1 -7 -1.5 -14t1.5 -15t0.5 -16t0.5 -17q-1 -4 -0.5 -6t0.5 -7t-1 -10t0 -10q2 -8 7 -15t10 -13q3 -4 11 -6q5 0 8.5 -2t7.5 -2q9 1 17 5t16 6q4 7 9 12.5t7 13.5q2 4 0.5 9t0.5 8q3 5 2 11.5t-1 11.5q-1 6 -1 10.5t2 9.5z" />
<glyph unicode=":" horiz-adv-x="188" d="M34 361q1 7 1 13v13q0 4 -0.5 7.5t0.5 7.5q2 3 0.5 5t-1.5 7q0 8 1 13t9 10q4 2 7 1t8 1q4 2 7.5 1.5t8.5 -0.5q8 -1 16 -1h16q5 0 10 0.5t10 0.5q4 0 7 -1.5t8 -2.5q8 -2 9 -8.5t2 -12.5q0 -4 -1 -7t0 -7q1 -5 1 -9v-9q-1 -17 0.5 -36t-3.5 -35q-2 -6 -8.5 -8t-14.5 -2 t-15.5 1t-11.5 1q-9 -1 -17 -0.5t-17 -0.5q-10 -1 -15.5 2t-14.5 5q1 14 -1 25.5t-1 25.5zM155 45q-5 -4 -3 -9.5t3 -9.5q-2 -5 -2.5 -9.5t-2.5 -9.5t-7.5 -6.5t-10.5 -2.5h-21h-12q-1 0 -2.5 3t-2.5 1q-2 -2 -1.5 -2.5t-4.5 2.5q-7 5 -6.5 2t-2.5 -5q-5 0 -5 0.5t-4 -0.5 q-3 -1 -6 -0.5t-6 -0.5q-5 -1 -12 1.5t-8 7.5q-1 4 -2 5.5t-1 6.5v16v30q0 4 -1 15t2 13q5 3 5.5 3t-4.5 2q1 2 -1.5 7t-1.5 9q1 5 2.5 9.5t4.5 8.5q5 4 11 4t11 -1q8 -1 15 -0.5t15 0.5q11 1 24 1.5t24 -4.5q8 -3 10 -11q2 -5 1 -8t-3 -7q5 -4 4 -8.5t-1 -9.5q1 -7 1 -13.5 v-13.5q0 -5 -1 -8q0 -3 1.5 -4.5t1.5 -3.5z" />
<glyph unicode=";" horiz-adv-x="188" d="M71 304q-4 -1 -6.5 -2t-6.5 -1q-7 2 -14.5 2.5t-12.5 5.5q0 17 -0.5 35t-0.5 35v17.5t1 17.5q0 9 1.5 14t9.5 9q7 3 13.5 2t14.5 -1t16 1t16 0q6 -1 12 -1.5t12 -0.5q7 0 13 -2t8 -9q0 -3 -3 -3q3 -4 3 -8.5v-9.5t1 -10.5t-7 -3.5q-1 -3 2.5 -4.5t3.5 -6.5q-1 -5 -1 -10 t2 -10q2 -4 0.5 -13t-1.5 -14v-15.5t-6 -11.5q-8 -4 -14.5 -3.5t-13.5 -0.5q-3 -1 -6.5 -0.5t-6.5 0.5q-5 1 -9.5 0.5t-9.5 -0.5q-3 0 -5 1t-5 1zM152 86q-2 -6 -0.5 -11.5t1.5 -11.5q0 -7 -0.5 -14t-0.5 -14q-2 -14 -3 -25t-5 -23q-1 -2 0 -3t-1 -3t-1.5 -4.5t-0.5 -5.5 q-2 -5 -4 -12t-7 -7q2 -7 -1 -14t-7.5 -13.5t-10 -13t-8.5 -12.5q-4 -1 -12 -7q-5 -3 -7 -2.5t-7 1.5q-6 0 -16 -2t-10 5q-3 2 -4.5 -1.5t-5.5 1.5q-2 2 -3.5 3t-3.5 3q0 3 1.5 4.5t2.5 3.5q2 3 1 4t1 4q3 3 7 9q4 5 5.5 11t6.5 12q3 4 6.5 8.5t1.5 10.5q2 6 5.5 12t1.5 12 t-7.5 6.5t-11.5 0.5t-11.5 2t-6.5 10q-5 27 -3.5 54.5t2.5 53.5q0 13 14 14.5t25 1.5q37 2 73 -3q0 -6 2.5 -10t1.5 -11q0 -3 1 -5.5t1 -5.5q0 -5 -2 -13z" />
<glyph unicode="?" horiz-adv-x="342" d="M321 627q6 -18 6 -38t-2 -40q0 -9 -3 -18q-2 -4 -1 -8.5t-2 -7.5q-3 -4 -3.5 -9t-2.5 -10t-4 -9.5t-4 -9.5q-4 -2 -7.5 -1t-3.5 -7q3 -2 4.5 2t4.5 2q-2 -2 -5 -10.5t-5 -6.5q-4 4 -4 1t2 -6q1 -2 -2.5 -9t-5.5 -9q-3 -2 -5 -5q-3 -3 -3 -6t-2 -6q-10 -12 -15 -23 q-3 -5 -6.5 -8.5t-6.5 -8.5q-2 -6 -6 -11t-6 -10q-3 -8 -8 -14.5t-6 -13.5q0 -6 -5 -13q-2 -3 -2 -5t-1 -6q-2 -6 -4.5 -11.5t-2.5 -11.5q-1 -7 -1 -13.5t-4 -12.5q2 -5 1.5 -12.5t-5.5 -11.5q-1 -2 0.5 -2.5t3.5 -2.5t0.5 -3.5t-1.5 -3.5q-2 -5 -2 -8t-5 -7q-8 -5 -19 -3.5 t-20 0.5q-5 0 -9 1t-9 -1q-3 -2 -5.5 -0.5t-5.5 1.5t-5.5 -1t-5.5 1q-10 3 -11.5 12.5t-0.5 17.5q0 5 0.5 10t0.5 10v10q0 3 1 4.5t2 3.5q-2 6 -1 12t2 11q1 8 1.5 14.5t2.5 13.5q4 14 7 27t8 26q3 6 5.5 12t4.5 12t5.5 10.5t4.5 11.5q5 4 6 8.5t4 9.5q3 6 6.5 11t5.5 11 q2 5 6 9.5t4 9.5q0 8 5 14t7 12q3 8 4.5 15t4.5 15q1 3 2.5 5t-0.5 5q-1 2 1 4.5t2 4.5q-1 5 0.5 8.5t2.5 7.5t-0.5 6.5t-0.5 5.5q2 8 -4 18.5t-10 15.5q-4 6 -12.5 7.5t-14.5 -0.5q-14 -2 -23 -12q-8 -11 -11 -23q-2 -4 -4.5 -5t-3.5 -5q0 -4 3 -6t1 -6t-1 -6.5t1 -7.5v-18 q0 -8 -0.5 -15t-6.5 -13q-5 -5 -15 -5h-16q-8 2 -17 0q-5 0 -10 0.5t-10 0.5q-8 0 -15.5 -1.5t-14.5 5.5q-5 6 -4.5 13t-0.5 14t0 13.5t1 13.5q0 1 -0.5 5.5t-0.5 9t1 8t4 2.5q0 2 -2 4.5t-2 4.5q0 5 1 10t3 10q2 10 4.5 18.5t6.5 17.5q2 5 8 12.5t5 12.5l18 18t19 17 q8 6 18.5 10t19.5 8q5 0 8 1.5t7 1.5q5 0 10 1t9 3q20 0 41 -0.5t39 -9.5q3 -2 6 -2.5t7 -2.5t7 -4.5t8 -4.5q8 -3 14 -9.5t11 -12.5q13 -12 21.5 -28t13.5 -33zM206 53q-2 -4 -0.5 -7.5t1.5 -7.5q1 -6 0 -14t-2 -15q-2 -6 -8 -8q-3 -1 -8 1q-2 -1 -1.5 -2.5t-1.5 -1.5 q-10 1 -19 0t-19 0q-7 1 -5.5 3.5t-2.5 3.5q-3 0 -2.5 -2.5t-1.5 -3.5q-9 1 -18.5 -1.5t-17.5 0.5q-8 4 -8.5 11.5t-2.5 14.5q-1 3 0 7t3 6q-4 5 -2 14q2 8 -0.5 16.5t-0.5 16.5t1.5 14.5t-0.5 14.5q0 7 4 11q3 4 6.5 3.5t8.5 0.5q14 2 28 1t28 -1q5 0 8.5 1t8.5 1l10 -2 t10 -3q2 -5 4 -13q2 -6 0.5 -10t-2.5 -10q0 -5 2 -15q1 -3 -0.5 -6t-0.5 -6q2 -8 1 -12z" />
<glyph unicode="@" horiz-adv-x="638" d="M611 367q-1 -4 -1 -13v-14t-2 -15q-1 -5 -0.5 -12t-1.5 -12t-1.5 -11t-4.5 -10q-1 -4 0 -5.5t-1 -5.5q-1 -3 -2 -5.5t-3 -5.5q-2 -8 -3 -13q-4 -1 -4 -6q-1 -5 -3 -8t-5 -7q-2 -4 -2 -6t-4 -5q-4 -2 -4 -3v-6q-5 -5 -9.5 -10t-9.5 -10q-4 -5 -8 -10.5t-9 -7.5 q-4 -2 -7 -5t-6 -5q-5 -3 -10.5 -5.5t-10.5 -4.5t-10 -5t-11 -4t-12.5 -2t-13.5 -1q-5 1 -9.5 -1.5t-9.5 -0.5q-4 1 -5 2t-5 1q-6 -2 -12 0q-5 1 -10 3l-10 4t-8 5l-6 6q-4 4 -7 6t-5 7q-2 4 -4.5 7.5t-3.5 8.5t-6 5.5t-9 -3.5t-7.5 -6.5t-8.5 -2.5q-1 -4 0.5 -4.5 t-3.5 -2.5q-4 -2 -10 -8l-12 -4l-12 -4q-8 -1 -16.5 -1.5t-14.5 -2.5q-3 -1 -7 -0.5t-8 1.5q-6 2 -8 3.5t-7 6.5q-2 -1 -1 -2t1 -3q-4 2 -7.5 4t-7.5 4q-5 2 -6 4t-4 6q-5 6 -9.5 10.5t-9.5 11.5q-6 11 -8.5 24.5t-2.5 25.5q-1 7 -1.5 14t1.5 14q2 6 1.5 14t2.5 15 q3 8 5.5 17t5.5 17q2 4 3.5 7.5t3.5 7.5q-1 4 1.5 7.5t6.5 2.5q-4 3 1 10t7 10q4 8 7 11q2 1 3.5 -0.5t3.5 -1.5v9q0 5 2.5 6t4.5 4l7 7t8 5q2 7 8 9t10 7q2 2 5.5 3t5.5 2q5 2 8.5 4.5t7.5 4.5q7 0 13.5 2t13.5 3t14 -1t15 -2q5 1 11.5 -1.5t11.5 -5.5q4 -3 8.5 -9t10.5 -4 q5 2 7.5 7t6.5 8q5 3 10 1t10 -1q3 1 5 2t6 1q10 -2 15 -2q7 0 14 0.5t13 -3.5q6 -3 6.5 -12t-5.5 -12q-3 -2 -3.5 -2.5t1.5 -3.5t0 -7t-3 -7q0 -7 -3.5 -12.5t-4.5 -12.5q0 -1 -0.5 -4.5t-2 -7t-3 -5.5t-3.5 0q4 -7 0.5 -15t-5.5 -14q-3 -8 -5.5 -17t-4.5 -18q-2 -4 -3 -8 t-3 -8q-2 -5 -2 -7t-1 -7q-5 -6 -5.5 -13.5t-4.5 -14.5q-2 -4 -1 -6l3 -6q2 -3 1.5 -6.5t1.5 -6.5q10 -11 26 -11q4 0 7.5 1.5t7.5 -1.5q3 3 6 4.5t6 3.5q5 2 11.5 8t10.5 4q0 6 4 12.5t9 11.5q7 6 9.5 18t4.5 21q2 5 2 7.5t1 7.5t2.5 8t-0.5 8q2 4 4 6q-2 4 -2 6q1 3 0 6 q-1 5 0.5 3.5t4.5 1.5q0 2 -3 2q-2 2 -1 6.5t-2 6.5q2 6 0.5 13t4.5 12q0 1 -3 1.5t-1 5.5q-3 5 -3.5 10t-3.5 10q-2 5 -3.5 10.5t-3.5 10.5q-3 7 -5 13.5t-7 12.5q-2 4 -5 7t-5 7q-2 5 -5.5 8t-4.5 7q-2 5 -6.5 7t-8.5 6q-2 2 -3.5 4t-4.5 4t-6 4.5t-5 4.5q-5 3 -10 5 t-10 6q-8 7 -22 12q-3 1 -6.5 1.5t-6.5 2.5q-2 0 -2.5 1.5t-2.5 2.5q-3 -1 -11 0t-8 5q-8 0 -14.5 1t-13.5 1q-4 0 -7 -1t-6 1q-4 2 -4.5 0.5t-4.5 -0.5q-14 2 -27 -2.5t-27 -5.5q-3 0 -3.5 -1.5t-2.5 -2.5q-7 0 -12 -4q-5 -3 -10.5 -6t-11.5 -5q-10 -3 -17 -11 q-3 -4 -8 -6.5t-10 -7.5q-3 -3 -6.5 -6t-8.5 -4q-2 -3 -2 -4.5t-3 -3.5t-7 -8q-4 -5 -7.5 -9t-6.5 -9q-5 -8 -9.5 -15.5t-9.5 -15.5q-2 -2 -3.5 -5t-2.5 -7q-1 -5 -2 -5.5t-3 -4.5q0 -14 -8 -25q-3 -5 -3.5 -11.5t-2.5 -11.5q-2 -7 -2 -12.5t-2 -12.5q-2 -11 -1 -22t1 -22 q0 -25 4 -45q4 -15 10.5 -29t11.5 -29q5 -11 12.5 -20t12.5 -20q3 -5 8 -10l10 -10q3 -3 8.5 -9t9.5 -7q5 -2 7 -5.5t7 -6.5q6 -2 10 -4t2 -10q8 2 11 2t4 -8q2 -1 3.5 0.5t5.5 0.5q5 -1 9.5 -3.5t8.5 -2.5q4 1 7.5 -0.5t7.5 -3.5q5 -2 9.5 -2.5t9.5 -1.5q11 -2 22.5 -3 t22.5 0q1 0 6.5 0.5l11 1t10 0.5t4.5 -1q-2 4 1 3.5t8 0.5q5 2 12 3t12 4q11 5 22 8t20 12q3 3 6 4t7 3q3 3 5.5 6.5t7.5 4.5q8 2 12 -1t8 -8q4 -4 8 -7.5t6 -8.5q8 -5 11 -14t-3 -17q-5 -8 -13.5 -11.5t-15.5 -10.5q-2 -3 -4 -2.5t-5 -2.5q-4 -4 -9 -6t-9 -5 q-4 -4 -9.5 -4.5t-10.5 -2.5q-5 -3 -10.5 -4t-10.5 -4q-8 -5 -17 -5t-17 -2q-13 -3 -25.5 -4t-24.5 -1q-14 -1 -27 0.5t-26 2.5q-7 1 -12.5 2.5t-11.5 2.5l-6 2l-6 2t-6 0.5t-6 0.5q-5 2 -10 4.5t-10 4.5q-3 1 -5.5 2t-5.5 0q-2 2 -4 3t-4 3q-5 2 -9.5 5t-9.5 5t-8.5 4.5 t-7.5 5.5q-8 5 -15 9.5t-14 11.5q-8 8 -16.5 15.5t-5.5 20.5q-5 1 -3.5 -3.5t-1.5 -4.5q-1 0 -5.5 4t-5.5 5l-6 10l-6 10q-5 5 -8 11t-7 12q-2 4 -3.5 6t-1.5 6q-3 3 -5 6.5t-4 6.5q-2 6 -4.5 11.5t-4.5 11.5q-1 3 -2 5.5t-1 6.5v6t-2 6q-5 6 -5 10t-1 12q-1 6 -3.5 12.5 t-1.5 12.5q0 4 0.5 7t0.5 7q-1 3 -2.5 5t-0.5 5q2 6 1.5 13t-1.5 13v14.5t1 13.5q0 8 1.5 15t2.5 15q1 5 2.5 12t3.5 12q2 8 5 11q1 4 0 5t1 5q2 7 4 13.5t6 12.5q3 5 4.5 11t5.5 11q3 5 4.5 9.5t4.5 7.5q4 4 6.5 8.5t4.5 8.5q3 5 7 8t6 8q4 6 8.5 11.5t9.5 10.5q4 4 8 10 q5 1 9 7q3 3 7 2t2 3q-1 1 4.5 6t13 10t15 9.5t9.5 5.5q3 2 5 3t4 4q4 0 6.5 1t5.5 2q5 3 8.5 6t8.5 4q6 1 10.5 3t9.5 4q3 1 5.5 1t5.5 2t5 3t5 0q3 -2 11 1t11 3q3 1 6 1t6 2q3 -1 3.5 -1.5t5.5 0.5q6 2 12.5 2h13.5t14 0.5t13 -2.5q4 -2 8.5 -1t9.5 0t11 -2.5t12 -1.5 q4 0 9.5 -1.5t7.5 -3.5q5 -3 9.5 -2t9.5 -2q8 -6 18.5 -8.5t18.5 -9.5q5 -4 11 -6.5t11 -6.5l10 -8t11 -7q-1 -2 1 -8t5 0q12 -8 20 -18q8 -11 16.5 -21.5t14.5 -22.5q1 -2 3 -7.5t3 -5.5q2 1 5.5 -9t5.5 -13q2 -2 3.5 -5t3.5 -6q-1 -4 1 -12l4 -10t2 -11q0 -8 3.5 -17 t2.5 -17q-2 -6 2 -10zM368 359q1 11 -4.5 22.5t-19.5 11.5q-15 -1 -27.5 -9.5t-22.5 -20.5q-9 -11 -14 -24.5t-12 -26.5q-3 -6 -3 -12.5t-1 -13.5q-1 -2 -2.5 -6t-3.5 -4q-2 1 -3 0t1 -3q4 -2 3.5 -9.5t0.5 -12.5q1 -8 2 -14t7 -13q10 -13 23 -9q4 1 7.5 1t8.5 1q4 1 4 3.5 t3 3.5q3 -8 6.5 -4.5t0.5 3.5q-6 1 -1 7t7 8q1 6 5 11q2 4 3 6.5t3 6.5t3 5t1 6l6 18l4 18t7 17q-1 9 3 17t5 16z" />
<glyph unicode="A" horiz-adv-x="423" d="M409 28q2 -6 1.5 -11.5t-0.5 -11.5q-2 0 -3 -2t-4 -3q-5 -1 -9 -1t-9 -1q-7 0 -14 0.5t-14 0.5q-2 0 -6 -0.5t-5 1.5t-1 4t-2 3q-3 1 -2.5 -3.5t-4.5 -4.5q-7 0 -14 0.5t-14 -0.5q-11 -2 -20 3t-10 16q-1 5 -2 11.5t-1 11.5q1 4 -1 9q-1 4 0.5 6.5t-0.5 6.5q-4 6 -4 10 q1 3 2.5 5t1.5 4q1 2 -1 2h-3q-1 1 -1 4t-1 4q0 2 -0.5 4.5t1.5 4.5q2 3 1 3.5t-3 3.5q-2 6 -2 12t-2 11q-1 5 -2 9.5t-6 6.5q-5 0 -9.5 -1t-9.5 -1t-10.5 1.5t-11.5 0.5q-8 0 -15 0.5t-15 -0.5q-11 -1 -22 -4t-8 -19q1 -5 -1 -11.5t-3 -12.5q0 -8 -2 -12t-1.5 -7t-0.5 -8 q-1 -7 -2 -12t-1 -12q0 -6 -1 -11.5t-2 -11.5q-3 -12 -6.5 -19t-17.5 -8q-12 -1 -24 -0.5t-25 0.5q-7 0 -13.5 0.5t-13.5 -0.5q-8 -1 -13 -0.5t-11 5.5q-3 3 -4.5 5t1.5 6q1 2 -0.5 5t-0.5 5q0 4 4 10q0 16 3.5 31t5.5 30q1 5 4.5 18t1.5 15l0.5 3.5t1 7.5t1.5 7.5t1 4.5 q3 8 3.5 16t1.5 16q1 7 3 12.5t2 13.5q0 7 3 11.5t3 11.5q0 5 -1 10t4 9q0 16 5 34q2 7 3 14t1 14q1 3 1.5 5.5t2.5 4.5q0 4 -1 4.5t1 4.5q2 5 2 11t1 12q2 8 4 5t6 3l1 2q-2 2 -5.5 -1.5t-3.5 2.5q1 5 3 9.5t1 9.5q1 3 2.5 5t-0.5 5q2 4 4 4t0 5q-3 7 -1.5 12.5t3.5 13.5 q2 14 5 29t5 30q1 5 3.5 12.5t1.5 12.5q0 2 -0.5 5t1.5 4h4q4 0 1 3q-1 -1 -2 -1h-2q0 7 1 10l2 4t1 4q-1 5 1 5t4 4q0 2 -2 1.5t-2 1.5l3 18q2 8 4 15.5t2 14.5q0 8 2 12t1.5 8t0.5 8q1 5 2 9t1 9q0 4 1.5 6.5t1.5 7.5q1 7 2 14.5t5 13.5q2 4 1 3.5t-3 2.5q1 -1 2 4t1 6 q2 9 6 6.5t4 0.5q1 4 -0.5 5.5t4.5 2.5q5 1 9 0t9 -1q8 0 14.5 1t14.5 0h10t10 1q3 0 3 -2.5t2 -2.5q2 2 3 3.5t3 3.5q5 -2 9.5 -2.5t9.5 -0.5q8 0 17 1.5t17 -2.5q11 -5 12.5 -18.5t4.5 -23.5q2 -6 2 -14t2 -15q1 -5 1.5 -8.5t0.5 -7.5q1 -5 1.5 -6.5t-2.5 -6.5q2 -2 4 -2 t2 -4t1 -6q1 -8 2 -14.5t2 -14.5q1 -3 2.5 -9.5t-0.5 -8.5q-3 -3 -0.5 -5t4.5 -6q2 -3 -1 -5t-1 -4q1 -1 3 -1t3 -2q-2 -6 0 -12q1 -6 2.5 -12t0.5 -12q2 -6 3.5 -11t0.5 -13q-3 -1 -3.5 1.5t-2.5 1.5q-1 -4 1.5 -5t4.5 -3q4 -3 2 -3.5t-3 -2.5q3 -3 4 -2t2 -5q0 -6 2 -16 q0 -1 -4 -1t0 -3q2 -2 5 -2.5t2 -4.5q-1 -8 1.5 -15.5t4.5 -15.5l3 -21q-2 -2 -5 -3.5t-5 -3.5q4 -3 7.5 0t5.5 -5q1 -4 -0.5 -5t0.5 -5q2 -3 2 -10q0 -6 1.5 -11t3.5 -10q1 -7 1.5 -13t2.5 -13q2 -5 0.5 -7t1.5 -7q2 -4 2 -10t2 -11q-2 -2 -1.5 -7.5t2.5 -7.5q3 -5 3 -11.5 t3 -11.5q-2 -6 0 -12t3 -12q0 -5 1 -6.5l3 -4.5q-2 -4 0 -11q2 -4 1.5 -7.5t1.5 -7.5q1 -3 2.5 -10.5t0.5 -10.5q-2 -3 1 -7.5t2 -9.5t2.5 -9t1.5 -9q-1 -5 1.5 -9.5t1.5 -9.5q0 -7 1.5 -14t2.5 -14q0 -4 1.5 -12t3.5 -10q2 -4 0 -3.5t0 -4.5q3 -5 3 -9zM213 261h15.5 t12.5 7t0.5 13.5t-1.5 13.5q0 13 -4 25q-2 8 -2.5 14.5t-2.5 14.5q-1 7 -2.5 13t-1.5 13q0 4 -0.5 5.5t-2.5 5.5q2 4 1.5 7.5t-2.5 7.5q-3 8 -3 16v16q-1 5 -2 5.5t-2 4.5q2 1 1 4t-2 5q-1 3 -1 10t-6 7q-2 -5 -3 -11t-3 -11t-1 -11t-5 -10q5 -9 0 -23q-2 -7 -3 -15.5 t-1 -16.5q-1 -7 -3 -13.5t-2 -13.5q1 -8 -1.5 -15.5t-3.5 -15.5t-1 -15t-2 -15q-1 -7 -2.5 -11t5.5 -9q5 -3 15 -2.5t16 0.5z" />
<glyph unicode="B" horiz-adv-x="428" d="M411 229q0 -11 1 -20t-1 -20v-11.5t1 -10.5q0 -9 -1 -13q-2 -4 -1.5 -6t0.5 -6q0 -9 -3.5 -18t-3.5 -18q0 -5 -2.5 -8t-4.5 -8q-1 -3 -1 -5.5t-2 -5.5q-4 -8 -7 -11q-13 -21 -30 -35q-8 -6 -17.5 -12.5t-18.5 -8.5q-4 -2 -7.5 -2t-8.5 -2q-2 -1 -2.5 -1.5t-2.5 -1.5 q-3 -2 -5 -1.5t-6 -0.5q-10 -2 -19 -2t-20 -1q-5 0 -7.5 -0.5t-7.5 0.5q-6 1 -11.5 -0.5t-10.5 -0.5q-6 1 -10.5 0.5t-10.5 -0.5q-7 -1 -13.5 0t-13.5 -1q-4 2 -8.5 1t-9.5 -1q-5 -1 -11 0.5t-12 1.5q-11 1 -21.5 -1t-21.5 0q-5 1 -10.5 0.5t-10.5 -0.5q-11 1 -13 14 q0 2 -1 8.5t-1.5 13t0.5 11t5 3.5q0 2 -1.5 2t-2.5 2q-1 4 -1 14q0 8 0.5 17t0.5 17v16q0 5 1 5.5t3 5.5q0 2 -4 4q-3 4 1 3t5 -1q-2 4 -1 5.5t3 3.5q-2 2 -4 1t-4 -1q-2 3 -1.5 5.5t-1.5 4.5q3 3 4.5 2.5t-0.5 4.5q-2 8 -2 13q0 8 0.5 14.5t0.5 13.5q0 4 -1.5 13.5 t0.5 12.5q5 2 5 3q1 2 -1 2t-2 2q0 5 -1.5 8t-0.5 6q2 7 0.5 13t-0.5 13q0 3 1 4.5t0 4.5q-1 5 -1 9v8q-1 8 -1.5 14.5t0.5 13.5q0 3 0.5 11t2.5 10q-2 2 -1 8t1 9q-2 6 0 9.5t-1 7.5t-2 13t2 14v31q-2 30 0 60q2 0 3.5 -2t3.5 0q0 4 -2 3.5t-4 0.5q-2 6 -2 11q-1 4 0.5 7 t0.5 8l-2 6t0 6q0 2 3 4q-2 4 -2 14q0 4 0.5 8.5t-1.5 8.5q1 5 1.5 8.5t-0.5 8.5q-1 18 1 36.5t-1 36.5q-1 4 0.5 6t-0.5 7q2 5 1.5 10t-0.5 10q-1 9 3 17.5t15 6.5q4 -1 6.5 0.5t7.5 0.5q5 -2 10.5 -2h11.5q5 1 10.5 1.5t10.5 0.5q2 1 7 -1q3 -2 5 -0.5t4 1.5q4 0 6.5 -0.5 t5.5 -0.5q6 0 8 -2q2 1 5.5 2t5.5 0q4 -3 9 0q4 2 7.5 0t6.5 0q8 4 21.5 2.5t21.5 -2.5q11 0 22 0.5t21 -2.5q9 -2 19 -4t18 -6q3 -2 5 -5q5 0 9 -3q2 -2 6.5 -2.5t2.5 -5.5q3 3 5 0.5t4 -4.5q3 -4 7.5 -5.5t7.5 -5.5q2 -3 3.5 -6t4.5 -5t4.5 -5.5t4.5 -5.5q2 -3 7 -11.5 t8.5 -18.5t5.5 -18.5t-2 -9.5q-4 -2 -1.5 -3.5t4.5 -3.5q2 -4 2.5 -8t0.5 -9q-1 -10 0.5 -18.5t1.5 -18.5v-20q0 -5 1 -9.5t-1 -9.5t-0.5 -9t-0.5 -9t-1 -8t-1 -8q-2 -9 -3.5 -18t-6.5 -17q-2 -4 -4 -7.5t-4 -7.5q-2 -5 -4.5 -6.5t-4.5 -5.5q-6 -11 -20 -22q-5 -4 -6.5 -8 t5.5 -8q4 -3 9 -5.5t7 -7.5q1 -3 0.5 -5t2.5 0q2 2 5.5 -3.5t5.5 -7.5q6 -7 9 -14t7 -15q2 -3 4 -9t0 -9q-3 -4 -1.5 -3.5t4.5 -0.5q-3 -4 0 -11.5t4 -10.5q-1 -3 1 -8t0 -7q-2 -3 0 -4t2 -5q0 -3 -1 -5.5t-1 -5.5zM171 453q2 2 3.5 6.5t3.5 -4.5q1 -5 -0.5 -13t0.5 -11 q2 -1 2 -2.5t1 -3.5q4 0 7.5 -0.5t6.5 -0.5q6 -1 11 -1.5t10 1.5q6 2 12.5 1.5t11.5 2.5q5 2 9.5 5t7.5 7q5 5 6 11.5t6 10.5q4 4 3.5 11.5t-0.5 12.5q1 8 1.5 15t0.5 15q0 16 -2.5 31.5t-7.5 29.5q-2 7 -3.5 11t-7.5 8l-3.5 3.5t-2.5 3.5q-6 3 -12 3q-5 1 -13.5 1t-10.5 4 q0 1 -2 3.5t-4 4.5t-3 2t-1 -4q1 -2 2.5 -2t3.5 -2q3 -2 -2 -3t-6 -1q-4 0 -7.5 0.5t-6.5 0.5q-5 1 -5.5 -0.5t-2.5 -2.5q3 -5 -2 -10q3 -4 3 -14q-1 -5 0.5 -13.5t-2.5 -13.5q0 -1 -2 -3t1 -2q4 -1 3 -5t-1 -7q0 -8 1 -16.5t1 -16.5t-2 -18t0 -18q1 -5 0.5 -5.5t-2 0 t-3.5 2t-3 0.5q5 -5 1 -8q-2 -2 -2 -5t3 -1zM283 210q8 -4 8 6q-3 -1 -4.5 -3t-5.5 -1v15.5t-2 15.5q-1 6 1 9q-2 3 -3 6.5t-2 6.5q0 4 -2 12q0 2 1 4t0 3q-1 3 -4 1.5t2 4.5q3 4 -1 5t-7 1q-2 0 -1 2t-1 2q-2 -1 -5 2l-12 9q-9 4 -22 4.5t-24 1.5q-11 0 -16.5 -4.5 t-5.5 -16.5q1 -11 0.5 -22t0.5 -22t0 -22t-1 -22q0 -14 1 -28t0 -28q0 -5 -0.5 -11t0 -12t3 -11t8.5 -6q11 -2 23 1t23 -4q2 4 9 7t12 3q2 3 5.5 5.5t6.5 5.5t4 6.5t2 8.5q2 8 3.5 16.5t3.5 17.5q2 5 0.5 4.5t-1.5 3.5q-1 3 1.5 2.5t4.5 0.5l-4 10t1 10z" />
<glyph unicode="C" horiz-adv-x="416" d="M262 471q2 2 5 4.5t-4 3.5q-1 0 -1.5 3.5t-0.5 8v9v5.5q0 12 0.5 24t0 23.5t-3.5 22.5t-10 21q-2 3 -2.5 4.5t-3.5 3.5t-4 2t-1 5q0 7 -2.5 3t-4.5 -2q-3 0 -3.5 4.5t-4.5 2.5q-2 -1 -2 -2.5t-2 -1.5h-14q-1 5 1 11.5t4 11.5q-2 2 -6 -2q-2 -2 -3.5 1t-4.5 0q0 -5 3.5 -5 t0.5 -7q-1 -3 1 -10q-2 0 -4 -1l-4 -2l-7.5 -3t-7.5 -6q-4 -4 -8 -8.5t-9 -6.5q0 -2 2.5 -1t1.5 -1q0 -7 -3 -8q2 -6 -2 -8q0 -9 1 -13q0 -5 -2 -11q0 -2 1 -4t0 -5q-2 -5 -0.5 -12.5t0.5 -13.5q0 -6 -0.5 -12t0.5 -12q0 -6 2 -9q0 -4 -1.5 -4t-0.5 -4q2 -5 0 -9.5t1 -7.5 q-2 -8 -1.5 -15t0.5 -15t0.5 -14.5t0.5 -14.5q0 -6 0.5 -11.5t-0.5 -11.5q-1 -14 -1 -27v-27q0 -6 1 -12t-1 -12t-0.5 -11t1.5 -11t-1 -13t1 -14q1 -3 0 -4t-1 -3q-1 -4 0.5 -7t-0.5 -6q-2 -5 -1 -12t-1 -13q2 -8 2 -14v-14q0 -7 1.5 -13t2.5 -12q0 -14 10 -23 q10 -10 21 -13q4 -2 11 -3.5t11 0.5q2 0 4 0.5t4 -1.5q4 3 12 7q4 3 12 7q2 4 3.5 7.5t3.5 7.5q2 5 4.5 11t1.5 12q0 3 -1 5t1 5q2 4 0.5 6t-1.5 5t0.5 6t0.5 6q-1 3 0 4.5t1 5.5q0 6 -1 12t-1 12q0 2 1.5 4t0.5 5q0 2 -0.5 5t-0.5 5q0 5 1 5.5t-1 5.5q-1 3 -0.5 6t0.5 6 q1 3 1 5.5t3 4.5q5 2 3.5 2.5t0.5 5.5q8 2 13 3t13 0q14 -1 28.5 0t28.5 1q3 0 6.5 -0.5t5.5 -2.5q4 3 9 1q2 -1 6.5 -1t4.5 -2q-2 -5 2 -3q2 0 3 -10t1 -22.5t0.5 -24t0.5 -14.5v-19.5t-1 -19.5v-10t1 -10q0 -4 -2 -7.5t0 -6.5q2 -2 1 -4.5t-2 -4.5q-2 -3 -2.5 -7.5 t-1.5 -8.5q-2 -10 -5.5 -19t-6.5 -18q-2 -3 -4 -5t-1 -6q-8 -3 -10 -10q-2 -6 -7.5 -10.5t-9.5 -9.5q-5 -6 -10.5 -9.5t-11.5 -8.5q-6 -6 -14 -9q-4 -2 -8.5 -3t-7.5 -4q-4 -5 -15.5 -6t-17.5 -3q-4 -1 -10 -3q-4 2 -7 2q-5 -1 -5 0t-5 4q-2 -2 -1 -4q-1 -3 -5 -2.5t-6 0.5 q-6 0 -12.5 -0.5t-12.5 0.5q-10 2 -20 3.5t-21 4.5q-10 2 -23 5.5t-18 12.5q-12 4 -21 12q1 5 -2.5 6t-2.5 6q-2 1 -2.5 -1t-2.5 -1q-3 2 -2 5t0 6q-2 -2 -1.5 -0.5t-1.5 1.5q-2 -1 -1 -2.5t-3 0.5q-2 1 -3 2.5t-3 3.5q-3 5 -6 9.5t1 10.5q2 5 -1.5 5t-3.5 -3q0 -5 -5 2.5 t-6 9.5q-3 5 -1 9t0 9q-2 3 -3 3.5t-3 4.5q-1 5 -7 13q2 7 -0.5 13.5t-0.5 11.5q1 6 0 12q-2 4 -0.5 7t1.5 8q0 3 -1.5 5.5t-1.5 6.5v16q1 6 -1 16t2 15q-3 8 -1.5 17t1.5 17v6.5t-1 6.5q-1 5 0 8t1 8q0 3 -0.5 5.5t-0.5 5.5q-1 5 0.5 9t-0.5 8q-2 2 -1.5 10.5t1.5 10.5 q2 3 1.5 10t-1.5 15t-0.5 14.5t4.5 6.5q-1 4 -3.5 5.5t-1.5 6.5q1 4 2.5 7l3.5 7h-3q-2 0 -1.5 4t0.5 5q0 2 0.5 5t-1.5 5q1 3 1 9q-1 10 -1 19v20q-1 12 0 24t0 24q0 7 1 11q0 3 -1 4.5t-1 5.5q1 4 1 10.5t5 8.5q-3 2 -3 6.5t1 7.5q1 5 2 10.5t3 11.5q2 5 3.5 10t3.5 10 q1 5 5 8t2 8q8 8 9 15q5 2 7.5 7t6.5 9q5 7 15 14q2 2 4.5 4t4.5 4t4 2t5 2q5 3 7 6t7 5q7 2 13 4.5t13 4.5q11 3 20.5 5.5t20.5 3.5q2 1 7 -1q4 1 5.5 2t5.5 1q7 -1 13.5 -0.5t12.5 -0.5q10 -1 19.5 -1.5t19.5 -4.5q4 -2 6 -1.5t6 -0.5q7 -3 13.5 -6t13.5 -7q11 -7 20 -14 t17 -16q4 -4 8 -6.5t6 -7.5q1 -5 5 -7.5t6 -7.5q0 -10 6 -20.5t9 -20.5q10 -38 7 -81q0 -5 1.5 -10t1.5 -10q0 -8 -1.5 -14.5t-1.5 -14.5v-10.5t2 -10.5q1 -7 -3.5 -10t-6.5 -8q-26 1 -51.5 -1t-51.5 0q-7 1 -10 2.5t-5 7.5q-2 3 -4 9.5t2 8.5z" />
<glyph unicode="D" horiz-adv-x="440" d="M415 238q-2 -5 -0.5 -10.5t1.5 -11.5t-1 -11.5t-1 -11.5q0 -14 -1.5 -29t-3.5 -30q-2 -13 -6.5 -26t-12.5 -24q-1 -1 0.5 -2.5t-0.5 -1.5q-2 -6 -4 -8q-4 -5 -6.5 -10t-5.5 -7q-5 -4 -8 -7l-8 -8q-7 -7 -19 -14q-9 -6 -19 -10.5t-21 -8.5q-3 -2 -6 -2t-6 -2q-4 -1 -5.5 0 t-4.5 0q-6 -1 -12.5 -3.5t-12.5 0.5q-6 -1 -13 -2.5t-13 0.5q-7 2 -13 1t-13 0q-14 2 -28.5 -1t-28.5 2q-4 1 -5.5 0t-5.5 -1q-2 -1 -5 0t-5 0q-8 0 -15.5 0.5t-15.5 -0.5q-7 0 -14 -0.5t-14 0.5q-6 0 -12 3q0 3 -4 9q-2 5 1 5.5t3 5.5q0 2 -3.5 8.5t1.5 5.5q-4 2 -4.5 10.5 t1.5 11.5t0.5 8t-1.5 9q0 5 0.5 10.5t0.5 11.5q-1 5 0 9t1 9q0 6 -1.5 11.5t-0.5 11.5q2 10 0.5 19.5t1.5 19.5q2 0 2 -2t2 -3q7 2 8 7q-3 1 -5 0.5t-3.5 -1t-2.5 0.5t-2 6q-1 6 0 11.5t1 10.5q0 6 -1 11.5t-1 10.5q2 8 2 13q0 3 -1 6t-1 6q0 2 3 11t1 10q-4 2 -3 7t0 9 q0 5 -1 11t1 11q2 4 0.5 10.5t-1.5 11.5q1 5 1.5 10.5t-0.5 10.5t0.5 8.5t0.5 8.5q-3 13 -0.5 25.5t-0.5 24.5q-1 5 -2 9.5t4 7.5q-2 5 -2.5 9.5t-0.5 9.5v12.5t1 11.5q2 5 1.5 6t-2.5 6q2 4 0 13q0 6 0.5 12t0.5 12q1 5 -1 10t0 10q1 5 0 10t-1 10q0 7 1.5 13.5t0.5 13.5 q0 11 1 22.5t0 23.5q-1 10 0 21q1 6 -1.5 12.5t1.5 11.5q0 5 -1.5 7t0.5 7q1 3 -1 7q2 3 3 5t3 4q5 2 11 2t11 1q5 0 13 2q4 -2 9 -1q5 2 11.5 1t11.5 -2h26h13.5t13.5 1q2 0 6.5 0.5t6.5 -1.5q2 -1 2 -2.5t2 -0.5q3 -1 3.5 1.5t2.5 2.5q3 2 6 0t7 -2t6.5 1t6.5 0 q11 -2 19 1q5 1 7 -1t6 -1q10 1 20 -2q5 -2 15 -4q2 -1 7 -1q2 -2 2.5 -3.5t2.5 -2.5q2 0 2.5 2t2.5 1q3 0 4.5 -2t3.5 -3q6 0 15.5 -4.5t14.5 -9.5q3 -3 2 -6t4 -3q5 1 8 -1.5t5 -4.5l9 -9q-1 -4 -4 -7t-1 -7q2 1 3.5 6.5t6.5 0.5q4 -4 5.5 -8.5t6.5 -7.5q2 -8 5 -13.5 t7 -11.5q2 -9 6.5 -19t2.5 -18q0 -6 3 -12q2 -4 1 -6.5t-1 -6.5q0 -9 1.5 -17t1.5 -17q0 -8 -0.5 -16t0.5 -16q2 -9 -5.5 -8t-12.5 2q1 -5 8 -5h10q2 -9 0.5 -18.5t-0.5 -18.5q1 -5 1.5 -12t-1.5 -12t-0.5 -5t1.5 -5q-1 -3 -3 -6.5t-5 -4.5q2 -3 5.5 -0.5t1.5 -5.5 q-1 -3 -2 -3.5t1 -3.5q2 -6 2 -10q1 -11 -1 -21.5t1 -21.5q1 -4 0.5 -10.5t-0.5 -11.5q0 -2 -1 -4.5t-1 -5.5q0 -2 1.5 -4.5t0.5 -4.5q-2 -3 -1 -6t1 -5q1 -4 0 -6.5t-1 -6.5q-1 -8 1 -15.5t0 -15.5zM281 486q4 5 2 10t2 9q-2 0 -3.5 3t-1.5 7.5t1 9t3 6.5q-1 0 -2 4.5 t-1 10v10v4.5q5 1 2.5 2t-4.5 2t-1.5 4t-1.5 5t-0.5 3.5t-1.5 3.5l-4.5 4.5t-0.5 6.5q-5 0 -8 2.5t-2 6.5t-4 2.5t-6 -1.5q-3 3 -7.5 3h-9.5q-5 1 -10 2.5t-10 2.5q-5 0 -7 -1.5t-7 0.5q-5 1 -10 -1t-9 -4q-2 -13 -0.5 -25.5t-0.5 -24.5q-1 -6 0 -11.5t0 -10.5 q0 -6 -0.5 -12t0.5 -12q0 -6 0.5 -12t0.5 -12q0 -5 -1 -9.5t-1 -9.5t0.5 -9.5t1.5 -9.5q-2 -4 -2 -8v-8q1 -9 0.5 -17.5t0.5 -16.5q1 -9 1 -20t-6 -19q1 0 2 0.5t2 0.5q2 0 1.5 -4.5t-0.5 -6.5v-26q-1 -25 0 -51q1 -2 -0.5 -8t-0.5 -7q2 -2 1.5 -9.5t-0.5 -9.5 q0 -8 -0.5 -15t-0.5 -15q-1 -7 0.5 -13t0.5 -12q0 -5 1 -7q1 -4 0 -6t0 -6q1 -6 -1.5 -11.5t-0.5 -10.5q1 -5 0.5 -11.5t3.5 -9.5q6 -5 19 -5q11 0 20 1t20 3q8 1 13 4.5t10 8.5q6 4 9 7q2 3 1 4t1 4q1 4 2 7t2 7q3 12 3 24v53q0 6 0.5 11.5t1.5 11.5q0 4 -2 12q-1 3 0.5 5 t1.5 5t-1 5t-1 5q1 7 0 13q-2 5 -0.5 12t2.5 13q0 5 -1.5 9.5t-1.5 9.5q0 7 0.5 13.5t0.5 13.5v27q1 5 0.5 11t-0.5 11q2 11 1.5 21t-0.5 20q0 8 1 12q1 5 -1 5.5t-1 3.5z" />
<glyph unicode="E" horiz-adv-x="392" d="M371 41q0 -6 -0.5 -10.5t0.5 -10.5q1 -8 -2 -11.5t-8 -8.5q-8 0 -15 -1.5t-15 -0.5q-7 1 -13.5 2t-14.5 0q-5 -1 -12.5 0.5t-12.5 -0.5q-6 -2 -10 -2t-7 1t-6 0t-5 0.5t-4 1.5q-4 0 -7.5 -1.5t-7.5 -1.5q-6 0 -12 1.5t-12 -0.5q-8 -2 -15.5 -1t-14.5 2h-33q-8 0 -12 -1 q-4 -2 -4.5 -0.5t-4.5 1.5h-12.5t-13.5 1q-7 0 -13.5 -1.5t-13.5 -0.5q-2 0 -4.5 1t-4.5 0q-5 0 -5.5 1.5t-5.5 3.5q-6 2 -5.5 7t0.5 11q0 7 -0.5 13.5t-0.5 13.5q0 4 1.5 11.5t-0.5 9.5q-4 5 -2.5 14t1.5 15q0 14 -1 29t1 29q0 4 1 5t0 4t-0.5 6t0.5 6q1 8 0.5 16.5 t-1.5 16.5q0 7 -1 14t-1 15q1 7 1.5 13t0.5 13q-2 8 1 13q1 3 -0.5 4.5t-2.5 3.5q3 8 1.5 17t0.5 17q2 11 1 23.5t-1 23.5q0 6 -0.5 12t0.5 11q0 4 1.5 4.5t0.5 3.5q-2 4 -2 7.5t-1 7.5q0 6 1 11.5t1 11.5q0 8 -1 15.5t-1 15.5q0 7 1 13t1 13t-0.5 13.5t-0.5 14.5v12 q0 3 -1 5.5t-1 4.5q1 3 2 5.5t0 5.5q-2 8 -2 12t1 7t1 6t-1 5.5t0 6.5q0 6 -0.5 12.5t1.5 12.5q2 11 0.5 22.5t0.5 23.5q1 6 -0.5 12t-0.5 11q0 5 2 11l-2 6t0 6q2 12 13.5 12.5t19.5 2.5q5 2 7 -3q8 2 13 2q3 0 5.5 -1t5.5 -1q4 0 8 0.5t9 1.5q7 1 14 0.5t14 -0.5 q9 0 14 -1q4 -1 6.5 0t6.5 1q15 1 30.5 -0.5t30.5 0.5q7 0 13.5 -1.5t13.5 0.5q8 1 16 0t15 2q2 0 3 -1.5t3 -1.5q5 2 10.5 1.5t10.5 -0.5q11 0 16 1q3 0 3.5 -2.5t2.5 -3.5q3 -1 3.5 3t5.5 -1q7 -7 7 -19q0 -7 -2 -11q-1 -4 0 -4.5t3 -3.5q-2 -8 -1.5 -15.5t-0.5 -15.5 q0 -3 -1 -5.5t1 -5.5t1 -4.5t-2 -5.5q0 -5 1 -8.5t-3 -8.5q-5 -6 -10.5 -7.5t-12 -0.5l-13 2t-12.5 -1q-4 -1 -11 1q-3 1 -4.5 -0.5t-4.5 -1.5q-4 0 -10.5 -0.5t-6.5 3.5q-1 6 -3 2t-3 -4h-37q-4 0 -12 1t-16.5 1t-15.5 -1.5t-9 -5.5q-5 -9 -3.5 -20t1.5 -22q-1 -2 -1 -4 t-1 -4q-2 -3 -0.5 -4.5t1.5 -4.5q1 -6 -2 -11q1 -3 1 -6t1 -6q0 -7 0.5 -14t-0.5 -14v-13t1 -13q0 -8 -1.5 -19t7.5 -14q5 -2 12.5 -2t12.5 1q3 0 6 0.5t6 -0.5q5 -1 9 0t9 2q4 0 6 -1t5 -1t5.5 0.5t6.5 -0.5q6 -2 13 -1t14 1q13 1 22 -6q2 -3 4.5 -12.5t-2.5 -13.5 q5 -13 3 -27.5t-1 -28.5q0 -7 -0.5 -12.5t-6.5 -10.5q-5 -5 -13.5 -4t-16.5 1q-10 -1 -19 -2t-18 0q-5 0 -9 1.5t-9 1.5t-10.5 -0.5t-11.5 -1.5q-4 -1 -8.5 0t-8.5 -1q-6 -2 -6.5 -7.5t-0.5 -10.5q1 -12 0 -25q-1 -8 -1.5 -5t-4.5 3q-1 -5 2 -4.5t5 -3.5q-2 -7 -1.5 -14 t1.5 -14t-0.5 -13t-0.5 -13q0 -6 1 -13t-1 -13q-1 -2 -2.5 -4t0.5 -4q3 -3 2 -9v-13.5t1 -13.5v-9t3 -7q5 -4 14 -3.5t14 -0.5q13 -1 24.5 0.5t24.5 -0.5q2 0 4 1t4 1q3 -3 8 -1q7 1 13 0t13 -1q7 1 13.5 1t12.5 1q7 0 12.5 -0.5t11.5 -1.5q6 0 10 -1t9 -5q0 -4 2 -10 q2 -5 1.5 -7.5t-1.5 -6.5q-1 -3 -0.5 -9t2.5 -9q-2 -8 -1.5 -14.5t0.5 -14.5z" />
<glyph unicode="F" horiz-adv-x="397" d="M369 638q-1 -8 0 -14t-4 -12q-2 -3 -10 -6t-10 4q-3 -3 -4 -5q-2 1 -5 0.5t-6 -0.5q-2 -1 -4 0t-5 1q-4 0 -7 -0.5t-7 -0.5q-13 1 -25 1h-25q-12 1 -23.5 0.5t-23.5 0.5q-5 0 -10 -1t-10 0q-4 1 -6 -2t-3 -6q-3 -8 -2 -16t0 -16q0 -4 -1 -8t1 -7q3 -3 1.5 -12.5 t-1.5 -14.5q0 -7 0.5 -13t0.5 -13q0 -5 -1 -10t-1 -10q1 -6 1.5 -12.5t0.5 -12.5q0 -5 -2 -12.5t2 -11.5q-2 -3 -3.5 -3t0.5 -5t3.5 0t2.5 6q11 3 22 0.5t22 0.5q0 -1 -0.5 -3t1.5 -2q1 3 0 4q-1 3 3.5 2t6.5 -2h29h15t14 -2q11 7 20 -2q7 -5 5 -10.5t0 -12.5q2 -5 2 -12 t-2 -12q-1 -4 0 -5.5t1 -5.5q0 -3 -0.5 -6t-0.5 -6q1 -6 0.5 -11t-0.5 -10v-7.5t-2 -6.5q-5 -5 -10.5 -6.5t-12.5 -1.5q-8 0 -15.5 1t-15.5 3q-4 -5 -10.5 -3t-11.5 0q-7 -2 -14 -1t-13 2q-5 0 -10.5 -1.5t-4.5 5.5q1 4 -3 4t-2 -5q3 -4 -2 -3.5t-4 2.5q-2 -5 -6 -6.5 t-5 -6.5q-1 -10 0 -20v-27t2 -27q0 -4 -2 -12q0 -4 0.5 -5.5l1.5 -4.5q0 -6 -1 -12.5t-1 -13.5q1 -6 0.5 -12t-1.5 -13q0 -6 3 -12q-2 -5 -2 -9v-8q1 -6 -0.5 -11.5t-0.5 -12.5q1 -3 0 -10.5t1 -9.5q2 -1 1 -12.5t-1 -14.5v-34q0 -6 -2 -12t-10 -8q-5 -1 -11.5 -1.5 t-11.5 -0.5q-8 -1 -14.5 1t-14.5 1q-4 0 -9.5 -1.5t-8.5 0.5q-3 3 -10.5 1.5t-11.5 -2.5q-6 2 -12 1t-10 4q-5 5 -5 11t-1 14q-1 7 0 14q-1 0 -1 1v3v4q2 13 1 26l-2 26q0 5 2 11.5t0 11.5q-2 6 -2 12.5v12.5q1 28 1 54.5v54.5q-1 14 0 27t0 27q0 8 -0.5 15.5t-0.5 15.5 q1 3 1 5.5t2 5.5q1 3 -0.5 6.5t-1.5 6.5q-2 16 0 33q1 3 2 5.5t0 6.5q-1 3 -1.5 7t1.5 8q2 -1 3 -5t4 1q2 2 0.5 2.5t-3.5 2.5q-5 2 -5 5v8q0 3 0.5 6t0.5 6q0 5 -1.5 8t-1.5 7q3 15 2 28q-1 3 0 4.5t1 3.5q-2 3 -2 6.5v6.5q1 9 0 17t-1 16t0.5 16.5t0.5 16.5q0 10 1 15 q1 7 2 4.5t4 -1.5q1 2 -3 6q-2 2 -1.5 4.5t0.5 4.5q0 3 -1 5l-2 4q-1 3 0 6t1 5q1 5 -0.5 8t2.5 8q2 2 0.5 3.5t-2.5 3.5q-2 3 -1.5 7t0.5 9q2 6 -1 11q1 4 2 4t-1 5t0 10.5t4 10.5q2 4 7 5.5t9 0.5q3 0 6 -0.5t6 -0.5q4 1 8 2.5t7 -2.5q4 2 10.5 1.5t11.5 1.5q5 1 10.5 0 t10.5 -1q8 0 15 -0.5t15 -0.5h6.5t6.5 1q5 1 8 0t7 -1q13 1 24.5 0.5t23.5 -0.5q7 0 17.5 0.5t9.5 -11.5q4 -1 4.5 0t0.5 3.5t-0.5 4.5t1.5 3q2 2 5.5 0.5t6.5 -0.5q10 1 20 0q4 -1 8 -1.5t8 1.5q5 2 8 1.5t8 -1.5q8 -1 17.5 -0.5t12.5 -9.5q1 -8 0 -15q-1 -5 0 -11t0 -11 q0 -5 1 -8t1 -7q0 -6 -1 -11.5t-1 -11.5z" />
<glyph unicode="G" horiz-adv-x="439" d="M393 77q2 -8 1.5 -14.5t-0.5 -14.5q-2 -14 0 -27q1 -7 -2 -10.5t-5 -9.5q-6 -2 -12.5 -2h-12.5q-7 0 -14.5 -1t-13.5 1q-9 2 -12 12.5t-6 16.5q-2 5 -6.5 5.5t-7.5 -3.5q-5 -6 -10.5 -10t-11.5 -9q-23 -17 -50.5 -20.5t-55.5 -2.5q-3 1 -9.5 1.5t-9.5 2.5t-3.5 2t-3.5 -2 q-4 -1 -7.5 0.5t-7.5 3.5q-7 2 -11 6q-6 0 -10 3q-6 3 -11.5 6t-10.5 8t-10 9.5t-10 9.5q-2 2 -3.5 4.5t-3.5 4.5q-2 4 -2.5 4t-1.5 4q-6 2 -6.5 6.5t-4.5 8.5q-5 5 -6.5 12t-5.5 13q0 4 1.5 3.5t-1.5 3.5q-2 2 -2.5 4.5t-2.5 4.5q1 2 3 4t-1 4q-4 2 -3.5 4t0.5 7q0 4 -3 9 q1 6 0 12q-1 4 -1.5 7t-0.5 7q2 0 4 1q3 1 2 3q-1 1 -3 0t-2 1q-1 6 -1 12v12q1 10 -0.5 22t0.5 21q2 5 0 16v8q-1 5 0 5t2 3q2 5 0 10t-3 10t-0.5 10.5t1.5 10.5q2 9 1 18.5t1 20.5q-3 11 -2 21.5t1 21.5q0 10 -2 15q1 2 4 4.5t-1 4.5q-3 2 -2.5 17t2.5 20q2 1 2 -1t2 -2 q2 4 -2 7t-4 7q-1 6 0 12.5t1 13.5q1 7 -0.5 13t-0.5 13q2 8 1 15t-1 15q-3 51 21 99q11 22 28 38t37 29q4 3 9 4t7 5q3 0 9 1t8 3q4 3 9.5 3t10.5 2q8 2 15 3.5t15 0.5q11 0 24 0.5t25 -2.5q4 -1 11 -2t9 -3q8 0 13.5 -3.5t12.5 -5.5q5 0 8 -5q3 -1 5.5 -2t5.5 -3 q6 -4 10 -6l3.5 -3.5l3.5 -3.5q5 -3 9 -7.5t9 -8.5t7 -8.5t6 -9.5q4 -4 5.5 -8.5t4.5 -8.5q3 -5 5 -10.5t4 -11.5q1 -2 2 -5t2 -5t0 -3.5t-1 -3.5q6 -10 6 -26v-10t2 -9q3 -7 1.5 -14t-0.5 -14q1 -5 1 -6t-1 -4q2 -6 2 -10q1 -7 0 -14t-1 -15q-1 -6 -2.5 -13t-9.5 -9 q-5 -2 -8 -1t-8 1q-2 1 -5 0t-6 -1q-3 -1 -5.5 0t-6.5 1h-18q-5 -1 -8 -0.5t-8 -0.5q-5 -2 -8 0t-8 1h-4t-4 2q-3 0 -4 -1.5t-4 -1.5q-9 3 -11 11t-2 16q0 5 1 10t-1 10q-3 9 0 19q1 5 -0.5 10t-1.5 10q0 6 -0.5 12t-1.5 11q-3 13 -8 23q-2 6 -7.5 10t-10.5 8q-17 11 -37 2 t-27 -26q-8 -20 -6 -41q1 -5 1.5 -10.5t-1.5 -10.5q-2 -6 0 -11.5t1 -11.5q0 -5 -0.5 -9.5t-1.5 -9.5q0 -5 1 -10.5t-1 -10.5q-1 -6 1 -11.5t0 -10.5t-0.5 -11.5t1.5 -11.5t0.5 -10t-0.5 -10q0 -7 -1.5 -13t-0.5 -12q1 -2 2.5 -9t-2.5 -8q-2 -1 -5.5 0t-4.5 -3q1 -4 5 -2.5 t6 -3.5t-0.5 -8.5t-0.5 -7.5q2 -5 2 -6.5t-1 -6.5t0 -9t1 -9q-2 -12 -1.5 -23.5t0.5 -23.5v-24q0 -2 0.5 -6t-2.5 -4q-2 0 -3.5 1t-3.5 -1q3 -6 9 -9q2 -3 0.5 -6t0.5 -6q0 -2 -1.5 -2t-3.5 -2q0 -9 3 -19q2 -8 3.5 -16t2.5 -16q1 -7 5 -12t9 -10q9 -9 22 -10.5t24 1.5 q3 1 5.5 0.5t4.5 1.5q3 2 6.5 3.5t6.5 3.5q7 5 8.5 11.5t6.5 12.5q4 5 3 11.5t1 12.5q1 6 1 13t-2 13q1 3 2 5t0 5q-2 8 -1 12q0 2 3 4q-1 2 -1 4t-1 4v16q0 6 -1 12.5t-9 7.5q-5 0 -7 3.5t-4 -1.5q-1 -2 -4.5 -1t-4.5 1q-4 2 -6.5 0.5t-6.5 -1.5q-5 0 -14.5 1t-5.5 8 q-5 2 -6 2.5t-1 5.5q0 3 -0.5 6.5t-0.5 7.5q0 6 1 12t1 12q-1 7 -1.5 13t-0.5 13q0 6 2 14q1 6 4.5 8.5t8.5 4.5q5 -3 11.5 -1.5t12.5 0.5q7 -1 13 0t13 1h28q8 0 15 -1t14 -1q6 0 13.5 2t12.5 -1q5 -2 10 0.5t10 0.5q7 -2 14 -1t12 -5q3 -4 3.5 -12.5t1.5 -13.5q0 -3 -1 -5 t-1 -4q0 -4 2 -12q0 -3 0.5 -6t-0.5 -6t-0.5 -5.5t0.5 -5.5q0 -8 -1 -13t1 -13q2 -6 0 -13t-1 -14q0 -5 1 -10.5t-1 -10.5q-2 -4 0.5 -9t0.5 -10q-3 -6 -1 -12t1 -13q0 -3 -1 -5t0 -6t1.5 -7t-0.5 -8q-1 -14 -2 -27.5t0 -27.5q0 -6 3 -10q-2 -2 -2 -5v-5z" />
<glyph unicode="H" horiz-adv-x="465" d="M419 95q-1 -5 1 -10.5t0 -11.5q-2 -4 -1.5 -9.5t1.5 -10.5q1 -7 -0.5 -13t-1.5 -12q1 -7 1.5 -13t-4.5 -11t-10 -5t-12 1q-4 1 -5.5 0t-4.5 -2q-5 -2 -4 0.5t1 4.5q-5 -5 -14 -5h-16q-11 1 -20.5 2t-20.5 0q-5 -1 -9.5 -1t-6.5 5q-4 6 -4.5 9t-0.5 10q1 11 -0.5 21 t0.5 20q1 5 0 9.5t-1 9.5t1 11t1 11q0 10 -1 19t0 20q0 5 0.5 9t0.5 8q-1 2 -1 4.5t-1 4.5q0 2 1.5 3t-0.5 3q-2 4 -1 8t1 7q2 5 0 8q2 1 4 1.5t2 2.5q-1 2 -3 1t-3 1q-1 3 -0.5 6.5t0.5 7.5q-1 3 -2 2.5t1 3.5q1 4 1 12q-2 10 -1 14q0 3 1 5t0 5q-2 4 0 11q1 4 0 7t-1 7v10 t-6 8q-5 3 -11 1.5t-13 -1.5q-7 1 -13.5 1.5t-13.5 0.5q-3 1 -5 -0.5t-6 -1.5q-2 -1 -6 0.5t-7 1.5q-5 -1 -14.5 -0.5t-11.5 -4.5t-2 -10.5t-2 -10.5t1 -10t1 -10q-1 -2 0 -4t1 -5q0 -2 -0.5 -5t-0.5 -6q-2 -28 -1 -55t1 -55q-1 -28 0 -54.5t-1 -52.5q-1 -13 -4.5 -19 t-17.5 -5q-8 0 -14.5 -0.5t-14.5 -0.5q-7 0 -13.5 1.5t-13.5 0.5q-5 0 -10 -1.5t-11 -0.5q-5 1 -14.5 1t-12.5 5q-8 11 -7.5 27.5t1.5 28.5q2 8 0 11q-2 4 1 8q2 5 0.5 13t-1.5 13q-1 8 0 14.5t2 14.5t-1 14.5t0 14.5q1 8 -0.5 13t-1.5 12q-1 6 0.5 12t0.5 13v6t2 5 q-1 4 -1 8t-1 8q0 8 0.5 17t0.5 18q-1 7 -1.5 12.5t1.5 12.5q1 6 0 10.5t-1 10.5q-1 4 1 6t0 5t0 10q0 3 -1 4t0 6q0 5 0.5 9.5t0.5 9.5q0 14 1 28.5t0 28.5q-1 3 -1.5 5.5t-0.5 5.5q0 4 1.5 5t-0.5 6q-3 14 -1 31q0 12 0.5 24t-1.5 23q0 5 1 7t1 6q-1 5 -1 14q0 5 -1 13.5 t1 11.5q2 2 0.5 5.5t-0.5 5.5q0 3 0.5 6.5t0.5 7.5q1 6 0 12.5t-1 13.5q1 5 1 11.5t1 12.5q0 3 -0.5 6t-1.5 7q-1 5 0.5 9t1.5 9q-1 10 -2 21t13 16q5 2 11.5 1.5t11.5 -1.5q8 -1 16.5 -0.5t16.5 1.5q5 0 10 -1t10 0q10 3 22 1q11 -1 19.5 -9t0.5 -21q3 -14 2.5 -28.5 t-1.5 -28.5q0 -8 1 -15t1 -14q0 -2 -1 -4.5t-1 -5.5q0 -4 0.5 -7t1.5 -7t0 -7t-1 -6q-1 -4 -0.5 -7.5t-0.5 -7.5q-2 -3 -1 -11.5t3 -12.5q-3 -4 -6 -7q-5 -7 0 -6q2 1 1.5 2t0.5 2q3 2 3 -3v-6q0 -3 -2.5 -11.5t-0.5 -10.5t3 -2.5t-1 -4.5t-0.5 -6.5t2.5 -7.5q0 -5 -1 -12.5 t-1 -15t2.5 -13t10.5 -5.5t16 0.5t16 -0.5q6 0 4 -2t1 -5q4 -1 7.5 0t7.5 -1q0 2 -5.5 4.5t-0.5 4.5q6 1 12 0.5t12 -1.5q5 -1 11.5 -1.5t11.5 3.5q4 4 4 12q1 7 2.5 4.5t2.5 0.5q0 2 -3 2q-2 1 -2 6.5t1 7.5q0 6 3 12q-5 2 -4 5.5t1 6.5t-0.5 6t0.5 5q1 4 0.5 5.5t-1.5 6.5 q0 5 2.5 6.5t0.5 6.5q-3 5 -1 14q1 4 0.5 10t-2.5 11q-1 3 1 3.5t3 2.5q-3 2 -3.5 5.5t-0.5 5.5v11t1 10q0 4 -1 8t1 9q4 3 1 6q-2 3 0 5q2 5 0.5 8.5t-2.5 9.5q0 10 0.5 19.5t0.5 19.5q0 4 -0.5 6.5t2.5 4.5q2 2 4.5 4t1.5 5q-2 6 -4 0t-4 -5q-1 14 2.5 22t19.5 7 q6 0 12.5 2t12.5 1q3 -1 5 -2.5t6 0.5q4 1 12 1q6 0 12 -0.5t13 -0.5q6 0 11.5 1t11.5 -1q4 -1 6 -0.5t4 -3.5q2 -6 4 -16q1 -14 -2 -32q0 1 -5.5 4.5t-0.5 -3.5q5 -8 7 -20q2 -6 0 -9.5t1 -8.5q2 -2 1 -11t-1 -12q-2 -6 -0.5 -12t0.5 -13q-1 -6 0.5 -12.5t0.5 -11.5 q-4 -15 -2 -30.5t0 -30.5q-1 -4 -2 -6t1 -6q2 -2 2 -8q-1 -6 -1 -12.5v-13.5q1 -13 0 -26t1 -26q0 -6 0.5 -11.5t-0.5 -10.5q0 -2 -1 -2.5t0 -4.5q1 -3 1.5 -4t-0.5 -5q-2 -13 -0.5 -26t0.5 -26q0 -5 -2 -10t0 -9q2 -5 1 -4t-2 -3q-1 -2 1 -2.5t2 -2.5q-2 -6 0 -12t-2 -11 q0 -2 1.5 -3t1.5 -3q-2 -2 -2 -5.5v-5.5q2 -5 1 -11t0 -11q0 -2 0.5 -4.5t-0.5 -5.5q-2 -6 -1 -8q2 -5 1 -12t-1 -12q2 -17 0 -35q1 -3 2 -4t0 -5q-1 -3 -1 -6.5v-6.5q0 -6 0.5 -12.5t-1.5 -13.5z" />
<glyph unicode="I" horiz-adv-x="219" d="M175 89q2 -8 2 -13v-23t-1 -24q0 -5 -0.5 -10.5t-2.5 -10.5q-2 -8 -7 -8.5t-13 -0.5t-12 -1l-9 3q-4 1 -9 -2q-3 -1 -5.5 0t-5.5 1q-4 1 -11 1.5t-11 -1.5q-6 -2 -14 -1t-15 1q-8 -1 -11.5 3t-5 11t-1 14t0.5 12q0 7 -0.5 13.5t1.5 12.5q1 5 -0.5 10t-1.5 10t1.5 8.5 t-0.5 7.5t-1 12t0 12q0 5 1 11t-1 11q-3 4 1 8q2 3 1 5t-1 5q-1 10 -1.5 22t2.5 21q0 2 -1 3t-2 3q1 4 1.5 7t0.5 7q1 14 0 29q0 1 -0.5 4.5t-0.5 7t0.5 6t2.5 2.5q3 -1 6.5 4t1.5 8q-3 0 -2.5 -1.5t0.5 -3.5q-2 1 -9 -1q1 5 1 9.5v9.5q0 2 -1.5 9t0.5 9q2 1 2.5 6.5t0 12.5 t-1 13t-0.5 9q0 5 -0.5 9.5t3.5 8.5q4 3 0.5 3.5t-3.5 2.5q-1 5 0 9.5t0 9.5q-1 4 -2 9.5t1 8.5q3 4 1 14q-1 4 0.5 8t-0.5 8q-3 8 -1 15t2 15t-1.5 17t-0.5 17q0 8 3 11l1 1h1q2 1 4.5 -2t5.5 -1q0 4 -3.5 6t-2.5 7q-3 0 -3 -3.5v-5.5q-1 0 -1 -1h-1q-2 0 -3 6.5t-1 7.5v12 t2 11q1 4 -0.5 4.5t-1.5 4.5q1 4 1 14v25l-2 14t3 12q-2 7 -1 13.5t-1 13.5q0 3 -0.5 4t2.5 3q2 1 1 4t-1 5q-2 9 -1.5 20t8.5 18q4 3 12 2.5t13 0.5q10 1 22 -3q4 1 9 2.5t8 -2.5q10 3 22 3h11t12 -2q7 -2 5.5 -4.5t-1.5 -7.5q4 3 4 10q5 -2 6.5 -6.5t1.5 -10t-1 -11 t0 -8.5q2 -8 1 -15t0 -15q1 -3 0 -5.5t-2 -5.5q0 -5 0.5 -9.5t0.5 -9.5q2 -17 0 -34.5t-1 -34.5q1 -3 1 -6.5t1 -7.5q-4 -4 -2 -10q1 -5 2 -11t-2 -9q4 -6 1.5 -12.5t-1.5 -12.5q3 -14 0 -27q-1 -4 0 -6.5t1 -6.5q0 -5 -0.5 -9.5t-0.5 -9.5q2 -8 2 -13q1 -5 -0.5 -8t-1.5 -7 q-1 -2 0.5 -5t1.5 -5q0 -5 -1 -9.5t-1 -9.5q0 -8 -0.5 -15t0.5 -15q0 -3 0.5 -5.5t-0.5 -5.5q0 -5 -2 -6.5t0 -5.5q2 -3 2.5 -6.5t0.5 -6.5q-1 -6 -3 -5.5t-5 -2.5q2 -2 4 -1.5t4 -1.5v-14q-1 -7 0 -13.5t0 -13.5q-2 -23 0 -46q0 -4 -0.5 -6.5t0.5 -6.5q0 -3 0.5 -6t0.5 -7 q0 -7 -1 -13.5t-1 -13.5t1 -11t-1 -11t0 -10q0 -4 -1.5 -4.5t0.5 -3.5q2 -4 2.5 -8.5t0.5 -8.5q-1 -2 -1 -3.5t-1 -3.5z" />
<glyph unicode="J" horiz-adv-x="418" d="M373 490q0 -5 1 -11.5t-2 -10.5v-8v-6t1 -4q1 -6 0.5 -12.5t-0.5 -12.5v-26q-1 -5 0.5 -11t-0.5 -11q-1 -5 -0.5 -11t1.5 -11q0 -6 -1.5 -12.5t-0.5 -12.5q3 -12 1.5 -24t-0.5 -24q0 -8 -2 -11q4 -4 2 -11q-1 -8 -0.5 -15.5t0.5 -15.5q1 -7 -1 -14t0 -13q0 -3 1 -6t1 -6 q0 -4 -1.5 -5.5t-0.5 -6.5q2 -17 0 -33t-4 -33q-6 -13 -10.5 -25.5t-12.5 -23.5q-4 -5 -6.5 -10.5t-7.5 -9.5t-9 -8t-9 -8q-5 -5 -9.5 -8.5t-9.5 -8.5q-3 -2 -6 -2.5t-7 -2.5q-3 -1 -4.5 -2.5t-5.5 -2.5q-6 0 -9 -4q-8 -2 -13 -3q-8 -2 -15 -4t-15 -1q-6 2 -12 0t-13 -1 q-8 1 -14.5 1.5t-14.5 0.5q-7 0 -12 2t-11 3q-4 1 -5.5 2.5t-4.5 2.5q-3 2 -5 1.5t-6 2.5q-2 2 -4.5 2t-5.5 1q-3 2 -5 4l-4 4q-4 4 -9 5q-3 2 -5 4.5t-4 4.5q-5 4 -10 8.5t-7 9.5q0 2 -5 5q-4 2 -1.5 4t2.5 4q-3 0 -10 6t-5 8q3 4 0.5 4.5t-5.5 2.5q1 6 -5 12q-5 8 -4.5 16 t-3.5 16q-3 6 -3 13t-2 14q0 4 1 7t-1 6q-2 4 0 7t1 7q-1 5 0 6.5t2 5.5q-1 3 -2 5.5t-1 5.5q1 8 1 14.5v13.5q-2 9 0 18v9t8 1q0 5 -5 9t1 8q-5 6 -5 16t5 16q6 8 20 7.5t23 -0.5q13 -1 25 0t24 0q11 0 19 -3q3 -2 6 -7.5t2 -5.5q2 0 2.5 -6.5t0.5 -9.5q-1 -3 -2 -5t1 -5 q1 -4 1.5 -6.5t0.5 -6.5q-2 -8 -2 -13q0 -4 1 -6.5t1 -6.5q0 -5 -2 -11.5t-1 -12.5l1 -4l-2 -3q3 -4 1 -10q2 -3 2 -10t-1 -10q-2 -6 0.5 -12t2.5 -12q1 -3 0 -5t1 -5q3 -3 4 -6.5t4 -7.5q2 -4 7.5 -8t10.5 -5q3 0 7 -4q4 1 7 1t7 1q14 1 24 10q2 2 5 2.5t1 3.5t0 5.5t4 4.5 q5 13 5 25.5v26.5q1 15 1.5 29t-0.5 29q-2 13 0 27q1 6 0 11t-1 12q1 7 1.5 14t-1.5 14q-3 8 0 16t1 16q-2 6 -1.5 13t0.5 14q0 3 1 6t1 5q0 4 -1 7l-2 6q-1 6 1.5 11t0.5 11q-1 8 -0.5 15t-0.5 15q-1 14 0 28t1 28q0 13 -1 25t1 25q2 11 0 23t-2 23q1 4 1.5 5.5t0.5 5.5 q-1 3 -0.5 6t0.5 7q1 6 0 12t-1 13q0 6 0.5 12t0.5 12q0 7 -1.5 12.5t0.5 11.5q5 14 15 17q5 2 11 0t11 -1q5 0 7.5 1.5t7.5 0.5t10 -1.5t9 -0.5q12 0 25 1.5t25 -0.5q6 -5 9 -10t2 -13v-26q0 -14 -1 -26.5t1 -26.5q1 -7 0.5 -13.5t-1.5 -13.5q0 -5 1.5 -11.5t-0.5 -11.5 t-1.5 -12.5t0.5 -13.5q0 -7 0.5 -13t0.5 -13q-1 -15 0 -29z" />
<glyph unicode="K" horiz-adv-x="434" d="M424 19q1 -5 0 -9.5t-6 -7.5q-6 -2 -9 -4q-6 2 -9.5 1.5t-9.5 -0.5q-8 -2 -14.5 -1.5t-14.5 1.5q-7 1 -13.5 0t-13.5 -1q-2 0 -10 2q-2 0 -4 -1.5t-5 -0.5q-3 0 -6 1t-6 1q-5 1 -7 4t-7 5q-2 13 -6 25q-3 6 -4.5 12t-3.5 13q-2 6 -3.5 11.5t-2.5 11.5v3t2 3q0 2 -2 3 t-3 4q-1 5 -4 9.5t-1 9.5q-4 5 -3.5 10t-2.5 11q-3 5 -4.5 11t-3.5 12q-3 4 -3 10q1 4 -1 7t-3 7q-2 10 -5 19t-5 20q-1 4 -4 11.5t-5.5 15t-3.5 14t2 9.5q-2 3 -4 3t-2 3t-1 5q-4 7 -7.5 3.5t-5.5 -8.5q-2 -4 -3.5 -8.5t-4.5 -8.5q-2 -3 -6 -6q1 -2 -1 -7q-10 -18 -8 -41 q0 -5 0.5 -10.5t-4.5 -7.5q9 -11 -1 -19q1 -2 2.5 -1.5t1.5 -1.5v-8t1 -8v-31q-1 -14 -2 -29t1 -30q2 -8 1 -15t-1 -14q0 -5 1 -13t-3 -13q-8 -8 -21.5 -7t-24.5 0q-14 0 -28 0.5t-28 0.5q-13 -1 -21.5 5t-6.5 20q1 11 0.5 22.5t-0.5 23.5q0 14 1 27t0 27q0 6 -0.5 12 t0.5 12q0 3 0.5 4.5t-0.5 5.5t-1.5 5.5t0.5 5.5q1 5 0.5 11t-0.5 12q-1 4 0 7t2 7q1 5 -1 8t-1 8q0 14 1 27.5t0 27.5q0 7 -1 13.5t0 13.5q0 7 3 12q-3 4 -3 12q0 5 2 9q-2 8 -2 12q-1 6 0 12.5t1 13.5v27.5t-1 27.5q0 12 0.5 24.5t0.5 24.5q-1 1 2 3t-1 1q-3 -1 -3 8.5 t1 11.5q2 5 1 8t-1 8v18q0 11 0.5 21t-0.5 21q-1 5 0 9t1 9q-1 6 -1.5 12t-0.5 12q0 4 0.5 8t2.5 7q-2 4 -2 8.5v8.5q0 10 1 15q2 4 0.5 8t-1.5 9q1 6 -1 15.5t3 14.5q7 8 15.5 9.5t19.5 -0.5q4 -1 6.5 0t7.5 1q5 -1 9.5 -1.5t10.5 0.5h10t10 -1h10q5 -1 7 0.5t6 1.5 q7 0 14 -7q5 -4 4 -7.5t1 -9.5q2 -8 -0.5 -16.5t0.5 -16.5q2 -5 0.5 -8.5t-1.5 -8.5q-1 -6 -0.5 -12.5t0.5 -12.5q1 -11 0 -20.5t-1 -20.5q0 -4 1 -7t0 -8q0 -2 2 -6q-2 -4 -2 -14q1 -10 -1 -20.5t0 -20.5q1 -5 1.5 -8.5t-0.5 -9.5q-1 -5 1.5 -8.5t2.5 -7.5q8 2 11 13t6 17 q3 5 4.5 9.5t3.5 9.5q2 6 5.5 12t3.5 13q3 5 5.5 9.5t2.5 9.5l6 12t5 13q2 6 4.5 12t5.5 13l6 12q3 6 5 15q2 5 4.5 10.5t4.5 10.5q2 6 5 12t5 12q3 5 5 11.5t4 12.5q2 2 3 3.5t3 3.5q9 3 17 3q12 2 24 0.5t24 0.5q13 1 27 0.5t26 -4.5q6 -2 7.5 -5.5t0 -8t-4 -9.5t-3.5 -9 q-2 -7 -3.5 -12t-5.5 -10q-2 -2 -2.5 -4.5t-1.5 -5.5q-1 -4 -3 -5.5t-3 -4.5q-3 -6 -4 -11.5t-6 -11.5q-2 -2 -1.5 -5t-0.5 -6q-5 -3 -6 -9q-2 -5 -4 -10.5t-4 -10.5q-3 -6 -4.5 -11.5t-5.5 -11.5q-7 -13 -12 -26t-11 -26q-4 -12 -11 -26l-3.5 -7t-3.5 -6q-2 -4 -2.5 -7.5 t-2.5 -7.5q-3 -8 -7.5 -16t0.5 -17q1 -2 2.5 -4t2.5 -4q1 -3 0.5 -6t0.5 -6t2 -5.5t3 -5.5q2 -4 1.5 -7.5t1.5 -7.5l2 -5l-2 -4q-2 -3 2 -3q5 -1 6 -7q1 -8 5 -19q2 -7 0.5 -8.5t-6.5 -4.5q3 -5 8 -7q5 -1 5 -2.5t2 -6.5q2 -7 4.5 -13t4.5 -13q4 -12 6.5 -22.5t6.5 -22.5 q3 -11 7.5 -22t6.5 -22q0 -6 3 -11.5t5 -10.5q1 -5 2 -12t4 -11q2 -2 1.5 -4t0.5 -4q0 -3 1.5 -5t2.5 -5t0.5 -6.5t1.5 -6.5q2 -2 3.5 -4.5t1.5 -4.5q0 -5 1.5 -6.5t3.5 -5.5q0 -8 1 -12q2 -6 4.5 -11.5t4.5 -10.5q2 -6 2 -10.5t3 -9.5q7 -11 8 -23z" />
<glyph unicode="L" horiz-adv-x="370" d="M355 78q-1 -12 -0.5 -24.5t0.5 -24.5q1 -8 -1.5 -18t-13.5 -12q-6 -2 -12 -0.5t-12 -0.5q-5 -1 -6.5 0.5t-2 3t-1.5 3.5t-4 3q5 -3 1.5 -8t-5.5 3q-2 4 -5 5q-2 -2 0 -4.5t0 -4.5q-9 -1 -18 0t-18 1h-6.5t-6.5 -1q-8 -2 -5.5 0t-0.5 5q-3 -1 -4 -4q-4 0 -7 -0.5t-7 -0.5 q-5 -1 -9.5 -0.5t-9.5 1.5q-6 0 -21 -2t-19 3q-2 2 -6 0t-6 -2q-1 -1 -5 1q-2 2 -3 1t-4 1t-4 0.5t-4 -1.5q-8 -2 -5.5 0.5t1.5 6.5q-4 -2 -5 -4.5t-4 -4.5q-10 -2 -19 0q-1 2 0.5 2.5t1.5 2.5q-7 -1 -11 -3.5t-11 -1.5q-6 1 -11 0t-11 1q-9 4 -11 17q0 8 1 12q0 5 -1 8.5 t0 8.5q2 16 1 31.5t-1 31.5v30q0 8 1 15.5t0 14.5q-2 13 0 25.5t0 25.5q-1 13 -0.5 26t1.5 26q1 15 -0.5 30t-1.5 29t3 28q-2 8 -2.5 16t0.5 16v15.5t-1 15.5q0 2 -1 6t0 6q2 3 2.5 2.5t-0.5 3.5t-2 12t1 11q2 5 0.5 10.5t-0.5 11.5q2 14 1 27t-1 27v13.5t1 13.5q1 5 -1 9 q-2 3 0 7t1 8q-1 13 0 26q0 3 1 4t0 5q-2 3 -2.5 4t0.5 5q2 14 0 29t0 29q1 6 1.5 12t1.5 13q3 4 7.5 5t9.5 2q12 0 24 -0.5t23 -0.5q12 0 23.5 0.5t22.5 -0.5q8 -1 11 -3t8 -8q0 -3 2 -8.5t0 -7.5q-5 -7 -1 -13q-2 -5 -1 -10t1 -10q1 -14 0 -27t1 -27q0 -5 -1 -10t-1 -10 t1 -10t1 -11q0 -12 -3 -24q3 -4 2.5 -8t-0.5 -9q-2 -11 -0.5 -20.5t0.5 -20.5q-1 -6 -1 -12v-12q1 -8 -1 -14q2 -3 2 -10q1 -9 0 -20q-1 -5 -1.5 -11t1.5 -11q-2 -2 -2 -7.5v-7.5q1 -5 1.5 -11t1.5 -11q0 -6 -0.5 -11.5t-2.5 -10.5q2 -5 2 -9v-9v-38q0 -5 -0.5 -8t0.5 -8 t0.5 -11t-0.5 -11q-2 -14 -0.5 -26.5t1.5 -26.5q0 -9 -1.5 -18t-1.5 -19q1 -5 2.5 -9t-0.5 -9q-2 -6 2.5 -11.5t8.5 -7.5q4 3 9 1.5t9 -3.5q5 4 10 2t10 1q8 5 17 2t17 -2q5 1 10.5 1.5t10.5 -1.5t11 0t12 0q7 -2 14 -0.5t14 1.5q7 1 11 -1t9 -6q2 -2 2.5 -8.5t-1.5 -9.5 q-2 -2 -2 -2.5t3 -2.5q2 -2 1.5 -5t-0.5 -5z" />
<glyph unicode="M" horiz-adv-x="589" d="M542 179q0 -5 1.5 -13.5t-0.5 -11.5q-3 -5 -1.5 -10.5t0.5 -10.5q-1 -8 0 -14.5t-1 -13.5t0 -14t2 -14q1 -4 0 -5t-1 -4q-1 -3 -0.5 -6.5t0.5 -6.5q0 -8 0.5 -15.5t-0.5 -15.5q0 -5 -2 -15q-2 -6 -4.5 -5.5t-5.5 -4.5q-8 1 -14.5 0t-13.5 -1q-8 2 -12 2q-3 0 -6 -1t-6 -1 q-7 0 -13 0.5t-13 1.5q-9 0 -15 -0.5t-13 6.5q-5 5 -4 11t1 11q0 7 -1 13.5t-1 13.5t0.5 13t0.5 13t1 13.5t1 12.5q0 26 -0.5 51.5t-1.5 51.5q0 5 1 10.5t0 11.5q0 4 -1 5t0 6v5.5t2 5.5q0 8 -0.5 15t-0.5 15q-1 7 0.5 14.5t-0.5 13.5q-2 8 -1 15.5t1 15.5q-1 13 0 26 q0 3 -0.5 9l-1 12t0 11.5t3.5 6.5q-3 2 -3.5 5.5t-2.5 5.5q-2 -1 -3.5 -3.5t-3.5 2.5q-2 -2 -0.5 -3t2.5 -3q-1 -5 -1.5 -8.5t-1.5 -7.5q-2 -8 -3 -15.5t-3 -15.5t-3 -15.5t-3 -15.5q-1 -6 -4 -14.5t-1 -14.5q2 -5 -0.5 -7.5t-5.5 -6.5q-4 -6 -0.5 -7.5t1.5 -6.5t-2 -10.5 t-2 -11.5q-2 -8 -3 -13q1 -2 -1 -2t-3 -1q5 -4 2.5 -9.5t-3.5 -10.5q-3 3 -4 7t-3 7q-2 -2 -0.5 -7.5t3.5 -7.5q3 -3 2.5 -7.5t-1.5 -9.5q-2 -5 -1.5 -10t-1.5 -10q-3 -5 -3 -10t-2 -11q-2 -8 -2.5 -14.5t-2.5 -14.5q0 -5 -1.5 -5t-3.5 -4q2 -3 2 -9q0 -7 -2 -10 q-2 -2 -1 -4t-1 -5q-2 -6 -2 -12t-2 -11t-2 -10t-2 -10t-2.5 -10t-1.5 -11l-2 -10t-4 -9q-2 -3 -1 -4t0 -4q-4 -1 -7 -1.5t-7 -1.5q-5 -1 -13.5 -2t-13.5 1q-6 3 -12.5 1t-13.5 -2q-11 1 -17 13q-2 3 -4 11q-2 4 -1 7.5t-1 7.5q-5 11 -5.5 24t-2.5 24q-1 3 -2.5 5t-0.5 5 q1 5 -1 11l-4 12t0 13q-5 4 -4 9.5t0 10.5t-2.5 9t-2.5 9q-2 6 -2 12.5t-1 13.5q-2 6 -3 12.5t-3 12.5q-3 11 -4.5 22.5t-3.5 22.5q-2 14 -5.5 27.5t-3.5 27.5q-1 8 -3 14t-4 13t-2 13t-2 12q-4 10 -4 22.5t-7 20.5q-5 -2 -6 -12.5t1 -13.5q2 -8 2.5 -18.5t-9.5 -13.5 q0 -3 1.5 -3h3.5t2.5 -2.5t0.5 -4.5q1 -5 0 -10.5t-1 -10.5q0 -6 2 -9q-2 -2 -1.5 -5t0.5 -6q0 -7 -2 -10q1 -3 1 -11q0 -3 1 -5t1 -5q-1 -4 -1.5 -7t-0.5 -7q0 -8 2 -11q-1 -2 -2 -4.5t1 -4.5q0 -2 -2 -2.5t-2 -2.5q3 -3 3 -9v-12q0 -6 -0.5 -6t-2.5 -4q3 -2 4 -7.5 t1 -12.5t-0.5 -13.5t-0.5 -9.5q0 -13 1.5 -27t-1.5 -26q-1 -3 -0.5 -5l1.5 -6q-1 -3 -1.5 -6.5t-1.5 -6.5q0 -5 0.5 -10t1.5 -10q1 -6 0.5 -12.5t-0.5 -12.5v-14.5t-2 -14.5q-3 -11 -14 -11.5t-19 -0.5q-7 0 -13 -0.5t-12 -0.5q-8 -1 -15 0.5t-15 0.5t-16.5 1.5t-10.5 12.5 q-2 6 -2 11q0 4 1.5 5.5t-0.5 4.5q-1 2 -2 4.5t1 4.5q2 4 1 7.5t-1 8.5q-2 14 -0.5 28t1.5 28q-1 15 -1.5 30.5t0.5 30.5q1 11 0 22t0 22q0 5 -1 14t2 13t1 15t-2 17q0 14 0.5 29t-1.5 29q-1 7 0.5 14t1.5 15q-1 8 -0.5 16.5t-0.5 16.5q-1 7 0 13t1 12q1 6 -1.5 12t0.5 12 q5 10 2.5 26t-2.5 27q-1 5 1 12t-2 12q1 6 2 12.5t-1 12.5q2 5 1 11.5t-1 12.5q-1 7 0 14t1 15v6.5t-1 6.5q-1 4 -0.5 5t0.5 5v13t1 13q0 5 -1.5 11.5t1.5 11.5q2 4 0 11.5t-1 12.5q0 8 1.5 12.5t7.5 9.5t11.5 3t12.5 -2l24 2t24 0q13 -1 25 -0.5t24 1.5q6 0 12 -1t11 -1 q3 1 5 0l4 -2q4 -1 2 -1t0 -2q4 -4 6.5 -4.5t2.5 -6.5q1 -3 2 -5.5t2 -5.5q0 -3 -0.5 -6t1.5 -7q4 -11 5.5 -23t3.5 -24q1 -9 2.5 -21.5t8.5 -20.5q-2 -10 3 -26q2 -7 -1 -10q2 -4 4 -10q4 -12 5 -25t5 -25q2 -5 3 -12t1 -12q-1 -6 3 -12.5t2 -11.5q-1 -4 -1.5 -4.5 t1.5 -3.5q2 -2 2 -4t1 -4q0 -6 1.5 -11.5t2.5 -11.5q1 -3 0 -4.5t1 -4.5q2 -4 2 -8q1 -3 1 -5.5t1 -4.5q2 -5 1.5 -5t-3.5 -3q2 -3 3.5 -3t-0.5 -5q-2 -6 -1 -8t4 -7q5 -5 3 -13q7 -9 11 1q1 3 1.5 6t2.5 5t1.5 7t1.5 9q1 3 0.5 6.5t0.5 7.5q2 4 1.5 9t1.5 7q2 4 2.5 5.5 t0.5 6.5q0 4 0.5 8.5t3.5 7.5q-4 9 0.5 18t6.5 17q0 1 0.5 6t1.5 10.5t3 8t4 -1.5t3.5 -2.5t-0.5 2.5t-3.5 4t-3.5 3q4 3 1 7q-2 4 -0.5 5.5t3.5 5.5q-3 6 0.5 13t2.5 14q-1 8 3 14.5t2 14.5q6 15 6 33q5 3 5 10.5t1 12.5v6t2 5l3.5 3.5t-0.5 3.5q-4 4 -1 12.5t5 12.5v4t1 8 q1 4 2 11q2 -2 3 -2q0 2 -1 3.5t0 4.5t0 6t0 6q2 6 6 12t12 7q20 2 39 1l38 -2h37q8 0 18.5 1.5t16.5 -3.5q8 -7 7 -15.5t1 -17.5q-2 -11 -2 -22t2 -22q2 -19 -1 -34q0 -5 -0.5 -8.5t-0.5 -7.5q0 -2 0.5 -4.5t0.5 -4.5q1 -2 -1 -1.5t-2 -1.5q3 -8 3.5 -16.5t-0.5 -16.5v-18 q0 -5 1 -8q0 -2 -1 -4.5t0 -4.5q-1 -3 0 -5t0 -6q-2 -4 -1 -7.5t2 -7.5v-8t-2 -8q0 -5 0.5 -10t-1.5 -10q-1 -2 0.5 -4t1.5 -5q-1 -3 -0.5 -6.5t0.5 -7.5q-1 -4 -1.5 -5t1.5 -6t0.5 -6t-3.5 -5q4 -5 4 -11t-2 -12q-1 -5 1 -11t0 -11q-2 -6 -1.5 -12.5t1.5 -12.5q1 -8 0 -15 t0 -15l1.5 -6t0.5 -6q-2 -8 -2 -13q0 -3 1 -5t-1 -6q-1 -3 -1 -10q1 -14 1.5 -26.5t0.5 -26.5q-1 -8 -1 -15v-14z" />
<glyph unicode="N" horiz-adv-x="467" d="M422 109q-2 -12 0.5 -24t0.5 -24q-2 -7 -0.5 -13t-0.5 -13q-1 -5 0.5 -10.5t-0.5 -11.5q-1 -7 -4.5 -8.5t-8.5 -3.5q-2 -2 -10 -3t-12 0q-9 3 -16.5 2t-16.5 0q-11 0 -25 -1.5t-19 9.5q-5 9 -7.5 18.5t-7.5 19.5q-2 3 -1 4.5t-1 4.5q-2 6 -4 10q-5 7 -6 13.5t-5 14.5 q-3 5 -3.5 11t-4.5 11t-5 11.5t-4 11.5q-2 6 -4 12.5t-4 12.5q-2 3 -2.5 6t-2.5 5q-2 4 -2 6.5t-2 6.5t-3.5 8.5t-3.5 9.5l-4 12t-4 13q-4 10 -9.5 21t-3.5 22q-2 2 -4 2t-2 3.5t-1 5.5q-2 3 -3 5.5t-3 5.5q0 4 -2 12q-1 2 -5 8.5t-3 8.5q3 3 0 7t-4 7q-2 5 -4.5 10t-4.5 10 q-1 5 -5 13q-2 5 -3 5h-5q-2 -2 0.5 -5t0.5 -6q-2 -5 -1 -10.5t1 -10.5q-2 -29 0 -57v-4t-2 -3t-0.5 -2.5t1.5 -3.5t-0.5 -4.5t-0.5 -4.5q-1 -2 -2 -0.5t-2 -0.5q2 -3 3.5 -4.5t3.5 -4.5q1 -2 -0.5 -3t-1.5 -3q0 -3 1 -4.5t0 -4.5q-2 -7 -1 -10q1 -5 0.5 -9.5t-0.5 -9.5 q1 -8 0.5 -16.5t-0.5 -16.5q-1 -13 1 -25t0 -25q-2 -14 -1 -28.5t1 -28.5t-1 -27.5t-1 -27.5q0 -8 -4 -11.5t-10.5 -5t-14 -1t-12.5 -0.5h-5t-4 2q-2 -1 -6 -2t-6 0q-3 2 -4.5 2.5t-4.5 -1.5q-5 -1 -5.5 0t-4.5 0h-11.5t-12.5 1t-10.5 4t-5.5 11v11.5t1 11.5q2 6 1 12.5 t-2 12.5v6.5t1 6.5q2 4 1 6.5t-2 6.5q0 9 0.5 18t0.5 17q1 15 0 28.5t1 27.5v14t-1 14q-2 8 -1 14.5t1 14.5q1 8 -0.5 14.5t0.5 14.5q0 3 0.5 6t-0.5 5q-1 5 -0.5 6t0.5 5v4.5t2 3.5t0.5 5t-1.5 6q-2 8 -1 16t0 16q-1 14 0.5 28t-0.5 28q0 3 -0.5 6.5t-0.5 7.5q1 2 2.5 4 t0.5 4q-2 6 -1 11.5t0 10.5q-3 23 -1 44.5t0 43.5q-1 4 -0.5 8t0.5 8q0 5 -1 9.5t1 9.5t1 10.5t-1 10.5q0 7 1 14.5t-1 13.5q-2 8 -0.5 18t1.5 18q0 5 0.5 10.5t-1.5 8.5q-1 4 -1 9t3 9q-1 1 -1 2t-2 3q1 2 1 4.5t1 4.5v10t3 9q2 5 5.5 4.5t8.5 1.5q4 2 9 0t9 2q10 -4 20 -3 l20 2h10t10 -2q5 2 13 1t11 -6q6 -9 10 -19t7 -21t6.5 -20.5t7.5 -19.5q7 -19 13 -39.5t16 -39.5q0 -5 2 -8t4 -7q-1 -5 1 -9t4 -9q2 -3 3 -6.5t-1 -6.5q4 -5 5.5 -10t4.5 -10q0 -2 -3.5 -5.5t-0.5 -5.5q1 -1 2 0.5t3 1.5t3 -3t1 -5q4 -6 2 -10q2 -3 3 -4t1 -5q1 -3 5 -9 q2 -3 1 -6t1 -5q3 -5 6 -9.5t1 -10.5q5 -3 5.5 -8.5t2.5 -10.5q0 -2 2 -7t4.5 -11t5 -10.5t3.5 -4.5q6 1 4.5 7.5t-1.5 8.5q0 6 2 12t0 11q-5 12 -1.5 27t1.5 28q-1 13 0.5 25t-0.5 25q-1 6 0.5 12t-0.5 13q-1 16 0 32q1 28 0 54.5t1 53.5q0 6 -1.5 11.5t-0.5 11.5 q1 5 0.5 11.5t4.5 10.5q9 8 25 7t27 -1q3 0 6.5 0.5t5.5 -1.5t4.5 -0.5t4.5 1.5h13t12 -1q6 -2 11 -3.5t6 -9.5q2 -6 2 -13v-13q1 -8 0 -14.5t-1 -13.5q0 -5 1 -10t-4 -7q0 -2 1.5 -3.5t2.5 -3.5q0 -3 -0.5 -5.5t-0.5 -5.5q-1 -3 0 -5.5t1 -5.5q0 -4 -0.5 -7.5t-0.5 -7.5 q-2 -12 -1 -23.5t1 -23.5q0 -14 -0.5 -29t1.5 -30q1 -7 -0.5 -13t-0.5 -13q1 -5 -1 -11.5t0 -10.5q2 -3 -1 -6q2 -2 2 -5.5v-6.5q-1 -5 -2 -6t-2.5 -1t-3 0.5t-2.5 -2.5q2 -3 4 -3h3.5t2.5 -1t1 -6q-1 -6 -1.5 -9.5t1.5 -10.5q1 -4 -0.5 -9t-0.5 -10q0 -9 0.5 -13t-4.5 -12 l2 -6q2 -6 2 -7q1 -3 0 -5t-1 -5q0 -2 0.5 -5t0.5 -5q1 -4 -0.5 -5t-1.5 -5q2 -6 2 -10q0 -5 -1 -11t0 -11q2 -13 1.5 -25.5t-0.5 -24.5q-1 -14 1 -27t0 -27q-2 -7 0 -13.5t0 -12.5q-2 -8 -2 -12t1 -7t0 -7z" />
<glyph unicode="O" d="M396 449q0 -8 1.5 -16t0.5 -16q0 -5 -2 -10t0 -10q3 -15 1 -33q0 -2 -1 -3q-2 -2 -2 0q-1 3 -2 2t-3 -2q2 -3 6 -5t0 -7q-2 -2 -5 -4t-1 -7q4 -1 6 2.5t2 -6.5v-14t-2 -13q-1 -2 0.5 -2.5t1.5 -2.5q-1 -3 -1 -6.5v-6.5q0 -7 1 -13.5t0 -12.5q-1 -4 -2.5 -7t-0.5 -6 q1 -2 2 -3.5t1 -3.5q-1 -7 0.5 -15t-3.5 -14q2 -5 2 -8.5t1 -9.5q1 -5 -0.5 -10t-0.5 -11q1 -5 2 -11.5t-3 -10.5q-1 -3 0.5 -5t0.5 -5q-1 -5 -1.5 -8.5t-1.5 -7.5q-2 -5 -2.5 -10t-2.5 -9t-2.5 -8t-3.5 -8q-3 -6 -5 -10.5t-6 -9.5q-5 -5 -7.5 -11t-7.5 -11 q-7 -7 -13.5 -14.5t-14.5 -12.5q-6 -4 -10 -4q-2 -1 -2 -3t-2 -3q-7 0 -12.5 -4.5t-11.5 -7.5q-5 -2 -10.5 -2t-10.5 -3q-3 -2 -9 -3t-9 2q-3 -3 -8 -4.5t-10 -1.5q-4 1 -4 2t-5 -1q-5 -1 -9.5 -1h-9.5q-29 2 -52 7q-15 3 -23 8q-6 3 -11 3q-7 6 -16 11q-11 7 -22.5 16.5 t-16.5 20.5q-2 2 -4 3t-4 3q-2 5 -5 10t-6.5 10.5t-5.5 11.5q-11 26 -12.5 54.5t-0.5 56.5q1 8 0 15t0 15q2 5 0.5 10.5t0.5 10.5t1 12.5t-2 12.5q0 8 -0.5 16t0.5 16q0 13 1 27t0 28q-1 9 -1.5 18t0.5 18q-1 4 0.5 4t0.5 4q-2 9 -1 14q2 5 1 12t0 12q0 2 -1.5 4.5t0.5 4.5 q3 4 0.5 5.5t-1.5 6.5q1 2 2 4.5t1 4.5q1 5 0 8.5t-2 7.5v9t2 8q3 0 3.5 -2.5t3.5 -2.5q-3 5 -5.5 7.5t-2.5 7.5q-1 5 -1.5 10.5t1.5 10.5q2 4 0.5 11t-1.5 12q1 7 2 13.5t1 14.5q-1 2 1 6t2 5q-2 2 2.5 4.5t2.5 3.5q-3 2 -1.5 8t5 13.5t7 14t4.5 9.5q2 5 6 8t7 8l6 8t8 5 q3 0 2 3t2.5 4.5t5.5 3.5q6 5 11.5 9t11.5 8q6 0 11.5 3.5t10.5 5.5q12 5 25 6q2 0 3.5 1t3.5 1q3 1 3.5 0t3.5 1q4 2 8 2.5t5 -4.5q2 1 3 2.5t3 2.5h19q7 0 14 -0.5t15 -1.5q2 -5 4.5 -7t0.5 5q0 2 3 1.5t6.5 -1.5t7.5 -2.5t5 -2.5q4 5 8.5 1t8.5 -3q5 2 9.5 -2.5t9.5 -3.5 q0 -7 2.5 -4t5.5 -2q0 -2 -1.5 -4.5t0.5 -4.5q2 0 4 -0.5t2 1.5q2 -1 7.5 -1t5.5 -2q-2 -5 -1.5 -5t5.5 1q5 0 3 -5q2 -5 3.5 -4t5.5 -1q5 -2 7.5 -6.5t5.5 -7.5l6.5 -6.5t3.5 -8.5q5 -4 7.5 -9.5t4.5 -11.5l6 -12q0 -2 -2 -3.5t0 -3.5q5 -2 5.5 -5.5t-5.5 -6.5q1 -4 3 -1.5 t3 0.5q2 -8 -3 -10q2 -2 3.5 -2t3.5 -1q0 -4 1 -7t1 -7t-3 -7q-2 -1 0.5 -3.5t2.5 -4.5q0 -6 -3 -8.5t0 -7.5q4 -5 4.5 -11.5t-1.5 -12.5q-4 1 -6.5 3t-6.5 3q-1 -1 3 -6.5t6 -4.5q5 3 5 -4t-2 -10q3 -6 2.5 -13t-1.5 -13q-1 -8 0 -15t0 -15zM268 286q2 0 3.5 -4t5.5 -2 q-4 5 -8.5 9t-4.5 10q1 7 1.5 13t-1.5 13q4 -3 4 -2t-0.5 3.5t-1.5 5t0 4.5q3 6 -0.5 13.5t-2.5 14.5q1 2 1 3.5t2 2.5l-3 9q2 2 2 5.5t-1 6.5q0 4 -0.5 7t0.5 7q2 4 1 7.5t-2 8.5q-1 8 0.5 14t-0.5 14t1 14q2 5 1 10l-2 10q-1 8 1.5 15t0.5 15q-2 11 -1.5 21.5t0.5 21.5 q6 -2 5 -3t0 -6q5 0 7 4.5t0 9.5q-4 -1 -7.5 -3t-5.5 3q-1 4 0 7.5t0 7.5q-1 6 -4 13.5t-8 12.5q-7 5 -11 8t-12 5q-12 3 -20 1q0 1 -1 3q-2 3 -1 3q-3 4 -3.5 -0.5t-1.5 -5.5q-4 -1 -3.5 0t-3.5 -1q-2 -2 -4.5 -2.5t-5.5 -1.5q-5 -2 -8.5 -6.5t-6.5 -8.5q-5 -6 -5.5 -11 t-2.5 -12q-2 -5 -1.5 -10t-1.5 -8t0 -6.5t1 -7.5q0 -8 0.5 -14.5t-0.5 -14.5q0 -7 -1.5 -5t-4.5 -1q-2 -2 -1 -3t3 0q5 2 5 -3.5v-8.5q-1 -3 -2.5 -4.5t0.5 -3.5q2 -6 2 -9q2 -5 -1 -9q-2 -2 -1 -4t1 -5t-0.5 -4.5t0.5 -4.5q2 -5 0 -10q-1 -15 1 -26q2 -6 -0.5 -12t-0.5 -13 q1 -5 0 -9.5t0 -9.5t0 -8.5t-1 -8.5q0 -6 0.5 -11.5t0.5 -11.5v-7q-1 -2 -3 -1.5t-1 -1.5q5 -5 3.5 -9.5t-0.5 -11.5q2 -11 1.5 -24t-0.5 -25q0 -8 -0.5 -15.5t0.5 -15.5q0 -3 1 -5t0 -4q-1 -4 -1 -10v-20q0 -7 -1 -10q2 -2 2 -5t1 -6q1 -11 5.5 -21t13.5 -17q7 -5 17 -7 q6 -1 12.5 -2t11.5 1q6 1 11.5 3.5t10.5 4.5q4 1 4.5 2t2.5 4q2 2 4.5 1.5t4.5 1.5q0 2 -1.5 2t-1.5 2q4 8 5 12q2 6 2 12.5t1 13.5v14.5t1 14.5q-4 5 -2.5 12t1.5 13q0 4 -0.5 12t-1.5 17t0 16.5t4 9.5q2 2 0 5.5t2 2.5z" />
<glyph unicode="P" horiz-adv-x="439" d="M418 466q1 -5 -0.5 -8.5t-1.5 -8.5t0.5 -9.5t-0.5 -9.5q-1 -6 -2.5 -11t-1.5 -11q0 -11 -5 -19t-6 -18q-5 -7 -11 -15.5t-9 -16.5q-2 -5 -7 -8.5t-9 -6.5l-7 -7q-4 -3 -4 -2.5t-5 0.5q-5 -9 -16.5 -13.5t-20.5 -6.5q-6 -1 -10.5 -3.5t-11.5 -2.5q-8 0 -14.5 -2t-14.5 -1 q-5 1 -11 -2q-4 1 -12 1q-7 0 -13.5 -1t-14.5 -1q-5 0 -11 0.5t-11.5 -0.5t-8.5 -4.5t-2 -11.5q-2 0 -2.5 1t-2.5 0q0 -2 1.5 -2.5t3.5 -2.5t1.5 -5.5t-0.5 -5.5v-28q0 -14 -1 -27t1 -27q1 -7 0.5 -14t-0.5 -14q-1 -6 0.5 -13.5t-0.5 -12.5q-5 -14 -2 -32t2 -33v-14.5 t-1 -13.5q0 -5 1 -7t-1 -6q-2 -5 -6 -8q-2 -2 -4 -1.5t-5 -0.5q-3 -2 -3 -2.5t-5 -0.5q-8 2 -13 2t-8 -1t-8 0q-11 3 -24 1.5t-24 -1.5t-20 3q-5 1 -8 5q-2 2 -2 5t-2 6q-2 5 -2.5 12.5t1.5 12.5t1 11.5t0 12.5q2 6 0.5 11.5t-1.5 11.5q0 8 1 16.5t-1 16.5v5t2 4q-1 4 -1 12 q-1 7 0 13t0 13q-1 12 0.5 24.5t-0.5 25.5q-2 6 0 10.5t1 10.5q-2 7 -1 12.5t1 11.5v10.5t-2 8.5t-1 6.5t2 6.5v20q-2 32 0 62q0 5 2 15q0 2 -1.5 3.5t-1.5 3.5q1 8 1 15v15q-2 14 0 28q0 6 1.5 12.5t-0.5 12.5q-3 13 -1.5 26t-1.5 26q2 12 2 23.5v22.5q0 7 -0.5 12.5 t1.5 12.5q0 8 -0.5 16t-0.5 16q-1 15 -1 30t2 29q0 8 0.5 13.5t7.5 10.5l5 2.5t6 -0.5q4 -1 8 0.5t9 0.5q13 0 26 -1t26 -1q8 0 15.5 -0.5t14.5 1.5q8 2 15 0.5t15 -1.5h61.5t60.5 -11q5 -2 11 -5l12 -6q5 -3 9 -7t9 -6q6 -3 10 -7.5t8 -9.5q2 -3 4 -5.5t4 -4.5q3 -3 4 -5.5 t3 -6.5l3.5 -3.5t3.5 -4.5q2 -8 4 -12q3 -4 3 -12q1 -4 2.5 -6.5t2.5 -6.5t0 -6.5t1 -6.5q2 -3 3 -5.5t0 -5.5q0 -3 1 -4.5t1 -4.5q0 -4 -1.5 -7t0.5 -8q3 -9 3 -21q0 -7 1 -13.5t1 -13.5q0 -8 -1 -14.5t-1 -13.5v-6.5t1 -6.5zM232 395q3 1 9 1t8 2q3 4 8 4.5t10 2.5 q8 6 9 13.5t6 14.5q3 5 2.5 11t-0.5 12q0 5 1 9.5t1 9.5q0 9 1.5 18t-0.5 19q-2 5 -1.5 9.5t-0.5 9.5v12q-1 2 -2.5 3.5t-0.5 4.5q2 4 -0.5 8t-3.5 8q-2 5 -3 10t-4 10q-12 19 -36 21q-5 0 -9.5 1.5t-9.5 1.5t-10 -1t-10 -1q-3 1 -3.5 4t-3.5 -2q-2 -3 -5.5 -3t-5.5 -3 q0 -14 0.5 -26.5t-1.5 -26.5v-18q0 -2 0.5 -3.5t0.5 -3.5q1 -2 0 -4.5t0 -5.5q1 -5 1.5 -10t-1.5 -11q-2 -5 -0.5 -8.5t0.5 -8.5v-9q1 -5 0.5 -5.5t-1.5 -4.5q-1 -5 0.5 -10.5t0.5 -10.5q0 -4 -1 -6q1 -2 1 -4t1 -4q0 -4 -0.5 -7.5t-0.5 -7.5q0 -17 20 -15q9 2 17 0.5 t17 -0.5z" />
<glyph unicode="Q" d="M396 279q1 -6 2 -12.5t-1 -12.5q-1 -3 1 -9q1 -3 -0.5 -5t-0.5 -5q0 -5 1 -11.5t-1 -11.5q-1 -4 -2 -10.5t2 -9.5q1 -1 1 -10v-10q-1 -2 -2 -3t-1 -3q1 -3 1.5 -5t-0.5 -6q-1 -5 0 -10.5t-2 -10.5q-2 -5 -2 -10t-3 -8q0 -3 0.5 -6t-1.5 -7q-2 -3 -3 -5.5t-2 -5.5 q0 -6 -2 -8q-5 -2 -3 -5q-2 1 -6 1q-1 -5 1.5 -5.5t-0.5 -5.5q-2 -3 -5 -6.5t-7 -5.5q0 -5 -8 -10.5t-7 -7.5q2 -4 -5.5 -8t-9.5 -6q-1 -1 -5 -4.5t-8.5 -6.5t-7.5 -4t-3 2q-3 1 -3.5 -2t-1.5 -5t-5 -2t-6 -2q-5 -4 -11 -5q-2 0 -2.5 2t-2.5 2q1 -5 -1 -10q-2 -4 -2.5 -4 t-1 1t-0.5 3t-1 3q-2 -1 -4 -2.5t-3 0.5q-1 1 -1 3t-2 1q-5 -2 -7 -6.5t-7 -6.5q4 -3 6.5 -2t4.5 2.5t4.5 2.5t6.5 -2q3 -3 4.5 -1t3.5 -3q2 -3 5 -5.5t0 -7.5q7 -1 11.5 -3t10.5 -3q8 -2 15.5 -3t15.5 1q3 -1 4 -3.5t3 -0.5q5 4 12 -1q8 -5 8 -11.5t1 -14.5q0 -7 -2 -9 q0 -2 0.5 -3t0.5 -2l-3 -6q-4 -6 2 -8q2 -2 1.5 -7.5t-0.5 -7.5q1 -6 -1 -13.5t-1 -12.5q2 -3 -0.5 -5.5t-5.5 -4.5q-2 -2 -4.5 0.5t-4.5 3.5q-2 -3 -4.5 -6.5t-5.5 4.5q-5 -5 -12 -5q-4 0 -5 3q-2 -2 -4.5 -2t-4.5 -1q-5 0 -9.5 1t-9.5 2q-3 0 -9 2q-1 1 0 2t1 3 q-4 0 -3.5 -2t-1.5 -3q-2 0 -6 1t-2 5q-7 -2 -9 -1.5t-7 4.5q-5 0 -9 0.5t-7 5.5q-5 1 -9.5 3.5t-9.5 5.5q-2 2 -4 3t-5 3q-4 2 -4 4t-4 4q-10 5 -17.5 16t-13.5 21q0 2 -2 1.5t-2 1.5q-1 4 -2 7t-2 7q-2 3 -6 13t0 12q1 1 -2 7t-2 9q1 10 -11 15t-24.5 10.5t-22.5 13.5 q-9 8 -18.5 17t-16.5 19q-17 27 -26 56q2 5 -0.5 9t-3.5 9q0 5 -1 10.5t0 10.5q2 6 0.5 11.5t-0.5 11.5q0 3 0.5 6t-1.5 5q1 4 1 8v8q0 6 -1.5 12t-0.5 12q1 4 1.5 7t1.5 7q0 5 -1.5 7t-1.5 6q-1 7 0.5 13t-0.5 14q-1 4 1 13q1 5 0.5 10t-0.5 10q-1 4 0.5 6.5t1.5 6.5l-3 12 q0 8 0.5 15.5t0.5 15.5t0.5 14.5t0.5 14.5q0 4 -0.5 7.5t-0.5 7.5q-1 4 0 7t1 7q-3 26 0 53q0 7 -1 12.5t0 12.5v17t1 17q0 25 2.5 49t13.5 46q3 5 4.5 10.5t5.5 10.5t8 9.5t8 9.5q8 10 18 19t21 15q6 3 11.5 5.5t11.5 5.5q4 2 7.5 4.5t8.5 0.5q2 -1 8 2t10 3q8 0 14.5 2 t14.5 2q6 0 12.5 0.5t13.5 0.5q5 0 11.5 -2t11.5 0t11 -1.5t12 -2.5q3 0 5 -1t5 -2q3 -2 5.5 -1.5t5.5 -0.5q5 -2 8 -4.5t7 -4.5q5 -2 11.5 -3.5t9.5 -6.5q2 -2 3.5 -2.5t3.5 -2.5q3 -1 4 -2.5t3 -3.5t3.5 -2.5t3.5 -2.5q3 -2 3.5 -4.5t3.5 -4.5q10 -6 15 -16t13 -18 q-1 -5 3 -9q2 -3 2 -5t1 -5q1 -4 5 -10q2 -3 1.5 -6t0.5 -6q2 -6 2.5 -12t-1.5 -11q0 -2 2 -3.5t2 -3.5v-13q0 -8 0.5 -15t0.5 -15v-15.5t-1 -15.5q-1 -6 1 -13t0 -12q-2 -6 0 -12.5t1 -12.5q-2 -7 -1 -12.5t0 -12.5q-1 -3 0 -4.5t1 -4.5q1 -4 0 -7.5t-1 -7.5 q-1 -2 -1.5 -8.5t0.5 -7.5q2 -5 2.5 -10.5t-0.5 -10.5v-9t-2 -8q-2 -3 0 -9.5t1 -11.5q-1 -4 -0.5 -6.5t0.5 -6.5q0 -3 -1 -6.5t0 -7.5q0 -2 1 -4t1 -5t-1 -5.5t-1 -6.5zM159 208q0 -7 1 -21t-3 -17l0.5 -5t2 -11t3 -11.5t2.5 -6.5q1 -2 1 -7q2 0 4 -4t3 -6.5t4 -6.5 q0 2 3.5 1.5t8 -2t8.5 -3t6 -1.5q11 -2 18 0.5t16 5.5q17 5 21.5 23t6.5 33q0 8 -1 16.5t0 17.5v20q0 5 -1 12t1 12q3 5 0.5 5t-1.5 4q4 4 2.5 7.5t-2.5 7.5q0 5 0.5 9.5t1.5 9.5q0 5 -1 10t-1 10q0 4 1 7.5t0 8.5t-1 10.5v10.5v6.5t-0.5 11.5t-0.5 10.5t1 5.5q1 0 3.5 0.5 t-0.5 1.5q-3 2 -2.5 8t0.5 9q0 5 -0.5 9.5t0.5 9.5q2 3 0 7t-0.5 5t1.5 4q0 4 -0.5 7t-0.5 7q1 6 0.5 11.5t-0.5 10.5q-1 5 -1 9t-1 9q0 5 1 9t1 9q0 9 -1 19.5t2 19.5q1 3 -1 6t0 5q4 5 1.5 5.5t-4.5 5.5q0 31 -28 42q-7 3 -14 4.5t-15 -0.5q-9 -3 -16.5 -5t-14.5 -10 q-13 -13 -12.5 -30t-1.5 -34q0 -3 -0.5 -7t1.5 -7t0.5 -6.5t-1.5 -7.5q0 -2 0.5 -7t0.5 -11t-1 -10.5t-3 -4.5q5 -8 4 -18l-2 -20q-1 -11 1 -23.5t-2 -23.5q4 -3 3 -7.5t1 -8.5l-3 -3q-2 -2 -1 -3.5t2 -3.5q2 -11 1 -23t-1 -25q0 -4 1 -9t-2 -8q-1 0 0 -7t1 -9q0 -5 1 -10.5 t0 -10.5q-2 -6 -4 -9q1 -2 2.5 -4t2.5 -5q-3 -8 -2.5 -17t0.5 -18z" />
<glyph unicode="R" horiz-adv-x="440" d="M414 17q3 -10 -8 -16q-5 -3 -9.5 -2t-9.5 0q-4 -1 -7.5 -2t-7.5 1q-6 2 -11.5 0.5t-10.5 -1.5t-9 1t-9 1t-9 -0.5t-9 -0.5q-7 1 -14.5 1.5t-12.5 7.5q-2 3 -3 7t-3 7q-1 2 -1 7q0 4 -1 5.5t-3 5.5q-3 9 -5 19t-5 20q-2 5 -2.5 9t-2.5 9q0 2 -3 8t2 7q-8 5 -9 17.5 t-4 19.5q-2 5 -3 11t-3 12q-1 2 -2 5t-2 5q-1 4 -0.5 7.5t-1.5 7.5q-3 5 -3.5 10.5t-2.5 11.5q-1 3 -2.5 5.5t-1.5 5.5q1 4 1.5 4t-1.5 4q-8 10 -8 22q1 5 -2 11t-4 12q-4 9 -15.5 11.5t-15.5 -7.5q-5 -12 -3 -24t1 -24q-2 -29 -0.5 -58.5t-0.5 -58.5q0 -11 0.5 -22.5 t0.5 -22.5q1 -7 0.5 -14t-0.5 -14q-1 -8 0 -16t1 -16q-1 -9 -12 -16q-6 -3 -12 -2.5t-13 1.5q-7 0 -13.5 -0.5t-13.5 -0.5q-1 0 -5 -0.5t-5 1.5t0.5 3.5t-0.5 2.5q-6 0 -6 -4t-7 -3q-8 1 -15 0.5t-15 0.5q-16 2 -16 17v37q0 32 0.5 63t-0.5 62q-1 7 -1 13.5t-1 12.5 q2 0 3.5 -1t3.5 -1q-1 6 -4.5 11t-1.5 11q3 -2 5 -1t5 3q-1 5 -4 3t-6 -1q2 8 1.5 14.5t-1.5 13.5q0 6 1 10.5t0 10.5q-3 15 -1.5 31t0.5 32q0 6 1 12t0 13q-1 6 -1.5 12t1.5 12q1 1 3 3.5t0 4.5q-1 1 -2 1t-1 2q1 10 1 19v18q-1 16 -1.5 31.5t-0.5 31.5q0 6 1.5 12.5 t-0.5 12.5q0 3 -1.5 6.5t0.5 5.5q2 5 2.5 6.5t-0.5 6.5q-2 12 -1 24t0 25q0 7 -0.5 14t0.5 15q0 8 -1 16t0 16q0 8 1 13.5t0 13.5t0 13t3 13q2 6 6 8t9.5 2t10.5 -0.5t10 0.5q12 2 25.5 1t26.5 -2q6 0 9 2q3 -1 6.5 -1h6.5q8 0 16 0.5t16 -0.5q4 0 7 -0.5t7 -1.5q6 3 13 1 h13.5t13.5 2q2 0 9.5 -1t7.5 -3q2 0 3 1.5t4 1.5q5 -2 9.5 -3t9.5 -3q8 -2 14.5 -4t14.5 -4q5 -2 8 -5.5t9 -2.5l10 -8t11 -6q5 -5 9 -11t9 -11q8 -10 13 -21q2 -5 4.5 -9.5t4.5 -9.5q5 -11 6 -21t3 -21q1 -4 2 -6t1 -6q0 -9 1 -14q1 -7 0.5 -13.5t-0.5 -13.5q0 -4 1.5 -5 t-0.5 -5q-1 -3 -0.5 -6t0.5 -6q1 -9 1.5 -17t-1.5 -17q-1 -6 0 -14t-1 -13t-1 -10t-3 -9q2 -13 -3.5 -24t-6.5 -24q-4 -5 -6.5 -9t-3.5 -9q-5 -5 -9 -10.5t-9 -10.5q-4 -4 -8.5 -7.5t-8.5 -6.5q-5 -4 -10 -7t-10 -2q2 -4 0.5 -7.5t-0.5 -8.5q0 -4 2 -9t3 -9q2 -9 5 -17 t5 -16q5 -17 10 -31.5t10 -30.5t9 -32t9 -33q3 -8 4.5 -17.5t6.5 -17.5q5 -10 5.5 -21t6.5 -20q-1 -6 4 -11q2 -5 2.5 -10t2.5 -10zM218 405q5 -2 15.5 -1t15.5 4q3 3 6.5 4.5t7.5 3.5q3 5 5.5 9.5t4.5 9.5q3 7 3 16q-1 5 1 8t1 8q-1 4 0 8l2 8q0 6 -0.5 12t-0.5 12 q1 7 0 15.5t-2 16.5t-1 17.5t-4 17.5t-7 15.5t-12 12.5q-7 4 -14 5q-5 0 -7 1q-2 2 -3.5 0.5t-3.5 -1.5t-4.5 2t-5.5 1h-16q-3 -1 -6.5 -1t-7.5 -2q-7 -2 -6 -7t0 -11q-2 -8 -1.5 -17.5t-0.5 -18.5q-1 -10 0 -19.5t2 -18.5q0 -5 -1.5 -8.5t0.5 -8.5t1 -7.5t-2 -7.5 q-2 -10 0 -19.5t2 -19.5q1 -9 -1 -20t4 -19q9 -1 18.5 -3t17.5 3z" />
<glyph unicode="S" horiz-adv-x="412" d="M394 160q-1 -4 0 -9t-2 -7q-1 -1 -1 -8.5t-1 -9.5q0 -4 0.5 -5.5t-1.5 -4.5q-2 -4 -3.5 -7.5t-3.5 -7.5t-1.5 -9t-5.5 -7q-1 -6 -3.5 -10t-5.5 -9q-2 -2 -2.5 -3.5t-2.5 -3.5q-4 -2 -4 -3t-2 -4q-3 -5 -7.5 -9t-7.5 -9q-3 -4 -5 -3.5t-5 -2.5q-6 -6 -10 -8q-9 -7 -22 -13 q-26 -12 -53 -15q-6 -1 -11.5 -2t-12.5 0q-5 1 -10.5 -0.5t-10.5 0.5q-7 2 -13.5 1.5t-13.5 -0.5q-8 1 -15.5 3.5t-15.5 5.5q-23 9 -42 21.5t-34 32.5l-8 12t-7 12q-2 3 -3.5 6.5t-3.5 6.5q0 7 -2 11t-5 7q0 4 -0.5 7t-1.5 7q-2 7 -4 13.5t0 13.5q2 5 0 11t-1 11 q0 6 -1 11.5t0 10.5q1 6 0.5 12t-0.5 12q0 8 1 11q1 4 0 6.5t0 6.5q1 8 8 11.5t15 4.5h6.5t7.5 -2q7 1 13.5 1.5t13.5 -2.5q5 0 8 1.5t8 -0.5q5 -1 10.5 0.5t11.5 0.5q14 0 17.5 -6t3.5 -20q0 -5 1 -9t1 -9v-30q0 -10 1 -26t9 -24q3 -3 4 -7.5t5 -6.5q5 -3 9 -6.5t9 -5.5 q4 -2 10.5 -1t11.5 0q6 -2 12 0q5 2 5 1.5t5 -2.5q2 2 0 3t3 3q4 1 8 7q5 5 9 6q4 0 3.5 2.5t0.5 5.5q2 9 5 13q2 4 0.5 8.5t-0.5 8.5q2 8 0.5 14l-3.5 14q-3 19 -12 34q-3 8 -9 14q0 1 1 6t-2 4q-6 0 -8 4q-3 4 -4.5 7t-4.5 6q-15 16 -31 31q-7 8 -13.5 14t-14.5 13 q-8 6 -14 13t-14 14q-6 5 -10.5 11.5t-10.5 11.5t-10.5 11t-9.5 12q-5 7 -9.5 13t-9.5 14q-2 4 -4.5 6t-3.5 6t-7 12q-5 7 -6.5 14t-6.5 14q-5 8 -5.5 17t-2.5 17q2 1 5.5 -1t3.5 3q-2 5 -6 2.5t-5 4.5q-1 4 -0.5 5.5t-1.5 5.5q-3 4 -1 10q1 6 -0.5 12.5t0.5 12.5 q2 11 2 22.5t4 23.5l3 12q1 5 5 10q2 3 2 6t1 6q3 4 4.5 7t3.5 8q14 23 37 41t50 26q2 1 5.5 2.5t4.5 -2.5v-3.5t3 -2.5q5 1 3.5 5t4.5 6q4 1 11.5 3t9.5 -3q2 -8 3.5 -2.5t2.5 6.5q14 -1 27 0t27 -2q6 -1 11 -5q2 0 5.5 0.5t5.5 -1.5t1.5 -4t3.5 0t6.5 1t6.5 -3 q12 -5 23 -12t19 -18q2 -2 3.5 -1.5t3.5 -2.5q3 -4 7 -7l2.5 -2.5t0.5 -3.5q0 -2 3 -4.5t5 -4.5q1 -2 1.5 -4t2.5 -4q3 -2 2 -3.5t1 -4.5q2 -5 4.5 -8t4.5 -8q1 -2 1.5 -4.5t2.5 -4.5q0 -7 3 -13q2 -6 2 -12.5t1 -13.5q1 -8 2 -15t1 -14q1 -7 0 -14t0 -14q1 -9 1.5 -20 t-4.5 -19q-6 -9 -15 -6q-5 2 -12 0.5t-13 -1.5q-6 -1 -12 -0.5t-12 1.5q-6 0 -10 -1q-4 -2 -6 -0.5t-6 1.5q-2 1 -4.5 -0.5t-4.5 0.5q-1 2 -1 3t-1 2q-2 2 -2.5 -2t-5.5 -3q-13 2 -14 13q-2 5 -2 12t2 13q1 2 0.5 10t-2.5 11q-2 5 -1 12t1 12q-1 6 -2.5 10t-3.5 9 q-2 7 -4.5 13t-9.5 10q-5 2 -9.5 4.5t-9.5 4.5t-9.5 0.5t-9.5 -1.5q-7 0 -12 -3t-10 -7q-6 -5 -8.5 -8t-4.5 -11q-3 -6 -3 -13v-9q-3 -2 -5 -5q5 -7 5 -14q0 -4 -1 -7t2 -5q4 -3 4 -7q-1 -2 1 -5.5t4 -6.5q3 -7 8 -13.5t0 -13.5q2 -2 3 0.5t3 0.5q6 -4 9 -11q6 -8 10 -11 q5 -5 2 -4t-2 -3q9 -1 16 -10q3 -4 7 -7q3 -3 1.5 -4t-0.5 -5q2 -1 2 1t2 2q2 -2 5 -4t5 -4q3 -5 3.5 -6t5.5 -4l6.5 -6.5t7.5 -6.5l24 -24l5.5 -5.5t6 -7t2 -7t-5.5 -6.5q3 -2 6.5 0t4.5 5q5 -4 4 -4.5t-3 -4.5q2 -2 4 0t4 1q3 -3 2 -6t4 -4q5 -2 11.5 -11t8.5 -14 q5 -7 8.5 -13t8.5 -13q1 -1 3 -4.5t4.5 -8t3 -8.5t-1.5 -4q5 -3 6.5 -8t3.5 -10q1 -2 1.5 -5t2.5 -6q1 -3 0.5 -4.5t0.5 -4.5q2 -5 3.5 -9.5t1.5 -11.5q0 -8 1 -12t0 -7t0 -7q2 -5 1 -11t-1 -11z" />
<glyph unicode="T" horiz-adv-x="391" d="M385 649q-1 -5 1.5 -11t0.5 -11t-2 -10t-4 -9q-4 -3 -9 -4t-10 -1q-3 1 -6 1t-6 1t-6.5 0.5t-5.5 1.5q-6 -5 -10 -3.5t-10 1.5q-3 1 -4.5 -0.5t-4.5 -0.5q-3 2 -5 1.5t-5 -1.5q-7 -2 -14 0t-15 0q-5 -2 -6 -7.5t-2 -10.5t0.5 -10.5t0.5 -10.5q0 -6 -1 -11.5t0 -10.5 q2 -7 1 -14t0 -14q1 -2 -0.5 -3.5t-1.5 -3.5q2 -5 2 -15q0 -13 -0.5 -25.5t0.5 -25.5v-6.5t1 -7.5q-2 -2 -4 -3t0 -3q4 -6 3 -14t-1 -15q0 -8 0.5 -14.5t0.5 -14.5q1 -2 -0.5 -2.5t-2.5 -2.5q2 -4 2 -7q1 -5 1 -10v-10q-1 -2 -1 -4.5t-1 -4.5q-1 -3 0.5 -7t1.5 -7 q1 -14 0 -27v-15q-6 -2 -7 -6q-2 -3 -0.5 -4.5t3.5 -2t3.5 -1.5t0.5 -4q-2 -8 0 -13.5t0 -12.5q-3 -24 -1 -47.5t0 -47.5q-1 -6 0.5 -11t0.5 -11t-1 -12v-12t0.5 -12t0.5 -12q0 -9 -1 -17.5t1 -16.5q1 -3 -1 -3.5t-3 -2.5l2 -4t1 -4q-2 -5 -6 -6.5t-8 -3.5q-7 -2 -12 -2 t-12 1q-8 2 -14 0q-5 -1 -7.5 0.5t-7.5 0.5q-12 -2 -25 -1t-24 1q-5 0 -10.5 5t-4.5 10q1 4 1 10.5t-2 9.5q-2 4 -0.5 14t1.5 15q-1 8 -1 15.5v15.5q-1 14 -1 28.5t2 28.5q1 5 -0.5 11t-0.5 12t0.5 12.5t-0.5 13.5q1 6 2 12.5t0 12.5q-4 16 -1 28q2 7 0.5 14t-1.5 13 q0 7 1 13t1 12q0 7 -1.5 14t-0.5 14q1 6 0.5 12t0.5 12q1 5 -1 15q-1 5 1 7.5t0 7.5q-2 8 -0.5 17t0.5 18q1 0 2.5 -1t2.5 1q0 2 -1.5 2.5t-3.5 2.5t-1 7.5t1 7.5q0 1 4 -0.5t4 0.5q-2 5 0 3t6 -1q-2 3 -2 7.5t-3 6.5t-4 1t-1 -3t0.5 -4.5l0.5 -2.5q-5 0 -6 7.5t-1 10.5 q1 8 2 15.5t0 16.5q-1 5 -1.5 10.5t0.5 11.5q0 3 3 8q-2 2 -2 5.5v6.5v8t4 6q5 4 1.5 4.5t-5.5 0.5q-2 6 -0.5 11t2.5 10q-3 5 -3.5 10t-3.5 10q-7 2 -13.5 1t-12.5 1q-2 1 -4.5 2.5t-4.5 -0.5q-1 -3 -5 -3q-10 2 -21.5 0t-19.5 3q-3 2 -6.5 -0.5t-8.5 -1.5q-4 0 -6 4 q-4 -4 -7.5 -2t-7.5 4q-2 14 -2.5 28.5t-0.5 28.5q0 8 0.5 15t0.5 15q0 4 0.5 12.5t4.5 10.5q2 1 4 0.5t4 -0.5q2 1 1.5 3t1.5 2q6 -1 12.5 -1.5t12.5 -0.5q7 1 14 1h14q3 0 6 -0.5t7 -0.5q5 -1 6 -2t4 -5q2 1 1.5 3t-0.5 3q3 1 9 1t12 -0.5t12 1.5q2 0 3.5 -1t3.5 -1 q3 1 6.5 0.5t7.5 0.5q3 1 4.5 1t4.5 -2q1 0 4.5 -1t2.5 0l-2 1h12h9t6 1q0 -5 -0.5 -10t4.5 -8q2 1 1 2.5t1 1.5h2h-2q-4 2 -4.5 6.5t3.5 6.5q5 2 9.5 1.5t9.5 -0.5q5 1 9.5 0.5t10.5 -0.5q7 0 14 1t14 -1q5 -2 11.5 -0.5t11.5 1.5q14 -1 29 0q6 1 12.5 -0.5t13.5 -1.5 q5 1 10 1.5t10 0.5q14 -1 17.5 -6.5t3.5 -17.5v-15t-1 -15q-1 -3 0 -5t1 -4q0 -7 -1 -12z" />
<glyph unicode="U" horiz-adv-x="458" d="M414 495q-2 0 -2 -2q1 -5 0 -8t0 -8q0 -5 0.5 -9t-1.5 -9q2 -3 2.5 -7.5t-1.5 -8.5q-2 -3 -1 -4.5t2 -6.5q1 -7 -3 -4.5t-5 -2.5q0 -4 6 -2q5 0 1.5 -4t-3.5 -5q1 -1 2.5 -1t1.5 -2q-1 -5 -1 -15v-15t1 -14v-31t-1 -31q0 -7 0.5 -14t1.5 -14q0 -7 -1.5 -14.5t0.5 -13.5 q2 -5 1 -5.5t-2 -3.5q0 -5 2 -13q0 -4 -1 -6t0 -6q1 -9 0 -18q0 -8 -0.5 -14.5t-0.5 -14.5q0 -4 1 -7t1 -7q0 -3 -1.5 -5.5t-1.5 -5.5t0.5 -6t0.5 -5l-2 -6l-2 -6q-2 -8 -3.5 -14.5t-4.5 -14.5q-11 -23 -25 -41.5t-34 -32.5q-5 -3 -9 -6t-9 -5q-2 -1 -4.5 -1t-3.5 -2 q-1 -3 -6 -3q-4 -1 -5 0.5t-3 -1.5q-3 -2 -4 -3t-5 -1q-8 -1 -15 -3.5t-15 -2.5q-7 0 -13 -1.5t-13 -0.5h-24q-14 -1 -24.5 3t-22.5 6q-26 4 -48 20.5t-38 36.5q-5 5 -9 11t-6 12q-3 6 -4.5 12.5t-5.5 11.5q-3 5 -2.5 10t-1.5 10q-2 6 -3.5 12.5t-0.5 12.5q2 6 -0.5 10.5 t-1.5 10.5q0 5 -0.5 9t0.5 9q1 2 1 3.5t1 3.5q0 3 -1.5 5.5t-0.5 5.5q2 6 1 10.5t-1 10.5q0 11 1.5 21.5t-1.5 20.5q-2 5 0 10t2 10q0 8 -1 14.5t-1 13.5q2 14 1 26.5t0 26.5v24q0 4 -1.5 11.5t0.5 10.5q2 4 1.5 9.5t-1.5 10.5v14q0 2 1.5 5.5t0.5 5.5q-4 8 -1.5 18t0.5 18 q-1 11 -1.5 21.5t0.5 21.5q0 4 1.5 8.5t-0.5 8.5t0 7.5t0 8.5q-1 4 0 9t0 10q-1 6 0.5 12.5t-0.5 12.5q-1 5 -1 10v10q0 3 0.5 5t1.5 5q0 4 -1 7t-1 7q0 5 1 10.5t1 11.5q-1 7 -1.5 13.5t0.5 13.5q1 5 2 9t6 6q6 2 12 1.5t12 0.5q5 1 9.5 0t9.5 -1q8 0 14.5 0.5t13.5 0.5 q5 0 8.5 -1t8.5 0t9.5 0.5t6.5 -5.5q3 1 2 2.5t1 2.5q7 0 9 -2q8 -5 8 -10.5t1 -12.5q0 -18 -0.5 -35.5t0.5 -35.5q0 -4 0.5 -7.5t0.5 -8.5q-2 0 -2.5 -2.5t0.5 -4.5q2 -3 2 -8q-1 -5 -1.5 -8t-0.5 -8q2 -18 1.5 -36t-1.5 -36v-18t1 -17q0 -9 -0.5 -16.5t-0.5 -15.5 q1 -9 0.5 -17.5t-0.5 -17.5q1 -4 1 -7.5t1 -7.5q-1 -5 -1.5 -7t1.5 -7q0 -3 -1.5 -4.5t-0.5 -4.5q1 -4 1 -8v-8q2 -16 0 -31v-31q0 -8 -0.5 -14.5t-1.5 -14.5q-1 0 -2 1q-1 0 -0.5 -1t2.5 -1q3 0 2.5 -7t-0.5 -9v-47v-24t1 -23q2 -5 3 -9t3 -8q2 -5 5.5 -9t5.5 -9q4 0 7 -2 t6 -3q5 -2 7 -1t6 0q4 0 6 -1.5t6 -0.5q3 0 4 -2q2 1 3 2.5t3 2.5q9 -2 15.5 2.5t11 12t7 16t2.5 14.5q0 5 1.5 8.5t1.5 8.5t-0.5 9t-0.5 9q-1 9 0.5 18t0.5 17q-2 8 -0.5 16t-0.5 16q-2 9 1 16q-3 11 -1 25v20.5t1 19.5q0 4 1 6l2 4q-4 3 -3.5 5.5t0.5 7.5q0 23 -0.5 45.5 t0.5 45.5q4 -2 4.5 0t-0.5 5t-3 6.5t-2 4.5v35v16t-1 16q0 10 3 14q-1 4 -1 7.5v6.5q0 8 -2 11q1 4 1 8t1 9q0 10 -0.5 19.5t-1.5 18.5v16q-1 3 1 4t0 5q-1 2 0 10t5 9q-5 5 -5 13.5v16.5v8t3 7q5 2 9 4.5t9 1.5q9 -2 17.5 -0.5t16.5 0.5q5 -1 7.5 -1h7.5q4 1 9 1t7 -4 q1 2 5.5 2.5t9.5 0.5t10 -0.5t7 -0.5q8 -2 11 -7q-2 -5 0 -11t0 -11q5 -5 2.5 -12t-1.5 -12q1 -8 0 -15q-2 -4 -0.5 -8t1.5 -9t-0.5 -7.5t0.5 -6.5q2 -6 0 -11t-2 -11q0 -4 2 -7.5t0 -7.5t-0.5 -10t-1.5 -8q-5 -4 -2 -4.5t4 -2.5q-2 -5 -1 -10t0 -10q0 -3 -3 -6q3 -3 3 -8 q1 -5 0.5 -10.5t0.5 -11.5q0 -6 1 -9z" />
<glyph unicode="V" horiz-adv-x="420" d="M407 685q-2 -5 -2 -15t-6 -12q-1 -4 2 -2.5t1 -5.5q-2 -5 -3 -10.5t-3 -11.5q0 -2 -0.5 -7t-1.5 -11t-2 -10.5t-4 -4.5q2 -1 1 -8.5t-1 -9.5q-1 -2 -1.5 -4.5t-2.5 -4.5q1 -3 0.5 -6t-0.5 -6q-2 -5 -3.5 -11t-3.5 -11q-1 -4 2 -7q-1 -2 -2 -3t-2 -3q1 -4 0 -7 q-4 -11 -4 -23t-7 -21q1 -6 -0.5 -12t-3.5 -12q0 -3 -0.5 -6t-0.5 -6q0 -5 -1.5 -7.5t-2.5 -7.5q-1 -14 -5 -28.5t-5 -28.5q0 -5 -0.5 -5.5t-2.5 -4.5q1 -3 -1 -11q-1 -5 -4 -12t-1 -13q1 -2 0 -4.5t-2 -4.5q-2 -3 -1 -5.5t0 -5.5q-2 -6 -3 -12t-4 -12q0 -7 -1 -13.5 t-3 -13.5l-2 -6l-2 -6q1 -5 0 -9.5t-3 -8.5q-3 -6 -2.5 -13.5t-1.5 -15.5q-2 -7 -3.5 -13.5t-2.5 -13.5q0 -5 -1.5 -11.5t-3.5 -11.5q-1 -3 -1.5 -5.5t-2.5 -4.5q-2 -3 0 -5t0 -4q-4 -2 -2.5 -6t0.5 -8q-2 -5 -2 -4t1 -4q0 -3 -2 -11q-3 -5 -3 -9.5t-1 -9.5q-2 -8 -3 -15 t-4 -14q-2 -5 -1 -10t-1 -10t-4 -8.5t-6 -6.5q-5 -4 -9.5 -3t-9.5 1q-3 0 -5.5 -1t-5.5 0q-4 0 -8 1t-9 0q-6 0 -12 -1.5t-13 -0.5q-7 0 -14 0.5t-14 1.5q-6 0 -10.5 -0.5t-9.5 3.5q-7 5 -6.5 10t-1.5 12q-2 4 -3.5 7.5t-1.5 8.5q0 4 -1.5 9t0.5 8t0 5t-3 7q-2 4 -2.5 8 t-1.5 8q-2 9 -3.5 18.5t-3.5 18.5q-1 4 -2.5 7.5t-0.5 7.5q0 4 -1 8t-2 9q0 10 -2 15q-1 4 -2.5 7t-1.5 7t-1 7t-2 7q-1 3 0 7t-1 7q-4 7 -5 15t-3 16q0 1 -1 6t-2 10.5t-0.5 9t2.5 3.5q-5 5 -6.5 13.5t-2.5 16.5q-1 3 -1 5t-2 5q-5 6 -1 5.5t6 -0.5q1 4 -6 6q-2 3 -1.5 5.5 t-1.5 6.5q-4 5 -3.5 14t-1.5 16q0 6 -3 12q-2 3 -2 8.5t-2 10.5q-2 11 -3.5 20.5t-4.5 20.5q-5 18 -5 35q-5 8 -5.5 14.5t-2.5 14.5q-3 9 -3 17.5t-2 16.5q-2 9 -3.5 16t-3.5 16q-2 8 -3 18t-4 18q-2 5 -3 9.5t-1 9.5q-1 5 -3 11.5t0 11.5q1 5 -1 6.5t-4 5.5q0 2 2.5 3.5 t0.5 3.5q-6 5 -6.5 15t-2.5 17q-2 11 -1.5 16t10.5 10q4 2 7.5 1t8.5 0q6 1 12 1h12q11 0 22.5 0.5t22.5 -1.5q7 -1 17 0.5t15 -5.5q-2 -3 -3 -0.5t-3 0.5q2 -8 9 -4q2 -2 2 -5.5t1 -5.5q2 -4 0 -5.5t0 -4.5q3 -7 5 -13t1 -13q-2 -10 2 -19t4 -19q0 -5 1.5 -7.5t0.5 -6.5 q-1 -5 3 -13q2 -4 1 -6.5t1 -6.5t2 -8v-9q-1 -8 2.5 -16.5t1.5 -16.5q0 -2 2 -4t0 -4q-1 -4 -3 -1t-4 1q2 -5 5.5 -7.5t4.5 -8.5q1 -5 2 -9.5t1 -9.5q1 -5 1 -9.5t2 -8.5q4 -5 2.5 -14t0.5 -15q4 -12 6.5 -25t3.5 -25q0 -13 5 -25.5t3 -24.5q-2 -11 2.5 -22t0.5 -22 q4 -2 6 -8t4 -5q5 3 4.5 9t1.5 11q2 4 2.5 10t1.5 11q2 1 3.5 0.5t3.5 0.5q0 2 -1 3.5t1 4.5q-2 3 -4.5 0.5t-0.5 6.5q1 4 1.5 4.5t0.5 5.5q0 9 3 17q3 11 3.5 22t3.5 22q4 10 4.5 20.5t1.5 19.5q0 5 2.5 10.5t1.5 10.5q-1 4 1 10t4 10q2 3 0.5 7t0.5 8q3 4 3 12t1 13 q0 3 0.5 10.5t3.5 9.5q2 1 1 7t1 8q2 5 2 11t1 11q0 3 1 5.5t2 5.5q2 4 1 7.5t-1 7.5q1 4 2.5 5.5t1.5 6.5q1 4 1 7.5t1 7.5q1 8 2 15t3 15q1 5 1.5 12.5t2.5 14t5.5 11t11.5 4.5q5 0 10 -1t10 1t9.5 0.5t10.5 -0.5q14 2 28.5 0.5t28.5 1.5q7 1 10.5 -3.5t4.5 -11 t-0.5 -13.5t-3.5 -11z" />
<glyph unicode="W" horiz-adv-x="618" d="M602 722q8 -5 7 -15.5t-3 -17.5q-4 -10 -4 -20t-2 -21q-2 -5 -2 -9.5t-1 -9.5t-3.5 -10.5t-0.5 -10.5q1 -5 -1.5 -9.5t-1.5 -9.5q0 -7 -3 -13t-2 -14q-2 2 -4 0q0 -2 2 -2t2 -2q-4 -6 -4 -11q-1 -6 -0.5 -12.5t-1.5 -11.5t-2 -9.5t-1 -9.5q0 -5 -4 -8q1 -4 0 -8 q-2 -4 1 -8q-4 -1 -4 -8q0 -2 0.5 -3.5t-1.5 -3.5t-1 -6q1 -5 -0.5 -11.5t-2.5 -11.5q0 -7 -3 -13q0 -8 -1 -12t-1.5 -5t-0.5 -4q1 -3 0 -6t-1 -6q-4 -7 -2 -13q0 -2 -1.5 -2t-1.5 -2q2 -7 -0.5 -13t-2.5 -13q0 -5 -1.5 -11t-3.5 -10q-2 -5 2 -8q-3 -3 -3 -10 q-1 -5 -2.5 -10t-1.5 -9q1 -3 -1 -9q-2 -2 -1 -3t1 -3q-2 -6 -2.5 -8.5t-5.5 -5.5q4 -2 4 -6t-1 -7q-2 -4 -2 -3.5t0 -4.5q0 -8 -2 -11q-2 -5 -1.5 -9.5t-0.5 -9.5q-2 -8 -4 -11q1 -6 -1 -11q-1 -2 -1.5 -2.5t-1.5 -2.5t1 -3t2 -3q-3 -4 -3.5 -9t-1.5 -10q0 -5 -2 -9t-1 -9 t-1 -9.5t-2 -9.5q1 -6 -0.5 -11t-3.5 -10q-2 -7 -2 -14t-2 -14q-2 -5 -1 -8t-1 -8t-2.5 -10t-1.5 -10q-1 -8 -2.5 -18t-8.5 -16q-6 -2 -12 -2h-13q-8 0 -14 -1t-14 1q-5 2 -8.5 0t-8.5 -1q-3 2 -5 0.5t-5 -1.5q-2 0 -4.5 1t-5.5 2q-6 1 -10 0.5t-8 5.5q-2 4 -3.5 5.5 t-1.5 6.5q0 6 -2 14q-1 5 -2 10.5t-2 10.5q-2 6 -2 12t-3 11q-2 4 -1.5 9t-0.5 10q-2 5 -2 11.5t-2 10.5q-2 5 -1 9t-1 9q-2 6 -2 13.5t-3 12.5q-2 5 -2 11v11q-1 5 -3.5 10t-2.5 10q3 3 0 7q-3 2 -2 4.5t0 6.5q-1 6 -1.5 12.5t-1.5 12.5q-1 5 -2.5 10t-2.5 10q-1 6 -1 12.5 t-2 12.5q2 0 4 -1.5t4 0.5q3 2 2 3t-3 1q-5 -2 -8 2t-2 9t-1 10.5t-2 10.5q0 3 -0.5 6t-0.5 6l-3 6t-1 7q0 1 -0.5 7t-2 12t-3.5 10t-4 2q-3 -2 -2 -7t-2 -8q-4 -3 -4 -11.5t-1 -13.5q-2 -13 -3.5 -26t-4.5 -26q-2 -7 -2.5 -13t-1.5 -13q-2 -8 -4 -15t-2 -15q0 -2 -2 -4.5 t0 -4.5q2 -4 0 -7q-2 -5 -2 -12.5t-3 -9.5q-2 -2 -2 -8.5v-8.5q0 -7 -2.5 -12.5t-1.5 -12.5q1 -11 -3 -21.5t-4 -22.5q0 -6 -2 -12t-2 -13q-1 -8 -2.5 -15t-2.5 -15q0 -5 -1.5 -10t-2.5 -10q-1 -6 -1.5 -12t-2.5 -12q-6 -13 -18 -12.5t-23 0.5q-6 0 -11 -1t-10 0t-10 1h-10 q-8 -1 -19 -0.5t-16 9.5q-3 5 -2.5 10.5t-1.5 10.5q-1 2 -2.5 4.5t2.5 4.5q-5 7 -5 12q0 7 -1 14t-3 14q-2 8 -2 15.5t-2 15.5q-2 7 -2.5 14t-2.5 14l-2 6t-1 7q-1 3 0 6t0 7q-1 3 -2.5 5.5t-1.5 5.5q-1 4 -1 11q-2 15 -6 25q-2 5 -1 10.5t-1 11.5q-2 5 -2 11t-2 12 q-2 8 0 12q0 3 -1.5 4.5t-2.5 3.5q0 8 -1.5 15.5t-2.5 15.5q-1 5 -2.5 11t-1.5 12q-1 5 -3.5 11.5t-0.5 10.5q2 5 0 11.5t-3 11.5q-2 8 -3.5 15t-3.5 14q-2 5 -1.5 9t-0.5 9q-2 7 -2 13.5t-2 13.5q-1 3 -1 6t-2 6q1 3 1.5 5t-1.5 5q-5 16 -6 33q-1 6 -1 12t-2 11t-3.5 8.5 t-2.5 8.5q-1 7 -1 14t-1 14q-1 3 -2 5.5t-2 5.5q-1 5 0 9.5t-1 9.5q-3 13 -4.5 24.5t-3.5 24.5q-2 16 -6.5 31t-2.5 31q1 5 5.5 7.5t11 3.5t13 1h10.5q12 -1 24 -1.5t25 1.5q5 1 11 0t11 -1t9.5 -4t4.5 -9q1 -2 2 -3.5t2 -3.5q0 -2 -1 -3.5t1 -3.5t0.5 -4t-0.5 -5 q0 -5 1.5 -9t1.5 -9q5 -45 12 -91t13 -91q1 -5 0.5 -10.5t0.5 -10.5q1 -2 1 -8q0 -2 1.5 -3t1.5 -3q2 -14 3.5 -27t3.5 -26q2 -11 3 -21t2 -21q1 -9 1 -18.5t12 -11.5q1 3 0 5t-1 4q-1 4 0 6.5t3 5.5q2 7 1 13t1 12q2 7 4 13t3 13q1 6 1 13.5t4 13.5q-3 6 -1 12.5t4 12.5 q2 5 1.5 10t1.5 10q2 7 2 13.5t1 13.5q1 5 4 13.5t2 13.5q-2 5 1 5.5t1 5.5q-2 6 -1 12t3 11q2 6 3 12.5t1 12.5q-1 5 -0.5 4.5t1.5 2.5q0 3 3 3q-1 3 -1 9q1 7 2.5 13.5t2.5 13.5q1 2 0 3.5t0 4.5l2 4t1 5q-1 5 0 11l2 12q2 8 3 15t2 15q3 13 10 19q5 4 9.5 3t10.5 0 q14 1 29 1h30q14 1 19 -4.5t7 -18.5q1 -5 1.5 -9.5t1.5 -9.5q2 -6 1.5 -11t1.5 -11t2 -12.5t2 -13.5l1 -4l-3 -1q-2 0 -2 -1.5t2 -1.5q3 0 5 -7t3.5 -15.5t2.5 -16.5t1 -11q0 -11 2.5 -23t4.5 -23q2 -14 3.5 -27.5t3.5 -27.5q4 -18 6 -37q1 -4 2 -6.5t2 -6.5q-1 -6 0 -12 t2 -11q2 -9 2.5 -18.5t2.5 -17.5q1 -5 2.5 -8.5t0.5 -8.5q-2 -5 1 -8.5t5 -8.5q3 1 5 6t2.5 11t1 11.5t0.5 8.5q2 5 2 10t5 5q2 0 2 1t-2 2l-4 2q0 5 2.5 9.5t2.5 9.5q-1 6 -1 10.5t3 9.5q2 3 0.5 6t-0.5 8q2 8 2.5 15.5t2.5 15.5q1 11 2 21t3 20q1 6 2 10.5t1 10.5 q0 8 3 11q-1 7 0 14q0 3 2 7q1 3 0 6t0 7q0 6 2 11.5t4 11.5q1 5 0 9.5t0 9.5q2 7 2.5 13.5t1.5 14.5q2 11 4 22.5t3 23.5q2 13 6 21t19 7q13 0 25.5 1t25.5 -1q5 -1 9 0.5t9 -0.5q6 -3 13 -0.5t12 -0.5z" />
<glyph unicode="X" horiz-adv-x="400" d="M399 21q2 -11 -5 -19q-4 -5 -10 -3.5t-11 1.5q-11 -1 -22 -1.5t-22 -1.5t-20.5 0.5t-20.5 0.5t-15.5 5.5t-9.5 14.5q2 7 -2 15.5t-6 15.5q-2 10 -7 15q0 11 -3 20q-3 10 -6 19t-7 18q-2 8 -4 20q-1 3 0.5 4.5t1.5 2.5q-2 2 -3 0.5t-3 3.5t-3 9.5t-4 8.5q1 8 -4 17 q-2 5 -2 8t-1 7q-2 5 -4.5 9t-4.5 8q-6 -1 -9 -9q-1 -4 -3 -14q-2 -5 -4 -4t-5 -1q1 -2 5 -6q-1 -2 -2 -4.5t-2 -5.5q-3 -4 -1 -10q0 -2 -1.5 -3t-2.5 -3q0 -3 -0.5 -5t-2.5 -6q-3 -6 -4.5 -12t-3.5 -12q-1 -2 -2.5 -8t-3.5 -12t-4 -10.5t-5 -4.5q-7 2 -5.5 -2.5t3.5 -2.5 q1 0 1 1t2 2t2.5 -2t-1.5 -4q-4 -3 -3.5 -6.5t-1.5 -8.5t-3.5 -10.5t-3.5 -10.5q-4 -10 -6 -24t-13 -19q-9 -4 -19 -3.5t-20 0.5h-19q-4 -1 -9.5 -2t-3.5 6q-5 -1 -4.5 -3.5t-4.5 -1.5t-9.5 0.5t-9.5 -0.5q-9 0 -15.5 3t-5.5 14q2 17 9.5 33.5t12.5 32.5q3 8 7 17.5t4 18.5 q5 5 8.5 15t4.5 18q5 5 5 12q1 5 3 10.5t4 10.5q1 3 2.5 8.5t4 11.5t5.5 10t6 3q0 3 -1.5 2.5t-2.5 1.5q2 6 4 11.5t4 11.5q2 5 5 10t3 10t2 8t4 7q2 5 4 13q1 5 2.5 9t3.5 9q2 6 5.5 18.5t11.5 12.5q0 2 -2 3t-2 3q2 8 8 8q0 2 -1.5 4t-1.5 4q2 4 2 14q-2 7 -5 13t-5 13 q-2 3 -3 11.5t-4 10.5q-2 2 -1.5 4t-0.5 4q-2 5 -1 3.5t3 1.5q0 4 -3 2.5t-1 5.5q-4 2 -6 2q0 3 -2 7t-2.5 8.5t-2.5 9.5t-4 9t-3 10q-1 1 -3 9q-1 4 -3 7q1 1 4 1t0 2q-3 3 -5 4.5t-4 6.5t-2.5 9.5t-3.5 8.5q-4 4 -3.5 9t-1.5 10q-1 4 -3 6t-2 6q-1 5 -3 8.5t-4 7.5 q0 3 1 4q-4 6 -5 9q-2 5 -3 9t-3 8q-1 5 -3 7.5t-3 6.5q-3 14 -7 22q-4 10 -6.5 20t-7.5 19q-3 6 -5 14t3 13q2 2 5.5 4t6.5 0q2 -2 6 -0.5t7 1.5q4 0 7.5 -1t7.5 0q5 0 9.5 1.5t7.5 -1.5q8 4 17.5 1.5t17.5 -0.5q6 1 17.5 0.5t16.5 -5.5q6 -6 6 -13q1 -4 2.5 -7t2.5 -7 q0 -8 4 -15.5t4 -15.5q5 -10 6.5 -21t6.5 -21q2 -4 2 -9t2 -10q0 -4 3 -7q4 -2 3 -3.5t-1 -5.5q1 -5 2.5 -8.5t3.5 -7.5q3 -7 0 -6.5t-3 -3.5q8 -2 9.5 -10.5t3.5 -15.5q0 -7 5 -12q4 -4 6 1.5t3 7.5t3 5.5t4 1.5q1 -1 3 -1t1 2q0 2 -1.5 2t-3.5 1q-3 2 0.5 10.5t4.5 11.5 q2 8 2 12q2 2 4 8q8 22 12.5 44.5t12.5 43.5q2 5 4.5 10.5t1.5 11.5q0 6 3.5 11t3.5 11q4 2 7 5t8 5t10.5 -2.5t10.5 -6.5q2 5 -2 5.5t-4 3.5q14 2 27 0.5t27 0.5q1 0 5 -2q2 -3 4 -1.5t5 1.5q4 1 5.5 0t5.5 0q5 3 10 0q13 -5 10 -15.5t-6 -19.5q-2 -5 -3.5 -9.5t-3.5 -9.5 q-1 -6 -5 -11q0 -7 -3 -11q-2 -3 -3 -7.5t-3 -8.5q1 -6 -2 -10.5t-5 -9.5t-3 -10t-3 -10q-2 -4 -3.5 -5t-1.5 -6q0 -3 -4 -5q2 -2 0.5 -7.5t-4 -12.5t-5 -13.5t-3.5 -8.5q-2 -5 -4 -9.5t-4 -9.5q-1 -5 -2.5 -10.5t-5.5 -10.5q1 -2 -1.5 -10t-4.5 -5q-3 5 -4 1t5 -3 q0 -2 -5 -7q1 -6 -1 -16q-2 -4 -4 -7.5t-4 -7.5t-2 -7t-2 -7q-2 -5 -3 -10t-4 -10q-2 -5 -3 -11.5t-3 -11.5q-3 -4 -0.5 -13t4.5 -13t2 -7.5t2 -7.5l3.5 -7t2.5 -7q1 -2 2 -5t0 -5q-2 -3 -1 -3.5t3 -4.5q5 -6 7.5 -13.5t3.5 -15.5q-2 1 -3.5 2.5t-3.5 -0.5q7 -4 11.5 -12 t7.5 -17.5t5 -19t5 -16.5q2 -5 4 -8t0 -8q4 -2 5 -6l2 -8q2 -8 4.5 -14t4.5 -14q2 -4 3 -7q2 -2 1.5 -4t1.5 -5q2 -4 2 -7t2 -7q2 -5 4 -9.5t3 -9.5q1 -4 3 -9.5t4 -8.5q6 -8 7 -19t5 -19l9 -21q0 -3 -1 -5q-2 -4 0.5 -3.5t4.5 -1.5z" />
<glyph unicode="Y" horiz-adv-x="423" d="M414 715q3 -5 0.5 -11t-3.5 -11q0 -2 -1.5 -3t-1.5 -3q-2 -8 -3 -13q-2 -9 -6.5 -17t-6.5 -18q-1 -2 -4 -8.5t-2 -8.5q2 -5 -1 -4.5t-5 -1.5q3 -6 1 -11.5t-4 -11.5q-3 -6 -3.5 -12t-4.5 -11q-3 -5 -4 -11t-3 -11q-3 -6 -4.5 -12t-3.5 -12q-5 -12 -8.5 -24.5t-8.5 -23.5 q-3 -6 -3 -10.5t-6 -9.5q-1 -3 -1 -7t-4 -3q3 -5 -0.5 -17.5t-7.5 -16.5q0 -5 -1.5 -7.5t-3.5 -6.5q-1 -7 -3.5 -13.5t-4.5 -13.5q-4 -11 -8.5 -22t-6.5 -22q-1 -5 -3 -9t-4 -9q-1 -3 -1.5 -5.5t-0.5 -5.5q0 -5 -1 -5t-5 -2q6 -7 5.5 -19.5t-1.5 -20.5q-1 -12 -0.5 -24 t0.5 -23q0 -6 0.5 -13t-1.5 -12t0 -12.5t2 -13.5q0 -8 -0.5 -14.5t-1.5 -14.5q0 -2 1 -4.5t1 -4.5t-1 -4t-1 -5v-23.5t1 -23.5q1 -5 -1 -11t2 -11q-2 -7 -1 -13.5t0 -12.5t-6 -8.5t-11 -3.5t-12 -0.5t-10 0.5q-7 0 -13.5 -0.5t-13.5 -0.5q-8 -1 -14.5 0t-14.5 1h-21t-16 11 q-2 15 -2.5 29.5t1.5 29.5q1 6 -0.5 11.5t-0.5 10.5q1 6 1 11v10q-1 13 0 26q1 5 -0.5 9.5t-0.5 9.5q3 11 1 24t-1 26q1 7 0.5 13t-0.5 13q0 8 1 15.5t1 15.5q0 3 -1 4.5t-1 3.5q2 7 1 10q-2 5 -1 4t3 2l-2 6l-2 6q-4 11 -8.5 24.5t0.5 23.5q-2 2 -3.5 -1.5t-3.5 -1.5 q1 5 -1.5 8.5t-4.5 8.5q-1 4 -1 6t-2 5q-3 4 -3 8q1 5 -2 12.5t-5 11.5q-5 11 -9 24.5t-8 25.5l-2 4t1 4t0 3t-3 3q-2 5 -3.5 10.5t-5.5 10.5q2 9 -3 20t-9 19q-3 7 0 7t5 3q-1 2 -6 5q-3 2 -3.5 4.5t-2.5 4.5q-2 5 -3 9.5t-3 9.5q-3 5 -4 10.5t-3 10.5q-2 6 -4 12.5 t-4 13.5q-2 3 -3 6t-3 6q-1 3 0.5 4.5t-0.5 5.5q-5 13 -9.5 25t-8.5 25q-2 5 -3.5 10.5t-0.5 10.5q2 8 7.5 8.5t11.5 2.5q5 2 9 0.5t9 -1.5q5 1 11 2t11 -1q4 -2 9.5 -1t10.5 1q7 0 13.5 0.5t11.5 -0.5q5 -2 10 -1t11 -2q4 -2 5 -2t2 -5q1 -3 1.5 -6.5t2.5 -6.5q2 -5 3 -13 t5 -12q2 -3 2 -4.5t1 -5.5q1 -2 -1 -5q1 0 3 -4q1 -5 3 -10t3 -10q1 -2 0 -5t1 -5q3 -2 3 -2.5t1 -4.5q1 -7 3.5 -13t3.5 -12q2 -7 3 -13.5t4 -12.5q4 -8 5 -16t3 -17q2 -4 4 -6q1 -4 1.5 -7t1.5 -7q1 -3 4.5 -10t1.5 -9q-1 -2 0 -6.5t3 -8.5t4.5 -6t4.5 0q7 8 9 20.5 t4 21.5q1 9 6 20q2 4 2 8t2 8q1 4 3 8t2 9q2 7 3 8q0 6 2 10q4 9 4.5 19t4.5 19q5 10 7.5 21t4.5 22q1 5 2 9.5t5 7.5q0 5 1 8.5t3 8.5q1 5 1.5 8t4.5 7q8 6 14 3q5 3 9.5 2t9.5 0t9 0t9 -1t9 1t9 0q4 -2 4 -3t4 1t12 2q10 0 20.5 0.5t17.5 -8.5z" />
<glyph unicode="Z" horiz-adv-x="397" d="M377 704q1 -8 0 -14.5t-1 -14.5t1 -14t0 -14q-2 -7 -2 -13t-4 -11q-2 -3 -3 -8t-4 -9q-2 -6 -2 -8q0 -4 -1.5 -4.5t-4.5 -3.5q1 -11 -5 -22q-2 -5 -4.5 -10t-3.5 -11q-2 -1 -3.5 0.5t-3.5 1.5q-3 0 -3 -2t3 -2q5 -1 3.5 -5.5t-3.5 -7.5t-3 -3.5t-1 -4.5q0 -5 -2 -8 q-3 -5 -3.5 -7.5l-1.5 -7.5q-1 -6 -5 -10.5t-4 -10.5q-1 -4 -4 -8l-3 -12q-2 -5 -5 -11t-5 -12q-2 -5 -3.5 -12.5t-6.5 -10.5q-3 -3 -2 -4.5t0 -5.5t-3 -6.5t-3 -6.5q-2 1 -2.5 3t-3.5 1q-2 -2 -0.5 -3t2.5 -1q3 -1 2.5 -4t-1.5 -5q-3 -3 -3 -7q-1 -3 -2 -4.5t-3 -5.5 q-1 -2 -1 -3.5t-2 -3.5t-1 -4t-1 -4q-3 -6 -6 -12.5t-4 -12.5q-1 -4 -5 -12q-2 -4 -2.5 -6.5t-2.5 -7.5q-7 -15 -11 -28q-2 -7 -6 -13.5t-5 -13.5t-4.5 -12t-4.5 -13q-4 1 -3.5 4.5t-3.5 4.5q-1 -3 -0.5 -6.5t-1.5 -5.5q2 -1 3 0t3 1q0 -11 -6 -19t-7 -19q-2 -5 -4 -9.5 t-4 -9.5t-3 -8.5t-3 -8.5q-2 -4 -4 -7.5t-1 -8.5q0 -7 3 -7t8 -1q10 -1 18.5 -1t18.5 -1q8 -1 16 1t16 1q11 -2 20 -0.5t19 1.5q11 0 21.5 -2t21.5 0q8 2 18.5 -0.5t11.5 -13.5q0 -2 0.5 -4t0.5 -4q2 -4 1 -5t-2 -5q0 -5 1 -10.5t1 -10.5q1 -6 -0.5 -11.5t-0.5 -11.5 t1.5 -11t-1.5 -10q-2 -4 1 -7q-2 -2 -2.5 -5t-2.5 -5q-3 -5 -7.5 -5t-10.5 1q-5 0 -8.5 -1.5t-8.5 -0.5q-5 2 -10.5 0.5t-10.5 -0.5q-10 1 -19.5 0t-20.5 0q-11 2 -21.5 1.5t-21.5 -0.5h-45q-5 0 -15.5 -2t-11.5 6q-2 1 -2 -1.5v-3.5q-8 0 -15 1t-15 -1q-5 -1 -10.5 0.5 t-10.5 0.5q-6 -1 -12 -1.5t-11 -0.5h-12q-2 1 -2.5 1t-2.5 1q-2 -1 -2.5 -1t-2.5 -1q-8 1 -17.5 1.5t-13.5 8.5t-3.5 18.5t0.5 18.5q1 9 0.5 18t-0.5 18q0 4 4 12q2 3 1 5t1 5q2 5 5 10t5 10q3 7 4.5 14t4.5 13q1 3 2.5 5t2.5 5t1 6t2 6q2 5 4.5 10t4.5 10q2 7 5 10q2 2 1 4 t1 5q2 2 3 4.5t3 4.5q1 5 3 13q2 6 4.5 11.5t4.5 11.5q3 5 4.5 11.5t4.5 11.5q3 4 3 12q3 4 4 6.5l3 7.5q4 11 9 22.5t10 22.5q2 6 4.5 12.5t5.5 12.5q2 6 6 13.5t4 13.5q0 5 3.5 10.5t5.5 10.5l4 12l4 12q2 5 4 11t6 11q4 7 6.5 14.5t5.5 15.5q2 7 4.5 13.5t5.5 13.5 q3 6 5 12t4 13q4 10 9 19.5t9 20.5q3 7 -1 10.5t-11 4.5q-6 1 -16 -1q-5 -1 -6.5 0t-5.5 2q-8 -2 -15.5 -1.5t-15.5 -0.5q-8 -2 -15 1q-5 2 -10 0.5t-10 -1.5t-7 1t-7 -1q-3 -2 -8 -0.5t-9 1.5q-10 1 -20.5 -0.5t-19.5 2.5q-2 12 -3.5 22.5t-0.5 22.5q1 7 1 13.5v12.5 q0 1 -1 3.5t-1 5.5t1 5t3 1q-5 3 -5 8t2.5 10t6.5 8.5t9 3.5h26q5 0 10 1t8 -4q2 0 2 1t2 2t5 0t5 -1q6 0 12.5 2t12.5 0q7 -2 13 -1.5t13 0.5q8 0 12 -2q4 2 8 2t9 -1q3 -1 5 0t5 1q3 1 5.5 0t5.5 -1q8 -1 14.5 -0.5t14.5 1.5q15 1 30 0q3 0 5 -1t4 0q3 0 5.5 0.5t5.5 0.5 q6 1 11.5 0t11.5 0t11.5 0t11.5 0q12 2 21 -1.5t11 -17.5z" />
<glyph unicode="a" horiz-adv-x="423" d="M409 34q2 -6 2 -12v-11q-1 -6 -4.5 -8.5t-8.5 -3.5q-5 -2 -10 0q-3 2 -4.5 0.5t-5.5 -0.5q-4 0 -7.5 0.5t-6.5 0.5q-4 0 -6.5 -1t-6.5 -1q-14 2 -26.5 1t-26.5 0q-9 1 -15.5 8t-4.5 16q1 5 -1 10.5t0 10.5q1 3 1 4t-3 3q-2 2 -0.5 4.5t0.5 4.5q-1 3 -2.5 6t-1.5 6 q0 2 0.5 4.5t0.5 5.5q0 2 -1.5 4.5t-2.5 5.5v13q-1 6 -2.5 12t-1.5 11q1 11 -8 19q-14 -2 -28 -1.5t-28 0.5q-6 0 -14 1t-15 0t-12 -5t-5 -13q0 -3 1 -5.5t-1 -6.5t-2.5 -8t-0.5 -9t-2 -11q-2 -5 -2 -9t-1 -9q0 -7 -3 -13q1 -9 0 -18q-1 -6 -2 -12.5t-3 -12.5 q-4 -14 -14.5 -15t-22.5 -1q-16 1 -31.5 0.5t-32.5 -0.5q-9 1 -14.5 3t-11.5 9q2 5 1.5 11t2.5 11q3 6 2.5 13.5t2.5 13.5q2 5 1.5 11t6.5 7q0 2 -2 1.5t-2 2.5q0 11 3 22l3 18q1 3 1 9q4 8 4 13q0 9 2 19.5t4 20.5q1 6 2.5 12t2.5 12q1 5 0.5 9t2.5 9q3 7 2 13q0 6 2 9.5 t2 8.5q0 22 7 39q0 18 5 36q1 3 1.5 9.5t1 13.5t2.5 11.5t6 4.5q-3 4 -2.5 9.5t2.5 9.5q2 2 3 9.5t0 11.5q-2 4 0 10t4 11q2 8 2 15.5t2 15.5q5 11 5.5 23.5t4.5 23.5q2 5 2 11.5t2 12.5q2 7 2 13.5t2 14.5q3 11 4.5 22.5t3.5 23.5q1 6 2.5 12.5t3.5 12.5q1 7 0.5 14.5 t4.5 12.5q-2 7 0 13t4 13q1 5 0.5 10t1.5 10t3.5 8.5t5.5 6.5q7 5 12 4t13 -2q8 0 15 0.5t14 0.5t15.5 -1t13.5 2q4 2 9 0.5t10 -1.5q6 -1 12.5 -0.5t12.5 0.5q14 -1 18 -8.5t6 -19.5q2 -7 4 -13t1 -13q-1 -8 2 -14.5t4 -14.5q1 -13 4 -25.5t3 -26.5q1 -5 1 -5.5t2 -4.5 q-1 -5 1 -13q2 -6 2.5 -13.5t4.5 -12.5q-1 -13 2.5 -25.5t4.5 -24.5q0 -5 0.5 -10t3.5 -9q4 -6 3 -13.5t1 -14.5q3 -11 5 -23.5t6 -24.5q-1 -4 -2.5 -4.5t0.5 -4.5q4 -5 5 -11q1 -5 0.5 -9.5t2.5 -10.5q-1 -11 2 -23.5t6 -23.5q2 -8 1 -12q2 -3 2 -11q1 -6 2.5 -11.5 t2.5 -11.5t1 -11.5t2 -11.5q1 -5 1.5 -10.5t2.5 -10.5q2 -7 3.5 -12.5t0.5 -13.5q0 -7 2 -12t3 -11q3 -24 8.5 -47t7.5 -47q1 -20 8 -41zM185 262q11 1 22.5 0t22.5 1q6 1 9.5 2.5t2.5 8.5q-1 6 -1 11.5t-2 11.5q0 1 -1 7t-1.5 13t-0.5 12t1 5q0 2 -2.5 1.5t-1.5 2.5 q0 6 -1 11.5t-2 11.5q-2 5 -1.5 11t-2.5 11q-2 4 -1.5 9t-1.5 10q-2 9 -1.5 19.5t-3.5 18.5q-1 2 -1.5 7l-1 10t-2 9t-4.5 4q-2 -5 -2.5 -9.5t-2.5 -9.5q-1 -2 -1.5 -3.5t-1.5 -3.5q0 -4 1 -5t0 -6q-3 -13 -4.5 -26t-3.5 -26q-2 -10 -3 -19.5t-3 -19.5q-1 -6 -2.5 -11.5 t-2.5 -11.5q-1 -7 -1.5 -13.5t-0.5 -13.5q-2 -11 -4 -18q-2 -5 1.5 -7.5t6.5 -4.5z" />
<glyph unicode="b" horiz-adv-x="428" d="M412 183q-1 -7 0.5 -12.5t-1.5 -12.5q-2 -7 -1 -13.5t-1 -14.5l-4 -12t-2 -12t-3 -10t-4 -9q-2 -11 -12 -24t-18 -21t-18 -15.5t-21 -12.5q-4 -2 -8.5 -2.5t-9.5 -2.5q-6 -2 -8 -4t-5 -1.5t-7 -0.5q-11 -2 -22 -1.5t-22 -1.5q-6 -1 -11.5 0t-11.5 -1q-7 -1 -13.5 0.5 t-13.5 -0.5q-13 -2 -26 -1t-25 1q-8 1 -14.5 1h-14.5t-14.5 -1.5t-14.5 0.5h-13t-13 1q-8 0 -10 4t-4 11q-2 17 -1.5 33t-0.5 33q0 7 1.5 14t0.5 14q-1 5 0 11t0 11q-3 12 -2 23.5t1 23.5t-1 25t1 24q0 3 0.5 5.5t0.5 5.5q0 4 -1.5 5t0.5 5q4 6 1 14t-1 15q2 3 1 5.5t-1 5.5 q-1 3 0 4.5t1 4.5q0 5 -1.5 10.5t-1.5 10.5q0 15 2 30t0 30q-1 7 0 13.5t1 13.5t-1 13.5t-1 14.5q0 15 1 30t0 31q-2 16 1 31q-2 4 -2.5 8.5t1.5 9.5q2 4 1 11.5t-1 12.5q0 3 -1.5 6t0.5 7q3 7 1 17q0 8 -0.5 15.5t-0.5 15.5t1.5 14.5t0.5 14.5q-1 6 -2 12.5t0 12.5 q2 6 1 12.5t0 13.5t4 9.5t8 5.5h10q4 0 4.5 1.5t4.5 0.5q7 -2 12.5 -1t11.5 -1q3 -1 6.5 -0.5t6.5 0.5q5 1 9 0.5t9 -0.5q5 -1 11.5 0.5t11.5 0.5q4 0 6 -1t5 0q5 2 13 2q16 0 31.5 -0.5t31.5 -1.5q13 -1 24 -1t23 -4q5 -2 10 -2.5t10 -2.5q6 -2 9 -5t3.5 -2t4.5 0 q9 -6 20.5 -11.5t16.5 -15.5q1 -5 5 -8q1 -3 5 -3q0 -4 3 -7q2 -3 4.5 -5.5t4.5 -6.5q3 -3 3.5 -7t2.5 -8q5 -14 8.5 -28t4.5 -30q0 -17 1.5 -33.5t0.5 -33.5q0 -14 -1 -27.5t-5 -26.5q-1 -5 -0.5 -7.5t-1.5 -6.5q-3 -5 -5.5 -9t-4.5 -9t-3.5 -9t-5.5 -7q-7 -7 -9 -12 q-2 -2 -4 -2.5t-4 -2.5q-3 -3 -4.5 -5.5t-5.5 -4.5q-4 -3 -3.5 -5.5t3 -5t5.5 -4.5t5 -3q6 -5 9.5 -9.5t7.5 -9.5q2 -3 4.5 -4t4.5 -5q4 -8 7 -11q0 -5 2.5 -8.5t4.5 -8.5t3 -11t3 -12q1 -7 2 -13l2 -12q2 -4 1.5 -5.5t-1.5 -5.5q3 -2 2.5 -6t-1.5 -8q-1 -5 0 -11l2 -12 q0 -7 -1 -13.5t-1 -13.5zM179 588q2 -6 -1 -13t1 -13q-3 -16 0 -34q1 -7 0.5 -15t-0.5 -16v-19.5t-1 -19.5q0 -6 -0.5 -14t2.5 -14q3 -5 5.5 -4.5t7.5 -0.5t8.5 -1.5t8.5 -0.5q2 0 4.5 1t5.5 2h19q14 9 22 18q5 6 6.5 14t3.5 16q0 9 3 18q1 5 0 8t-1 7t1 7t1 7l-3 18 q-1 9 -1.5 18t-3.5 18q-10 30 -43 33q-8 1 -17 1.5t-17 0.5t-10.5 -7.5t-0.5 -14.5zM280 182q0 5 1.5 9t1.5 9q-1 18 -2.5 38t-6.5 38q-4 17 -18 27q-4 3 -7.5 5.5t-7.5 5.5h-9.5t-9.5 1q-9 1 -18.5 1.5t-19.5 -1.5q-3 -2 -4 -6t-3 -7q-2 -4 0 -7.5t1 -8.5t0 -8t1 -8 q0 -4 -1 -7.5t0 -7.5q0 -5 1 -9t0 -9q0 -5 -1.5 -10.5t-0.5 -11.5q1 -18 1.5 -36t-0.5 -36q0 -15 3.5 -24t21.5 -7q8 1 16 0.5t16 0.5q10 1 17 5t14 10t8.5 15.5t3.5 17.5q2 5 2 10.5v10.5z" />
<glyph unicode="c" horiz-adv-x="416" d="M390 204q2 -14 2.5 -30t-2.5 -30q-2 -4 -0.5 -4.5t0.5 -4.5q-2 -6 -4 -14q-2 -7 -4 -13.5t-4 -13.5q-2 -5 -3.5 -10.5t-5.5 -10.5q-3 -5 -3 -8q-6 -3 -9 -9l-6 -9t-8.5 -11.5t-10 -9.5t-9.5 -4q-8 -9 -20 -14q-7 -3 -13.5 -6t-14.5 -5q-7 -2 -13 -3.5t-13 -3.5 q-5 -2 -12 -1t-13 0q-7 -2 -12.5 0t-11.5 0q-7 -1 -12 1q-4 2 -8.5 1t-9.5 0q-24 5 -47 14q-2 2 -5 2.5t-5 2.5q-3 2 -4.5 4t-3.5 4q-5 3 -11 4t-7 8q0 3 -3 3t-5 1q-2 3 -4 5.5t-4 5.5q-5 5 -9 10t-9 11q-3 11 -9.5 20.5t-8.5 21.5q-1 5 -4 10.5t-3 10.5q1 5 0.5 10t-3.5 9 q0 5 1 6t-1 6q-2 6 0 13q1 8 -0.5 16t-0.5 16q2 14 0.5 26.5t-0.5 26.5q0 7 1 13t0 13q-2 6 0 12q2 5 1 8.5t-2 7.5q-1 15 1.5 30t0.5 30q-2 14 -1.5 27.5t1.5 28.5q1 5 0.5 11.5t-1.5 11.5q-2 7 -0.5 13.5t0.5 14.5q-1 13 0 25t0 26q-1 7 0.5 13t-0.5 12q-2 3 -1 9t3 10 q1 4 0.5 6.5t-0.5 7.5q0 2 1.5 4.5t2.5 5.5q1 8 2.5 16t5.5 16q2 6 5.5 11.5t5.5 11.5q3 5 7.5 9.5t7.5 9.5q5 9 15.5 19t19.5 14q3 1 5 2.5t4 3.5q3 4 7.5 5t8.5 3q10 4 20 7t20 7q8 -3 17 0.5t17 2.5h18.5t18.5 -3q11 2 27 -3q3 0 6.5 -2.5t5.5 -1.5q4 2 7 0.5t6 -3.5 q20 -10 33 -19q4 -3 7.5 -4.5t6.5 -5.5q3 -3 5.5 -6.5t5.5 -6.5q3 -4 5.5 -5.5t4.5 -6.5q2 -3 4.5 -5.5l4.5 -4.5q4 -5 7 -14t6 -16q3 -6 5.5 -14.5t2.5 -15.5q0 -8 2.5 -15t0.5 -15t0.5 -17.5t1.5 -18.5q-2 -9 1 -16q1 -5 -0.5 -7t-1.5 -6q-1 -8 1 -16t-2 -15q-2 -4 0.5 -6 t1.5 -7t-4 -8.5t-5 -6.5q-17 -1 -32.5 -1h-31.5q-4 0 -12.5 -0.5t-17.5 -0.5t-16 2t-9 7q-4 12 -3 25t1 26q0 6 -1.5 12.5t0.5 12.5q1 4 1 11q-1 5 0 8.5t1 8.5q-1 26 -18 45.5t-46 14.5q-12 -2 -20 -9.5t-12.5 -17t-6 -21t-1.5 -21.5q0 -15 -0.5 -30t1.5 -30q1 -7 1 -14 t-2 -14q-1 -3 0 -5t1 -5q-1 -5 -0.5 -10t0.5 -10q2 -12 -0.5 -24.5t0.5 -24.5q2 -7 1 -14t-1 -14q-1 -8 0 -15.5t0 -15.5t0 -14t1 -13q-1 -6 -1 -12.5v-12.5v-12t1 -12q0 -4 0.5 -10t-1.5 -10q-2 -5 -1 -11.5t0 -11.5q-1 -6 0.5 -12.5t1.5 -13.5q-1 -8 -0.5 -22.5t6.5 -21.5 q3 -4 6.5 -8.5t8.5 -6.5q5 -4 11 -5t12 -3q12 -3 26 3q8 3 12.5 6t8.5 11q6 13 9 23l3 6t-1 5q-3 4 -1.5 5t1.5 5q0 3 -2 5.5t0 5.5q2 5 0 8q-1 3 -0.5 5t1.5 4q2 4 0 7.5t0 6.5q2 5 0.5 13t-1.5 13q0 8 0.5 15t1.5 15q0 8 5 12t11.5 5.5t14 1.5h13.5q14 0 29 0.5t30 -0.5 q4 0 10.5 -1.5t8.5 -4.5t3.5 -3.5t2.5 -5.5t0.5 -10t-0.5 -10q-1 -6 0 -12t2 -13q0 -6 -1.5 -12.5t-0.5 -13.5z" />
<glyph unicode="d" horiz-adv-x="440" d="M415 250q-2 -3 -1 -5t2 -6q0 -3 -1 -6t0 -6q0 -6 -0.5 -10.5t-0.5 -9.5q-1 -3 0 -5.5t0 -5.5q-2 -4 -0.5 -4.5t1.5 -3.5q-1 -14 -3 -26.5t-4 -26.5q-2 -12 -5 -22.5t-8 -21.5q-3 -6 -5.5 -11.5t-6.5 -10.5q-3 -6 -8 -9q-2 -2 -2.5 -5t-2.5 -5q-3 0 -4 2.5t-4 2.5 q-2 -2 0.5 -4t1.5 -4q-12 -15 -29 -24v3q0 1 -2.5 1t-0.5 -2t2 -2.5t-3 -2.5l-4.5 -3t-4.5 -2q-3 0 -5.5 -0.5t-5.5 -1.5q-12 -5 -23.5 -8.5t-24.5 -5.5q-7 -2 -11 1l-15 -3q-3 0 -6.5 -0.5t-7.5 1.5q-3 1 -5 0t-6 -1q-7 -1 -13 0.5t-13 0.5q-8 -1 -14.5 0.5t-13.5 0.5 q-14 -2 -29 -1.5t-29 1.5q-5 0 -13 -1t-16 -1t-15 2t-9 8q-4 11 -2 22.5t-1 22.5q2 5 2 9.5v9.5q-2 7 -1 14t0 15q0 7 1 13.5t0 12.5q-2 7 -1 13t1 13q-2 14 -1 28l2 28q0 7 -1.5 13t-0.5 13q1 5 2 6.5t0 5.5q-2 3 -1.5 6t0.5 6q2 12 0 26q0 3 -0.5 6.5t-0.5 6.5t1 6.5 t0 6.5t-1 8.5v9.5q0 5 1.5 10t-0.5 10q-2 7 -0.5 13.5t0.5 12.5q0 9 -1 17.5t1 17.5q1 6 -1 13.5t0 12.5t1.5 12.5t-1.5 12.5v13.5t2 13.5q-2 8 -2 16.5v16.5q1 13 0 25.5t-1 24.5q0 10 2 21.5t-1 19.5q-2 5 -0.5 13.5t1.5 13.5q0 7 -0.5 14t-0.5 14q0 5 1.5 13t-0.5 13 q-2 3 -1.5 11t2.5 11q4 6 8.5 6.5t11.5 1.5q3 0 10.5 1.5t10.5 -0.5q2 -1 6 1q3 1 6 0t6 -1q9 -1 17.5 -0.5t16.5 0.5q14 -1 27.5 0t27.5 1q7 0 13 -1t12 -1q5 -1 10 -0.5t10 0.5q11 1 22 -2.5t22 -1.5q9 -5 21.5 -7t19.5 -11q10 -2 19 -10q4 -4 8.5 -6.5t9.5 -6.5 q5 -5 8 -9.5t7 -9.5q2 -2 3.5 -5t3.5 -5q2 -3 3 -6t3 -7q8 -11 11 -23.5t8 -24.5q-4 -11 3 -19q-2 -6 -1.5 -13.5t2.5 -12.5t1.5 -10.5t0.5 -10.5q1 -8 0.5 -14.5t-1.5 -14.5q-1 -6 0.5 -12.5t-0.5 -12.5t0 -13t2 -13q-1 -15 -2.5 -30t0.5 -31q0 -4 0.5 -7.5t0.5 -7.5 q-1 -2 -2 -6t1 -6q2 -4 1.5 -13t-1.5 -13q0 -4 0.5 -7t0.5 -7q0 -3 -1 -6t-1 -6q0 -6 2 -12t0 -12q-2 -7 0 -13.5t0 -13.5zM281 476q0 4 -0.5 7.5t1.5 7.5q2 8 5 5.5t7 0.5q-1 5 -5 3t-6 0q-4 2 -3 10.5t0 12.5q5 12 1 25.5t-6 26.5q-2 10 -14.5 20t-23.5 9q-8 -1 -14 1 t-14 2q-3 0 -5 -1t-5 0q-4 1 -10 1q-7 -2 -9.5 -8t-2.5 -13.5t0.5 -15.5t0.5 -13q-1 -14 -1 -28.5v-28.5q1 -14 0.5 -28t1.5 -28q-2 -4 -3 -5.5t0 -6.5l2 -6t1 -7q0 -7 -1 -13.5t-1 -12.5q-1 -13 0.5 -26t1.5 -26q0 -7 -1 -12.5t0 -12.5q0 -9 -2 -14q1 -3 2 -5t0 -6 q-2 -12 -0.5 -25t1.5 -26q0 -6 -0.5 -11.5t-3.5 -10.5q2 -6 2 -12v-11v-12t2 -11q2 -7 -0.5 -14.5t-2.5 -15.5q0 -5 1 -12.5t3 -9.5q3 -5 10 -7t13 -2q14 0 29.5 3t26.5 11l9 9t6 11q2 6 2.5 12.5t2.5 11.5q2 4 1 7t1 6q3 7 1.5 16.5t-1.5 16.5q-1 18 0.5 36.5t-0.5 35.5 q-2 9 -1 18.5t2 18.5q1 5 -0.5 8t-1.5 8q-1 5 -0.5 10.5t0.5 10.5q2 18 1 36t0 36q1 11 1.5 21.5t-1.5 21.5z" />
<glyph unicode="e" horiz-adv-x="392" d="M371 90q-2 -5 -1 -10l2 -10q-3 -13 -2 -27t2 -27q0 -8 -3.5 -11t-8.5 -4.5t-11.5 -1.5h-10.5q-13 -2 -26 -1t-25 1q-3 0 -4.5 1t-4.5 -1q-3 -1 -10 -1q-9 -2 -19 2q-5 2 -10.5 -1t-10.5 -1t-11 2.5t-11 -1.5q-12 -2 -26.5 -0.5t-27.5 0.5q-8 0 -14.5 -1t-13.5 1 q-3 1 -6.5 0.5t-6.5 -0.5q-5 -1 -9 0.5t-9 0.5q-6 0 -12.5 -1.5t-12.5 0.5q-7 2 -11 0q-3 2 -5.5 3.5t-5.5 3.5q-2 4 -1 10t0 10q0 8 -0.5 15.5t-0.5 15.5q1 38 -0.5 77.5t0.5 77.5q1 10 0 19t1 19q0 5 0.5 8t-0.5 7q-1 5 -0.5 8t0.5 7q1 3 -0.5 5t-0.5 6q1 5 0.5 10 t-0.5 10q0 11 2 16q0 2 -2 6v15q0 11 -0.5 20.5t0.5 20.5q0 5 1 9.5t0 9.5t-1.5 11t1.5 11q1 3 0 8.5t-1.5 11.5t0 11t3.5 6q0 3 -2 3.5t-1 2.5q0 5 0.5 11t0.5 12q0 2 -1.5 8t0.5 9q2 2 2.5 3t-1.5 4q-2 2 -1.5 7.5t0.5 8.5q0 4 1.5 9.5t-0.5 9.5q-1 2 -2 5t2 4 q2 0 5.5 2.5t-1.5 2.5q-2 0 -3 -2t-3 0q2 6 1.5 12.5t-0.5 12.5q4 1 6 -4.5t7 -3.5q-1 3 -5.5 7t-6.5 3q2 5 9 5q0 4 -3 4.5t2 4.5q4 4 -1.5 3t-6.5 -1q-1 3 -1 7t2 7q2 2 2 2.5t-3 2.5q-2 1 -1 4t1 5v20.5t-1 20.5q0 4 2 10.5t0 9.5q-2 5 0.5 7.5t4.5 6.5q-1 0 -2.5 3.5 t2.5 0.5q7 -5 11 2q0 2 -3 0.5t-3 0.5q2 3 9.5 3t10.5 1q4 2 6.5 0t7.5 -1h19q19 1 39 0q7 0 16 1t13 -6q4 1 1.5 3.5t6.5 2.5q7 0 13.5 -0.5t12.5 -0.5h47q2 0 7 0.5t7 -1.5q3 -5 4 -2t3 4q3 -2 6.5 -0.5t7.5 0.5q1 0 5.5 -4t4.5 -2q0 1 -2 3t2 2q5 -1 9 -0.5t9 0.5 t10.5 -0.5t10.5 0.5q3 1 4 -1q0 -2 1 -3q0 -4 2 0q2 2 2 3.5t5 -1.5t5.5 -4.5t-0.5 -6.5q-1 -3 0 -5q3 -2 3 -2.5t-1 -4.5q-1 -5 0.5 -11t-0.5 -11q3 -4 1.5 -9t-1.5 -9q-1 -3 -1 -9.5t2 -8.5q2 -3 0.5 -7.5t-1.5 -8.5q1 -11 -10 -17q-9 -5 -18.5 -2.5t-19.5 2.5 q-4 0 -8.5 -2t-8.5 2q-4 -2 -8 -1t-8 -1q-11 -2 -23 -0.5t-23 0.5h-24q-6 1 -12 1.5t-11 -1.5t-7 -1.5t-4 -5.5q-2 -4 -2 -8v-8q0 -8 1 -17t-2 -17q0 -2 2 -6q2 -3 0.5 -4.5t-2.5 -4.5q0 -2 2 -4q2 -3 0.5 -5.5t-1.5 -4.5q-1 -6 0 -11.5t1 -10.5q0 -6 -1 -5.5t-4 -3.5 q1 -2 3 -3t2 -3q-2 -11 -1 -21.5t0 -21.5q5 -10 15 -9.5t19 1.5q5 0 9 -1t9 1q5 1 9.5 1.5t9.5 -1.5q4 -2 5 -4t4 -4q2 -2 3 -1t0 3q-1 3 -3 6q12 -4 26 0t25 -3q5 -3 5.5 -9t2.5 -11q1 -4 0 -5t-2 -4q0 -3 1 -6.5t1 -6.5q0 -4 -1 -4.5t1 -3.5q2 -4 1 -8t-2 -7 q-2 -7 -0.5 -12.5t0.5 -12.5q-1 -8 -2 -12.5t-9 -9.5q-4 -2 -5 -0.5t-4 1.5t-6.5 -1t-7.5 0q-6 1 -11 -0.5t-12 0.5q-7 1 -14.5 -0.5t-14.5 0.5q-7 3 -14.5 1.5t-14.5 -1.5q-5 -1 -11 -0.5t-10 -4.5q-2 -8 -1.5 -16.5t0.5 -17.5q0 -8 -0.5 -15t-0.5 -15v-5.5v-10v-9t-1 -3.5 q-2 0 -2.5 1t-2.5 -1q0 -8 1 -5.5t5 1.5v-26.5t1 -26.5q0 -4 -1 -10.5t-1 -13t2 -12t8 -6.5t12 -1t12 -1q6 0 10.5 0.5t10.5 0.5q11 2 22 0q4 0 4.5 -1t4.5 1q3 1 5.5 0t6.5 -1q12 1 24 0.5t24 0.5q13 1 25 1t23 -8q-2 -5 1.5 -11t0.5 -11z" />
<glyph unicode="f" horiz-adv-x="397" d="M370 659q0 -4 -2 -8t0 -8t1 -8.5t-1 -9.5q-1 -18 -18 -19q-12 0 -23.5 -1t-22.5 1q-10 2 -20 0.5t-20 -0.5h-25q-3 1 -9.5 0t-8.5 0q-2 2 -4.5 0.5t-5.5 -0.5q-4 2 -7.5 1t-7.5 -1q-9 -1 -12.5 -3t-4.5 -12q0 -8 -0.5 -16.5t-0.5 -16.5q0 -5 1 -10t0 -10q-1 -6 -0.5 -12 t1.5 -12q1 -8 0.5 -16t-1.5 -16q-1 -5 -0.5 -10.5t0.5 -10.5t-0.5 -10t0.5 -10q2 -13 10 -12.5t17 -0.5q6 0 9.5 -0.5t9.5 0.5q5 2 10.5 0.5t10.5 -1.5q10 0 20 -0.5t20 0.5q4 3 7 0q4 -2 6 -0.5t6 1.5q9 0 16 -10q0 -12 -0.5 -23.5t0.5 -23.5v-12t2 -12q-2 -5 -3 -10t1 -10 q-2 0 -3.5 -0.5t-3.5 -0.5q2 -5 4.5 -5t-3.5 -6q-4 -4 -10 -4.5t-11 0.5q-8 0 -15 1t-15 0q-7 -1 -15 -1.5t-15 -0.5q-11 1 -24 2.5t-23 -2.5q-5 -2 -7 -8t-2 -13t0.5 -13.5t0.5 -10.5q0 -12 1 -24.5t-1 -23.5q-1 -4 0 -6.5t1 -5.5q1 -3 0 -5.5t-1 -5.5q-1 -8 0 -15.5 t0 -15.5q-1 -7 0.5 -13t-0.5 -12t0 -12t0 -12q-2 -7 -1.5 -14t1.5 -13q1 -9 0.5 -18t-0.5 -17q0 -5 0.5 -13.5t0 -16.5t-3 -14.5t-9.5 -7.5q-17 -3 -33 -1t-32 -1q-7 -1 -12 0.5t-11 0.5q-6 -2 -11.5 0.5t-11.5 0.5q-2 2 -4 3.5t-4 3.5q2 2 1.5 5.5t-2.5 5.5q-2 3 -1.5 5.5 t1.5 6.5q-2 8 -2 13q0 6 1 11.5t1 11.5q1 7 0 13.5t-1 14.5q-2 15 1 27q-2 8 -1.5 15t0.5 15t-0.5 14.5t0.5 14.5q1 6 1 12.5t-3 11.5q3 17 2 33.5t-1 33.5q1 25 0 52v13.5t1 13.5q2 7 1 13t-1 14v12t-2 12l2 4l2 4q-2 10 -2 15q-1 7 0 13.5t1 12.5q0 3 0.5 6.5t-1.5 6.5 q-2 5 0 16q2 7 0.5 13.5t-1.5 13.5t1 14t1 14q0 6 -2 12.5t0 11.5q2 7 1 15t0 16q1 12 0.5 23t0.5 23q0 6 -1 11.5t-1 10.5q0 8 1 15.5t-2 14.5q1 5 2 5t0 4q-2 2 -1.5 5t0.5 6q2 6 4 8.5t7 6.5q4 4 10.5 2t11.5 -1q3 0 9 2q3 0 5 -2q6 0 9 1q14 1 28 0t28 0q13 1 25 0t24 0 q6 0 12 -1.5t11 1.5q4 2 12.5 1.5t13.5 -0.5q4 0 11 -2.5t9 0.5l4 0.5t8.5 0.5h9h5.5q6 -1 11.5 -1.5t11.5 1.5q5 2 12 0.5t12 -1.5q15 0 18 -9t0 -22q-1 -4 1 -5.5t1 -4.5q-1 -5 0 -11t1 -12z" />
<glyph unicode="g" horiz-adv-x="439" d="M393 47q-1 -8 0 -14.5t1 -14.5q0 -11 -8 -15t-18 -4q-8 -1 -22 -1.5t-19 7.5q-3 5 -5.5 9t-4.5 9q-1 4 -3 8.5t-7 2.5q-5 -1 -7 -7q-2 -3 -4.5 -4.5t-5.5 -3.5q-5 -4 -9 -7.5t-11 -1.5q-2 -2 -0.5 -3t-0.5 -3q-3 0 -5.5 -1t-5.5 -3q-4 -2 -10 -2.5t-8 -4.5q-1 0 -9 -1.5 t-11 -2.5q-7 -1 -14 -1.5t-14 -0.5q-24 2 -49.5 7t-45.5 19q-18 14 -34 33q-9 11 -14.5 22t-10.5 24q-2 5 -4 11t-3 11q-2 7 -2 13t-3 11q2 5 1 9t-1 9l-2 6t-1 5q0 4 1.5 8t0.5 8q0 7 -0.5 13.5t-0.5 14.5q0 5 1 11.5t-2 11.5q4 13 3 27l-2 28q-1 6 -1 12t2 12q1 4 0 6.5 t-1 6.5t0.5 7t1.5 7q0 8 -0.5 15t-1.5 15q0 8 1 15.5t-1 15.5q-2 6 0 13.5t1 14.5q0 8 -0.5 15t1.5 15q-5 12 -1 24.5t-2 24.5q4 11 3 24t-2 25q0 13 2 26t5 25q5 14 10 27.5t13 25.5q5 5 9.5 11t9.5 12q3 4 4.5 3.5t3.5 2.5q3 4 8 6q4 4 5 7q3 0 9 4q4 3 8 5.5t9 3.5 q10 8 26 11.5t29 5.5q5 1 11.5 2t11.5 -1q6 -1 13 0t13 0q28 -2 52 -10q22 -8 42.5 -22t32.5 -34q5 -8 10 -16.5t9 -17.5q2 -6 4 -11.5t5 -10.5q-2 -7 1.5 -13t2.5 -13q0 -11 2.5 -21t1.5 -21q-1 -6 0 -11.5t-1 -10.5q2 -7 1.5 -11.5t-0.5 -11.5q-1 -9 0.5 -19t-7.5 -16 q-7 -6 -17 -3q-5 2 -9 0.5t-9 -1.5q-3 0 -8 -0.5t-7 1.5q-5 2 -9.5 0.5t-9.5 0.5q-10 -5 -20 -1.5t-20 0.5q-11 3 -12.5 14t-0.5 20q1 6 0 12q-2 4 -1.5 5.5t0.5 6.5q0 3 0.5 5.5t-0.5 6.5q-1 5 -1 9t-1 9q-1 8 -1 15t-2 15q-2 4 -3 7t-3 7t-3.5 5t-4.5 4q-7 9 -19 11.5 t-23 0.5q-15 -3 -22.5 -12t-11.5 -21t-4 -25.5v-24.5q0 -7 -0.5 -13t0.5 -13q2 -6 -1 -11q1 -6 0 -12q-2 -15 -0.5 -30.5t1.5 -30.5q0 -7 0.5 -14t0.5 -15q-1 -7 -2 -12.5t1 -13.5q2 -6 0 -13.5t1 -12.5q1 -2 -0.5 -4t-1.5 -4q-1 -3 0.5 -4t1.5 -3q-2 -8 -0.5 -13t0.5 -12 q-1 -8 -1 -15.5v-15.5q0 -16 -1 -32t1 -32q0 -2 1 -5.5t0 -5.5q-2 -4 -2.5 -3t0.5 -4q2 -7 1 -14t0 -14q2 -12 6.5 -23t14.5 -19q5 -5 10 -5.5t10 -2.5q8 -2 12 -1t10 3q3 0 5.5 -0.5t5.5 1.5q2 1 4.5 2t5.5 1q5 1 5 2t2 5q3 7 9 11q-2 9 5 16q4 3 2 5t-1 7q0 4 1 7.5t1 7.5 q2 3 5.5 2.5t5.5 1.5q-1 5 -4.5 4.5t-6.5 -1.5q0 3 -2 11q0 3 1.5 4.5t0.5 5.5q-2 5 -0.5 9.5t0.5 9.5q-1 6 -0.5 12.5t-0.5 12.5q0 8 -2.5 12t-10.5 4q-25 0 -50 3q-2 3 -3.5 5.5t-3.5 4.5v14q0 8 -0.5 14.5t1.5 13.5q-1 7 -1.5 13.5t0.5 14.5q0 8 1 13t9 10q4 2 5.5 2 t5.5 -1q5 3 13 1q14 -1 28 0q6 1 11.5 -0.5t11.5 -0.5q6 0 12 0.5t13 1.5q7 0 12.5 -1t12.5 0q3 1 6.5 1t5.5 -2q4 -2 8.5 0t8.5 2q6 0 13.5 -0.5t12.5 -1.5q5 -5 6 -9.5t1 -11.5q2 -14 -1 -23q-1 -5 1.5 -7t-2.5 -6q-2 -2 -1.5 -3.5t2.5 -1.5q2 -2 2 -5.5v-5.5 q1 -8 0.5 -15t-0.5 -14v-29q0 -6 -0.5 -12.5t0.5 -11.5q2 -6 0 -10.5t-1 -9.5q1 -7 1.5 -13t-1.5 -12q5 -13 2.5 -27.5t-3.5 -28.5v-12.5t2 -12.5q2 -5 -0.5 -9.5t0.5 -9.5q3 -4 1.5 -11.5t-1.5 -12.5z" />
<glyph unicode="h" horiz-adv-x="465" d="M421 141q1 -5 -0.5 -9.5t-1.5 -9.5q1 -7 1.5 -13.5t-1.5 -13.5q-1 -5 0.5 -9t0.5 -9q0 -4 -1 -5t0 -5v-13v-23v-15q0 -2 -1.5 -2t-3.5 -2q1 -2 2.5 -3t-2.5 -5q-3 -4 -7 -4h-9q-4 0 -12 -2q-4 0 -6 1t-5 1t-5.5 -1t-5.5 -1q-5 1 -9.5 1.5t-9.5 0.5q-24 -2 -47 0 q-5 0 -8 7t-3 12q2 8 1 16l-2 16q0 9 1 14t0 5t-1 5q2 5 0.5 11.5t0.5 12.5q3 5 1.5 12.5t-1.5 13.5q-1 9 0.5 18t0.5 18q0 7 -0.5 12.5t0.5 12.5q1 5 0.5 11.5t-1.5 12.5q0 3 -0.5 6t-0.5 6t1 5.5t1 5.5q-1 6 0 14.5t-1 13.5q-1 3 1 10q1 4 0 6t-1 5q-1 5 0.5 11t-2.5 9 q-5 5 -10 4.5t-10 -1.5q-8 -1 -14.5 -0.5t-14.5 1.5q-5 0 -10 -0.5t-10 -0.5q-6 0 -12 0.5t-12 -0.5q-8 -1 -10.5 -3t-2.5 -10q0 -6 -1.5 -12t-0.5 -12q0 -6 1 -12t0 -11q-1 -6 -2 -12.5t1 -12.5t1 -13.5t-1 -13.5q-2 -7 1 -13q2 -4 0 -7.5t-2 -8.5q0 -14 0.5 -29t0.5 -30 q0 -7 0.5 -13t-1.5 -13q-1 -3 0 -6l2 -6q1 -4 0 -7t-1 -7q0 -7 0.5 -13t-0.5 -13q-1 -6 -0.5 -14.5t-6.5 -11.5q-6 -3 -13 -2.5t-13 0.5q-8 0 -16 0.5t-16 -0.5q-3 0 -5 1t-5 0q-4 0 -7.5 -0.5t-8.5 -0.5q-8 0 -16.5 0.5t-16.5 2.5q-6 2 -8 11t-1.5 19.5t1.5 20.5t1 15 q0 4 -1.5 5t0.5 4q1 4 2 7t0 6q-5 17 -1 30q-1 7 -1 14t-1 14q0 9 1.5 18t-0.5 17q-2 7 0 13t1 12q-2 5 -1 9.5t1 9.5t-1 9t1 9q1 4 -1 7.5t0 6.5q2 5 1.5 9.5t-0.5 8.5q-1 5 -1.5 10.5t0.5 10.5q3 1 6.5 0.5t6.5 -0.5q0 7 -4 4t-8 -2q1 2 -0.5 9.5t0.5 9.5t3.5 2.5 t-3.5 -0.5q-1 0 -1 8v18.5v19.5v11q0 8 -0.5 15.5t0.5 15.5q0 4 0.5 7t0.5 7t-1 7t-1 6q0 4 1.5 6.5t-0.5 6.5q-1 4 -1 13v16.5t1 16.5q1 14 0.5 28t-0.5 28q0 13 -1 25.5t1 24.5t-0.5 25t0.5 25q2 7 0 13.5t0 12.5q2 8 -0.5 14.5t-0.5 13.5q2 11 11 17q5 3 8.5 2.5 t8.5 -0.5q7 1 13.5 -0.5t14.5 -0.5t15 1.5t15 -1.5q8 3 21.5 2.5t20.5 -5.5q5 -3 6 -8.5t0 -10.5q-1 -13 0 -25q2 -14 0 -27t-1 -27q0 -13 1 -26.5t-2 -25.5q-1 -6 0 -12t1 -12q-2 -7 2 -12q-2 -2 -2 -5.5v-6.5q0 -5 1 -12t-1 -12q-2 -2 -1 -4.5t2 -4.5v-10t-1 -10v-18 t2 -18q2 -10 12.5 -8.5t17.5 1.5q5 1 10 0t10 -1t9 1t9 0q7 0 17.5 -1.5t16.5 2.5q6 3 6 10v13q-1 8 -0.5 15t0.5 15q-1 5 0 9t1 9t-1 9t1 9q2 6 1 11l-2 10q1 3 1 8q0 4 -1 6.5t-1 6.5t0.5 7.5t0.5 7.5q0 6 1 9q-1 4 -1 12q0 5 0.5 9t0.5 9q1 5 -0.5 8t-0.5 8q3 20 0 40.5 t1 40.5q3 16 21 14q8 -2 16 1t16 -1q9 2 18.5 1.5t18.5 -0.5q10 -1 18.5 0t17.5 -2q5 -8 5 -20q0 -4 1.5 -11t-0.5 -10q-3 -4 -2 -8.5t1 -9.5q0 -7 -0.5 -14t0.5 -14q1 -5 2 -10.5t-1 -10.5t-1 -8.5t2 -8.5q0 -7 -1.5 -13t-0.5 -12t0.5 -11.5t-0.5 -12.5v-25t-1 -25 q0 -5 1 -9.5t1 -9.5v-28v-27.5t-1 -27.5q0 -3 0.5 -9t-1.5 -9t-0.5 -3.5t3.5 -4.5q-2 -8 -2 -13q-1 -21 -0.5 -42t2.5 -42q1 -12 -1 -24t-1 -25q0 -5 1 -9.5t0 -10.5t0 -12.5t0 -13.5q-1 -9 -1.5 -18.5t2.5 -18.5z" />
<glyph unicode="i" horiz-adv-x="219" d="M174 88q2 -7 3 -14t0 -14q-2 -13 -1 -25.5t-2 -25.5q-2 -7 -4.5 -8.5t-9.5 -1.5q-6 0 -12 -1t-11 1q-7 2 -13 0q-5 -1 -6.5 0t-5.5 1q-8 0 -14 -1t-14 0q-4 1 -10 0t-12 -1t-11 1.5t-6 6.5q-4 14 -2.5 29t1.5 29q0 16 -1 31.5t0 31.5q1 13 0.5 24t-0.5 24q0 5 0.5 11 t-0.5 11q-1 4 0.5 8.5t-0.5 7.5q-2 2 -0.5 11.5t1.5 14.5q0 8 -0.5 14.5t-0.5 14.5q-1 15 -1.5 30t1.5 29q2 15 0.5 30t0.5 30q0 6 -0.5 11.5t-1.5 12.5q0 6 1.5 11.5t0.5 11.5q-2 6 -0.5 11t-0.5 11q-2 3 -1 4t2 4q0 3 -0.5 6t-0.5 6q2 14 1 28.5t0 28.5q1 7 0 13.5 t-1 13.5v15.5t1 15.5v14t-1 14q-1 3 -1 6.5v6.5t1.5 5.5t1.5 5.5q-1 5 -1 11t-1 11q0 6 0.5 11.5t0.5 11.5q0 10 1.5 22t14.5 12q15 1 30 0t30 0q4 0 12.5 1t17 0.5t15.5 -2.5t9 -7q3 -6 2 -11.5t-1 -11.5q1 -7 1.5 -13.5t-0.5 -13.5q-2 -7 1 -13q-1 -4 -1 -7.5t-1 -7.5 q0 -8 0.5 -15.5t1.5 -15.5q0 -15 -1.5 -30t-0.5 -31q0 -2 -2.5 -1t-3.5 -1q2 -5 3.5 -2t3.5 1q-3 -6 -2 -13t3 -13q-1 -4 -2 -4t0 -4q2 -6 0 -11q-1 -6 0.5 -10t0.5 -9q-1 -8 -1 -17v-17q2 -31 0 -61.5t0 -61.5q1 -12 1.5 -23.5t-1.5 -23.5v-13.5t1 -13.5q0 -8 -1 -15.5 t0 -14.5q1 -5 1 -10t-2 -9q2 -8 2 -15v-15q-1 -7 0 -13.5t1 -14.5q0 -7 -1 -13.5t0 -13.5q1 -6 0.5 -12.5t-2.5 -11.5z" />
<glyph unicode="j" horiz-adv-x="418" d="M373 197q2 -10 -1 -13q2 -8 1.5 -15.5t-0.5 -15.5q-1 -5 -0.5 -10t-0.5 -10q-1 -4 -2.5 -6.5t-1.5 -6.5q1 -7 -2 -13.5t-5 -13.5q-5 -14 -14 -27t-19 -25q-2 -4 -4.5 -4.5t-5.5 -2.5q-3 -3 -5 -7t-6 -6q-3 -2 -6.5 -4.5t-6.5 -5.5t-6 -3t-6 -2q-14 -7 -30 -13.5t-33 -4.5 q-5 2 -12 -0.5t-10 2.5q-1 2 -2 -0.5t-3 -2.5q-5 2 -10 2h-10q-13 -1 -25.5 3.5t-22.5 9.5q-3 2 -5.5 2t-5.5 2t-5.5 4t-5.5 4q-2 5 -3 5t-7 2q-5 1 -2.5 2.5t3.5 3.5q-2 1 -6.5 -1t-3.5 3v6t-4 -1l-8 6t-5 8l-8.5 8.5t-6.5 9.5q-3 10 -9.5 19t-8.5 20q-1 6 -1.5 11.5 t-3.5 11.5q-2 4 -1.5 11t-1.5 12q-2 11 0.5 22t0.5 23q0 2 -0.5 4t1.5 4q3 3 1 5q-3 4 -2 5.5t1 6.5q-1 13 -1.5 26t-0.5 26q0 7 -0.5 13t1.5 12q1 2 5 7.5t4 0.5q2 0 1.5 2.5t-0.5 3.5q5 0 9 0.5t9 0.5h18t19 -1q5 0 14.5 1t19 1t17 -3t9.5 -10q2 -8 1.5 -16.5t0.5 -16.5 q0 -5 -0.5 -9.5t-1.5 -9.5q0 -5 1 -8.5t1 -8.5q0 -4 -1 -7.5t-1 -8.5t0.5 -9t0.5 -8q-1 -2 -1 -4t-2 -4q3 -3 3 -7q1 -6 -1 -16q-1 -11 3.5 -27t13.5 -23q5 -4 11.5 -8t12.5 -3q8 2 15.5 2.5t15.5 5.5q6 5 9.5 12t5.5 14q2 5 3 8t0 8q0 5 0.5 9.5t0.5 9.5q1 9 1 18.5 t-2 19.5q1 3 2 5.5t0 5.5q2 1 4.5 3.5t-1.5 3.5q-2 0 -2 -2.5t-2 -0.5q1 6 0.5 12t-0.5 11t-0.5 9.5t0.5 9.5t0 9.5t0 9.5q1 9 0.5 18t-1.5 17v6.5t2 7.5q0 1 2 5q-3 5 -1 8q2 5 0 5t-4 4q2 2 1.5 6.5t3.5 5.5q0 2 -2.5 4.5t1.5 3.5q7 3 -1 4l-0.5 3.5t-1 8t-1 8.5t-0.5 5 q1 4 2.5 6.5t0.5 6.5q-2 5 -2 10v10q4 0 5 -1q0 2 -4 8q-2 2 -1.5 6t0.5 7q1 5 1 13q-1 7 -0.5 6t4.5 2q-2 5 -4.5 3.5t-0.5 3.5q1 3 4 6q0 2 -1.5 2t-1.5 1q-1 2 2 2.5t6 0.5t4 1t-2 4q-2 3 -9 3q0 4 -0.5 7t-0.5 7q-1 3 -1.5 6.5t1.5 6.5q1 4 0 7.5t0 8.5q0 5 0.5 9.5 t0.5 9.5q0 4 -1 7t-1 7q1 6 -0.5 14.5t2.5 13.5q0 2 -1.5 5t0.5 5q4 5 2.5 3.5t-2.5 3.5q-1 10 -0.5 19.5t0.5 19.5v19q-1 3 -1.5 8t5.5 3q-5 8 -1 14t12 8q4 2 7 0.5t7 -1.5q5 0 7.5 1t7.5 2q4 1 7.5 -0.5t7.5 -1.5q5 -1 10 -0.5t10 0.5q11 1 21 0t21 0q4 -4 7.5 -9 t3.5 -11q-1 -7 0 -13.5t-1 -13.5t-0.5 -14t1.5 -15q-1 -7 -1.5 -13t0.5 -14t0 -15t-1 -15q0 -3 1 -6t1 -7q1 -2 -0.5 -4t-1.5 -4q0 -13 1 -25.5t0 -25.5q-1 -8 -1 -15v-15q0 -7 1.5 -14t0.5 -14q-1 -11 -1 -22v-23q1 -7 0.5 -13.5t-0.5 -13.5q0 -6 0.5 -10t-6.5 -6 q-4 -1 -6 -4.5t3 -1.5q2 1 3 -0.5t2 -0.5t1 2.5t2 0.5q2 -7 2.5 -15.5t-1.5 -15.5q-2 -4 -0.5 -7t0.5 -8q-1 -2 -4.5 -1.5t-3.5 -3.5q5 -1 6.5 -0.5t1.5 -5.5v-20v-10t-1 -10q3 -6 1 -13q-1 -5 -1.5 -6.5t1.5 -6.5v-16q0 -4 0.5 -7.5t-0.5 -7.5q-1 -5 -2 -5t-3 -2 q0 -3 2.5 -4.5t2.5 -5.5z" />
<glyph unicode="k" horiz-adv-x="434" d="M425 16q0 -7 -2 -11t-6.5 -3.5t-6.5 -3.5q-5 3 -11.5 1.5t-11.5 -1.5q-7 0 -13.5 0.5t-13.5 0.5q-13 1 -25 0q-6 -2 -10 2q-5 -4 -14 -2q-3 1 -5.5 1.5t-5.5 0.5q-6 6 -10 8q-2 6 -3 12.5t-4 12.5q-2 5 -3.5 10.5t-3.5 10.5q-1 3 -2 5.5t0 4.5q0 5 -2.5 7.5t-1.5 7.5 q1 7 -2.5 13t-4.5 12q-2 4 -1.5 6.5t-1.5 5.5q-2 2 -2 5t-1 6q-1 6 -3.5 12t-4.5 13q-2 5 -2.5 12.5t-4.5 12.5q-2 3 -2 9q-3 4 -3 11q-1 5 -2.5 9.5t-3.5 9.5q-4 14 -7.5 27.5t-9.5 26.5q1 8 -4.5 14t-8.5 -5q-2 -5 -4.5 -9.5t-4.5 -9.5q-1 -2 -1.5 -3.5t-1.5 -3.5 q-1 -4 -2.5 -4.5t-2.5 -3.5q0 -5 -2.5 -8.5t-4.5 -7.5t-1.5 -8.5t0.5 -9.5q-1 -11 -1 -21.5v-21.5q1 -9 2.5 -19.5t-0.5 -19.5q-2 -10 -1 -20t0 -20q-1 -12 0 -24t0 -24q0 -8 1 -20.5t-6 -17.5q-5 -5 -13 -6t-14 1q-11 2 -23 1.5t-23 -0.5q-10 -1 -20.5 -1.5t-20.5 1.5 q-12 4 -13 12.5t0 18.5q0 4 -1 7.5t0 7.5q1 10 0 20q0 6 0.5 12.5t1.5 12.5q0 5 -1.5 10.5t-0.5 10.5q2 10 1 22q-1 5 0 9.5t1 9.5t-1.5 11t-0.5 11q0 6 3 9q2 1 2.5 -0.5t2.5 -0.5q2 2 -0.5 1t-1.5 1q0 2 1 4.5t1 4.5q-1 6 -3 1q-1 -3 -2 -7q-4 3 -2.5 8.5t3.5 8.5 q-2 8 -1.5 14t-1.5 13q-1 5 -0.5 5.5t1.5 4.5q-2 4 -2 14q1 8 0.5 17t-0.5 17q0 28 1 55.5t1 54.5q-1 15 -0.5 30t-0.5 29q0 7 -1 13.5t1 12.5q0 4 1 9t-1 8q-2 4 -0.5 11t1.5 11q-2 13 0 27q1 15 -0.5 29.5t-1.5 30.5v27.5t2 27.5q1 6 -1.5 12t1.5 11q-2 5 -2.5 14.5 t3.5 12.5q7 6 12.5 7t13.5 1h31h31q5 -1 8.5 -1h7.5q6 4 15 0q6 -3 9 -7q3 -3 1.5 -5t0.5 -5q2 -7 -0.5 -13t-0.5 -11q2 -4 1 -5.5t0 -5.5q0 -2 1 -4t0 -4q-1 -8 -1.5 -16.5t0.5 -16.5q0 -8 0.5 -16t-0.5 -16q0 -3 -0.5 -6t-0.5 -6q0 -4 1.5 -6t0.5 -6q-1 -6 0 -10 q-1 -4 -1 -12t0.5 -15.5t-0.5 -15.5q-1 -5 -1 -9.5t2 -9.5q-2 -7 -1 -13.5t3 -13.5q8 2 11.5 13t6.5 17q2 5 3.5 10t3.5 10q3 5 6 11.5t3 12.5l6 8t2 9q-1 3 3 7q2 3 2.5 5.5t2.5 5.5q2 7 4.5 13.5t5.5 13.5q1 3 2.5 5.5t3.5 4.5q2 4 2.5 7.5t2.5 6.5q3 5 5 11.5t4 11.5 l6 14l6 14t7 14t4 15q2 1 6 7q5 1 9.5 1.5t9.5 1.5q7 1 13.5 -0.5t12.5 -0.5q6 2 12.5 1.5t12.5 -0.5q10 -1 19.5 -0.5t19.5 -0.5q14 -2 15.5 -9t-3.5 -18q-3 -5 -4 -11.5t-4 -11.5q-2 -3 -3.5 -5t-3.5 -5t-2 -6.5t-2 -5.5q-5 -5 -5.5 -10.5t-2.5 -10.5t-5 -8.5t-3 -8.5 q-4 -4 -5.5 -9.5t-3.5 -10.5q-2 -6 -5 -11t-4 -11q-2 -5 -5 -9.5t-3 -9.5q-5 -3 -6 -8.5t-3 -10.5q-6 -15 -13 -29.5t-13 -29.5q-2 -5 -4 -14t-7 -12q-2 -2 -4 -9t-2 -10q0 -5 4 -13q2 -4 2 -6t1 -7q2 -6 4.5 -11.5t4.5 -12.5q0 -2 0.5 -3.5t0.5 -3.5q-1 -2 -2.5 -1.5 t-0.5 -1.5q0 -2 1.5 -1t0.5 3q5 -5 5.5 -10.5t2.5 -10.5q2 -6 4 -8q0 -8 3 -15q6 -17 11 -32.5t9 -32.5q1 -2 2.5 -6.5t-0.5 -5.5q-1 0 -3.5 -1t0.5 -2q2 -1 2.5 0t2.5 1t2.5 -4t1.5 -6q2 -6 5 -12t5 -13t2.5 -13.5t2.5 -13.5q5 -12 8.5 -24t7.5 -25q5 -12 9.5 -24.5 t6.5 -25.5l4 -12l4 -12q2 -5 3 -11.5t3 -11.5q3 -6 5.5 -12t3.5 -13z" />
<glyph unicode="l" horiz-adv-x="370" d="M351 53q2 -1 2.5 -6.5t0.5 -12.5t-0.5 -13.5t-1.5 -9.5q-3 -10 -14 -12q-3 0 -6 0.5t-6 0.5q-5 0 -8 -1t-8 -1q-14 1 -27 1t-27 1q-9 0 -13 -1t-5.5 0t-5.5 1q-8 1 -15 0t-15 0q-30 1 -60 0q-14 -1 -29.5 -1.5t-29.5 0.5h-23.5t-15.5 14q-2 6 -0.5 12t-0.5 12 q-2 8 -1 16.5t1 16.5q1 14 1 28.5v28.5v13.5t-1 12.5v6.5t2 5.5q-4 9 -2 18v11.5t1 10.5q0 7 -0.5 13.5t-0.5 13.5q1 8 0 15t0 15t1.5 16t0.5 16q-1 14 -3 29t1 29q2 6 0.5 12t-1.5 12q1 9 1.5 18t-0.5 18q0 4 -1.5 12.5t2.5 10.5q-2 6 -1 10q1 3 0 5t-1 5q0 15 1 30t0 30 q0 6 1 12.5t0 13.5q0 6 -1 12t0 13q2 5 0 9t0 9q2 4 1 6t-1 5q0 5 0.5 9t0.5 9q0 4 -1.5 10.5t0.5 9.5q2 5 1 12t0 12q1 7 0 12.5t-1 12.5q-1 8 0 17.5t2 17.5q8 9 19.5 7t21.5 -1q11 0 21.5 0.5t21.5 -0.5q5 -1 11.5 0t11.5 -1q2 -1 3.5 0.5t4.5 0.5q5 0 10 -5 q8 -6 6 -16.5t-1 -19.5q1 -14 0 -26.5t0 -26.5q0 -6 1 -12t1 -12q0 -7 -1 -12.5t-1 -12.5q1 -5 2 -11t-1 -11q-2 -8 -2 -12t1.5 -7t1.5 -6q0 -8 -1 -15t-1 -15q1 -4 1 -7.5t1 -7.5q-1 -3 -2 -5.5t0 -5.5q-1 -1 -5.5 0t1.5 -4q5 -5 4.5 -9.5t-0.5 -10.5t1.5 -12.5t0.5 -12.5 q-1 -8 -2.5 -16t0.5 -16q2 -6 -2 -10q1 -3 1 -6.5t1 -6.5q1 -7 1.5 -13.5t-0.5 -14.5q-1 -6 -0.5 -12t0.5 -13q-1 -7 0 -14.5t0 -14.5q-2 -11 -2 -23.5t2 -23.5q0 -8 -0.5 -14.5t-0.5 -13.5q0 -9 0.5 -17.5t-0.5 -16.5q-2 -13 0 -25t1 -24q0 -13 10 -15q3 -1 11 -1q5 1 6 1 h6q6 -2 12.5 -1t12.5 1q6 1 11.5 -0.5t10.5 -0.5q8 1 14 0.5t14 -0.5q3 0 5.5 0.5t5.5 0.5q5 1 7.5 -0.5t6.5 -1.5q13 3 26 3q2 -1 4.5 -2t4.5 -2q4 0 4.5 -1.5t3.5 -3.5q1 -8 1.5 -15t0.5 -14q0 -3 -2.5 -15t-0.5 -13z" />
<glyph unicode="m" horiz-adv-x="589" d="M541 374q0 -22 1.5 -44.5t-0.5 -43.5q-2 -5 0 -9q1 -4 0 -5t-2 -5q0 -6 1 -12t1 -12q-1 -14 -0.5 -26.5t0.5 -26.5q-2 -26 0 -52q0 -12 -1 -24t1 -24q1 -14 0 -27t-1 -27q1 -12 0 -24q-2 -8 -5 -10t-11 -3q-12 -2 -25 -1t-25 0q-6 0 -12 -0.5t-11 0.5q-6 1 -11.5 0.5 t-10.5 2.5q-11 6 -10.5 15t1.5 20q0 5 -1.5 11t0.5 11t0 10.5t2 9.5q-2 5 -0.5 8.5t-0.5 8.5q-2 4 -1 6t1 6q1 3 0 5.5t-1 5.5q0 2 2 8q-2 2 -1.5 5t0.5 6q1 2 -0.5 5t0.5 5q2 1 4 1t3 2q-3 3 -4.5 1t-2.5 5v8t-2 8q3 8 2 17.5t-1 17.5q-1 7 1 16.5t-3 14.5q2 8 2.5 17.5 t0.5 18.5q-1 8 -1 15.5v15.5q0 5 0.5 8t-1.5 8q-1 5 0 8t2 8q0 5 -1 9t-1 8q0 5 1.5 8t0.5 7t-0.5 7.5t0.5 7.5q0 3 -2 7q3 5 1 12q2 0 2.5 -2t2.5 -2q1 5 -4 7q-2 3 -2 6.5t-2 5.5q-5 -3 -5.5 -9.5t-2.5 -11.5q-1 -2 -2.5 -3t0.5 -4q2 -2 0 -10.5t-3 -11.5q-2 -10 -4 -19.5 t-4 -19.5q-1 -5 -1.5 -9.5t-1.5 -9.5q0 -5 -1.5 -8.5t-2.5 -8.5q0 -2 -0.5 -5t-3.5 -4q0 -2 2 -4t0 -4q-1 -2 -4 -2.5t-1 -2.5q3 -3 3 -5t-1 -7l-2 -8t-3 -7q3 -7 -1 -17q-2 -5 -3 -4.5t-4 -0.5q-4 -1 -1 -1q2 0 5 -1q0 -6 -1.5 -11.5t-2.5 -10.5q-2 -6 -2 -10.5t-2 -9.5 q2 -5 -0.5 -9.5t-3.5 -9.5t-0.5 -10.5t-4.5 -8.5q2 -5 1 -9.5t-2 -8.5q-2 -5 -1 -12t-4 -10q1 -4 1 -5t-2 -4q-2 -2 -3.5 -2.5t0.5 -4.5q2 -6 0.5 -11.5t-2.5 -12.5q-2 -5 -3.5 -10.5t-1.5 -10.5q-1 -8 -2.5 -14.5t-3.5 -13.5l-3 -9q-3 -1 -6.5 -1.5t-6.5 -1.5q-6 -1 -14 -2 t-13 2q-5 2 -11 1t-11.5 -1.5t-10.5 0.5t-8 7q-3 5 -4.5 10.5t-4.5 10.5q0 2 1 3.5t1 3.5l-3 6t-1 7q1 11 -3.5 21.5t-3.5 21.5q0 5 -1.5 9.5t-3.5 9.5q-2 6 -2 12.5t-2 12.5q-2 5 -2.5 10t-0.5 10q0 7 -2.5 12.5t-3.5 11.5q-1 8 -1.5 14.5t-2.5 14.5q-2 7 -4 13.5t-2 12.5 q1 5 -1 10.5t-2 10.5q0 3 0.5 4.5t-1.5 5.5q-1 3 -2 5.5t-1 5.5q-1 12 -3 24.5t-4 24.5q-2 11 -4.5 21.5t-4.5 21.5q-2 7 -2.5 13t-2.5 12q-2 5 -2.5 6.5t-0.5 5.5q-1 6 -5 11q-4 -3 -5 -9.5t0 -13.5l2 -14t1 -11q-2 -12 -3.5 -25.5t3.5 -25.5q-2 -2 -2 -5.5t1 -6.5 q0 -3 -1 -4t-1 -3q0 -8 1.5 -14t0.5 -14q-1 -7 -0.5 -13t0.5 -14q0 -6 -1 -11.5t-1 -12.5q1 -16 2 -31t0 -31q-1 -11 0 -22t1 -22q0 -7 -1 -13.5t-2 -14.5v-9.5t2 -9.5q2 -5 1 -13.5t-2 -14.5q0 -2 1 -6t-1 -6q-2 -5 -1.5 -6t0.5 -6q0 -3 -3.5 -9.5t-8.5 -3.5q-2 1 -1.5 2 t-1.5 2q-2 0 -1.5 -2t-1.5 -3q-12 1 -24 -0.5t-24 -0.5q-11 1 -24.5 -1t-21.5 7q-7 8 -5 20q1 5 0 5.5t-1 4.5q-1 3 0 6.5t1 7.5q0 2 -0.5 4.5t-0.5 5.5q-1 3 0 5t1 5q1 7 0 14.5t-1 14.5q1 8 1 15v15q-1 6 0.5 11t0.5 10q-2 7 -2 14v15q0 3 1 5.5t1 5.5q0 2 -1.5 3t0.5 4 q2 4 0 10t-2 11q0 3 0.5 5t1.5 4q-1 4 2 4q4 0 4 3q-2 2 -3 0t-3 -1q2 4 0 8t0 8q2 3 1.5 7t-0.5 7q0 5 -1 8.5t-1 8.5q0 6 0.5 12.5t1.5 12.5q0 5 -0.5 8.5t-1.5 7.5q0 5 1 9.5t0 9.5q-2 5 -1 9t1 9q1 6 0.5 12.5t-0.5 12.5q-1 5 -1.5 9.5t1.5 9.5q1 5 0 9.5t-1 9.5 q2 10 2 16q0 5 -3 8q2 8 2 12q2 11 1 20.5t-2 20.5q0 5 0.5 9t0.5 9q1 5 0 9.5t0 9.5q2 16 0 32q-1 10 0 19.5t0 20.5q0 8 -0.5 16t-0.5 16q0 5 0.5 9.5t1.5 9.5q0 5 -1.5 9t0.5 9q2 3 0.5 7t-1.5 8q1 5 0.5 10t1.5 9t4 7.5t6 5.5t10 3t10 -2q2 -2 7 -0.5t7 1.5h26 q3 0 7.5 0.5t7.5 -1.5q3 -3 7.5 0.5t5.5 -3.5q2 0 4 2t5.5 1.5t5.5 -0.5l12 2t12 0q5 -2 10.5 -1.5t10.5 -1.5q15 -6 16 -20q0 -13 5 -23q2 -6 1.5 -13t2.5 -13q2 -5 1.5 -10t1.5 -11q1 -5 3 -10t3 -10q0 -5 0.5 -9.5t3.5 -7.5q-2 -5 0 -12t2 -12q1 -4 1 -8.5t2 -7.5 q1 -4 3.5 -11.5t0.5 -11.5q-2 -5 0.5 -10t4.5 -10q2 -7 3 -13.5t2 -13.5q1 -5 0.5 -12.5t2.5 -12.5q3 -3 4.5 -8t-3.5 -8q6 -2 5.5 -9t1.5 -12q4 -7 4.5 -16.5t2.5 -17.5q2 -7 3 -13t3 -13q0 -7 0.5 -15t7.5 -13q4 3 5 8.5t2 10.5q1 4 2 7l2 6t0.5 6.5t0.5 6.5q1 5 2 13 t4 10q-2 6 0 13t4 13q1 5 0.5 9.5t2.5 9.5t3 11.5t1 12.5q2 6 3 12t2 13q0 7 4 12q0 5 0.5 9.5t1.5 9.5q2 7 3 14t3 14q1 6 2.5 11t1.5 11q1 5 1 11.5t3 11.5q5 5 5 15t2 17q2 6 2 12.5t1 13.5q1 6 5 11q-2 6 0 12q0 3 1 5.5t3 5.5q1 3 0 5t-1 5q2 5 4 9.5t7 7.5q9 7 17 2 q7 2 14 2h14h31.5t31.5 -1h13.5t13.5 1q5 1 11 0.5t10 -3.5q7 -5 6.5 -10t0.5 -13q1 -9 0.5 -17.5t-0.5 -17.5q0 -13 1.5 -26t-0.5 -26q-2 -14 -1.5 -29t0.5 -30q0 -5 1.5 -10.5t-0.5 -10.5q-2 -7 1 -11q0 -2 -1.5 -4t-0.5 -4q3 -5 0.5 -8t-1.5 -8q2 -5 3 -11.5t-3 -11.5 q3 -13 1.5 -25.5t-0.5 -25.5q1 -12 0.5 -23.5t-0.5 -23.5z" />
<glyph unicode="n" horiz-adv-x="467" d="M421 44q0 -8 1.5 -21.5t-6.5 -19.5q-6 -4 -9.5 -2.5t-8.5 -0.5q-3 0 -5.5 -1t-5.5 -1t-5 1.5t-5 0.5q-12 -2 -24.5 -1t-24.5 0q-6 -1 -10.5 2.5t-8.5 7.5q0 2 2.5 6t-3.5 1q-2 -1 -4.5 5.5t-5.5 15t-5.5 17t-3.5 10.5q-4 5 -5 10t-3 11t-5 11t-4 11q-2 12 -7.5 24 t-9.5 23q-2 5 -3.5 10.5t-4.5 10.5q-2 4 -2 9q-2 5 -6 13q-5 15 -9.5 30.5t-10.5 29.5q1 1 2.5 0t2.5 0q0 3 -6 5q-3 1 -3.5 3.5t-1.5 5.5q-2 7 -6 14t-4 14q-1 5 -3 8.5t-4 8.5t2 6q3 1 -0.5 2.5t-2.5 -2.5q-4 9 -7 18t-8 19q-2 3 -3 9t-3 7q-5 3 -5 -0.5t-1 -6.5 q-1 -2 -2 -2.5t-2 -2.5q0 -3 1.5 -4t1.5 -4q-1 -8 -0.5 -15t0.5 -15q0 -3 0.5 -9t0.5 -12.5t-1 -11.5t-4 -6q0 -2 1.5 -2.5t3.5 -2.5q-2 -6 -2 -10q0 -5 1 -11t1 -11q-2 -13 -1.5 -25t0.5 -26q0 -28 0.5 -54.5t0.5 -55.5q0 -7 -1 -13t0 -13v-29q0 -15 -3 -28q-7 -4 -15 -5 t-16 -1q-7 0 -13.5 0.5t-13.5 -1.5q-2 0 -3.5 1.5t-3.5 1.5q-2 1 -4.5 -1t-4.5 -2q-3 0 -4.5 1.5t-4.5 -0.5q-4 -2 -5.5 -0.5t-5.5 1.5q-9 0 -12 1t-10 8q-5 6 -3 19.5t1 21.5q0 14 -0.5 27.5t-0.5 27.5q0 8 0.5 15t0.5 15q-1 4 -1 7.5t-1 6.5q2 3 2 6t1 6q1 16 -0.5 31 t-1.5 30q0 8 0.5 14t-0.5 13t0 12.5t1 12.5q0 4 -1 6t0 6t1 7.5t1 8.5q0 6 -2 15.5t1 14.5t1.5 12.5l-2.5 12.5q-1 8 -0.5 15.5t0.5 15.5q0 7 -0.5 15t1.5 15q1 4 1.5 4.5t-1.5 3.5q-2 2 0.5 5t0.5 6q-2 5 -1.5 10.5t0.5 11.5q2 6 0 13q-1 5 0 8.5t1 8.5q0 13 -2.5 28 t1.5 27q2 4 0.5 4.5t-1.5 4.5q0 3 0.5 5.5t0.5 5.5q1 6 0.5 11.5t-1.5 11.5q0 7 1 13t0 12q-2 8 -1 16l2 16q0 13 -1 24.5t1 24.5q0 6 -1 13t3 12q2 3 9.5 5.5t10.5 0.5q5 -2 8.5 0t8.5 0q8 -2 14 -1t14 1q7 1 13 0t13 -1q3 -1 5 0.5t6 0.5q3 -1 6.5 -2.5t7.5 -1.5 q2 -3 1.5 -6t-0.5 -6q3 -1 2 0.5t1 2.5q4 -2 4.5 -5.5t1.5 -7.5q2 -5 3.5 -10t3.5 -10q3 -8 7.5 -17.5t4.5 -17.5q4 -10 7.5 -19.5t7.5 -20.5q2 -5 3.5 -11t3.5 -11q2 -7 2 -8t-5 -3q2 -6 6 -7t6 -6q2 -3 2 -5.5t2 -5.5t1.5 -4.5t1.5 -5.5q2 -5 4 -9t4 -9l3.5 -14t4.5 -12 q3 -5 2.5 -9t0.5 -9q0 -2 1 -1t2 1t2 -4t2 -4q3 -11 6 -20.5t7 -20.5q1 -2 2.5 -3t1.5 -3q-2 -2 1 -5q3 -4 3.5 -9t2.5 -10t4.5 -9.5t4.5 -9.5q0 -1 1 -4t2.5 -5t3 -3t2.5 3q2 4 0.5 8t-0.5 9q2 11 1 23q-2 14 0 27.5t0 27.5t2 23q1 2 -0.5 2t-1.5 2q1 4 1 7.5v6.5 q-1 7 0 13t0 12q0 8 -0.5 16t-0.5 16v14t1 14q1 5 -1 12t0 12t0.5 10.5t-0.5 10.5q1 7 0 13.5t0 13.5q1 5 2 12.5t-1 12.5q-3 5 -1.5 11.5t1.5 11.5q0 7 4.5 10.5t11 5t14 1t12.5 -0.5t13 1t12 -1q2 -2 10 -1.5t10 1.5q7 2 14.5 -0.5l13.5 -4.5q4 -5 4 -11v-12 q0 -11 1 -20.5t0 -19.5q-1 -5 -1.5 -11t1.5 -11q2 -3 0.5 -7.5t-0.5 -8.5q2 -9 0 -17.5t-2 -17.5q0 -5 1 -10.5t1 -11.5q0 -5 -1 -9.5t-1 -9.5q0 -10 1 -19.5t1 -19.5q-1 -10 -0.5 -19.5t0.5 -18.5v-41q0 -10 -1.5 -21.5t1.5 -20.5q-7 -4 -4 -4.5t4 -6.5q0 -4 -0.5 -7.5 t1.5 -6.5q1 -5 0 -6.5t-1 -5.5q-2 -11 -1 -22t-1 -22q-1 -14 1 -27t1 -27t0 -27t-1 -27q-1 -7 1 -13.5t1 -14.5q-1 -5 -2 -11t1 -11q2 -6 0 -12.5t0 -12.5q1 -6 -1 -12.5t2 -11.5q-2 -7 -1.5 -12t1.5 -12t0 -13t-2 -13z" />
<glyph unicode="o" d="M397 275q2 -5 0.5 -11.5t-1.5 -11.5q0 -16 0.5 -31.5t-0.5 -30.5q0 -7 0.5 -13t0.5 -12q2 -6 -1 -10q-2 -4 -1 -7t0 -8q-1 -12 -4.5 -23.5t-7.5 -22.5h-2t-4.5 -1t-3.5 -2t2 -2q5 -2 3.5 -5.5t-4.5 -7.5q-2 -4 -5.5 -7.5t-3.5 -8.5q-5 -5 -10 -11t-10 -11 q-17 -19 -40 -28q-6 -3 -11 -6.5t-12 -4.5q-6 0 -10 -3q-4 -2 -6.5 -2.5t-7.5 -0.5q-13 -2 -24.5 -3t-23.5 -2q-15 0 -30 2.5t-30 5.5q-13 3 -23 9q-4 2 -6 1.5t-6 2.5q-2 2 -4.5 4t-5.5 4q-5 3 -11 5.5t-7 8.5q-5 2 -8.5 6t-7.5 8q-4 3 -6 7t-6 6q-5 4 -8.5 12t-6.5 13 q-2 2 -4.5 5t-0.5 6q2 4 0 4.5t-4 3.5q0 6 -1.5 12t-3.5 13q-2 6 -2 10.5v10.5q-1 6 -0.5 12.5t-0.5 12.5q-1 7 -1.5 12.5t0.5 12.5q0 8 -1.5 16.5t0.5 15.5q2 10 0 20.5t3 19.5q2 3 1.5 4t-2.5 3t-1.5 6t0.5 6q0 8 -0.5 17t0.5 17q1 5 0.5 10t-0.5 10q1 8 0 15t-1 15 q1 14 -0.5 29t2.5 29q1 5 -0.5 6.5t-0.5 6.5q1 8 0 15t-1 14q0 6 1 12t1 12q0 8 -0.5 16.5t-1.5 16.5q0 7 1.5 14t-0.5 14q-2 6 -0.5 13t2.5 14q1 6 0 13q4 6 4 11q2 8 3 13q1 4 3 6.5t4 7.5t5 10.5t6 11.5q2 5 6.5 10t8.5 10q8 10 18 17.5t21 15.5q5 3 10.5 5t10.5 5 t10.5 4t11.5 3q2 0 10.5 3t9.5 0q2 1 3.5 2t3.5 2h21q11 1 23 0.5t23 -1.5q4 -1 9 -2.5t8 -0.5q5 2 12.5 -1.5t13.5 -4.5q8 -7 18.5 -9t17.5 -11q2 -3 5.5 -4t6.5 -6q5 -5 10 -8t8 -9q3 -5 7 -7.5t6 -8.5q2 -5 6 -10t7 -10q11 -25 14 -50q1 -6 3 -14t0 -13q-1 -5 0 -10 t0 -10q-2 -5 2 -9q-2 -2 -2 -4.5v-5.5q1 -3 0 -5.5t0 -6.5q0 -5 0.5 -10.5t0.5 -10.5q0 -8 -1 -14t0 -13q2 -7 0.5 -13.5t-0.5 -12.5q2 -14 0.5 -28t-0.5 -28q1 -8 0.5 -14t-0.5 -14q0 -10 -2 -15q2 -2 2 -7t1.5 -11.5t-0.5 -11.5q-1 -3 -2 -8.5t1 -8.5q2 -2 0.5 -3.5 t-1.5 -4.5q0 -5 2 -11zM265 313l-2 10t1 10q3 9 0.5 22t-1.5 24v27t1 27q0 6 -1.5 13t0.5 13q2 7 0.5 13t-0.5 14q1 15 0.5 30t-0.5 30q0 11 -1 26.5t-9 25.5t-20.5 15t-25.5 3q-6 0 -11.5 -2t-11.5 -4q-7 -2 -12 -9.5t-9 -12.5q1 -7 -1.5 -12.5t-3.5 -11.5q0 -6 1.5 -11 t-0.5 -11q-2 -7 -1 -14t1 -15q1 -16 0 -32q0 -13 0.5 -25.5t-0.5 -25.5q-1 -6 0.5 -12t0.5 -12q-2 -8 -1.5 -14.5t0.5 -14.5v-14t-2 -14q2 -8 2 -16v-16q-1 -16 -0.5 -32t0.5 -32v-13.5t-1 -13.5q0 -6 1.5 -12t-0.5 -12q-2 -12 -1 -25.5t4 -25.5q2 -11 6 -20.5t15 -15.5 q9 -6 18 -5q7 2 11.5 -1t11.5 1q3 2 11 4q10 3 15 9q6 8 8 15t4 17q1 4 3 7t0 7t-2 8v9q2 10 -1 17q3 5 1.5 10.5t0.5 10.5q2 3 1.5 7t-1.5 8q-2 5 -1.5 9t1.5 9q1 9 -0.5 18t-0.5 18q1 5 1.5 10t0.5 10z" />
<glyph unicode="p" horiz-adv-x="439" d="M417 516q4 -13 0.5 -26.5t0.5 -27.5q-3 -6 -2.5 -13t0.5 -14q0 -8 -2 -15.5t-2 -15.5q-1 -7 -4.5 -13t-5.5 -12q-2 -7 -5 -12.5t-7 -12.5q-4 -6 -7 -9q-2 -3 -1.5 -4.5t-1.5 -3.5q-3 -2 -6 -5l-5 -5t-3.5 0t-3.5 2q-2 -2 -1 -4.5t1 -4.5l-6 -4t-5 -4q-13 -8 -25 -12 q-6 -2 -10 0q-3 -5 -7 -6q-6 -3 -13 -3.5t-13 -2.5q-11 -2 -18.5 -1.5t-18.5 -1.5q-7 -1 -14 -1h-14q-6 0 -15.5 1t-14.5 -1q-8 -3 -9.5 -6t-1.5 -11t0.5 -15t0.5 -15q-1 -8 -0.5 -16.5t0.5 -16.5q0 -7 -1.5 -15t0.5 -15t1.5 -14t-1.5 -14q0 -7 1 -13.5t1 -13.5 q0 -3 -1 -5.5t-1 -6.5q1 -6 0 -11q0 -3 -1 -6t1 -6q2 -4 0.5 -7t-1.5 -7q0 -8 1.5 -13.5t0.5 -12.5q-2 -6 -2 -13t1 -13q1 -7 -1.5 -11t-7.5 -6t-11.5 -2.5t-11.5 0.5q-4 1 -6.5 0t-6.5 -1q-2 -1 -4.5 0t-4.5 1q-7 1 -13 0t-13 0q-11 2 -22 0t-22 3q-7 4 -5.5 8t-2.5 8 q-3 3 -3 11.5t2 12.5q2 6 0.5 12t0.5 12q1 7 0 13t-2 13q-1 6 0.5 11.5t1.5 11.5q0 3 -1 5.5t-1 5.5q0 4 1 7.5t1 7.5q0 6 -0.5 12t0.5 12q0 3 0.5 6.5t-1.5 6.5q-1 2 0 4.5t1 6.5q-2 6 -1 12.5t1 13.5q-1 4 -2 6.5t1 6.5q1 2 1 5.5v6.5q-1 6 0 12t1 13q0 2 -1 5t-1 5 q1 4 0 6t-1 5q2 15 2 30t-1 30v15t1 15t0 15t-1 15q-1 17 0.5 32.5t1.5 32.5q0 15 -1 29.5t0 29.5q0 13 -0.5 25.5t0.5 25.5q0 7 -0.5 12.5t1.5 12.5q-1 7 -1 14t-1 14q0 14 -0.5 27t0.5 27q0 8 1.5 20t11.5 16q3 1 5.5 0t5.5 -1q4 0 7 1t7 1q10 -1 21 0q6 0 12 -0.5 t12 -1.5q5 -1 5 -2t5 1t9 1.5t9 -0.5q7 0 12.5 1t11.5 -1q8 -2 15.5 -1t15.5 1q15 0 30.5 0.5t30.5 -1.5q6 -2 8 -4q2 0 2 1.5t2 0.5q6 -2 11.5 -2.5t11.5 -2.5q5 -2 9.5 -4.5t9.5 -4.5q8 -2 14 -6t12 -9q5 -4 10.5 -7.5t9.5 -8.5q0 -5 3 -5.5t6 -4.5q8 -11 15.5 -23 t8.5 -26q0 -4 1.5 -6.5t2.5 -6.5q1 -3 0.5 -6t1.5 -6q2 -5 4 -12t0 -12q-1 -5 1 -11t0 -10q4 -7 2 -14.5t0 -15.5zM287 489q-1 5 0 9.5t0 9.5t-1.5 10t-0.5 11q-1 4 -0.5 8.5t-1.5 7.5q-2 4 -1.5 8t-1.5 8q-2 3 -4 7q-2 3 -1 6t0 6q-1 4 -4 7.5t-5 6.5q-5 9 -15.5 11 t-18.5 4q-5 1 -10 2.5t-10 -0.5q-5 -1 -9.5 -1h-9.5q-14 -1 -14 -9v-18q0 -17 -2 -34t0 -35q1 -11 0.5 -22t0.5 -22q1 -5 -0.5 -8t-0.5 -8q0 -5 1 -9t-1 -9q-1 -4 0.5 -7.5t0.5 -8.5t-1.5 -9t1.5 -8q4 -9 12 -9q5 1 9.5 0.5t9.5 -0.5q6 1 11.5 1.5t11.5 -0.5q10 0 17 5 q3 2 7 2t8 2q6 3 10 11t7 16t3 16q0 5 1 9.5t1 9.5t0.5 11.5t0.5 11.5z" />
<glyph unicode="q" d="M398 262q0 -4 -1 -6.5t-1 -5.5q0 -5 1 -9.5t1 -9.5q0 -3 -1 -5.5t-1 -4.5q1 -6 0 -11q-2 -8 0 -14t0 -14q-1 -4 0 -6t0 -6q0 -3 0.5 -6t0.5 -6q-1 -6 -1 -11.5t-2 -11.5q-4 -11 -5 -21q-1 -2 0 -4.5t0 -4.5q-1 -5 -3.5 -7.5t-2.5 -7.5t-3.5 -9t-5.5 -9q-2 -4 -1.5 -5 t-3.5 -4q-3 -2 -5.5 -5.5t-4.5 -6.5q-8 -11 -20.5 -23t-24.5 -17q-5 -2 -9.5 -5t-9.5 -5t-11.5 -4t-9.5 -7q-2 -11 5.5 -18t16.5 -11q5 -2 10.5 -3t11.5 -2q3 0 6 0.5t6 0.5q4 0 5.5 -1t4.5 -2q7 -1 9.5 -1t7.5 -4q4 -4 4 -10v-11q-2 -14 -0.5 -27t-0.5 -27v-10.5t-1 -10.5 q-5 -6 -10 -7t-13 -1q-6 0 -12.5 -0.5t-13.5 -0.5q-6 -1 -12.5 0.5t-13.5 3.5q-3 0 -15 3t-24.5 7.5t-22 9.5t-6.5 10q-5 -2 -9.5 0.5t-4.5 7.5q-6 2 -10 6.5t-8 9.5q-10 11 -16 20.5t-10 22.5q-2 4 -5.5 11.5t0.5 10.5q-1 0 -2 8t-1 10q0 5 -4 7.5t-9 4.5q-7 2 -13 5.5 t-12 6.5q-24 14 -43 34t-29 46q-3 6 -5 12t-4 13q1 5 -2.5 10t-1.5 10t-0.5 10.5t-0.5 10.5q1 5 0 9q-2 5 -0.5 8.5t0.5 7.5q-1 5 0 10.5t-1 11.5q-1 5 -1.5 12.5t0.5 12.5q2 8 2 14q0 4 -1 6.5t-2 5.5q0 8 1.5 14t-0.5 14q-2 6 0 12.5t1 12.5t-1 12t3 11q2 4 -0.5 5t-2.5 6 q0 8 0.5 16.5t0.5 16.5v30q0 4 -1 7.5t-1 7.5q0 2 1 3.5t1 5.5q-1 7 -0.5 13t1.5 13q0 8 -1 12q-2 4 -1 6.5t1 6.5q-1 11 0 22.5t0 23.5q-1 29 3 59q1 5 1 9t1 9q2 3 4 1t4 0q0 2 -4 4q-2 1 -1 3.5t1 4.5q2 9 7 18q2 5 4.5 10t4.5 11q5 5 9 11t9 12q2 4 7 6.5t6 7.5 q4 1 5.5 4t6.5 3q8 11 21 15.5t24 10.5q4 2 7 2t8 2t10 2.5t10 1.5q14 1 27 2t27 1q24 -1 50 -8.5t46 -21.5q9 -7 16.5 -14t15.5 -15q5 -4 7.5 -8.5t5.5 -9.5q4 -6 7 -9q2 -3 2.5 -6t2.5 -6q4 -4 5 -9.5t3 -10.5q2 -4 3 -10.5t1 -11.5q1 -6 2.5 -12t1.5 -12 q-1 -8 -0.5 -16.5t1.5 -16.5q0 -14 -1.5 -27t1.5 -26q2 -6 0.5 -13t-0.5 -13q0 -4 0.5 -7t-0.5 -7q-2 -5 -0.5 -7t0.5 -7q-2 -6 0 -11.5t0 -11.5q-2 -14 0 -28q1 -7 0.5 -12.5t-1.5 -11.5q-1 -5 0 -10t1 -10v-6.5t-2 -6.5q3 -5 1 -14q0 -9 1 -14q2 -5 0.5 -8.5t-1.5 -8.5 q0 -4 1 -7.5t1 -7.5zM261 577q2 0 4 -0.5t2 2.5q-2 3 -4 0.5t-4 -0.5q-1 8 -4.5 13.5t-8.5 11.5q-5 0 -10 3t-10 5q-9 4 -19 2q-12 -2 -23.5 -7.5t-17.5 -16.5q-4 -6 -4 -12.5t-3 -12.5q-2 -7 -0.5 -15.5t0.5 -15.5v-13q1 -4 0 -6.5t-1 -6.5q1 -5 1.5 -11.5t-2.5 -11.5 q-4 5 -7.5 1.5t3.5 -5.5q2 0 2 1.5t2 1.5q2 1 2 -4.5v-6.5q0 -17 -0.5 -34.5t-0.5 -34.5q1 -8 1 -15.5t1 -15.5q-4 -4 -2.5 -9.5t3.5 -9.5q-5 -13 -2 -27.5t1 -27.5q-1 -8 -1.5 -14t0.5 -14q1 -5 -0.5 -13t0.5 -12q2 -3 1.5 -9.5t-1.5 -10.5q-2 -5 -0.5 -10.5t-0.5 -10.5 q-2 -6 -0.5 -13.5t1.5 -14.5v-14t1 -15q3 -15 11 -25q3 -5 9.5 -10t13.5 -4q5 1 10 -1t10 -2q6 0 10 1.5t9 3.5t7.5 2.5t6.5 4.5t7 8.5t5 9.5q4 11 4 23v24q0 4 1.5 8t-1.5 7q-1 2 0 6t1 6q0 5 -0.5 9.5t-1.5 9.5q0 7 1 12.5t1 12.5q0 8 -0.5 15.5t-0.5 15.5q1 7 0 12.5 t0 12.5q0 5 2 11q-2 5 -2 10v10q0 8 0.5 15t-0.5 14q-1 5 1 11.5t0 11.5q-3 5 -2 13t2 13q1 4 0 6t-1 5q0 5 1 9t1 8q-1 19 -2 37t0 37q1 5 0.5 9t-1.5 9q3 3 2 6t-1 6q0 4 1 7t-1 5q-2 3 -2.5 7t0.5 7z" />
<glyph unicode="r" horiz-adv-x="440" d="M414 17q2 -6 -1 -10t-8 -6t-11 -2.5t-10 -0.5q-14 0 -27 1t-27 0q-9 0 -21.5 -1t-20.5 7q-6 8 -8 19q-1 8 -3 13.5t-4 13.5q-2 12 -5 25t-8 24q-3 9 -5 18.5t-7 17.5q2 6 -1 11.5t-4 11.5t-3.5 11.5t-2.5 11.5q-1 7 -3 12t-4 12t-4.5 14t-0.5 14q-2 2 -2.5 5t-1.5 5 t-2.5 4t-1.5 4q-1 4 -0.5 6.5t-0.5 6.5q-4 6 -5 10q-2 6 -2.5 10t-6.5 7q-5 2 -12.5 1.5t-9.5 -5.5q-3 -13 -2 -24t0 -24q-1 -17 0 -33.5t0 -33.5q-1 -14 -1 -27v-27t0.5 -27.5t0.5 -27.5q-1 -12 1 -26.5t-2 -26.5q-2 -7 -7 -9.5t-10.5 -3t-12 0.5t-11.5 0q-7 -2 -13.5 -0.5 t-13.5 0.5q-14 -1 -28 0q-7 1 -14 0.5t-15 1.5q-5 8 -5.5 15t-1.5 15q0 8 -0.5 15.5t0.5 15.5q0 3 1 6.5t1 6.5q0 2 -1 5t-1 5q-1 8 0 15l2 14q0 8 -0.5 16.5t-0.5 16.5q0 13 1 28.5t-4 27.5q3 3 4 9t-3 10q2 9 2 18.5t-1 18.5q0 8 0.5 15t1.5 14q0 2 -1 5t-1 5v14 q1 14 2 30t-2 30q-2 11 1 23t1 24q-2 17 -1 33.5t0 33.5q-1 7 -1.5 13.5t0.5 13.5q0 4 0.5 7t0.5 6t-1.5 6t0.5 6q2 5 1.5 10t-1.5 11q-1 8 0.5 15t1.5 15q-2 28 -1.5 55.5t-0.5 55.5q0 6 1.5 12.5t7.5 8.5q3 2 10.5 3.5t10.5 0.5q5 -3 9 -2t10 0q8 0 16 -0.5t16 1.5l10 -2 t10 3q6 -2 13 -2h14q15 1 29.5 -0.5t29.5 -0.5q7 0 12 1t12 0q4 -1 7 -0.5t6 0.5q3 -1 5 -2t5 -2q3 0 5.5 0.5t4.5 -1.5q4 -4 8 -4q5 0 12 -2t10 -4q9 -6 20 -10.5t18 -13.5q9 -11 17 -21t14 -24l12 -27q2 -5 1.5 -11t1.5 -12q1 -6 2 -11t2 -11q0 -8 1 -16t0 -16q0 -8 2 -11 q-2 -8 -2 -12l2 -16t0 -16t-1 -15v-15q-1 -6 -2.5 -11.5t-2.5 -10.5q-1 -6 -0.5 -12t-2.5 -11q-2 -5 -5 -12t-3 -13q-3 -5 -6 -9t-4 -9q-5 -3 -7.5 -9t-9.5 -3q-1 -1 2 -4q-1 -3 -6 -8q-5 -4 -8.5 -7.5t-8.5 -6.5q-9 -5 -14 -10.5t-1 -16.5q4 -10 6 -20t6 -19q2 -7 4 -13.5 t4 -13.5q2 -4 2.5 -7t2.5 -6q1 -4 0.5 -6.5t1.5 -5.5q5 -11 8 -23t5 -23q3 -11 7 -22.5t8 -22.5q8 -25 14.5 -49.5t14.5 -48.5zM221 404q4 -1 8 0t8 1q8 2 16 6t13 10q10 15 9 30q0 5 2 8t1 8q-2 5 -0.5 10.5t1.5 10.5t-0.5 10t0.5 10q1 4 -0.5 7t-0.5 8q1 9 -1 18.5 t-3 18.5q0 8 -3 17.5t-9 15.5q-3 4 -3 6.5t-5 3.5t-10 2.5t-10 2.5q-12 2 -27.5 3.5t-27.5 -6.5q-2 -9 -1.5 -18.5t0.5 -19.5q0 -5 -0.5 -10t-1.5 -10q0 -5 1.5 -10t-0.5 -10q-1 -8 -0.5 -14.5t1.5 -13.5q1 -4 0 -7.5t-2 -7.5q0 -7 0.5 -13t1.5 -12q1 -11 -0.5 -21t0.5 -21 q0 -11 8 -12q5 -1 10.5 -2t10.5 -1q4 0 7 1.5t7 0.5z" />
<glyph unicode="s" horiz-adv-x="412" d="M394 185q0 -4 1 -7.5t1 -7.5q-1 -6 -2 -11t1 -10q2 -7 -1 -13t-3 -12q0 -11 -6.5 -23.5t-11.5 -22.5q-8 -19 -23 -34t-32 -26q-7 -4 -21 -13t-22 -7q-4 1 -8 -1t-8 -3q-5 -1 -9.5 -1.5t-9.5 -0.5q-4 -1 -7.5 -2t-8.5 0q-3 0 -9 2q-3 -2 -11 -2q-12 2 -24 2.5t-23 3.5 q-3 1 -7 3.5t-6 1.5q-5 -2 -7.5 0.5t-6.5 4.5q-5 2 -9.5 3t-8.5 4q-3 2 -6 5t-7 5q-6 2 -10 8q-3 4 -7 6.5t-7 6.5q-12 13 -22 32q-2 3 -4.5 7t-3.5 8q-2 5 -2.5 10t-4.5 9q-1 11 -5 21.5t0 21.5q-5 8 -2 18.5t-2 18.5q2 10 0.5 20t0.5 19q2 8 1.5 14t7.5 11q15 8 28 2 q14 2 25.5 1t25.5 -1h23t12 -16q1 -13 1.5 -25.5t0.5 -26.5q-2 -32 12 -57q5 -12 16.5 -18t24.5 -7q16 -1 26.5 4t21.5 16q8 8 8 19t2 21q1 6 0 12.5t-3 12.5q-2 8 -4.5 15t-5.5 15q-2 5 -5.5 10.5t-6.5 10.5q-2 4 -6 7.5t-5 8.5q-4 3 -6.5 7t-7.5 7q-4 3 -5 7l-14 14 q-5 5 -10.5 10t-10.5 10q-6 5 -11.5 9.5t-10.5 10.5q-10 12 -21 20q-5 5 -9.5 11t-9.5 11q-9 10 -17 20t-15 21q-3 5 -7.5 9.5t-6.5 10.5q-1 3 -5 11q-5 6 -7 13q-2 5 -4.5 10t-4.5 10q-1 4 -1 6.5t-2 5.5q-2 4 -1.5 5.5t-0.5 5.5q-1 2 -2 4.5t-1 5.5q-1 2 0 5t1 5 q-2 6 -4.5 11t-0.5 11q2 5 1.5 11.5t-0.5 12.5q1 5 1.5 10t0.5 10q-1 6 1 12.5t4 12.5q2 8 2 13q6 8 7 13t2.5 6.5t3.5 5.5q1 4 5 10q4 5 6 9t7 9q11 9 21 19.5t23 15.5q6 2 12 4.5t12 4.5q4 2 10 3.5t10 3.5q2 2 7 2t8 1q6 1 12.5 1h12.5q51 3 94 -17q5 -2 7.5 -5.5 t6.5 -5.5q4 -1 9 -4t7 -5q4 -6 7 -8t4.5 -4t3.5 -4l3.5 -3.5t2.5 -4.5t2.5 -3.5t3.5 -3.5q7 -9 11 -19t9 -20q2 -5 3.5 -11.5t3.5 -11.5q2 -8 1.5 -16t0.5 -16q0 -13 0.5 -26t1.5 -26q2 -12 0 -25t-19 -14q-11 -1 -22 -0.5t-22 1.5q-5 1 -8.5 -0.5t-7.5 -1.5q-7 2 -13.5 1.5 t-13.5 0.5q-14 2 -17 12t-1 21q1 6 1 11.5v11.5q0 3 -1 5.5t-1 5.5q0 5 0.5 10.5t-0.5 10.5q-1 7 -3.5 13t-5.5 12q-7 11 -18 16q-14 8 -27.5 5.5t-25.5 -11.5q-5 -5 -7 -8t-5 -9q-3 -5 -3 -11.5v-11.5q-2 -15 1.5 -29.5t11.5 -27.5q5 -10 11 -19.5t14 -18.5q3 -4 7 -6t7 -7 q5 -7 10 -11t10 -9q10 -11 19.5 -21t20.5 -20q5 -5 11 -10.5t11 -10.5l10.5 -10.5t10.5 -11.5q5 -5 7.5 -10t7.5 -10l10 -10q0 -5 4 -9q8 -9 14 -20.5t11 -23.5q3 -7 6 -13.5t5 -13.5q2 -6 3 -11.5t3 -11.5q2 -5 2 -12t2 -13q0 -3 -1 -5.5t-1 -5.5z" />
<glyph unicode="t" horiz-adv-x="391" d="M385 637q1 -6 1 -13t-3 -13t-9 -7t-13 -1t-13.5 1t-10.5 0q-9 -3 -17 0q-3 2 -6 0t-6 0q-8 4 -19.5 1.5t-19.5 -1.5q-10 -8 -7 -20t1 -23q-2 -12 -2 -25v-25q0 -6 1.5 -11.5t-0.5 -11.5q-2 -7 -1.5 -13.5t1.5 -14.5q1 -7 1.5 -13.5t-0.5 -14.5q0 -4 -2 -10q2 -4 1.5 -7.5 t-0.5 -7.5q-1 -7 0 -13t1 -12q0 -7 -1 -13t0 -13q0 -8 0.5 -15.5t-1.5 -14.5t0 -14.5t2 -14.5q0 -29 -0.5 -57t-1.5 -57q0 -3 1 -6.5t1 -6.5t-1 -5.5t-1 -5.5q1 -8 1.5 -14.5t-0.5 -13.5t0 -13.5t0 -13.5q-1 -8 -0.5 -17t0.5 -17q1 -13 0.5 -26t-1.5 -26q-1 -5 -0.5 -9.5 t-6.5 -6.5t-12.5 -3.5t-13.5 -0.5q-14 2 -26 0.5t-26 0.5q-5 0 -12 -1t-12 1q-2 1 -5 0.5t-6 -0.5q-6 5 -11 13v28q-1 3 -1 6t-1 6q1 4 2 7.5t1 7.5q0 7 -1 13t-1 13q1 8 1.5 16.5t-0.5 16.5q-2 14 1 25q1 6 -0.5 12.5t-0.5 12.5q3 34 -1 64q-1 7 0 13t2 13t-0.5 13.5 t-1.5 14.5q1 27 0 54q-1 14 -0.5 27.5t0.5 27.5q0 15 1 29.5t-1 29.5q-1 5 -0.5 10.5t0.5 10.5q1 12 0 24q-1 7 1 13t1 12q-1 8 -1.5 16t-0.5 16q0 7 1 14t-1 14q-2 8 -8 9.5t-14 2.5q-7 1 -13.5 -0.5t-13.5 -1.5q-8 1 -16.5 1.5t-17.5 0.5q-5 0 -11.5 -0.5t-12.5 0.5 t-10.5 4t-4.5 10q0 13 -2 25.5t1 25.5q1 1 2.5 3.5t-0.5 3.5q-1 2 -2.5 2t-0.5 2q2 5 1.5 10t-0.5 10v10t3 8q5 5 11.5 5.5t12.5 -0.5q12 -1 24.5 1t24.5 -1q6 -2 10 0t6 0.5t5 -1.5q8 -1 15.5 0t15.5 1q5 1 12 1.5t12 -1.5q4 -1 7.5 0t6.5 1q5 0 9.5 -1.5t9.5 -0.5 q8 2 15 1t15 1q5 1 10 -0.5t10 -1.5t9.5 1t9.5 1q15 -1 32 1t31 -2q7 -2 15 -1t16.5 1.5t16 0t12.5 -6.5t3 -13.5t-1 -14.5q0 -5 -1 -12.5t2 -11.5q2 -2 0.5 -6t-1.5 -7v-15z" />
<glyph unicode="u" horiz-adv-x="458" d="M416 215q2 -13 -1 -25.5t-1 -25.5q0 -3 1 -6t-1 -6q-3 -6 -1 -14q1 -6 -1.5 -12t-4.5 -13q-2 -13 -7.5 -26t-13.5 -24q-7 -8 -12.5 -15.5t-13.5 -14.5q-6 -6 -8 -10q-4 -1 -10 -5q-5 -4 -10.5 -6.5t-11.5 -5.5q-6 -4 -5.5 -1t-4.5 2q-2 -2 -0.5 -2.5t1.5 -2.5 q1 -2 -2.5 -1t-4.5 0q-5 -2 -9 -3.5t-9 -2.5q-7 -2 -12.5 -3t-11.5 -1q-6 -1 -11.5 -2t-10.5 -1q-6 0 -11 0.5t-12 -0.5h-11t-12 1q-7 1 -12.5 4t-11.5 3q-12 2 -22 7t-21 9q-11 8 -22.5 16.5t-19.5 19.5q-3 6 -7.5 11t-7.5 10q-4 6 -6 12.5t-5 13.5q-5 11 -8 22.5t-4 23.5 q0 5 0.5 10t-1.5 11q-2 12 0 25q3 10 1 23q0 3 -1 5.5t-1 6.5q1 5 1.5 10.5t0.5 10.5q0 3 -1 6t0 6q0 3 0.5 6.5t-0.5 6.5q-2 5 -0.5 10.5t1.5 11.5q-1 8 -1.5 14.5t0.5 14.5q2 9 0.5 17t-0.5 17q0 8 0.5 15t0.5 15q0 7 -1 13.5t-1 13.5q0 6 1 11.5t0 11.5t1 14.5t-1 13.5 q-2 4 -0.5 11t1.5 12v28q-1 8 -1.5 15t0.5 15q0 2 1 5t0 6q-4 3 -1 6q2 2 1 5q2 5 -1 8q1 3 1 6.5t1 6.5q0 4 -1 6.5t-1 5.5q-1 4 0 7t1 7q0 6 -0.5 11.5t-0.5 11.5q0 3 0.5 5t0.5 5q1 5 -0.5 9t-0.5 9q5 12 1.5 25.5t0.5 26.5q1 6 7 8t12.5 2.5t13.5 -0.5t12 -1 q13 -1 26.5 -1t26.5 2q10 1 21 -1.5t12 -14.5q1 -17 0 -33t0 -33q0 -6 1 -11.5t0 -11.5q0 -8 -2 -12q4 -5 2 -13q-2 -13 -0.5 -26t1.5 -26q-1 -8 -2 -15t0 -15q0 -9 0.5 -17.5t-1.5 -16.5q2 -4 2.5 -12t-1.5 -11q-2 -5 -1 -12.5t1 -12.5t1 -12.5t-1 -11.5q-1 -4 -1.5 -3.5 t1.5 -2.5t1.5 -6.5t-0.5 -6.5q-2 -5 1 -8q0 -3 -2 -4t-2 -4q4 -3 3 -9t-1 -11q1 -14 0.5 -26.5t-0.5 -26.5q0 -12 0.5 -24t-0.5 -23q-1 -12 0 -24t1 -24t-0.5 -27t2.5 -29t10.5 -24.5t23.5 -13.5q21 -4 41 5q12 5 18 17t7 25q0 7 1.5 13t0.5 13q0 8 -0.5 14.5t-0.5 14.5 q1 7 0.5 13t-0.5 13q1 8 -0.5 16t0.5 16q2 7 1 14.5t-1 14.5q1 8 1.5 15t-1.5 14q-1 6 0.5 12.5t1.5 12.5q0 8 -0.5 16.5t-1.5 17.5q0 6 0.5 12t-0.5 12t-0.5 13t0.5 13q1 13 1 24.5v24.5q0 14 -0.5 28.5t-0.5 28.5q0 6 1.5 12t-0.5 12t-2 13t1 13t1.5 11.5t-0.5 11.5 q-1 5 0.5 14t-0.5 11q-3 5 -0.5 7.5t0.5 7.5q-2 6 -0.5 15t0.5 16q0 8 -0.5 15t0.5 15l10 6t11 2q7 -2 12.5 -0.5t11.5 0.5q8 0 14 -0.5t13 0.5t13.5 -0.5t13.5 -0.5q5 1 11.5 0.5t11.5 -2.5q6 -2 7 -7.5t1 -11.5q0 -5 1 -11t1 -12q-1 -4 -2 -5t0 -5q1 -5 0 -9t0 -9 q0 -5 1 -11t-1 -11q-2 -4 -0.5 -9.5t0.5 -10.5q-2 -6 0 -11t1 -10q0 -4 -1 -7t-1 -6q0 -4 1.5 -8t-0.5 -7q-3 0 -5 -1q-4 -2 -1 -4q4 -3 4.5 -6t3.5 -7q-3 -15 -2 -27q0 -9 1 -13q1 -5 -0.5 -9.5t-1.5 -9.5q0 -14 1.5 -26t0.5 -26q0 -17 -1 -33t0 -33q0 -6 1 -12t0 -12 q-1 -4 -1.5 -7t-0.5 -6q2 -4 2 -12q-2 -15 0.5 -31t-2.5 -30q3 -5 1.5 -10t0.5 -10q1 -5 0.5 -10t0.5 -10z" />
<glyph unicode="v" horiz-adv-x="420" d="M400 723q7 -1 9.5 -6t2.5 -11.5t-2 -13.5t-3 -11q-2 -7 -2 -14t-3 -14q-3 -10 -5 -20q-1 -5 -2.5 -11t-1.5 -11v-6.5t-1 -6.5q-2 -3 -3.5 -6t-0.5 -6q2 -5 0 -11t-4 -11q-2 -7 -2.5 -13t-2.5 -12t-1.5 -9.5t-1.5 -8.5q-2 -7 -3 -13.5t-2 -14.5q-2 -5 -3 -11t-3 -11 q1 -7 -1 -13.5t-4 -12.5q-3 -14 -5 -29t-6 -29q-2 -12 -3.5 -23.5t-5.5 -23.5q-2 -5 -2 -10t-5 -9q-4 -3 0 -4.5t2 -6.5t-2 -9.5t-2 -8.5q-2 -3 -1 -4t0 -5q0 -3 -1.5 -5t-2.5 -4q-1 -3 -0.5 -6t0.5 -6q0 -5 -1 -5t-2 -3q-1 -4 -1 -11q-1 -4 -3 -6.5t-1 -6.5q1 -5 -0.5 -11 t-3.5 -11q-2 -7 -2.5 -14t-2.5 -15q-2 -5 -2 -10t-1 -10l-3.5 -14t-3.5 -13q-1 -6 -3 -12t-2 -11q0 -6 -3 -10q0 -2 1.5 -3.5t1.5 -3.5q-2 -3 -2.5 -5.5t-2.5 -4.5q-2 -4 -1 -4.5t1 -5.5q0 -4 -1 -7t-3 -7q-2 -5 -1.5 -9t-0.5 -9l-4 -10t0 -11q-2 -5 -4 -9.5t-6 -7.5 q-5 -5 -9.5 -3.5t-10.5 1.5q-2 0 -5 -1t-5 -1q-5 1 -9 1.5t-8 0.5q-14 0 -27 -1t-27 -1q-11 0 -19 4q-6 3 -6 8t-2 11q0 3 -1 5.5t-3 5.5q-2 4 -1 7t0 6l-2 14t-3 14q-2 12 -4.5 24.5t-6.5 24.5q-2 8 -4 13q2 4 0 9t-1.5 11t-1.5 12q-2 7 -3 13t-3 14q0 2 -1.5 4.5t-1.5 5.5 t-0.5 7t-2.5 7q2 11 -2.5 23.5t-6.5 23.5q-2 6 -2 12t-1 11q-2 8 -4.5 15.5t-2.5 14.5q1 7 -1.5 12.5t-3.5 11.5q0 12 -3 26q-2 5 -3 9t-2 10q-1 8 -3 16t-3 16q0 8 -2 14t-4 14q-2 7 -2 13.5t-3 13.5q-4 11 -4.5 22.5t-5.5 22.5q-1 2 -0.5 4.5t0.5 5.5q0 2 -1 4t0 4 q2 5 -1.5 9.5t-3.5 9.5q1 5 -1 12t-3 12q-2 7 -3 13.5t-3 12.5q-2 8 -3 14.5t-2 14.5q-1 5 -0.5 10.5t-3.5 9.5q-3 2 -2 7.5t0 8.5q-5 12 -7 28q-2 14 3.5 19t18.5 5q15 -1 30 0t30 1q7 0 13.5 -1t14.5 -1q6 1 10 0.5t8 -6.5q6 -8 6 -15.5t2 -16.5q1 -2 2 -4.5t2 -5.5 q0 -3 -1 -5.5t0 -5.5q1 -8 3.5 -16t2.5 -16q0 -2 -0.5 -5.5t1.5 -5.5q2 -4 1.5 -4t-0.5 -5q0 -2 1 -5t2 -5q2 -3 1 -6t1 -7q2 -6 1.5 -12t0.5 -12q1 -4 2.5 -7t2.5 -7v-7.5t1 -8.5q3 -11 3 -24q1 -4 2 -6t2 -5q1 -5 0 -10t1 -10q-1 -2 0.5 -2t2.5 -2v-13q0 -8 2.5 -15.5 t4.5 -15.5q2 -13 3 -24.5t2 -24.5q1 -2 1.5 -4.5t2.5 -4.5q-1 -4 1 -11q2 -5 1 -11.5t1 -11.5q5 -11 6.5 -23.5t4.5 -23.5q7 1 6.5 7t1.5 11q1 3 1 6t1 6q1 7 3 4.5t4 0.5q-3 5 -4.5 8t0.5 9t4 10q-1 4 -0.5 7.5t0.5 7.5q2 7 3 12.5t2 13.5q0 4 2 12q2 3 1.5 6.5t1.5 7.5 q3 5 2 11q-1 4 0.5 5t1.5 5q1 3 -0.5 3.5t0.5 3.5q2 4 1 8q-1 5 1.5 10.5t2.5 10.5q1 4 0 5t1 4q2 4 2.5 8t0.5 9q1 11 3 20.5t4 20.5q1 12 3.5 22t3.5 22q1 6 3 11.5t2 11.5q1 3 0 6t0 6q0 4 1.5 5.5t1.5 5.5q1 8 2 14.5t3 13.5q0 4 0.5 7t0.5 7q1 5 1.5 8t1.5 7 q2 12 5.5 22t17.5 9q12 -2 23 -1t23 2h26t25 -1z" />
<glyph unicode="w" horiz-adv-x="618" d="M608 714q3 -5 2 -11t-2 -11q-2 -2 -3.5 -9t-1.5 -11q0 -13 -5 -30q2 -7 0.5 -12t-3.5 -12q-1 -3 -0.5 -9.5t-4.5 -8.5q3 -5 1.5 -12t-3.5 -11q-3 -8 -2.5 -14t-2.5 -14q-5 -11 -4.5 -23t-2.5 -23q-2 -5 -3 -10t0 -10q0 -2 -1.5 -4t-1.5 -4q-1 -3 0 -4.5t-1 -4.5 q-4 -9 -3 -19.5t-3 -20.5q-2 -5 -1.5 -10.5t-3.5 -10.5q2 -8 0 -15l-4 -14q-1 -5 -2.5 -9.5t-0.5 -9.5q0 -3 -0.5 -9.5t-3.5 -8.5q-1 -1 -1.5 -7t-0.5 -9q-1 -3 0.5 -4t-0.5 -5t-2.5 -7.5t-0.5 -8.5q-1 -12 -2.5 -26.5t-6.5 -25.5q-3 -5 -3 -12t-1 -14q-2 -8 -3 -15.5 t-2 -15.5q-2 -12 -4.5 -23.5t-3.5 -23.5q-1 -5 -3 -10t-1 -10q0 -2 -0.5 -5t-0.5 -5q0 -7 -3 -5.5t-5 -3.5q2 -2 2.5 0t1.5 2t0.5 -4t-1 -9.5t-1.5 -10.5t-1 -6q-1 -5 -1 -14q1 -6 -1.5 -5t-4.5 -2q-1 -2 1 -1.5t2 -1.5q0 -4 -0.5 -7t-1.5 -7q-2 -6 -2.5 -12t-2.5 -13 t-5.5 -7t-6.5 -5q-2 0 -6.5 -0.5t-9.5 -1t-9.5 -0.5t-5.5 1q-3 4 -3 3.5t-1 -4.5q-6 0 -11 1q-5 0 -8.5 0.5t-4.5 0.5q-5 -1 -10.5 -2t-11.5 1q-3 2 -5.5 1.5t-5.5 -0.5q-6 0 -8 2.5t-4 6.5q-4 6 -3.5 11.5t-1.5 12.5q-1 7 -2.5 13t-3.5 12l-2 12t-1 11q0 4 -1 6t-2 5 q-1 4 -0.5 7t-1.5 7t-2.5 10.5t-0.5 10.5q1 6 -2 12t-2 12q0 6 -1.5 11.5t-1.5 11.5q-1 8 -3 13t-3 13q-1 2 0 5t-1 5q-2 3 -1.5 5.5t0.5 5.5q-1 6 -1.5 12.5t-1.5 12.5q-2 6 -3 11.5t-2 12.5q0 8 -3 16t-3 16q0 6 -1.5 12t-2.5 12q0 6 -0.5 12t-3.5 11q-1 2 0 3t1 3 q-3 4 -3 11q0 1 -1 4.5t-2 7.5t-2.5 5.5t-3.5 -2.5t-2.5 -8.5t-2.5 -8.5q-2 -6 -2.5 -12t-1.5 -12q-2 -11 -3 -21.5t-3 -22.5q-2 -7 -3 -13t-2 -13q0 -6 -2 -14q0 -3 -1.5 -4.5t-0.5 -3.5q1 -4 -2 -8q-2 -2 -1 -3.5t1 -3.5q-1 -5 -2 -11t-3 -12q-2 -5 -2 -11t-1 -11 q-2 -4 -1.5 -6.5t-0.5 -6.5q0 -3 -1 -4.5t-2 -4.5q-2 -7 -1 -13.5t-1 -13.5t-3.5 -13t-2.5 -14q0 -6 -1.5 -11.5t-1.5 -10.5q-1 -7 -2 -13.5t-2 -12.5t-2 -10.5t-3 -9.5q0 -17 -4 -29q-2 -5 -4.5 -9.5t-8.5 -5.5q-3 0 -9 -2q-3 1 -10 1q-6 -1 -11.5 0t-11.5 0q-8 -1 -16 -1 h-16q-11 0 -21.5 3.5t-11.5 17.5q0 3 -2.5 10t0.5 9q-4 8 -4 15.5t-2 15.5q-5 26 -8 51.5t-10 50.5q-2 6 -2.5 12.5t-1.5 12.5q-2 5 -3 11.5t-1 11.5q0 6 -0.5 11t-2.5 11q-2 5 -3.5 13t1.5 13q-2 3 -4 8.5t1 9.5q-2 5 -4 11.5t-2 13.5q-2 5 -2.5 11.5t-1.5 11.5q-1 3 -1 6 t-2 5q-2 5 -0.5 5.5t0.5 4.5q-6 29 -11.5 59t-8.5 59q-2 11 -5 21.5t-2 21.5q0 6 -1.5 12t-3.5 12q-2 7 -2 13.5t-2 13.5q-2 14 -5.5 26.5t-5.5 26.5q-2 13 -3.5 25.5t-3.5 26.5q-1 11 -4 23t1 24q6 7 18.5 7t20.5 -1q4 -1 4.5 -1.5t5.5 0.5q6 4 11 -1q5 2 11.5 0.5 t12.5 0.5t11 0.5t10 -0.5q7 0 12.5 -3t6.5 -9q0 -2 1.5 -4t1.5 -4q1 -2 0 -3.5t0 -3.5q2 -2 1 -4t-1 -4q1 -4 1.5 -7t1.5 -7q3 -13 4.5 -26t3.5 -27q1 -7 0.5 -13t1.5 -13t2.5 -13.5t1.5 -13.5q1 -8 2 -15t3 -14q0 -4 0.5 -7t0.5 -7q0 -3 1.5 -5.5t1.5 -4.5q-2 -3 -1 -9.5 t2 -10.5q1 -6 2.5 -12t0.5 -12q0 -8 1.5 -13t3.5 -11q1 -10 1.5 -19t2.5 -18q2 -16 6 -29q-4 -4 -1.5 -9t1.5 -9q0 -2 0.5 -8.5t2.5 -12.5t4 -9.5t5 -1.5q2 0 1 4.5t0 6.5q2 5 3.5 9.5t0.5 9.5t2 8.5t1 8.5q-2 4 0.5 10t3.5 11q0 9 3 20q2 6 1.5 12t1.5 12q2 5 3 10t1 11 q-1 5 1 10.5t2 10.5q2 14 4.5 26t3.5 26q1 11 4 22.5t4 23.5q0 3 -1 5q1 3 3 11q2 6 2.5 12t1.5 12q2 19 6 34q0 11 2 21.5t4 21.5q2 7 3.5 11.5t6.5 9.5q7 1 14 1.5t14 0.5q14 1 27.5 0.5t27.5 -0.5q6 0 9.5 -0.5t7.5 -5.5q2 -5 3.5 -10t-1.5 -9q2 -2 3 -2q2 0 1.5 -4.5 t0.5 -5.5q1 -7 1.5 -13t1.5 -13q2 -13 4.5 -25.5t4.5 -24.5q0 -4 -2 -4q0 -2 4 -6q2 -3 2.5 -10.5t0.5 -11.5q1 -5 0.5 -8t1.5 -8t3 -10t-3 -10q1 -2 2 -1.5t2 -1.5l3 -21q1 -9 2 -17.5t2 -17.5l3 -15q-2 -2 -6 -1t-1 -3q1 -2 6 -2q4 0 4 -5.5v-7.5q1 -8 3 -15t2 -14 t1.5 -12.5t2.5 -12.5q3 -15 3.5 -32.5t8.5 -31.5q5 2 5.5 7.5t1.5 10.5q0 6 1.5 12.5t3.5 12.5q2 13 2.5 25t2.5 25q2 6 2.5 12.5t2.5 11.5t1.5 12t0.5 13q2 8 1 13l1.5 4.5t0.5 4.5q0 5 0.5 12t2.5 12q2 6 2 11.5t2 11.5q2 5 1 10.5t1 10.5q3 6 2 13t1 14q1 6 4 11 q2 5 1 8.5t-1 8.5q1 7 2 13.5t2 13.5l2 14t3 14q1 5 1.5 12.5t1 14.5t3 13t7.5 9q3 0 6 1t7 1q2 0 4 -1.5t4 0.5q5 2 11.5 1.5t11.5 -0.5q7 1 13.5 -0.5t12.5 -0.5q3 0 6 1.5t6 -0.5q5 -2 15 -2q8 2 10.5 0t6.5 -8z" />
<glyph unicode="x" horiz-adv-x="400" d="M398 21q3 -9 -4 -18q-3 -4 -11.5 -4h-13.5q-15 0 -29.5 -0.5t-28.5 0.5q-8 1 -15 0t-15 0q-7 1 -11 7t-7 11q-2 2 -1 5t-1 6q-2 5 -3.5 8.5t-2.5 8.5q-1 3 -1 6.5t-2 6.5q-1 3 -4 6q0 9 -1 13q-4 17 -10 33t-11 33q-2 9 -5 17.5t-5 17.5q0 4 -1 6.5t-3 5.5q-2 5 -2 9 t-2 8t-4 7.5t-4 6.5q-3 -2 -5 -5t-5 -5q0 -10 -3.5 -18.5t-6.5 -17.5q-1 -3 -0.5 -6.5t-1.5 -5.5t-2 -5q0 -4 0 -3t-2 -3q-4 -7 -4.5 -14.5t-4.5 -13.5q-4 -7 -3 -14q-5 -3 -5 -10q-1 -3 -1.5 -6.5t-2.5 -5.5q2 -4 -1 -7.5t-4 -7.5q0 -5 -1.5 -7t-2.5 -6q-2 -5 -2 -8t-2 -8 q-1 -2 -2.5 -7l-3 -10t-3 -8.5t-4.5 -3.5q6 -6 -2.5 -10.5t-13.5 -5.5q-8 -1 -17 -0.5t-17 1.5q-5 0 -16 -1t-22.5 -1.5t-20.5 0.5t-9 6q-2 0 -3 -1q-3 -2 -4 2t-2 6q0 6 2 12l4 12q4 12 8 23t9 23q2 5 3.5 10.5t3.5 10.5q2 4 3 6.5t1 5.5q0 4 1.5 5t3.5 4q1 12 8 25 q1 4 5 12q2 2 3.5 0.5t3.5 -1.5q2 3 -1.5 3t-5.5 2q-1 4 1.5 7t3.5 7q3 11 8 20t7 20q1 6 4 11t4 11.5t4 12.5q2 2 2.5 3.5t2.5 3.5q-1 4 1 12q3 5 5 9.5t4 9.5q1 5 2 9.5t5 8.5q2 6 3 12t3 11q10 17 13 39q0 5 -2 8t-4 7q-2 7 -3.5 13.5t-3.5 12.5q-2 5 -4 10.5t-4 10.5 q-1 2 -3 5t-1 5t2.5 1.5t1.5 1.5q-1 1 -4 1q-2 0 -2.5 2.5t-1.5 4.5q-3 5 -3.5 9.5t-2.5 9.5t-4 9.5t-4 9.5q-2 6 -2.5 12.5t-3.5 11.5q-6 10 -9 21q-2 5 -3 13.5t-4 12.5q-4 5 -5 9.5t-3 9.5q-2 6 -5 12t-4 13q-1 5 -1.5 6.5t-2.5 5.5q-3 5 -3.5 9t-2.5 8q-5 6 -5 19 q-8 9 -11 23q-2 7 -7.5 19t-0.5 20q4 5 17 7.5t15 -6.5q3 1 3 4q2 2 4 1t4 -1q5 1 8.5 2t7.5 -2q5 2 9.5 2t9.5 -1t9.5 -0.5t9.5 1.5q7 1 18 -0.5t15 -7.5q1 -2 3.5 -7.5t4.5 -11.5t3 -11.5t0 -7.5q-2 -2 1.5 -6t3.5 -8q0 -5 2 -9l4 -8q2 -5 2 -9t2 -9q5 -9 6 -19 q0 -9 6 -18q2 -3 1.5 -7.5t2.5 -9.5q2 -4 1 -5q0 -3 1.5 -4.5t2.5 -3.5v-6l2 -4t2 -5q0 -2 1.5 -8t3.5 -12t5 -8.5t6 3.5q3 7 5.5 14.5t4.5 15.5q1 4 2.5 8.5t1.5 8.5q0 3 2 7t4 6q0 9 5 19q2 5 1.5 9t1.5 9q4 11 8 21.5t6 22.5q1 5 3 10.5t3 10.5q1 6 3 11l4 10t3 8t7 7 q8 5 19 5q5 -1 9.5 -2t10.5 1q3 1 7.5 0.5t6.5 -4.5q8 5 18 4t19 -1h8.5t11 -1t9 -3.5t2.5 -8.5q-1 -5 -1.5 -9.5t-3.5 -9.5q-2 -5 -4.5 -9.5t-2.5 -9.5t-3 -10t-5 -10q-3 -6 -3.5 -7.5t-5.5 -0.5q-2 -3 0 -5.5t3 -4.5q-2 -2 -1.5 -5t-0.5 -6q-2 -5 -4.5 -10t-4.5 -10 q-2 -4 -2 -6.5t-2 -5.5q-3 -3 -3 -5t-2 -7q-2 -8 -4.5 -14.5t-4.5 -13.5q-4 -11 -8.5 -21t-6.5 -21q-2 -6 -4 -11.5t-4 -11.5q-2 -8 -4 -12q-2 -3 -2.5 -6.5t-2.5 -5.5t-2 -2.5t1 -3.5q2 -2 -1 -4.5t-5 -4.5q0 -7 -2.5 -9.5t-4.5 -7.5q-1 -2 0 -5t1 -5q-1 -2 -1.5 -5 t-1.5 -5q-2 -2 -3 -2.5t-3 -2.5t-1.5 -7.5t-0.5 -8.5q-2 -6 -3.5 -10t1.5 -10q1 -2 0.5 -3.5t0.5 -4.5q2 -3 4 -11q2 -5 3.5 -10t4.5 -10t4 -13t4 -14q5 -10 8 -23q1 -5 4 -10t3 -10q0 -6 3 -11t5 -11q1 -6 3.5 -13t5.5 -13q11 -25 18 -51.5t18 -52.5q2 -5 3 -10t4 -10 q2 -3 1.5 -6t1.5 -6q4 -8 5 -12q2 -6 3 -11.5t3 -11.5q2 -7 6 -8q0 -5 -1 -7q2 -1 4 -5z" />
<glyph unicode="y" d="M395 725q8 -1 12.5 -3t7.5 -10q-2 -8 -4.5 -16.5t-4.5 -16.5l-6 -18q-1 -5 -5 -10q-2 -3 -1.5 -6t-0.5 -6q-2 -4 -4.5 -7t-2.5 -8t-2 -10l-4 -10t-3.5 -11t-3.5 -11q-1 -3 -2 -6.5t-2 -6.5q-2 0 -2.5 0.5t-2.5 0.5q-1 -2 0.5 -3.5t1.5 -3.5t-1 -5t-2 -5q-2 -5 -4 -11 l-4 -12q-5 -13 -9.5 -26t-9.5 -27q-4 -11 -7 -21t-7 -21q-2 -6 -2 -11.5t-5 -10.5q0 -6 -2.5 -11.5t-4.5 -11.5q-3 -10 -8 -22q-2 -5 -2.5 -12t-5.5 -9q0 -12 -6 -23.5t-8 -22.5q-5 -29 -3 -57.5t0 -57.5q-1 -8 0 -14t2 -13q0 -8 -0.5 -14.5t-1.5 -14.5q0 -5 0.5 -9t-0.5 -9 q-1 -7 0 -13t1 -13q0 -2 -1 -4.5t-1 -4.5q0 -4 0.5 -7t1.5 -7q1 -6 -1 -12.5t2 -12.5q-3 -5 -2.5 -10t0.5 -9.5t-1.5 -9t-7.5 -7.5q-5 -3 -11.5 -2t-11.5 -1q-7 2 -13.5 1.5t-14.5 -1.5h-15t-15 1q-7 1 -13.5 0t-13.5 0t-10.5 5.5t-5 10.5t-1.5 12.5v12.5q0 8 0.5 15t1.5 15 q1 6 -1 12t0 13q2 3 2 9.5t-1 10.5q0 7 -0.5 13t-1.5 13q0 14 1.5 28.5t-0.5 28.5q-1 7 0.5 14t1.5 14q-1 3 -2 5t1 5q1 6 0 12q-1 7 -1 13v13q0 3 -1 6t0 6q2 6 0 12q-4 10 -6.5 21.5t-7.5 20.5q-2 4 -1.5 5.5t-0.5 4.5t-2 5l-2 4q-3 4 -3 10q-1 3 -3 6t-2 5q1 8 -3 15 t-5 15q-1 5 -2.5 10.5t-3.5 10.5q-4 8 -6 14.5t-4 14.5q-2 6 -5 11t-3 11q-1 3 -1.5 5t-2.5 4q0 7 -2 11q-5 12 -7.5 24t-7.5 24q-5 10 -7.5 20.5t-7.5 20.5q-2 6 -3.5 12t-3.5 12q-1 4 -5 12q-2 2 -1 5.5t-1 5.5t-1.5 4t-0.5 4l-2 4l-2 4q-2 5 -3 10t-4 10q-5 6 -8.5 21 t1.5 23q3 5 9.5 5.5t11.5 0.5q3 0 5 -1t6 0h13h29q6 -2 14 0q3 0 6 1.5t6 -0.5q4 -2 7 -0.5t7 0.5q5 -1 8 -3.5t8 -3.5q0 -10 4 -15q2 -3 2 -6t1 -7q2 -10 5 -14q2 -4 2.5 -7.5t1.5 -8.5q4 -18 9.5 -36t10.5 -36q1 -4 2.5 -8t2.5 -8q0 -3 1.5 -4t1.5 -4q-1 -4 1 -7t3 -6 q2 -4 1.5 -8t1.5 -7q4 -7 4.5 -13.5t3.5 -13.5q2 -3 3.5 -6t-0.5 -7t1.5 -7.5t4.5 -7.5q2 -11 6 -4.5t6 11.5q2 8 4 16.5t4 16.5q5 17 10 35l10 36q2 8 4 16.5t4 17.5t5 17t5 17q2 7 3.5 14.5t6.5 12.5v8t2 7q2 5 2.5 8t4.5 8q2 -4 6 -5q1 -1 4.5 0.5t0.5 3.5q-2 1 -5.5 2 t1.5 3q7 4 18 2q2 0 7.5 -1.5t7.5 0.5q3 3 10 2t11 -1h24q6 1 12 1h12z" />
<glyph unicode="z" horiz-adv-x="397" d="M376 694q0 -15 0.5 -29t-1.5 -28q-1 -4 -1 -6.5t-2 -6.5q-3 -5 -5 -10t-4 -13q-1 -4 -2.5 -6t-3.5 -6q-2 -5 -2.5 -11t-2.5 -11l-3 -3t-2 -4q-2 -3 -2 -6t-1 -7q-5 -5 -7 -11l-4 -12q-2 -5 -5.5 -11.5t-3.5 -12.5q-1 -3 -3.5 -8.5t-5.5 -7.5q-1 -2 0 -3.5t1 -3.5 l-3.5 -3.5t-1.5 -4.5q0 -6 -3.5 -12t-5.5 -11q-2 -6 -4 -14q-4 -3 -6 -11q-1 -4 -2.5 -5.5t-3.5 -4.5q1 -6 -1 -11q-6 -12 -10 -24q-2 -5 -1.5 -4t-1.5 -2q0 -1 -1 -3l-2 -4l-4 -10l-4 -10q-1 -2 -4 -7.5t-2 -7.5q2 -4 -2 -9.5t-6 -9.5q-5 -14 -9.5 -28.5t-12.5 -28.5 q-5 -11 -8 -23t-9 -22q-5 -9 -8 -19t-7 -20q-4 -9 -9.5 -19.5t-5.5 -21.5q0 -6 5 -7.5t12 -1.5t13.5 0.5t10.5 0.5q11 -2 20.5 -0.5t19.5 0.5q2 0 5 -1t5 -1q3 0 6 1t6 1q7 -1 15 0.5t13 -3.5q6 3 12.5 2.5t11.5 -0.5q8 0 12 2q5 -3 10 -2q4 0 9.5 -2.5t5.5 -7.5q1 -3 1 -6 t1 -6q1 -4 0 -6.5t-1 -7.5t1 -9t1 -8q1 -5 -0.5 -9t-1.5 -9q1 -5 2 -9t0 -9q0 -3 -2 -7q1 -6 0 -12q-3 -10 -10 -10h-15q-4 0 -6.5 -1.5t-7.5 0.5q-5 1 -10 -0.5t-10 -0.5q-8 1 -16.5 0t-16.5 0q-11 1 -23 1h-23h-40q-5 0 -9 -0.5t-9 -0.5q-6 0 -7.5 1t-6.5 3 q-5 -3 -11.5 -3h-11.5q-3 0 -11 -1t-7 4t-1.5 5t-1.5 -2q2 -7 -6 -6.5t-13 -0.5q-12 -1 -23.5 0t-23.5 1h-11t-10 5q-4 4 -5 10.5t-1 11.5q0 7 0.5 14t0.5 14t-1 12.5t0 12.5q2 7 4 13l4 12q2 4 2.5 6t3.5 4q4 3 2 11q1 2 4 9t6.5 14.5t6 14l2.5 6.5q-2 2 1 8.5t5 9.5 q2 8 5 12q2 4 1.5 4t0.5 4q11 20 18 45q2 6 5.5 10.5t4.5 10.5q0 7 3 9q0 8 6 14q1 6 3.5 11.5t4.5 10.5q3 5 4.5 11t3.5 11t5 11t5 11q2 8 6 15t5 14q0 4 3 6q0 4 2 10q3 5 5 10l4 10q5 12 8.5 25t12.5 23q4 14 9 27t11 27q1 4 2 7t3 7q1 2 2.5 2t3.5 1q5 2 -1 6q-3 2 -1 5 t3 5q1 3 4 8.5t5.5 11.5t3.5 11.5t-2 8.5t-7.5 3.5t-9.5 0.5l-10 -2.5t-10 1.5q-3 3 -13.5 1t-15.5 -2q-15 0 -30 3q-2 0 -4 -1.5t-4 -1.5t-4.5 0.5t-4.5 0.5q-4 0 -6 -1t-5 0q-10 2 -15 2q-6 0 -12 -0.5t-13 -0.5q-8 1 -10 3t-4 9q-1 4 -2 9t1 9q1 2 3 2.5t0 2.5 q-4 2 -3.5 4.5t0.5 6.5q1 16 0 31t0 30q5 12 19 12q7 0 11 -2q2 -1 4.5 0.5t5.5 0.5q6 0 12 0.5t12 -0.5q8 0 11 -2q2 -1 2 1t2 2q16 -1 31 -1.5t31 0.5q14 1 27.5 -0.5t27.5 -0.5h12.5t12.5 1q8 1 14 -0.5t14 0.5q7 2 13 0.5t13 -0.5q3 1 6.5 1t6.5 -2q4 1 13 1 q5 1 11.5 0.5t11.5 -3.5q7 -3 7.5 -11.5t-0.5 -14.5z" />
<glyph unicode="&#xa3;" horiz-adv-x="461" d="M416 145q2 -26 -5 -52q-2 -5 -3 -9.5t-3 -9.5t-2.5 -11.5t-4.5 -9.5q-3 -2 -6 -8.5t-6 -10.5q-4 -5 -7 -9.5t-8 -6.5q-3 -2 -3.5 -3t-2.5 -4t-4.5 -3.5t-5.5 -1.5q-7 -3 -13 -6t-14 -5q-7 -2 -13.5 -3t-14.5 -3q-7 -1 -12.5 0t-12.5 1q-11 0 -25 2t-24 8q-5 4 -11 5.5 t-13 3.5q-7 3 -12 5t-13 4q-3 0 -6 1t-7 2q-3 2 -5.5 1.5t-6.5 -0.5q-8 1 -14.5 -0.5t-14.5 -2.5q-14 -2 -25.5 -7.5t-24.5 -9.5q-5 -2 -9.5 -5t-10.5 -5q-7 -2 -11.5 3t-5.5 12q-3 12 -1.5 25t1.5 25t-1 27t8 23t20.5 14t20.5 15l18 18q4 4 5.5 9.5t6.5 7.5q2 12 7 22.5 t8 21.5q1 5 2.5 10t1.5 10q0 8 1.5 15.5t-0.5 15.5q-1 8 -2 14.5t-1 14.5q-1 5 -4.5 10.5t-8.5 7.5q-7 1 -15 0t-14 -1q-9 0 -14 1t-7.5 -1t-6.5 -1q-5 0 -14 0.5t-12 3.5t-4.5 3.5t-1.5 5.5l-2 4t-1 4q2 6 1 13t1 12q1 3 -0.5 4t-1.5 3t1 5.5t1 5.5q0 6 -0.5 12t1.5 12 q1 4 7.5 6t10.5 3t11.5 0t14.5 -1t12 2t5 8t-1.5 11.5t-2.5 10.5q-2 7 -4 13t-4 13q-2 6 -3 12t-2 13q-1 4 -2 5.5t-2 5.5q-1 5 -1 10v10q0 6 -1.5 11.5t-2.5 11.5q0 7 2 13t0 13q-2 11 2 22t7 22q1 4 0.5 5.5t1.5 4.5q3 3 5 11q2 7 4 9q2 3 2.5 5t1.5 5q2 5 5.5 9t6.5 9 q4 5 7 10t8 10q8 7 17 11.5t17 11.5q5 5 8 5.5t9 2.5t11 5t12 2q2 0 5 3q2 2 4.5 1.5t4.5 -0.5q5 1 11 0.5t10 1.5q3 2 11 2t11 -2q5 -3 12.5 -2.5t13.5 -0.5q8 -1 15.5 -5.5t15.5 -4.5t14.5 -7t12.5 -9q3 -2 5.5 -4.5l4.5 -4.5q2 -1 2.5 -2t2.5 -2q4 -2 4.5 -3l2.5 -5 q5 -6 11.5 -13t4.5 -16q10 -5 13 -16.5t7 -22.5q5 -14 4.5 -28.5t-0.5 -29.5q1 -12 2.5 -26t-3.5 -25t-14 -12q-5 -1 -13 -1t-13 2q-2 0 -4 2t-4 0q-3 -3 -7 -2h-12t-12 -1q-11 0 -21.5 3t-9.5 18q1 12 0.5 24t-0.5 25q1 14 -4 21.5t-13 17.5q-5 8 -17 10t-20 1 q-13 -2 -22 -10.5t-14 -19.5q-3 -7 -2.5 -12.5t-0.5 -13.5q0 -6 -1 -11.5t0 -11.5q2 -6 3 -12t2 -13q1 -2 1 -5t1 -6q0 -5 1.5 -7.5t2.5 -6.5q2 -8 3.5 -14.5t3.5 -14.5q2 -6 4.5 -12t3.5 -13q0 -3 1 -8.5t3 -7.5q2 -3 1.5 -5t3.5 -4t8 -1t8 1q5 0 11 -1t11 -1h28 q10 0 22.5 1t19.5 -7t6 -21t-1 -22v-23.5t-10 -20.5q-5 -3 -11 -2.5t-11 1.5t-11 -0.5t-11 -0.5t-12 1.5t-13 -0.5t-10.5 -4.5t-3.5 -10.5t1.5 -12t-0.5 -11q-1 -7 1 -13t1 -13q0 -7 -2.5 -13t-0.5 -13q1 -4 0 -5.5t-2 -4.5q-1 -4 -1 -7.5t-1 -7.5q-2 -4 -2.5 -4t-0.5 -5 t-3 -9q-2 -5 -3 -9.5t-4 -8.5q-4 -6 -2 -10q-2 -3 -7 -8q-3 -4 -7.5 -11t-0.5 -12q3 -3 8.5 -6t12 -5t12.5 -3t10 -1q6 1 11.5 -0.5t11.5 0.5q13 3 20 12q6 8 8 17.5t4 17.5t2 14.5v14.5q0 1 -0.5 5.5l-1 9t0 8t1.5 3.5q4 -1 2 4.5t0 8.5q8 8 17 6q14 -2 28 -1t28 1 q13 0 22 -4q7 -2 8 -7.5t1 -12.5q-1 -28 0 -58z" />
<glyph unicode="&#xad;" horiz-adv-x="319" d="M275 378q-2 -11 -1 -20.5t0 -20.5q0 -8 -4 -15q-2 -5 -6 -5.5t-9 -2.5q-5 1 -9 2t-9 -1q-3 -1 -8.5 0.5t-8.5 -1.5q-12 3 -24 1.5t-24 -0.5q-5 0 -10 0.5t-10 -0.5t-11 -0.5t-6 5.5q-10 -5 -20.5 -5h-21.5q-9 1 -21 -0.5t-20 2.5q-6 4 -8 14q-2 4 -0.5 7.5t0.5 7.5 q-1 6 -0.5 12t1.5 12q0 5 -1.5 12.5t0.5 11.5q5 8 15 11t22 3t23.5 -1.5t19.5 -1.5q4 0 11 1t10 -1q2 -2 7.5 -0.5t9.5 1.5q5 -1 10.5 -1.5t10.5 1.5t11.5 0.5t11.5 -0.5q5 2 8 1t8 0h8t8 -1q5 -2 5.5 -0.5t4.5 1.5q5 0 10 -0.5t7 -2.5q5 -4 6.5 -6.5t2.5 -8.5q1 -3 0 -5 q-2 -3 -1 -3t2 -3z" />
<glyph unicode="&#xb4;" horiz-adv-x="161" d="M203 927q2 -10 -2.5 -16.5t-9.5 -14.5q-6 -9 -12.5 -17.5t-12.5 -16.5q-11 -18 -27 -37q-1 -1 -3 -4.5l-4 -7t-4.5 -6t-3.5 -0.5q1 -4 -2 -9t-8.5 -10t-11.5 -9t-9 -4q-5 0 -11 0.5t-11 0.5q-7 0 -12.5 -1t-12.5 1q-5 1 -9 0.5t-7 4.5q-5 5 -3.5 11.5t4.5 11.5t4.5 10.5 t3.5 10.5q2 6 5 11t5 11q5 14 10.5 26t10.5 26t11 23.5t22 9.5l28 -2t27 1q6 1 11.5 0.5t11.5 -0.5q5 0 11.5 0.5t10.5 -4.5z" />
<glyph unicode="&#x2000;" horiz-adv-x="466" />
<glyph unicode="&#x2001;" horiz-adv-x="932" />
<glyph unicode="&#x2002;" horiz-adv-x="466" />
<glyph unicode="&#x2003;" horiz-adv-x="932" />
<glyph unicode="&#x2004;" horiz-adv-x="310" />
<glyph unicode="&#x2005;" horiz-adv-x="233" />
<glyph unicode="&#x2006;" horiz-adv-x="155" />
<glyph unicode="&#x2007;" horiz-adv-x="155" />
<glyph unicode="&#x2008;" horiz-adv-x="116" />
<glyph unicode="&#x2009;" horiz-adv-x="186" />
<glyph unicode="&#x200a;" horiz-adv-x="51" />
<glyph unicode="&#x2010;" horiz-adv-x="319" d="M275 378q-2 -11 -1 -20.5t0 -20.5q0 -8 -4 -15q-2 -5 -6 -5.5t-9 -2.5q-5 1 -9 2t-9 -1q-3 -1 -8.5 0.5t-8.5 -1.5q-12 3 -24 1.5t-24 -0.5q-5 0 -10 0.5t-10 -0.5t-11 -0.5t-6 5.5q-10 -5 -20.5 -5h-21.5q-9 1 -21 -0.5t-20 2.5q-6 4 -8 14q-2 4 -0.5 7.5t0.5 7.5 q-1 6 -0.5 12t1.5 12q0 5 -1.5 12.5t0.5 11.5q5 8 15 11t22 3t23.5 -1.5t19.5 -1.5q4 0 11 1t10 -1q2 -2 7.5 -0.5t9.5 1.5q5 -1 10.5 -1.5t10.5 1.5t11.5 0.5t11.5 -0.5q5 2 8 1t8 0h8t8 -1q5 -2 5.5 -0.5t4.5 1.5q5 0 10 -0.5t7 -2.5q5 -4 6.5 -6.5t2.5 -8.5q1 -3 0 -5 q-2 -3 -1 -3t2 -3z" />
<glyph unicode="&#x2011;" horiz-adv-x="319" d="M275 378q-2 -11 -1 -20.5t0 -20.5q0 -8 -4 -15q-2 -5 -6 -5.5t-9 -2.5q-5 1 -9 2t-9 -1q-3 -1 -8.5 0.5t-8.5 -1.5q-12 3 -24 1.5t-24 -0.5q-5 0 -10 0.5t-10 -0.5t-11 -0.5t-6 5.5q-10 -5 -20.5 -5h-21.5q-9 1 -21 -0.5t-20 2.5q-6 4 -8 14q-2 4 -0.5 7.5t0.5 7.5 q-1 6 -0.5 12t1.5 12q0 5 -1.5 12.5t0.5 11.5q5 8 15 11t22 3t23.5 -1.5t19.5 -1.5q4 0 11 1t10 -1q2 -2 7.5 -0.5t9.5 1.5q5 -1 10.5 -1.5t10.5 1.5t11.5 0.5t11.5 -0.5q5 2 8 1t8 0h8t8 -1q5 -2 5.5 -0.5t4.5 1.5q5 0 10 -0.5t7 -2.5q5 -4 6.5 -6.5t2.5 -8.5q1 -3 0 -5 q-2 -3 -1 -3t2 -3z" />
<glyph unicode="&#x2012;" horiz-adv-x="319" d="M275 378q-2 -11 -1 -20.5t0 -20.5q0 -8 -4 -15q-2 -5 -6 -5.5t-9 -2.5q-5 1 -9 2t-9 -1q-3 -1 -8.5 0.5t-8.5 -1.5q-12 3 -24 1.5t-24 -0.5q-5 0 -10 0.5t-10 -0.5t-11 -0.5t-6 5.5q-10 -5 -20.5 -5h-21.5q-9 1 -21 -0.5t-20 2.5q-6 4 -8 14q-2 4 -0.5 7.5t0.5 7.5 q-1 6 -0.5 12t1.5 12q0 5 -1.5 12.5t0.5 11.5q5 8 15 11t22 3t23.5 -1.5t19.5 -1.5q4 0 11 1t10 -1q2 -2 7.5 -0.5t9.5 1.5q5 -1 10.5 -1.5t10.5 1.5t11.5 0.5t11.5 -0.5q5 2 8 1t8 0h8t8 -1q5 -2 5.5 -0.5t4.5 1.5q5 0 10 -0.5t7 -2.5q5 -4 6.5 -6.5t2.5 -8.5q1 -3 0 -5 q-2 -3 -1 -3t2 -3z" />
<glyph unicode="&#x2013;" horiz-adv-x="586" d="M542 378q-4 -11 -2 -20.5t0 -20.5q0 -8 -9 -15q-4 -5 -12.5 -5.5t-19.5 -2.5q-11 1 -19.5 2t-19.5 -1q-6 -1 -18 0.5t-18 -1.5q-26 3 -52 1.5t-52 -0.5q-11 0 -21.5 0.5t-21.5 -0.5t-24 -0.5t-13 5.5q-21 -5 -43.5 -5h-46.5q-19 1 -45 -0.5t-43 2.5q-13 4 -18 14 q-4 4 -0.5 7.5t0.5 7.5q-2 6 -1 12t4 12q0 5 -3.5 12.5t0.5 11.5q11 8 32.5 11t47.5 3t51 -1.5t42 -1.5q8 0 23.5 1t21.5 -1q4 -2 16 -0.5t21 1.5q10 -1 22 -1.5t23 1.5t25 0.5t24 -0.5q11 2 17.5 1t17.5 0h17t17 -1q11 -2 12 -0.5t10 1.5q11 0 21.5 -0.5t14.5 -2.5 q11 -4 14.5 -6.5t5.5 -8.5q2 -3 0 -5q-4 -3 -2 -3t4 -3z" />
<glyph unicode="&#x2014;" horiz-adv-x="1086" d="M1042 378q-9 -11 -4.5 -20.5t0.5 -20.5q0 -8 -18 -15q-8 -5 -25.5 -5.5t-38.5 -2.5q-22 1 -39 2t-39 -1q-13 -1 -36.5 0.5t-36.5 -1.5q-52 3 -103.5 1.5t-103.5 -0.5q-21 0 -42.5 0.5t-43.5 -0.5q-21 -1 -47 -0.5t-26 5.5q-43 -5 -88.5 -5h-92.5q-39 1 -90.5 -0.5 t-86.5 2.5q-25 4 -34 14q-9 4 -2.5 7.5t2.5 7.5q-4 6 -2 12t6 12q0 5 -6.5 12.5t2.5 11.5q21 8 64.5 11t95 3t101 -1.5t84.5 -1.5q17 0 47 1t43 -1q9 -2 32.5 -0.5t40.5 1.5q22 -1 45.5 -1.5t45.5 1.5q21 2 49 0.5t50 -0.5q21 2 34 1t35 0h34t35 -1q21 -2 23 -0.5t20 1.5 q21 0 42.5 -0.5t30.5 -2.5q21 -4 27.5 -6.5t11.5 -8.5q4 -3 0 -5q-9 -3 -4.5 -3t8.5 -3z" />
<glyph unicode="&#x202f;" horiz-adv-x="186" />
<glyph unicode="&#x205f;" horiz-adv-x="233" />
<glyph unicode="&#xe000;" horiz-adv-x="725" d="M0 725h725v-725h-725v725z" />
</font>
</defs>
</svg>
