<?xml version="1.0" encoding="utf-8"?>
<!-- Generator: Adobe Illustrator 19.2.1, SVG Export Plug-In . SVG Version: 6.00 Build 0)  -->
<svg version="1.1" id="Layer_1" xmlns="http://www.w3.org/2000/svg" xmlns:xlink="http://www.w3.org/1999/xlink" x="0px" y="0px"
	 viewBox="0 0 285.2 355.5" style="enable-background:new 0 0 285.2 355.5;" xml:space="preserve">
<style type="text/css">
	.st0{display:none;}
	.st1{display:inline;}
	.st2{fill:#FFFFFF;}
</style>
<g class="st0">
	<g class="st1">
		<g class="st0">
			<line class="st1" x1="86.1" y1="73.3" x2="198.3" y2="344.2"/>
			<line class="st1" x1="87.9" y1="344.2" x2="200.4" y2="73.5"/>
			<line class="st1" x1="271" y1="158.4" x2="10.5" y2="266.3"/>
			<line class="st1" x1="15.2" y1="158.4" x2="275.7" y2="266.3"/>
		</g>
		<path d="M143-2.6C138.5,12-1.1,134.3-0.2,219.4c0,79.1,64.1,135.8,143.2,135.9v0c0,0,0,0,0.1,0s0,0,0.1,0v0
			c79.1-0.1,143.2-56.7,143.2-135.9c1-85.1-138.7-207.4-143.2-222"/>
	</g>
	<g>
		<circle class="st1" cx="75.4" cy="186.9" r="49.4"/>
		<circle class="st1" cx="210.6" cy="186.9" r="49.4"/>
		<line class="st1" x1="124.7" y1="186.9" x2="161.2" y2="186.9"/>
	</g>
</g>
<g>
	<path class="st2" d="M276,269.8c5.9-15.1,9.2-31.7,9.2-49.4c0.2-17.8-5.8-37.2-15.4-56.9l-50,50L276,269.8z"/>
	<path class="st2" d="M212.3,206l52.4-52.1C226.1,82.8,146.1,10.6,142.7,0h-0.1c-2,6.3-32,35.2-63.9,72.7L212.3,206z"/>
	<path class="st2" d="M204.8,213.5l-133-133C35.7,123.9-0.5,177,0,220.4c0,55.1,31.3,99.3,77.1,120.9L204.8,213.5z"/>
	<path class="st2" d="M212.3,221L88.1,345.7c16.9,6.4,33.5,9.8,55.5,9.8V355c0,0-1.1,0-1.1,0c0,0,1.1,0,1.1,0v0.5
		c57,0,105.4-29.4,128.3-75.4L212.3,221z"/>
</g>
</svg>
